<svg viewBox="0 0 82 82" fill="none" xmlns="http://www.w3.org/2000/svg">
<rect width="82" height="82" rx="16" fill="#FFC300"/>
<path d="M17 41.0028C17.0258 27.7395 27.7605 16.9886 40.9664 17C54.2567 17.0114 65.0143 27.7766 65 41.0528C64.9871 54.3547 54.1909 65.0214 40.7618 65C27.7319 64.9771 16.9757 54.1162 17 41.0028ZM57.2716 35.8552C55.7763 30.2376 49.8409 23.8773 41.0279 23.8602C32.3509 23.8416 26.2681 30.0791 24.7284 35.8566C25.9318 35.8566 27.1252 35.8581 28.3171 35.8566C28.9596 35.8566 29.6965 36.0409 30.2174 35.7866C30.7354 35.5324 31.0359 34.834 31.4322 34.3298C31.498 34.2455 31.561 34.1584 31.6297 34.0755C32.5068 33.0014 33.6415 32.4372 35.0267 32.433C39.0089 32.423 42.9911 32.4215 46.9734 32.433C48.3799 32.4372 49.5304 33.0128 50.4033 34.1169C50.7796 34.5926 51.1259 35.0925 51.5051 35.5667C51.6052 35.6924 51.7755 35.8423 51.9143 35.8438C53.6958 35.8623 55.4787 35.8566 57.2716 35.8566V35.8552ZM57.7181 44.4722C50.5521 44.5751 44.9715 50.9682 45.3407 57.5399C51.5437 56.1073 56.6864 50.5283 57.7181 44.4722ZM24.292 44.4922C24.5238 49.6641 31.6941 57.1985 36.6851 57.5142C36.9098 50.1226 30.618 44.4279 24.292 44.4922ZM35.858 42.6983C35.8523 45.532 38.1647 47.8573 40.985 47.8545C43.8225 47.8516 46.1263 45.5592 46.1406 42.724C46.1549 39.9002 43.8382 37.5706 41.0107 37.5706C38.1704 37.5706 35.8623 39.8659 35.8566 42.6997L35.858 42.6983Z" fill="white"/>
<path d="M40.9764 39.286C42.8738 39.276 44.4235 40.81 44.4278 42.7025C44.4321 44.5965 42.891 46.1419 40.9979 46.1405C39.1277 46.1405 37.5894 44.6165 37.5737 42.7511C37.558 40.8529 39.0862 39.2974 40.9764 39.2874V39.286Z" fill="white"/>
</svg>
