<svg width="197" height="135" viewBox="0 0 197 135" fill="none" xmlns="http://www.w3.org/2000/svg">
<path d="M14.3096 73.2381C22.7449 87.441 51.2179 106.277 97.6273 68.0002C112.484 51.5901 150.28 27.5475 182.608 62.6577" stroke="#070707" stroke-width="2" stroke-dasharray="10 10"/>
<foreignObject x="-3.48151" y="55.4062" width="34.9873" height="34.9873"><div xmlns="http://www.w3.org/1999/xhtml" style="backdrop-filter:blur(4px);clip-path:url(#bgblur_0_1947_420_clip_path);height:100%;width:100%"></div></foreignObject><circle data-figma-bg-blur-radius="8" cx="14.012" cy="72.8997" r="8.99119" transform="rotate(15 14.012 72.8997)" fill="white" fill-opacity="0.2" stroke="#070707"/>
<foreignObject x="164.561" y="44.8662" width="34.9492" height="34.9492"><div xmlns="http://www.w3.org/1999/xhtml" style="backdrop-filter:blur(4px);clip-path:url(#bgblur_1_1947_420_clip_path);height:100%;width:100%"></div></foreignObject><circle data-figma-bg-blur-radius="8" cx="182.037" cy="62.3411" r="8.97205" transform="rotate(15 182.037 62.3411)" fill="white" fill-opacity="0.2" stroke="#070707"/>
<circle cx="14.0119" cy="72.6904" r="2.99722" transform="rotate(15 14.0119 72.6904)" fill="#BDFF60"/>
<circle cx="181.878" cy="62.5306" r="2.99117" transform="rotate(15 181.878 62.5306)" fill="#27ABB3"/>
<defs>
<clipPath id="bgblur_0_1947_420_clip_path" transform="translate(3.48151 -55.4062)"><circle cx="14.012" cy="72.8997" r="8.99119" transform="rotate(15 14.012 72.8997)"/>
</clipPath><clipPath id="bgblur_1_1947_420_clip_path" transform="translate(-164.561 -44.8662)"><circle cx="182.037" cy="62.3411" r="8.97205" transform="rotate(15 182.037 62.3411)"/>
</clipPath></defs>
</svg>
