<svg width="343" height="320" viewBox="0 0 343 320" fill="none" xmlns="http://www.w3.org/2000/svg">
<mask id="path-1-inside-1_516_44" fill="white">
<path d="M291 0C319.719 9.2683e-06 343 23.2812 343 52V268C343 296.719 319.719 320 291 320H52C23.2812 320 4.73313e-05 296.719 0 268V52C1.29358e-06 23.2812 23.2812 0 52 0H119.162C130.118 0 139 8.88195 139 19.8384C139 30.7948 147.882 39.6768 158.838 39.6768H184.162C195.118 39.6768 204 30.7948 204 19.8384C204 8.88195 212.882 0 223.838 0H291ZM291.646 317.996L292.28 317.984C292.321 317.983 292.362 317.982 292.402 317.98C292.151 317.987 291.899 317.993 291.646 317.996ZM292.562 317.975C292.758 317.969 292.955 317.962 293.151 317.953C292.955 317.961 292.758 317.969 292.562 317.975ZM293.338 317.945C293.534 317.936 293.73 317.925 293.926 317.914C293.73 317.925 293.534 317.936 293.338 317.945ZM294.113 317.903C294.356 317.888 294.599 317.873 294.841 317.854C294.599 317.873 294.356 317.888 294.113 317.903ZM340.904 271.091C340.91 271.002 340.915 270.913 340.92 270.824C340.915 270.913 340.91 271.002 340.904 271.091ZM340.944 270.34C340.949 270.23 340.955 270.12 340.959 270.01C340.955 270.12 340.949 270.23 340.944 270.34ZM340.971 269.679C340.974 269.566 340.978 269.454 340.981 269.342C340.978 269.454 340.974 269.566 340.971 269.679ZM341 52L340.996 51.3584C340.995 51.2587 340.991 51.1591 340.989 51.0596C340.995 51.3724 341 51.6858 341 52ZM340.983 50.8125C340.977 50.5379 340.969 50.2638 340.958 49.9902C340.969 50.2638 340.977 50.5379 340.983 50.8125ZM340.95 49.7998C340.938 49.5281 340.924 49.2569 340.907 48.9863C340.923 49.2569 340.938 49.5281 340.95 49.7998ZM340.896 48.7979C340.875 48.465 340.852 48.1329 340.824 47.8018C340.852 48.1329 340.875 48.4649 340.896 48.7979ZM50.7139 2.01562C50.5558 2.01962 50.3979 2.02482 50.2402 2.03027C50.6103 2.01747 50.9814 2.00862 51.3535 2.00391L50.7139 2.01562Z"/>
</mask>
<path d="M291 0C319.719 9.2683e-06 343 23.2812 343 52V268C343 296.719 319.719 320 291 320H52C23.2812 320 4.73313e-05 296.719 0 268V52C1.29358e-06 23.2812 23.2812 0 52 0H119.162C130.118 0 139 8.88195 139 19.8384C139 30.7948 147.882 39.6768 158.838 39.6768H184.162C195.118 39.6768 204 30.7948 204 19.8384C204 8.88195 212.882 0 223.838 0H291ZM291.646 317.996L292.28 317.984C292.321 317.983 292.362 317.982 292.402 317.98C292.151 317.987 291.899 317.993 291.646 317.996ZM292.562 317.975C292.758 317.969 292.955 317.962 293.151 317.953C292.955 317.961 292.758 317.969 292.562 317.975ZM293.338 317.945C293.534 317.936 293.73 317.925 293.926 317.914C293.73 317.925 293.534 317.936 293.338 317.945ZM294.113 317.903C294.356 317.888 294.599 317.873 294.841 317.854C294.599 317.873 294.356 317.888 294.113 317.903ZM340.904 271.091C340.91 271.002 340.915 270.913 340.92 270.824C340.915 270.913 340.91 271.002 340.904 271.091ZM340.944 270.34C340.949 270.23 340.955 270.12 340.959 270.01C340.955 270.12 340.949 270.23 340.944 270.34ZM340.971 269.679C340.974 269.566 340.978 269.454 340.981 269.342C340.978 269.454 340.974 269.566 340.971 269.679ZM341 52L340.996 51.3584C340.995 51.2587 340.991 51.1591 340.989 51.0596C340.995 51.3724 341 51.6858 341 52ZM340.983 50.8125C340.977 50.5379 340.969 50.2638 340.958 49.9902C340.969 50.2638 340.977 50.5379 340.983 50.8125ZM340.95 49.7998C340.938 49.5281 340.924 49.2569 340.907 48.9863C340.923 49.2569 340.938 49.5281 340.95 49.7998ZM340.896 48.7979C340.875 48.465 340.852 48.1329 340.824 47.8018C340.852 48.1329 340.875 48.4649 340.896 48.7979ZM50.7139 2.01562C50.5558 2.01962 50.3979 2.02482 50.2402 2.03027C50.6103 2.01747 50.9814 2.00862 51.3535 2.00391L50.7139 2.01562Z" fill="#070707"/>
<path d="M291 0C319.719 9.2683e-06 343 23.2812 343 52V268C343 296.719 319.719 320 291 320H52C23.2812 320 4.73313e-05 296.719 0 268V52C1.29358e-06 23.2812 23.2812 0 52 0H119.162C130.118 0 139 8.88195 139 19.8384C139 30.7948 147.882 39.6768 158.838 39.6768H184.162C195.118 39.6768 204 30.7948 204 19.8384C204 8.88195 212.882 0 223.838 0H291ZM291.646 317.996L292.28 317.984C292.321 317.983 292.362 317.982 292.402 317.98C292.151 317.987 291.899 317.993 291.646 317.996ZM292.562 317.975C292.758 317.969 292.955 317.962 293.151 317.953C292.955 317.961 292.758 317.969 292.562 317.975ZM293.338 317.945C293.534 317.936 293.73 317.925 293.926 317.914C293.73 317.925 293.534 317.936 293.338 317.945ZM294.113 317.903C294.356 317.888 294.599 317.873 294.841 317.854C294.599 317.873 294.356 317.888 294.113 317.903ZM340.904 271.091C340.91 271.002 340.915 270.913 340.92 270.824C340.915 270.913 340.91 271.002 340.904 271.091ZM340.944 270.34C340.949 270.23 340.955 270.12 340.959 270.01C340.955 270.12 340.949 270.23 340.944 270.34ZM340.971 269.679C340.974 269.566 340.978 269.454 340.981 269.342C340.978 269.454 340.974 269.566 340.971 269.679ZM341 52L340.996 51.3584C340.995 51.2587 340.991 51.1591 340.989 51.0596C340.995 51.3724 341 51.6858 341 52ZM340.983 50.8125C340.977 50.5379 340.969 50.2638 340.958 49.9902C340.969 50.2638 340.977 50.5379 340.983 50.8125ZM340.95 49.7998C340.938 49.5281 340.924 49.2569 340.907 48.9863C340.923 49.2569 340.938 49.5281 340.95 49.7998ZM340.896 48.7979C340.875 48.465 340.852 48.1329 340.824 47.8018C340.852 48.1329 340.875 48.4649 340.896 48.7979ZM50.7139 2.01562C50.5558 2.01962 50.3979 2.02482 50.2402 2.03027C50.6103 2.01747 50.9814 2.00862 51.3535 2.00391L50.7139 2.01562Z" fill="url(#paint0_linear_516_44)"/>
<path d="M291 0L291 -1H291V0ZM343 268L344 268V268H343ZM291 320L291 321H291L291 320ZM52 320L52 321H52V320ZM0 268L-1 268L-1 268L0 268ZM0 52L-1 52V52H0ZM291.646 317.996L291.628 316.996L291.659 318.996L291.646 317.996ZM292.28 317.984L292.299 318.984L292.305 318.984L292.28 317.984ZM292.402 317.98L292.43 318.98L292.375 316.981L292.402 317.98ZM293.151 317.953L293.194 318.952L293.109 316.954L293.151 317.953ZM293.338 317.945L293.292 316.946L293.384 318.944L293.338 317.945ZM293.926 317.914L293.984 318.912L293.868 316.916L293.926 317.914ZM294.113 317.903L294.052 316.905L294.175 318.901L294.113 317.903ZM340.904 271.091L339.906 271.03L341.902 271.152L340.904 271.091ZM340.92 270.824L341.918 270.88L339.921 270.768L340.92 270.824ZM340.944 270.34L339.945 270.294L341.943 270.386L340.944 270.34ZM340.959 270.01L341.958 270.049L339.96 269.97L340.959 270.01ZM340.971 269.679L339.971 269.646L341.97 269.712L340.971 269.679ZM340.981 269.342L341.981 269.368L339.982 269.315L340.981 269.342ZM341 52L340 52.0061L342 52H341ZM340.996 51.3584L341.996 51.3523L341.996 51.3458L340.996 51.3584ZM340.989 51.0596L341.989 51.0406L339.989 51.0783L340.989 51.0596ZM340.983 50.8125L339.984 50.8364L341.983 50.7887L340.983 50.8125ZM340.958 49.9902L341.957 49.9499L339.959 50.0305L340.958 49.9902ZM340.95 49.7998L339.951 49.844L341.949 49.7558L340.95 49.7998ZM340.907 48.9863L341.905 48.9262L339.909 49.0463L340.907 48.9863ZM340.896 48.7979L339.899 48.8617L341.894 48.7342L340.896 48.7979ZM50.7139 2.01562L50.6955 1.01577L50.6886 1.01594L50.7139 2.01562ZM51.3535 2.00391L51.3718 3.00374L51.3408 1.00399L51.3535 2.00391ZM291 0L291 1C319.167 1.00001 342 23.8335 342 52H343H344C344 22.7289 320.271 -0.999991 291 -1L291 0ZM343 52H342V268H343H344V52H343ZM343 268L342 268C342 296.166 319.166 319 291 319L291 320L291 321C320.271 321 344 297.271 344 268L343 268ZM291 320V319H52V320V321H291V320ZM52 320L52 319C23.8335 319 1.00005 296.166 1 268L0 268L-1 268C-0.999952 297.271 22.7289 321 52 321L52 320ZM0 268H1V52H0H-1V268H0ZM0 52L1 52C1 23.8335 23.8335 1 52 1V0V-1C22.7289 -1 -0.999999 22.7289 -1 52L0 52ZM52 0V1H119.162V0V-1H52V0ZM158.838 39.6768V40.6768H184.162V39.6768V38.6768H158.838V39.6768ZM223.838 0V1H291V0V-1H223.838V0ZM291.646 317.996L291.665 318.996L292.299 318.984L292.28 317.984L292.262 316.985L291.628 316.996L291.646 317.996ZM292.28 317.984L292.305 318.984C292.331 318.983 292.356 318.983 292.376 318.982C292.398 318.981 292.414 318.981 292.43 318.98L292.402 317.98L292.375 316.981C292.285 316.983 292.322 316.983 292.255 316.985L292.28 317.984ZM292.402 317.98L292.375 316.981C292.127 316.988 291.88 316.993 291.634 316.996L291.646 317.996L291.659 318.996C291.918 318.993 292.175 318.987 292.43 318.98L292.402 317.98ZM292.562 317.975L292.592 318.974C292.793 318.968 292.993 318.961 293.194 318.952L293.151 317.953L293.109 316.954C292.917 316.962 292.724 316.969 292.531 316.975L292.562 317.975ZM293.151 317.953L293.109 316.954C292.917 316.962 292.724 316.969 292.531 316.975L292.562 317.975L292.592 318.974C292.793 318.968 292.993 318.961 293.194 318.952L293.151 317.953ZM293.338 317.945L293.384 318.944C293.586 318.935 293.786 318.924 293.984 318.912L293.926 317.914L293.868 316.916C293.674 316.927 293.482 316.938 293.292 316.946L293.338 317.945ZM293.926 317.914L293.868 316.916C293.674 316.927 293.482 316.938 293.292 316.946L293.338 317.945L293.384 318.944C293.586 318.935 293.787 318.924 293.984 318.912L293.926 317.914ZM294.113 317.903L294.175 318.901C294.419 318.886 294.667 318.871 294.917 318.852L294.841 317.854L294.765 316.857C294.531 316.875 294.294 316.89 294.052 316.905L294.113 317.903ZM294.841 317.854L294.765 316.857C294.531 316.875 294.294 316.89 294.052 316.905L294.113 317.903L294.175 318.901C294.419 318.886 294.667 318.871 294.917 318.852L294.841 317.854ZM340.904 271.091L341.902 271.152C341.908 271.061 341.913 270.971 341.918 270.88L340.92 270.824L339.921 270.768C339.917 270.856 339.911 270.943 339.906 271.03L340.904 271.091ZM340.92 270.824L339.921 270.768C339.917 270.855 339.911 270.943 339.906 271.03L340.904 271.091L341.902 271.152C341.908 271.061 341.913 270.971 341.918 270.88L340.92 270.824ZM340.944 270.34L341.943 270.386C341.948 270.277 341.954 270.164 341.958 270.05L340.959 270.01L339.96 269.97C339.956 270.076 339.951 270.183 339.945 270.293L340.944 270.34ZM340.959 270.01L339.96 269.97C339.956 270.076 339.951 270.182 339.945 270.294L340.944 270.34L341.943 270.386C341.948 270.277 341.954 270.164 341.958 270.049L340.959 270.01ZM340.971 269.679L341.97 269.712C341.974 269.603 341.978 269.485 341.981 269.368L340.981 269.342L339.982 269.315C339.979 269.423 339.975 269.53 339.971 269.645L340.971 269.679ZM340.981 269.342L339.982 269.315C339.979 269.423 339.975 269.529 339.971 269.646L340.971 269.679L341.97 269.712C341.974 269.604 341.978 269.485 341.981 269.368L340.981 269.342ZM341 52L342 51.9939L341.996 51.3523L340.996 51.3584L339.996 51.3645L340 52.0061L341 52ZM340.996 51.3584L341.996 51.3458C341.995 51.2551 341.99 51.1025 341.989 51.0409L340.989 51.0596L339.989 51.0783C339.992 51.2157 339.995 51.2623 339.996 51.371L340.996 51.3584ZM340.989 51.0596L339.989 51.0785C339.995 51.3895 340 51.6954 340 52H341H342C342 51.6762 341.995 51.3552 341.989 51.0406L340.989 51.0596ZM340.983 50.8125L341.983 50.7887C341.977 50.5112 341.969 50.2311 341.957 49.9499L340.958 49.9902L339.959 50.0306C339.97 50.2965 339.977 50.5645 339.984 50.8363L340.983 50.8125ZM340.958 49.9902L339.959 50.0305C339.97 50.2964 339.977 50.5646 339.984 50.8364L340.983 50.8125L341.983 50.7886C341.976 50.5112 341.969 50.2311 341.957 49.95L340.958 49.9902ZM340.95 49.7998L341.949 49.7557C341.937 49.4774 341.922 49.2008 341.905 48.9262L340.907 48.9863L339.909 49.0465C339.925 49.313 339.939 49.5787 339.951 49.844L340.95 49.7998ZM340.907 48.9863L339.909 49.0463C339.925 49.3133 339.939 49.5788 339.951 49.8438L340.95 49.7998L341.949 49.7558C341.937 49.4773 341.922 49.2006 341.905 48.9264L340.907 48.9863ZM340.896 48.7979L341.894 48.734C341.873 48.3969 341.849 48.0582 341.821 47.7189L340.824 47.8018L339.828 47.8846C339.855 48.2076 339.878 48.533 339.899 48.8617L340.896 48.7979ZM340.824 47.8018L339.828 47.8846C339.855 48.2077 339.878 48.5331 339.899 48.8615L340.896 48.7979L341.894 48.7342C341.873 48.3968 341.849 48.058 341.821 47.7189L340.824 47.8018ZM50.7139 2.01562L50.6886 1.01594C50.5258 1.02006 50.3641 1.02539 50.2057 1.03087L50.2402 2.03027L50.2748 3.02968C50.4317 3.02425 50.5858 3.01918 50.7391 3.01531L50.7139 2.01562ZM50.2402 2.03027L50.2748 3.02968C50.6377 3.01712 51.0015 3.00845 51.3662 3.00383L51.3535 2.00391L51.3408 1.00399C50.9613 1.0088 50.5829 1.01782 50.2057 1.03087L50.2402 2.03027ZM51.3535 2.00391L51.3352 1.00407L50.6955 1.01579L50.7139 2.01562L50.7322 3.01546L51.3718 3.00374L51.3535 2.00391ZM204 19.8384H205C205 9.43423 213.434 1 223.838 1V0V-1C212.33 -1 203 8.32966 203 19.8384H204ZM184.162 39.6768V40.6768C195.67 40.6768 205 31.3471 205 19.8384H204H203C203 30.2425 194.566 38.6768 184.162 38.6768V39.6768ZM139 19.8384H138C138 31.3471 147.33 40.6768 158.838 40.6768V39.6768V38.6768C148.434 38.6768 140 30.2425 140 19.8384H139ZM119.162 0V1C129.566 1 138 9.43423 138 19.8384H139H140C140 8.32966 130.67 -1 119.162 -1V0Z" fill="white" fill-opacity="0.8" mask="url(#path-1-inside-1_516_44)"/>
<defs>
<linearGradient id="paint0_linear_516_44" x1="1.58011e-05" y1="10.3784" x2="329.408" y2="724.7" gradientUnits="userSpaceOnUse">
<stop stop-color="#070707"/>
<stop offset="0.491093" stop-color="#212121"/>
<stop offset="1" stop-color="#070707"/>
</linearGradient>
</defs>
</svg>
