<svg width="1207" height="321" viewBox="0 0 1207 321" fill="none" xmlns="http://www.w3.org/2000/svg">
<mask id="path-1-inside-1_516_44" fill="white">
<path d="M83 20.2681C83 31.2245 91.8819 40.1064 102.838 40.1064H128.162C139.118 40.1064 148 31.2245 148 20.2681C148 9.31163 156.882 0.429688 167.838 0.429688H258.162C269.118 0.429688 278 9.31163 278 20.2681C278 31.2245 286.882 40.1064 297.838 40.1064H323.162C334.118 40.1064 343 31.2245 343 20.2681C343 9.31163 351.882 0.429688 362.838 0.429688H453.162C464.118 0.429688 473 9.31163 473 20.2681C473 31.2245 481.882 40.1064 492.838 40.1064H518.162C529.118 40.1064 538 31.2245 538 20.2681C538 9.31163 546.882 0.429688 557.838 0.429688H648.162C659.118 0.429688 668 9.31163 668 20.2681C668 31.2245 676.882 40.1064 687.838 40.1064H713.162C724.118 40.1064 733 31.2245 733 20.2681C733 9.31163 741.882 0.429688 752.838 0.429688H843.162C854.118 0.429688 863 9.31163 863 20.2681C863 31.2245 871.882 40.1064 882.838 40.1064H908.162C919.118 40.1064 928 31.2245 928 20.2681C928 9.31163 936.882 0.429688 947.838 0.429688H1038.16C1049.12 0.429688 1058 9.31163 1058 20.2681C1058 31.2245 1066.88 40.1064 1077.84 40.1064H1103.16C1114.12 40.1064 1123 31.2245 1123 20.2681C1123 9.31163 1131.88 0.429688 1142.84 0.429688H1155C1183.72 0.429688 1207 23.7109 1207 52.4297V268.43C1207 297.148 1183.72 320.43 1155 320.43H52C23.2813 320.43 0.000138524 297.148 0 268.43V52.4297C0 23.7109 23.2812 0.429688 52 0.429688H63.1616C74.1181 0.429688 83 9.31163 83 20.2681ZM1157.21 318.38C1157.31 318.376 1157.41 318.372 1157.5 318.367C1157.41 318.372 1157.31 318.376 1157.21 318.38ZM1158.38 318.315C1158.46 318.31 1158.54 318.305 1158.62 318.299C1158.54 318.305 1158.46 318.31 1158.38 318.315ZM1159.54 318.225C1159.59 318.22 1159.65 318.214 1159.7 318.209C1159.65 318.214 1159.59 318.22 1159.54 318.225ZM1204.9 271.521C1204.91 271.432 1204.91 271.343 1204.92 271.254C1204.91 271.343 1204.91 271.432 1204.9 271.521ZM1204.94 270.77C1204.95 270.66 1204.95 270.55 1204.96 270.439C1204.95 270.55 1204.95 270.66 1204.94 270.77ZM1204.97 270.108C1204.97 269.996 1204.98 269.884 1204.98 269.771C1204.98 269.884 1204.97 269.996 1204.97 270.108ZM50.7139 2.44531C50.5558 2.4493 50.3979 2.45451 50.2402 2.45996C50.6103 2.44716 50.9814 2.43831 51.3535 2.43359L50.7139 2.44531Z"/>
</mask>
<path d="M83 20.2681C83 31.2245 91.8819 40.1064 102.838 40.1064H128.162C139.118 40.1064 148 31.2245 148 20.2681C148 9.31163 156.882 0.429688 167.838 0.429688H258.162C269.118 0.429688 278 9.31163 278 20.2681C278 31.2245 286.882 40.1064 297.838 40.1064H323.162C334.118 40.1064 343 31.2245 343 20.2681C343 9.31163 351.882 0.429688 362.838 0.429688H453.162C464.118 0.429688 473 9.31163 473 20.2681C473 31.2245 481.882 40.1064 492.838 40.1064H518.162C529.118 40.1064 538 31.2245 538 20.2681C538 9.31163 546.882 0.429688 557.838 0.429688H648.162C659.118 0.429688 668 9.31163 668 20.2681C668 31.2245 676.882 40.1064 687.838 40.1064H713.162C724.118 40.1064 733 31.2245 733 20.2681C733 9.31163 741.882 0.429688 752.838 0.429688H843.162C854.118 0.429688 863 9.31163 863 20.2681C863 31.2245 871.882 40.1064 882.838 40.1064H908.162C919.118 40.1064 928 31.2245 928 20.2681C928 9.31163 936.882 0.429688 947.838 0.429688H1038.16C1049.12 0.429688 1058 9.31163 1058 20.2681C1058 31.2245 1066.88 40.1064 1077.84 40.1064H1103.16C1114.12 40.1064 1123 31.2245 1123 20.2681C1123 9.31163 1131.88 0.429688 1142.84 0.429688H1155C1183.72 0.429688 1207 23.7109 1207 52.4297V268.43C1207 297.148 1183.72 320.43 1155 320.43H52C23.2813 320.43 0.000138524 297.148 0 268.43V52.4297C0 23.7109 23.2812 0.429688 52 0.429688H63.1616C74.1181 0.429688 83 9.31163 83 20.2681ZM1157.21 318.38C1157.31 318.376 1157.41 318.372 1157.5 318.367C1157.41 318.372 1157.31 318.376 1157.21 318.38ZM1158.38 318.315C1158.46 318.31 1158.54 318.305 1158.62 318.299C1158.54 318.305 1158.46 318.31 1158.38 318.315ZM1159.54 318.225C1159.59 318.22 1159.65 318.214 1159.7 318.209C1159.65 318.214 1159.59 318.22 1159.54 318.225ZM1204.9 271.521C1204.91 271.432 1204.91 271.343 1204.92 271.254C1204.91 271.343 1204.91 271.432 1204.9 271.521ZM1204.94 270.77C1204.95 270.66 1204.95 270.55 1204.96 270.439C1204.95 270.55 1204.95 270.66 1204.94 270.77ZM1204.97 270.108C1204.97 269.996 1204.98 269.884 1204.98 269.771C1204.98 269.884 1204.97 269.996 1204.97 270.108ZM50.7139 2.44531C50.5558 2.4493 50.3979 2.45451 50.2402 2.45996C50.6103 2.44716 50.9814 2.43831 51.3535 2.43359L50.7139 2.44531Z" fill="#070707"/>
<path d="M83 20.2681C83 31.2245 91.8819 40.1064 102.838 40.1064H128.162C139.118 40.1064 148 31.2245 148 20.2681C148 9.31163 156.882 0.429688 167.838 0.429688H258.162C269.118 0.429688 278 9.31163 278 20.2681C278 31.2245 286.882 40.1064 297.838 40.1064H323.162C334.118 40.1064 343 31.2245 343 20.2681C343 9.31163 351.882 0.429688 362.838 0.429688H453.162C464.118 0.429688 473 9.31163 473 20.2681C473 31.2245 481.882 40.1064 492.838 40.1064H518.162C529.118 40.1064 538 31.2245 538 20.2681C538 9.31163 546.882 0.429688 557.838 0.429688H648.162C659.118 0.429688 668 9.31163 668 20.2681C668 31.2245 676.882 40.1064 687.838 40.1064H713.162C724.118 40.1064 733 31.2245 733 20.2681C733 9.31163 741.882 0.429688 752.838 0.429688H843.162C854.118 0.429688 863 9.31163 863 20.2681C863 31.2245 871.882 40.1064 882.838 40.1064H908.162C919.118 40.1064 928 31.2245 928 20.2681C928 9.31163 936.882 0.429688 947.838 0.429688H1038.16C1049.12 0.429688 1058 9.31163 1058 20.2681C1058 31.2245 1066.88 40.1064 1077.84 40.1064H1103.16C1114.12 40.1064 1123 31.2245 1123 20.2681C1123 9.31163 1131.88 0.429688 1142.84 0.429688H1155C1183.72 0.429688 1207 23.7109 1207 52.4297V268.43C1207 297.148 1183.72 320.43 1155 320.43H52C23.2813 320.43 0.000138524 297.148 0 268.43V52.4297C0 23.7109 23.2812 0.429688 52 0.429688H63.1616C74.1181 0.429688 83 9.31163 83 20.2681ZM1157.21 318.38C1157.31 318.376 1157.41 318.372 1157.5 318.367C1157.41 318.372 1157.31 318.376 1157.21 318.38ZM1158.38 318.315C1158.46 318.31 1158.54 318.305 1158.62 318.299C1158.54 318.305 1158.46 318.31 1158.38 318.315ZM1159.54 318.225C1159.59 318.22 1159.65 318.214 1159.7 318.209C1159.65 318.214 1159.59 318.22 1159.54 318.225ZM1204.9 271.521C1204.91 271.432 1204.91 271.343 1204.92 271.254C1204.91 271.343 1204.91 271.432 1204.9 271.521ZM1204.94 270.77C1204.95 270.66 1204.95 270.55 1204.96 270.439C1204.95 270.55 1204.95 270.66 1204.94 270.77ZM1204.97 270.108C1204.97 269.996 1204.98 269.884 1204.98 269.771C1204.98 269.884 1204.97 269.996 1204.97 270.108ZM50.7139 2.44531C50.5558 2.4493 50.3979 2.45451 50.2402 2.45996C50.6103 2.44716 50.9814 2.43831 51.3535 2.43359L50.7139 2.44531Z" fill="url(#paint0_linear_516_44)"/>
<path d="M1207 268.43L1208 268.43V268.43H1207ZM0 268.43L-1 268.43L-1 268.43L0 268.43ZM1157.21 318.38L1157.17 317.381L1157.26 319.379L1157.21 318.38ZM1157.5 318.367L1157.55 319.366L1157.45 317.368L1157.5 318.367ZM1158.38 318.315L1158.31 317.318L1158.44 319.313L1158.38 318.315ZM1158.62 318.299L1158.69 319.296L1158.55 317.301L1158.62 318.299ZM1159.54 318.225L1159.45 317.229L1159.63 319.221L1159.54 318.225ZM1159.7 318.209L1159.79 319.205L1159.61 317.213L1159.7 318.209ZM1204.9 271.521L1203.91 271.459L1205.9 271.582L1204.9 271.521ZM1204.92 271.254L1205.92 271.31L1203.92 271.198L1204.92 271.254ZM1204.94 270.77L1203.95 270.723L1205.94 270.816L1204.94 270.77ZM1204.96 270.439L1205.96 270.479L1203.96 270.4L1204.96 270.439ZM1204.97 270.108L1203.97 270.075L1205.97 270.142L1204.97 270.108ZM1204.98 269.771L1205.98 269.798L1203.98 269.745L1204.98 269.771ZM50.7139 2.44531L50.6955 1.44546L50.6886 1.44563L50.7139 2.44531ZM51.3535 2.43359L51.3718 3.43343L51.3408 1.43367L51.3535 2.43359ZM102.838 40.1064V41.1064H128.162V40.1064V39.1064H102.838V40.1064ZM167.838 0.429688V1.42969H258.162V0.429688V-0.570312H167.838V0.429688ZM297.838 40.1064V41.1064H323.162V40.1064V39.1064H297.838V40.1064ZM362.838 0.429688V1.42969H453.162V0.429688V-0.570312H362.838V0.429688ZM492.838 40.1064V41.1064H518.162V40.1064V39.1064H492.838V40.1064ZM557.838 0.429688V1.42969H648.162V0.429688V-0.570312H557.838V0.429688ZM687.838 40.1064V41.1064H713.162V40.1064V39.1064H687.838V40.1064ZM752.838 0.429688V1.42969H843.162V0.429688V-0.570312H752.838V0.429688ZM882.838 40.1064V41.1064H908.162V40.1064V39.1064H882.838V40.1064ZM947.838 0.429688V1.42969H1038.16V0.429688V-0.570312H947.838V0.429688ZM1077.84 40.1064V41.1064H1103.16V40.1064V39.1064H1077.84V40.1064ZM1142.84 0.429688V1.42969H1155V0.429688V-0.570312H1142.84V0.429688ZM1155 0.429688V1.42969C1183.17 1.42969 1206 24.2632 1206 52.4297H1207H1208C1208 23.1586 1184.27 -0.570312 1155 -0.570312V0.429688ZM1207 52.4297H1206V268.43H1207H1208V52.4297H1207ZM1207 268.43L1206 268.43C1206 296.596 1183.17 319.43 1155 319.43V320.43V321.43C1184.27 321.43 1208 297.701 1208 268.43L1207 268.43ZM1155 320.43V319.43H52V320.43V321.43H1155V320.43ZM52 320.43V319.43C23.8336 319.43 1.00014 296.596 1 268.43L0 268.43L-1 268.43C-0.999859 297.701 22.729 321.43 52 321.43V320.43ZM0 268.43H1V52.4297H0H-1V268.43H0ZM0 52.4297H1C1 24.2632 23.8335 1.42969 52 1.42969V0.429688V-0.570312C22.7289 -0.570312 -1 23.1586 -1 52.4297H0ZM52 0.429688V1.42969H63.1616V0.429688V-0.570312H52V0.429688ZM1157.21 318.38L1157.26 319.379C1157.35 319.375 1157.45 319.371 1157.55 319.366L1157.5 318.367L1157.45 317.368C1157.36 317.373 1157.27 317.376 1157.17 317.381L1157.21 318.38ZM1157.5 318.367L1157.45 317.368C1157.36 317.373 1157.27 317.376 1157.17 317.381L1157.21 318.38L1157.26 319.379C1157.35 319.375 1157.45 319.371 1157.55 319.366L1157.5 318.367ZM1158.38 318.315L1158.44 319.313C1158.52 319.308 1158.61 319.302 1158.69 319.296L1158.62 318.299L1158.55 317.301C1158.47 317.307 1158.4 317.312 1158.31 317.318L1158.38 318.315ZM1158.62 318.299L1158.55 317.301C1158.47 317.307 1158.4 317.312 1158.31 317.318L1158.38 318.315L1158.44 319.313C1158.52 319.308 1158.61 319.302 1158.69 319.296L1158.62 318.299ZM1159.54 318.225L1159.63 319.221C1159.68 319.216 1159.76 319.208 1159.79 319.205L1159.7 318.209L1159.61 317.213C1159.53 317.22 1159.51 317.223 1159.45 317.229L1159.54 318.225ZM1159.7 318.209L1159.61 317.213C1159.53 317.22 1159.51 317.223 1159.45 317.229L1159.54 318.225L1159.63 319.221C1159.68 319.216 1159.76 319.208 1159.79 319.205L1159.7 318.209ZM1204.9 271.521L1205.9 271.582C1205.91 271.491 1205.91 271.4 1205.92 271.31L1204.92 271.254L1203.92 271.198C1203.92 271.285 1203.91 271.372 1203.91 271.459L1204.9 271.521ZM1204.92 271.254L1203.92 271.198C1203.92 271.285 1203.91 271.372 1203.91 271.459L1204.9 271.521L1205.9 271.582C1205.91 271.491 1205.91 271.4 1205.92 271.31L1204.92 271.254ZM1204.94 270.77L1205.94 270.816C1205.95 270.707 1205.95 270.593 1205.96 270.479L1204.96 270.439L1203.96 270.4C1203.96 270.506 1203.95 270.612 1203.95 270.723L1204.94 270.77ZM1204.96 270.439L1203.96 270.4C1203.96 270.506 1203.95 270.612 1203.95 270.723L1204.94 270.77L1205.94 270.816C1205.95 270.707 1205.95 270.593 1205.96 270.479L1204.96 270.439ZM1204.97 270.108L1205.97 270.142C1205.97 270.033 1205.98 269.915 1205.98 269.798L1204.98 269.771L1203.98 269.745C1203.98 269.853 1203.98 269.96 1203.97 270.075L1204.97 270.108ZM1204.98 269.771L1203.98 269.745C1203.98 269.853 1203.98 269.959 1203.97 270.075L1204.97 270.108L1205.97 270.142C1205.97 270.033 1205.98 269.915 1205.98 269.798L1204.98 269.771ZM50.7139 2.44531L50.6886 1.44563C50.5258 1.44974 50.3641 1.45508 50.2057 1.46056L50.2402 2.45996L50.2748 3.45936C50.4317 3.45393 50.5858 3.44886 50.7391 3.44499L50.7139 2.44531ZM50.2402 2.45996L50.2748 3.45936C50.6377 3.44681 51.0015 3.43813 51.3662 3.43351L51.3535 2.43359L51.3408 1.43367C50.9613 1.43848 50.5829 1.44751 50.2057 1.46056L50.2402 2.45996ZM51.3535 2.43359L51.3352 1.43376L50.6955 1.44548L50.7139 2.44531L50.7322 3.44514L51.3718 3.43343L51.3535 2.43359ZM63.1616 0.429688V1.42969C73.5658 1.42969 82 9.86392 82 20.2681H83H84C84 8.75935 74.6703 -0.570312 63.1616 -0.570312V0.429688ZM1123 20.2681H1124C1124 9.86392 1132.43 1.42969 1142.84 1.42969V0.429688V-0.570312C1131.33 -0.570312 1122 8.75935 1122 20.2681H1123ZM1103.16 40.1064V41.1064C1114.67 41.1064 1124 31.7768 1124 20.2681H1123H1122C1122 30.6722 1113.57 39.1064 1103.16 39.1064V40.1064ZM1058 20.2681H1057C1057 31.7768 1066.33 41.1064 1077.84 41.1064V40.1064V39.1064C1067.43 39.1064 1059 30.6722 1059 20.2681H1058ZM1038.16 0.429688V1.42969C1048.57 1.42969 1057 9.86392 1057 20.2681H1058H1059C1059 8.75935 1049.67 -0.570312 1038.16 -0.570312V0.429688ZM928 20.2681H929C929 9.86392 937.434 1.42969 947.838 1.42969V0.429688V-0.570312C936.33 -0.570312 927 8.75935 927 20.2681H928ZM908.162 40.1064V41.1064C919.67 41.1064 929 31.7768 929 20.2681H928H927C927 30.6722 918.566 39.1064 908.162 39.1064V40.1064ZM863 20.2681H862C862 31.7768 871.33 41.1064 882.838 41.1064V40.1064V39.1064C872.434 39.1064 864 30.6722 864 20.2681H863ZM843.162 0.429688V1.42969C853.566 1.42969 862 9.86392 862 20.2681H863H864C864 8.75935 854.67 -0.570312 843.162 -0.570312V0.429688ZM733 20.2681H734C734 9.86392 742.434 1.42969 752.838 1.42969V0.429688V-0.570312C741.33 -0.570312 732 8.75935 732 20.2681H733ZM713.162 40.1064V41.1064C724.67 41.1064 734 31.7768 734 20.2681H733H732C732 30.6722 723.566 39.1064 713.162 39.1064V40.1064ZM668 20.2681H667C667 31.7768 676.33 41.1064 687.838 41.1064V40.1064V39.1064C677.434 39.1064 669 30.6722 669 20.2681H668ZM648.162 0.429688V1.42969C658.566 1.42969 667 9.86392 667 20.2681H668H669C669 8.75935 659.67 -0.570312 648.162 -0.570312V0.429688ZM538 20.2681H539C539 9.86392 547.434 1.42969 557.838 1.42969V0.429688V-0.570312C546.33 -0.570312 537 8.75935 537 20.2681H538ZM518.162 40.1064V41.1064C529.67 41.1064 539 31.7768 539 20.2681H538H537C537 30.6722 528.566 39.1064 518.162 39.1064V40.1064ZM473 20.2681H472C472 31.7768 481.33 41.1064 492.838 41.1064V40.1064V39.1064C482.434 39.1064 474 30.6722 474 20.2681H473ZM453.162 0.429688V1.42969C463.566 1.42969 472 9.86392 472 20.2681H473H474C474 8.75935 464.67 -0.570312 453.162 -0.570312V0.429688ZM343 20.2681H344C344 9.86392 352.434 1.42969 362.838 1.42969V0.429688V-0.570312C351.33 -0.570312 342 8.75935 342 20.2681H343ZM323.162 40.1064V41.1064C334.67 41.1064 344 31.7768 344 20.2681H343H342C342 30.6722 333.566 39.1064 323.162 39.1064V40.1064ZM278 20.2681H277C277 31.7768 286.33 41.1064 297.838 41.1064V40.1064V39.1064C287.434 39.1064 279 30.6722 279 20.2681H278ZM258.162 0.429688V1.42969C268.566 1.42969 277 9.86392 277 20.2681H278H279C279 8.75935 269.67 -0.570312 258.162 -0.570312V0.429688ZM148 20.2681H149C149 9.86392 157.434 1.42969 167.838 1.42969V0.429688V-0.570312C156.33 -0.570312 147 8.75935 147 20.2681H148ZM128.162 40.1064V41.1064C139.67 41.1064 149 31.7768 149 20.2681H148H147C147 30.6722 138.566 39.1064 128.162 39.1064V40.1064ZM102.838 40.1064V39.1064C92.4342 39.1064 84 30.6722 84 20.2681H83H82C82 31.7768 91.3297 41.1064 102.838 41.1064V40.1064Z" fill="white" fill-opacity="0.8" mask="url(#path-1-inside-1_516_44)"/>
<defs>
<linearGradient id="paint0_linear_516_44" x1="1.58011e-05" y1="10.8081" x2="329.408" y2="725.13" gradientUnits="userSpaceOnUse">
<stop stop-color="#070707"/>
<stop offset="0.491093" stop-color="#212121"/>
<stop offset="1" stop-color="#070707"/>
</linearGradient>
</defs>
</svg>
