<svg width="335" height="325" viewBox="0 0 335 325" fill="none" xmlns="http://www.w3.org/2000/svg">
<mask id="path-1-inside-1_502_123" fill="white">
<path d="M283 0C311.719 2.84738e-06 335 23.2812 335 52V273C335 301.719 311.719 325 283 325H52C23.5055 325 0.363633 302.081 0.00390625 273.672L0 273V52C5.28262e-06 23.2812 23.2812 1.11556e-06 52 0H119C127.837 0 135 7.16344 135 16C135 24.8366 142.163 32 151 32H184C192.837 32 200 24.8366 200 16C200 7.16344 207.163 0 216 0H283ZM332.904 276.091C332.908 276.031 332.912 275.971 332.915 275.911C332.912 275.971 332.908 276.031 332.904 276.091ZM332.944 275.34C332.949 275.23 332.955 275.12 332.959 275.01C332.955 275.12 332.949 275.23 332.944 275.34ZM332.971 274.679C332.975 274.565 332.978 274.451 332.981 274.337C332.978 274.451 332.974 274.565 332.971 274.679ZM286.594 2.12695C286.245 2.10219 285.895 2.08202 285.545 2.06445C285.895 2.08192 286.245 2.10219 286.594 2.12695ZM285.363 2.05469C285.007 2.03811 284.649 2.02568 284.291 2.0166C284.649 2.02568 285.007 2.03822 285.363 2.05469Z"/>
</mask>
<path d="M283 0C311.719 2.84738e-06 335 23.2812 335 52V273C335 301.719 311.719 325 283 325H52C23.5055 325 0.363633 302.081 0.00390625 273.672L0 273V52C5.28262e-06 23.2812 23.2812 1.11556e-06 52 0H119C127.837 0 135 7.16344 135 16C135 24.8366 142.163 32 151 32H184C192.837 32 200 24.8366 200 16C200 7.16344 207.163 0 216 0H283ZM332.904 276.091C332.908 276.031 332.912 275.971 332.915 275.911C332.912 275.971 332.908 276.031 332.904 276.091ZM332.944 275.34C332.949 275.23 332.955 275.12 332.959 275.01C332.955 275.12 332.949 275.23 332.944 275.34ZM332.971 274.679C332.975 274.565 332.978 274.451 332.981 274.337C332.978 274.451 332.974 274.565 332.971 274.679ZM286.594 2.12695C286.245 2.10219 285.895 2.08202 285.545 2.06445C285.895 2.08192 286.245 2.10219 286.594 2.12695ZM285.363 2.05469C285.007 2.03811 284.649 2.02568 284.291 2.0166C284.649 2.02568 285.007 2.03822 285.363 2.05469Z" fill="#070707"/>
<path d="M283 0C311.719 2.84738e-06 335 23.2812 335 52V273C335 301.719 311.719 325 283 325H52C23.5055 325 0.363633 302.081 0.00390625 273.672L0 273V52C5.28262e-06 23.2812 23.2812 1.11556e-06 52 0H119C127.837 0 135 7.16344 135 16C135 24.8366 142.163 32 151 32H184C192.837 32 200 24.8366 200 16C200 7.16344 207.163 0 216 0H283ZM332.904 276.091C332.908 276.031 332.912 275.971 332.915 275.911C332.912 275.971 332.908 276.031 332.904 276.091ZM332.944 275.34C332.949 275.23 332.955 275.12 332.959 275.01C332.955 275.12 332.949 275.23 332.944 275.34ZM332.971 274.679C332.975 274.565 332.978 274.451 332.981 274.337C332.978 274.451 332.974 274.565 332.971 274.679ZM286.594 2.12695C286.245 2.10219 285.895 2.08202 285.545 2.06445C285.895 2.08192 286.245 2.10219 286.594 2.12695ZM285.363 2.05469C285.007 2.03811 284.649 2.02568 284.291 2.0166C284.649 2.02568 285.007 2.03822 285.363 2.05469Z" fill="url(#paint0_linear_502_123)"/>
<path d="M283 0L283 -1H283V0ZM335 52L336 52L335 52ZM335 273L336 273V273H335ZM283 325L283 326L283 325ZM52 325L52 326H52V325ZM0.00390625 273.672L-0.9961 273.678L-0.996014 273.685L0.00390625 273.672ZM0 273H-1.00002L-0.999983 273.006L0 273ZM0 52L-1 52V52H0ZM52 0L52 -1L52 -1L52 0ZM332.904 276.091L331.906 276.03L333.902 276.152L332.904 276.091ZM332.915 275.911L333.913 275.969L331.917 275.853L332.915 275.911ZM332.944 275.34L331.945 275.294L333.943 275.386L332.944 275.34ZM332.959 275.01L333.958 275.049L331.96 274.97L332.959 275.01ZM332.971 274.679L331.971 274.646L333.97 274.712L332.971 274.679ZM332.981 274.337L333.981 274.363L331.982 274.31L332.981 274.337ZM285.545 2.06445L285.595 1.06569L285.495 3.0632L285.545 2.06445ZM285.363 2.05469L285.317 3.05362L285.41 1.05577L285.363 2.05469ZM284.291 2.0166L284.316 1.01692L284.266 3.01628L284.291 2.0166ZM283 0L283 1C311.167 1 334 23.8335 334 52L335 52L336 52C336 22.7289 312.271 -0.999997 283 -1L283 0ZM335 52H334V273H335H336V52H335ZM335 273L334 273C334 301.167 311.167 324 283 324L283 325L283 326C312.271 326 336 302.271 336 273L335 273ZM283 325V324H52V325V326H283V325ZM52 325L52 324C24.0535 324 1.35663 301.522 1.00383 273.659L0.00390625 273.672L-0.996014 273.685C-0.629366 302.64 22.9575 326 52 326L52 325ZM0.00390625 273.672L1.00389 273.666L0.999983 272.994L0 273L-0.999983 273.006L-0.996077 273.678L0.00390625 273.672ZM0 273H1V52H0H-1V273H0ZM0 52L1 52C1.00001 23.8335 23.8335 1 52 1L52 0L52 -1C22.7289 -0.999999 -0.999995 22.7289 -1 52L0 52ZM52 0V1H119V0V-1H52V0ZM151 32V33H184V32V31H151V32ZM216 0V1H283V0V-1H216V0ZM332.904 276.091L333.902 276.152C333.906 276.091 333.91 276.03 333.913 275.969L332.915 275.911L331.917 275.853C331.913 275.912 331.91 275.97 331.906 276.03L332.904 276.091ZM332.915 275.911L331.917 275.854C331.913 275.912 331.91 275.97 331.906 276.03L332.904 276.091L333.902 276.152C333.906 276.092 333.91 276.03 333.913 275.969L332.915 275.911ZM332.944 275.34L333.943 275.386C333.948 275.277 333.954 275.164 333.958 275.05L332.959 275.01L331.96 274.97C331.956 275.076 331.951 275.183 331.945 275.293L332.944 275.34ZM332.959 275.01L331.96 274.97C331.956 275.076 331.951 275.182 331.945 275.294L332.944 275.34L333.943 275.386C333.948 275.277 333.954 275.164 333.958 275.049L332.959 275.01ZM332.971 274.679L333.97 274.712C333.974 274.6 333.978 274.482 333.981 274.363L332.981 274.337L331.982 274.31C331.979 274.42 331.975 274.53 331.971 274.645L332.971 274.679ZM332.981 274.337L331.982 274.311C331.979 274.42 331.975 274.529 331.971 274.646L332.971 274.679L333.97 274.712C333.974 274.6 333.978 274.482 333.981 274.363L332.981 274.337ZM286.594 2.12695L286.665 1.12947C286.307 1.10409 285.95 1.08352 285.595 1.06571L285.545 2.06445L285.495 3.0632C285.841 3.08053 286.183 3.1003 286.523 3.12444L286.594 2.12695ZM285.545 2.06445L285.495 3.06321C285.84 3.08041 286.183 3.10029 286.523 3.12444L286.594 2.12695L286.665 1.12947C286.307 1.1041 285.951 1.08342 285.595 1.06569L285.545 2.06445ZM285.363 2.05469L285.41 1.05577C285.045 1.03882 284.681 1.02616 284.316 1.01692L284.291 2.0166L284.266 3.01628C284.618 3.0252 284.968 3.03739 285.317 3.05361L285.363 2.05469ZM284.291 2.0166L284.266 3.01628C284.618 3.0252 284.968 3.03749 285.317 3.05362L285.363 2.05469L285.409 1.05575C285.046 1.03894 284.681 1.02617 284.316 1.01692L284.291 2.0166ZM200 16H201C201 7.71573 207.716 1 216 1V0V-1C206.611 -1 199 6.61116 199 16H200ZM184 32V33C193.389 33 201 25.3888 201 16H200H199C199 24.2843 192.284 31 184 31V32ZM135 16H134C134 25.3888 141.611 33 151 33V32V31C142.716 31 136 24.2843 136 16H135ZM119 0V1C127.284 1 134 7.71573 134 16H135H136C136 6.61116 128.389 -1 119 -1V0Z" fill="white" fill-opacity="0.8" mask="url(#path-1-inside-1_502_123)"/>
<defs>
<linearGradient id="paint0_linear_502_123" x1="1.53067e-05" y1="8.56216" x2="237.505" y2="632.841" gradientUnits="userSpaceOnUse">
<stop stop-color="#070707"/>
<stop offset="0.491093" stop-color="#212121"/>
<stop offset="1" stop-color="#070707"/>
</linearGradient>
</defs>
</svg>
