<svg width="331" height="321" viewBox="0 0 331 321" fill="none" xmlns="http://www.w3.org/2000/svg">
<path d="M279 0C307.719 9.61048e-07 331 23.2812 331 52V269C331 297.719 307.719 321 279 321H52C23.2812 321 0 297.719 0 269V52C4.28489e-06 23.2812 23.2812 1.87811e-07 52 0H116.5C125.613 0 133 7.3873 133 16.5C133 25.6127 140.387 33 149.5 33H181.5C190.613 33 198 25.6127 198 16.5C198 7.3873 205.387 0 214.5 0H279ZM328.903 272.106C328.908 272.027 328.912 271.948 328.917 271.869C328.912 271.948 328.908 272.027 328.903 272.106ZM328.94 271.418C328.947 271.282 328.954 271.146 328.959 271.01C328.954 271.146 328.947 271.282 328.94 271.418ZM328.97 270.705C328.974 270.584 328.978 270.463 328.981 270.342C328.978 270.463 328.974 270.584 328.97 270.705ZM282.594 2.12695C282.245 2.10219 281.895 2.08202 281.545 2.06445C281.895 2.08192 282.245 2.10219 282.594 2.12695ZM281.363 2.05469C281.007 2.03811 280.649 2.02568 280.291 2.0166C280.649 2.02568 281.007 2.03822 281.363 2.05469Z" fill="url(#paint0_linear_499_81)"/>
<defs>
<linearGradient id="paint0_linear_499_81" x1="2" y1="142" x2="1205" y2="142" gradientUnits="userSpaceOnUse">
<stop stop-color="#FF37B3"/>
<stop offset="1" stop-color="#EE8D00"/>
</linearGradient>
</defs>
</svg>
