<svg width="1207" height="321" viewBox="0 0 1207 321" fill="none" xmlns="http://www.w3.org/2000/svg">
<mask id="path-1-inside-1_515_44" fill="white">
<path d="M83 20.2681C83 31.2245 91.8819 40.1064 102.838 40.1064H128.162C139.118 40.1064 148 31.2245 148 20.2681C148 9.31163 156.882 0.429688 167.838 0.429688H258.162C269.118 0.429688 278 9.31163 278 20.2681C278 31.2245 286.882 40.1064 297.838 40.1064H323.162C334.118 40.1064 343 31.2245 343 20.2681C343 9.31163 351.882 0.429688 362.838 0.429688H453.162C464.118 0.429688 473 9.31163 473 20.2681C473 31.2245 481.882 40.1064 492.838 40.1064H518.162C529.118 40.1064 538 31.2245 538 20.2681C538 9.31163 546.882 0.429688 557.838 0.429688H648.162C659.118 0.429688 668 9.31163 668 20.2681C668 31.2245 676.882 40.1064 687.838 40.1064H713.162C724.118 40.1064 733 31.2245 733 20.2681C733 9.31163 741.882 0.429688 752.838 0.429688H843.162C854.118 0.429688 863 9.31163 863 20.2681C863 31.2245 871.882 40.1064 882.838 40.1064H908.162C919.118 40.1064 928 31.2245 928 20.2681C928 9.31163 936.882 0.429688 947.838 0.429688H1038.16C1049.12 0.429688 1058 9.31163 1058 20.2681C1058 31.2245 1066.88 40.1064 1077.84 40.1064H1103.16C1114.12 40.1064 1123 31.2245 1123 20.2681C1123 9.31163 1131.88 0.429688 1142.84 0.429688H1155C1183.72 0.429688 1207 23.7109 1207 52.4297V268.432C1207 297.15 1183.72 320.432 1155 320.432H52C23.2813 320.432 0.000161306 297.15 0 268.432V52.4297C0 23.7109 23.2812 0.429688 52 0.429688H63.1616C74.1181 0.429688 83 9.31163 83 20.2681ZM1157.21 318.382C1157.31 318.378 1157.41 318.374 1157.5 318.369C1157.41 318.374 1157.31 318.378 1157.21 318.382ZM1158.38 318.317C1158.46 318.312 1158.54 318.307 1158.62 318.301C1158.54 318.307 1158.46 318.312 1158.38 318.317ZM1159.54 318.227C1159.59 318.222 1159.65 318.216 1159.7 318.211C1159.65 318.216 1159.59 318.222 1159.54 318.227ZM15.1416 302.215C15.3253 302.415 15.5104 302.614 15.6973 302.812C15.5104 302.614 15.3253 302.415 15.1416 302.215ZM14.207 301.169C14.4374 301.435 14.6714 301.697 14.9072 301.958C14.6714 301.697 14.4374 301.435 14.207 301.169ZM2.09863 271.603C2.11442 271.855 2.13183 272.107 2.15137 272.358C2.13183 272.107 2.1144 271.855 2.09863 271.603ZM1204.9 271.522C1204.91 271.463 1204.91 271.403 1204.92 271.343C1204.91 271.403 1204.91 271.463 1204.9 271.522ZM2.05566 270.814C2.06487 271.011 2.07544 271.207 2.08691 271.403C2.07545 271.207 2.06485 271.011 2.05566 270.814ZM1204.95 270.725C1204.95 270.63 1204.96 270.536 1204.96 270.441C1204.96 270.536 1204.95 270.63 1204.95 270.725ZM2.02832 270.13C2.03357 270.287 2.04018 270.445 2.04688 270.602C2.0402 270.445 2.03355 270.287 2.02832 270.13ZM1204.97 270.11C1204.97 269.998 1204.98 269.886 1204.98 269.773C1204.98 269.886 1204.97 269.998 1204.97 270.11ZM2.01562 269.711C2.01615 269.732 2.01703 269.753 2.01758 269.773C2.0115 269.542 2.00685 269.31 2.00391 269.077L2.01562 269.711ZM49.709 2.48145C49.6126 2.4858 49.5162 2.49022 49.4199 2.49512C49.5162 2.49024 49.6126 2.48578 49.709 2.48145ZM50.7139 2.44531C50.6934 2.44583 50.6729 2.44672 50.6523 2.44727C50.8857 2.44112 51.1194 2.43656 51.3535 2.43359L50.7139 2.44531Z"/>
</mask>
<path d="M83 20.2681C83 31.2245 91.8819 40.1064 102.838 40.1064H128.162C139.118 40.1064 148 31.2245 148 20.2681C148 9.31163 156.882 0.429688 167.838 0.429688H258.162C269.118 0.429688 278 9.31163 278 20.2681C278 31.2245 286.882 40.1064 297.838 40.1064H323.162C334.118 40.1064 343 31.2245 343 20.2681C343 9.31163 351.882 0.429688 362.838 0.429688H453.162C464.118 0.429688 473 9.31163 473 20.2681C473 31.2245 481.882 40.1064 492.838 40.1064H518.162C529.118 40.1064 538 31.2245 538 20.2681C538 9.31163 546.882 0.429688 557.838 0.429688H648.162C659.118 0.429688 668 9.31163 668 20.2681C668 31.2245 676.882 40.1064 687.838 40.1064H713.162C724.118 40.1064 733 31.2245 733 20.2681C733 9.31163 741.882 0.429688 752.838 0.429688H843.162C854.118 0.429688 863 9.31163 863 20.2681C863 31.2245 871.882 40.1064 882.838 40.1064H908.162C919.118 40.1064 928 31.2245 928 20.2681C928 9.31163 936.882 0.429688 947.838 0.429688H1038.16C1049.12 0.429688 1058 9.31163 1058 20.2681C1058 31.2245 1066.88 40.1064 1077.84 40.1064H1103.16C1114.12 40.1064 1123 31.2245 1123 20.2681C1123 9.31163 1131.88 0.429688 1142.84 0.429688H1155C1183.72 0.429688 1207 23.7109 1207 52.4297V268.432C1207 297.15 1183.72 320.432 1155 320.432H52C23.2813 320.432 0.000161306 297.15 0 268.432V52.4297C0 23.7109 23.2812 0.429688 52 0.429688H63.1616C74.1181 0.429688 83 9.31163 83 20.2681ZM1157.21 318.382C1157.31 318.378 1157.41 318.374 1157.5 318.369C1157.41 318.374 1157.31 318.378 1157.21 318.382ZM1158.38 318.317C1158.46 318.312 1158.54 318.307 1158.62 318.301C1158.54 318.307 1158.46 318.312 1158.38 318.317ZM1159.54 318.227C1159.59 318.222 1159.65 318.216 1159.7 318.211C1159.65 318.216 1159.59 318.222 1159.54 318.227ZM15.1416 302.215C15.3253 302.415 15.5104 302.614 15.6973 302.812C15.5104 302.614 15.3253 302.415 15.1416 302.215ZM14.207 301.169C14.4374 301.435 14.6714 301.697 14.9072 301.958C14.6714 301.697 14.4374 301.435 14.207 301.169ZM2.09863 271.603C2.11442 271.855 2.13183 272.107 2.15137 272.358C2.13183 272.107 2.1144 271.855 2.09863 271.603ZM1204.9 271.522C1204.91 271.463 1204.91 271.403 1204.92 271.343C1204.91 271.403 1204.91 271.463 1204.9 271.522ZM2.05566 270.814C2.06487 271.011 2.07544 271.207 2.08691 271.403C2.07545 271.207 2.06485 271.011 2.05566 270.814ZM1204.95 270.725C1204.95 270.63 1204.96 270.536 1204.96 270.441C1204.96 270.536 1204.95 270.63 1204.95 270.725ZM2.02832 270.13C2.03357 270.287 2.04018 270.445 2.04688 270.602C2.0402 270.445 2.03355 270.287 2.02832 270.13ZM1204.97 270.11C1204.97 269.998 1204.98 269.886 1204.98 269.773C1204.98 269.886 1204.97 269.998 1204.97 270.11ZM2.01562 269.711C2.01615 269.732 2.01703 269.753 2.01758 269.773C2.0115 269.542 2.00685 269.31 2.00391 269.077L2.01562 269.711ZM49.709 2.48145C49.6126 2.4858 49.5162 2.49022 49.4199 2.49512C49.5162 2.49024 49.6126 2.48578 49.709 2.48145ZM50.7139 2.44531C50.6934 2.44583 50.6729 2.44672 50.6523 2.44727C50.8857 2.44112 51.1194 2.43656 51.3535 2.43359L50.7139 2.44531Z" fill="#070707"/>
<path d="M83 20.2681C83 31.2245 91.8819 40.1064 102.838 40.1064H128.162C139.118 40.1064 148 31.2245 148 20.2681C148 9.31163 156.882 0.429688 167.838 0.429688H258.162C269.118 0.429688 278 9.31163 278 20.2681C278 31.2245 286.882 40.1064 297.838 40.1064H323.162C334.118 40.1064 343 31.2245 343 20.2681C343 9.31163 351.882 0.429688 362.838 0.429688H453.162C464.118 0.429688 473 9.31163 473 20.2681C473 31.2245 481.882 40.1064 492.838 40.1064H518.162C529.118 40.1064 538 31.2245 538 20.2681C538 9.31163 546.882 0.429688 557.838 0.429688H648.162C659.118 0.429688 668 9.31163 668 20.2681C668 31.2245 676.882 40.1064 687.838 40.1064H713.162C724.118 40.1064 733 31.2245 733 20.2681C733 9.31163 741.882 0.429688 752.838 0.429688H843.162C854.118 0.429688 863 9.31163 863 20.2681C863 31.2245 871.882 40.1064 882.838 40.1064H908.162C919.118 40.1064 928 31.2245 928 20.2681C928 9.31163 936.882 0.429688 947.838 0.429688H1038.16C1049.12 0.429688 1058 9.31163 1058 20.2681C1058 31.2245 1066.88 40.1064 1077.84 40.1064H1103.16C1114.12 40.1064 1123 31.2245 1123 20.2681C1123 9.31163 1131.88 0.429688 1142.84 0.429688H1155C1183.72 0.429688 1207 23.7109 1207 52.4297V268.432C1207 297.15 1183.72 320.432 1155 320.432H52C23.2813 320.432 0.000161306 297.15 0 268.432V52.4297C0 23.7109 23.2812 0.429688 52 0.429688H63.1616C74.1181 0.429688 83 9.31163 83 20.2681ZM1157.21 318.382C1157.31 318.378 1157.41 318.374 1157.5 318.369C1157.41 318.374 1157.31 318.378 1157.21 318.382ZM1158.38 318.317C1158.46 318.312 1158.54 318.307 1158.62 318.301C1158.54 318.307 1158.46 318.312 1158.38 318.317ZM1159.54 318.227C1159.59 318.222 1159.65 318.216 1159.7 318.211C1159.65 318.216 1159.59 318.222 1159.54 318.227ZM15.1416 302.215C15.3253 302.415 15.5104 302.614 15.6973 302.812C15.5104 302.614 15.3253 302.415 15.1416 302.215ZM14.207 301.169C14.4374 301.435 14.6714 301.697 14.9072 301.958C14.6714 301.697 14.4374 301.435 14.207 301.169ZM2.09863 271.603C2.11442 271.855 2.13183 272.107 2.15137 272.358C2.13183 272.107 2.1144 271.855 2.09863 271.603ZM1204.9 271.522C1204.91 271.463 1204.91 271.403 1204.92 271.343C1204.91 271.403 1204.91 271.463 1204.9 271.522ZM2.05566 270.814C2.06487 271.011 2.07544 271.207 2.08691 271.403C2.07545 271.207 2.06485 271.011 2.05566 270.814ZM1204.95 270.725C1204.95 270.63 1204.96 270.536 1204.96 270.441C1204.96 270.536 1204.95 270.63 1204.95 270.725ZM2.02832 270.13C2.03357 270.287 2.04018 270.445 2.04688 270.602C2.0402 270.445 2.03355 270.287 2.02832 270.13ZM1204.97 270.11C1204.97 269.998 1204.98 269.886 1204.98 269.773C1204.98 269.886 1204.97 269.998 1204.97 270.11ZM2.01562 269.711C2.01615 269.732 2.01703 269.753 2.01758 269.773C2.0115 269.542 2.00685 269.31 2.00391 269.077L2.01562 269.711ZM49.709 2.48145C49.6126 2.4858 49.5162 2.49022 49.4199 2.49512C49.5162 2.49024 49.6126 2.48578 49.709 2.48145ZM50.7139 2.44531C50.6934 2.44583 50.6729 2.44672 50.6523 2.44727C50.8857 2.44112 51.1194 2.43656 51.3535 2.43359L50.7139 2.44531Z" fill="url(#paint0_linear_515_44)"/>
<path d="M1207 268.432L1208 268.432V268.432H1207ZM0 268.432L-1 268.432L-1 268.432L0 268.432ZM1157.21 318.382L1157.17 317.383L1157.26 319.381L1157.21 318.382ZM1157.5 318.369L1157.55 319.368L1157.45 317.37L1157.5 318.369ZM1158.38 318.317L1158.31 317.32L1158.44 319.315L1158.38 318.317ZM1158.62 318.301L1158.69 319.298L1158.55 317.303L1158.62 318.301ZM1159.54 318.227L1159.45 317.231L1159.63 319.223L1159.54 318.227ZM1159.7 318.211L1159.79 319.207L1159.61 317.215L1159.7 318.211ZM15.6973 302.812L14.9713 303.499L16.4234 302.124L15.6973 302.812ZM14.9072 301.958L14.1654 302.629L15.649 301.287L14.9072 301.958ZM2.09863 271.603L3.09668 271.54L1.10058 271.665L2.09863 271.603ZM1204.9 271.522L1203.91 271.461L1205.9 271.584L1204.9 271.522ZM1204.92 271.343L1205.91 271.4L1203.92 271.285L1204.92 271.343ZM2.05566 270.814L3.05457 270.768L1.05675 270.861L2.05566 270.814ZM2.08691 271.403L1.08862 271.462L3.08521 271.345L2.08691 271.403ZM1204.95 270.725L1203.95 270.679L1205.95 270.77L1204.95 270.725ZM1204.96 270.441L1205.96 270.481L1203.96 270.401L1204.96 270.441ZM2.02832 270.13L3.02777 270.097L1.02887 270.163L2.02832 270.13ZM2.04688 270.602L1.04778 270.644L3.04597 270.559L2.04688 270.602ZM1204.97 270.11L1203.97 270.077L1205.97 270.144L1204.97 270.11ZM1204.98 269.773L1205.98 269.8L1203.98 269.747L1204.98 269.773ZM2.01562 269.711L1.01577 269.729L1.01594 269.736L2.01562 269.711ZM2.01758 269.773L1.01792 269.8L3.01723 269.747L2.01758 269.773ZM2.00391 269.077L3.00374 269.059L1.00399 269.09L2.00391 269.077ZM49.709 2.48145L49.7541 3.48043L49.6641 1.48245L49.709 2.48145ZM49.4199 2.49512L49.3691 1.49641L49.4705 3.49384L49.4199 2.49512ZM50.7139 2.44531L50.6955 1.44546L50.6886 1.44563L50.7139 2.44531ZM50.6523 2.44727L50.6259 1.44762L50.6787 3.44692L50.6523 2.44727ZM51.3535 2.43359L51.3718 3.43343L51.3408 1.43367L51.3535 2.43359ZM102.838 40.1064V41.1064H128.162V40.1064V39.1064H102.838V40.1064ZM167.838 0.429688V1.42969H258.162V0.429688V-0.570312H167.838V0.429688ZM297.838 40.1064V41.1064H323.162V40.1064V39.1064H297.838V40.1064ZM362.838 0.429688V1.42969H453.162V0.429688V-0.570312H362.838V0.429688ZM492.838 40.1064V41.1064H518.162V40.1064V39.1064H492.838V40.1064ZM557.838 0.429688V1.42969H648.162V0.429688V-0.570312H557.838V0.429688ZM687.838 40.1064V41.1064H713.162V40.1064V39.1064H687.838V40.1064ZM752.838 0.429688V1.42969H843.162V0.429688V-0.570312H752.838V0.429688ZM882.838 40.1064V41.1064H908.162V40.1064V39.1064H882.838V40.1064ZM947.838 0.429688V1.42969H1038.16V0.429688V-0.570312H947.838V0.429688ZM1077.84 40.1064V41.1064H1103.16V40.1064V39.1064H1077.84V40.1064ZM1142.84 0.429688V1.42969H1155V0.429688V-0.570312H1142.84V0.429688ZM1155 0.429688V1.42969C1183.17 1.42969 1206 24.2632 1206 52.4297H1207H1208C1208 23.1586 1184.27 -0.570312 1155 -0.570312V0.429688ZM1207 52.4297H1206V268.432H1207H1208V52.4297H1207ZM1207 268.432L1206 268.432C1206 296.598 1183.17 319.432 1155 319.432V320.432V321.432C1184.27 321.432 1208 297.703 1208 268.432L1207 268.432ZM1155 320.432V319.432H52V320.432V321.432H1155V320.432ZM52 320.432V319.432C23.8336 319.432 1.00016 296.598 1 268.432L0 268.432L-1 268.432C-0.999836 297.703 22.729 321.432 52 321.432V320.432ZM0 268.432H1V52.4297H0H-1V268.432H0ZM0 52.4297H1C1 24.2632 23.8335 1.42969 52 1.42969V0.429688V-0.570312C22.7289 -0.570312 -1 23.1586 -1 52.4297H0ZM52 0.429688V1.42969H63.1616V0.429688V-0.570312H52V0.429688ZM1157.21 318.382L1157.26 319.381C1157.35 319.377 1157.45 319.373 1157.55 319.368L1157.5 318.369L1157.45 317.37C1157.36 317.375 1157.27 317.378 1157.17 317.383L1157.21 318.382ZM1157.5 318.369L1157.45 317.37C1157.36 317.375 1157.27 317.378 1157.17 317.383L1157.21 318.382L1157.26 319.381C1157.35 319.377 1157.45 319.373 1157.55 319.368L1157.5 318.369ZM1158.38 318.317L1158.44 319.315C1158.52 319.31 1158.61 319.304 1158.69 319.298L1158.62 318.301L1158.55 317.303C1158.47 317.309 1158.4 317.314 1158.31 317.32L1158.38 318.317ZM1158.62 318.301L1158.55 317.303C1158.47 317.309 1158.4 317.314 1158.31 317.32L1158.38 318.317L1158.44 319.315C1158.52 319.31 1158.61 319.304 1158.69 319.298L1158.62 318.301ZM1159.54 318.227L1159.63 319.223C1159.68 319.218 1159.76 319.21 1159.79 319.207L1159.7 318.211L1159.61 317.215C1159.53 317.222 1159.51 317.225 1159.45 317.231L1159.54 318.227ZM1159.7 318.211L1159.61 317.215C1159.53 317.222 1159.51 317.225 1159.45 317.231L1159.54 318.227L1159.63 319.223C1159.68 319.218 1159.76 319.21 1159.79 319.207L1159.7 318.211ZM15.1416 302.215L14.4044 302.891C14.5915 303.095 14.7803 303.298 14.9712 303.499L15.6973 302.812L16.4234 302.124C16.2405 301.931 16.0591 301.736 15.8788 301.539L15.1416 302.215ZM15.6973 302.812L16.4233 302.124C16.2405 301.931 16.0592 301.736 15.8788 301.539L15.1416 302.215L14.4044 302.891C14.5914 303.094 14.7802 303.298 14.9713 303.499L15.6973 302.812ZM14.207 301.169L13.4515 301.824C13.6878 302.097 13.9266 302.364 14.1654 302.629L14.9072 301.958L15.649 301.287C15.4162 301.03 15.1871 300.773 14.9626 300.514L14.207 301.169ZM14.9072 301.958L15.649 301.287C15.4162 301.03 15.1871 300.773 14.9626 300.514L14.207 301.169L13.4515 301.824C13.6878 302.097 13.9266 302.364 14.1654 302.629L14.9072 301.958ZM2.09863 271.603L1.10058 271.665C1.11664 271.922 1.1344 272.179 1.15437 272.436L2.15137 272.358L3.14836 272.281C3.12927 272.035 3.1122 271.788 3.09668 271.54L2.09863 271.603ZM2.15137 272.358L3.14836 272.281C3.12927 272.035 3.11218 271.788 3.09669 271.54L2.09863 271.603L1.10058 271.665C1.11662 271.922 1.1344 272.179 1.15437 272.436L2.15137 272.358ZM1204.9 271.522L1205.9 271.584C1205.91 271.523 1205.91 271.462 1205.91 271.4L1204.92 271.343L1203.92 271.285C1203.91 271.343 1203.91 271.402 1203.91 271.461L1204.9 271.522ZM1204.92 271.343L1203.92 271.285C1203.91 271.343 1203.91 271.402 1203.91 271.461L1204.9 271.522L1205.9 271.584C1205.91 271.523 1205.91 271.462 1205.91 271.4L1204.92 271.343ZM2.05566 270.814L1.05676 270.861C1.06618 271.062 1.07697 271.263 1.08862 271.462L2.08691 271.403L3.0852 271.345C3.07391 271.152 3.06356 270.96 3.05457 270.768L2.05566 270.814ZM2.08691 271.403L3.08521 271.345C3.07392 271.152 3.06354 270.96 3.05457 270.768L2.05566 270.814L1.05675 270.861C1.06617 271.063 1.07699 271.263 1.08862 271.462L2.08691 271.403ZM1204.95 270.725L1205.95 270.77C1205.95 270.672 1205.95 270.574 1205.96 270.481L1204.96 270.441L1203.96 270.401C1203.96 270.498 1203.95 270.588 1203.95 270.679L1204.95 270.725ZM1204.96 270.441L1203.96 270.402C1203.96 270.497 1203.95 270.588 1203.95 270.679L1204.95 270.725L1205.95 270.77C1205.95 270.672 1205.95 270.574 1205.96 270.481L1204.96 270.441ZM2.02832 270.13L1.02888 270.163C1.0343 270.326 1.0411 270.487 1.04778 270.644L2.04688 270.602L3.04597 270.559C3.03926 270.402 3.03284 270.249 3.02777 270.097L2.02832 270.13ZM2.04688 270.602L3.04597 270.559C3.03927 270.402 3.03282 270.249 3.02777 270.097L2.02832 270.13L1.02887 270.163C1.03428 270.326 1.04112 270.488 1.04778 270.644L2.04688 270.602ZM1204.97 270.11L1205.97 270.144C1205.97 270.035 1205.98 269.917 1205.98 269.8L1204.98 269.773L1203.98 269.747C1203.98 269.855 1203.98 269.962 1203.97 270.077L1204.97 270.11ZM1204.98 269.773L1203.98 269.747C1203.98 269.855 1203.98 269.961 1203.97 270.077L1204.97 270.11L1205.97 270.143C1205.97 270.035 1205.98 269.917 1205.98 269.8L1204.98 269.773ZM2.01562 269.711L1.01594 269.736C1.01633 269.752 1.01683 269.766 1.01717 269.776C1.01756 269.788 1.01777 269.794 1.01792 269.8L2.01758 269.773L3.01723 269.747C3.01444 269.641 3.01742 269.77 3.01531 269.686L2.01562 269.711ZM2.01758 269.773L3.01723 269.747C3.01126 269.52 3.00671 269.292 3.00383 269.064L2.00391 269.077L1.00399 269.09C1.00699 269.327 1.01174 269.564 1.01792 269.8L2.01758 269.773ZM2.00391 269.077L1.00408 269.096L1.0158 269.729L2.01562 269.711L3.01545 269.692L3.00374 269.059L2.00391 269.077ZM49.709 2.48145L49.6639 1.48246C49.5673 1.48683 49.4685 1.49135 49.3691 1.49641L49.4199 2.49512L49.4707 3.49382C49.564 3.48908 49.6579 3.48477 49.7541 3.48043L49.709 2.48145ZM49.4199 2.49512L49.4705 3.49384C49.564 3.4891 49.6582 3.48474 49.7539 3.48044L49.709 2.48145L49.6641 1.48245C49.5669 1.48682 49.4684 1.49138 49.3693 1.4964L49.4199 2.49512ZM50.7139 2.44531L50.6886 1.44563C50.673 1.44603 50.6582 1.44654 50.6484 1.44688C50.6372 1.44727 50.6313 1.44747 50.6259 1.44762L50.6523 2.44727L50.6788 3.44692C50.6939 3.44651 50.7085 3.446 50.7178 3.44568C50.7285 3.44531 50.7342 3.44512 50.7391 3.44499L50.7139 2.44531ZM50.6523 2.44727L50.6787 3.44692C50.9074 3.44089 51.1366 3.43642 51.3662 3.43351L51.3535 2.43359L51.3408 1.43367C51.1022 1.4367 50.8639 1.44135 50.626 1.44761L50.6523 2.44727ZM51.3535 2.43359L51.3352 1.43376L50.6955 1.44548L50.7139 2.44531L50.7322 3.44514L51.3718 3.43343L51.3535 2.43359ZM63.1616 0.429688V1.42969C73.5658 1.42969 82 9.86392 82 20.2681H83H84C84 8.75935 74.6703 -0.570312 63.1616 -0.570312V0.429688ZM1123 20.2681H1124C1124 9.86392 1132.43 1.42969 1142.84 1.42969V0.429688V-0.570312C1131.33 -0.570312 1122 8.75935 1122 20.2681H1123ZM1103.16 40.1064V41.1064C1114.67 41.1064 1124 31.7768 1124 20.2681H1123H1122C1122 30.6722 1113.57 39.1064 1103.16 39.1064V40.1064ZM1058 20.2681H1057C1057 31.7768 1066.33 41.1064 1077.84 41.1064V40.1064V39.1064C1067.43 39.1064 1059 30.6722 1059 20.2681H1058ZM1038.16 0.429688V1.42969C1048.57 1.42969 1057 9.86392 1057 20.2681H1058H1059C1059 8.75935 1049.67 -0.570312 1038.16 -0.570312V0.429688ZM928 20.2681H929C929 9.86392 937.434 1.42969 947.838 1.42969V0.429688V-0.570312C936.33 -0.570312 927 8.75935 927 20.2681H928ZM908.162 40.1064V41.1064C919.67 41.1064 929 31.7768 929 20.2681H928H927C927 30.6722 918.566 39.1064 908.162 39.1064V40.1064ZM863 20.2681H862C862 31.7768 871.33 41.1064 882.838 41.1064V40.1064V39.1064C872.434 39.1064 864 30.6722 864 20.2681H863ZM843.162 0.429688V1.42969C853.566 1.42969 862 9.86392 862 20.2681H863H864C864 8.75935 854.67 -0.570312 843.162 -0.570312V0.429688ZM733 20.2681H734C734 9.86392 742.434 1.42969 752.838 1.42969V0.429688V-0.570312C741.33 -0.570312 732 8.75935 732 20.2681H733ZM713.162 40.1064V41.1064C724.67 41.1064 734 31.7768 734 20.2681H733H732C732 30.6722 723.566 39.1064 713.162 39.1064V40.1064ZM668 20.2681H667C667 31.7768 676.33 41.1064 687.838 41.1064V40.1064V39.1064C677.434 39.1064 669 30.6722 669 20.2681H668ZM648.162 0.429688V1.42969C658.566 1.42969 667 9.86392 667 20.2681H668H669C669 8.75935 659.67 -0.570312 648.162 -0.570312V0.429688ZM538 20.2681H539C539 9.86392 547.434 1.42969 557.838 1.42969V0.429688V-0.570312C546.33 -0.570312 537 8.75935 537 20.2681H538ZM518.162 40.1064V41.1064C529.67 41.1064 539 31.7768 539 20.2681H538H537C537 30.6722 528.566 39.1064 518.162 39.1064V40.1064ZM473 20.2681H472C472 31.7768 481.33 41.1064 492.838 41.1064V40.1064V39.1064C482.434 39.1064 474 30.6722 474 20.2681H473ZM453.162 0.429688V1.42969C463.566 1.42969 472 9.86392 472 20.2681H473H474C474 8.75935 464.67 -0.570312 453.162 -0.570312V0.429688ZM343 20.2681H344C344 9.86392 352.434 1.42969 362.838 1.42969V0.429688V-0.570312C351.33 -0.570312 342 8.75935 342 20.2681H343ZM323.162 40.1064V41.1064C334.67 41.1064 344 31.7768 344 20.2681H343H342C342 30.6722 333.566 39.1064 323.162 39.1064V40.1064ZM278 20.2681H277C277 31.7768 286.33 41.1064 297.838 41.1064V40.1064V39.1064C287.434 39.1064 279 30.6722 279 20.2681H278ZM258.162 0.429688V1.42969C268.566 1.42969 277 9.86392 277 20.2681H278H279C279 8.75935 269.67 -0.570312 258.162 -0.570312V0.429688ZM148 20.2681H149C149 9.86392 157.434 1.42969 167.838 1.42969V0.429688V-0.570312C156.33 -0.570312 147 8.75935 147 20.2681H148ZM128.162 40.1064V41.1064C139.67 41.1064 149 31.7768 149 20.2681H148H147C147 30.6722 138.566 39.1064 128.162 39.1064V40.1064ZM102.838 40.1064V39.1064C92.4342 39.1064 84 30.6722 84 20.2681H83H82C82 31.7768 91.3297 41.1064 102.838 41.1064V40.1064Z" fill="white" fill-opacity="0.8" mask="url(#path-1-inside-1_515_44)"/>
<defs>
<linearGradient id="paint0_linear_515_44" x1="1.58011e-05" y1="10.8081" x2="329.411" y2="725.132" gradientUnits="userSpaceOnUse">
<stop stop-color="#070707"/>
<stop offset="0.491093" stop-color="#212121"/>
<stop offset="1" stop-color="#070707"/>
</linearGradient>
</defs>
</svg>
