<svg viewBox="0 0 82 82" fill="none" xmlns="http://www.w3.org/2000/svg">
<rect width="82" height="82" rx="16" fill="#FF8630"/>
<path d="M20 51.4967C20.1477 50.5981 20.2494 49.6886 20.4529 48.8022C21.1235 45.871 22.4932 43.2576 24.1779 40.7976C26.0453 38.0724 28.2475 35.63 30.5678 33.2916C30.7921 33.0659 31.1892 32.8982 31.5076 32.895C34.7545 32.8665 38.0014 32.8654 41.2483 32.8961C41.5765 32.8993 41.9824 33.0845 42.2176 33.3201C44.2327 35.3429 46.1417 37.4621 47.8483 39.7577C48.0387 40.0141 48.0026 40.1763 47.8308 40.3955C47.3834 40.9664 46.8178 41.3367 46.1067 41.489C44.1014 41.9197 43.0928 43.1699 43.0917 45.2179C43.0917 47.0763 43.0939 48.9348 43.0917 50.7932C43.0862 54.7083 44.4263 58.0789 47.1613 60.8852C47.2083 60.9334 47.251 60.9849 47.3888 61.1394C46.576 61.3805 45.8398 61.6434 45.0816 61.8078C44.4996 61.9338 43.8914 61.9842 43.2952 61.9853C38.6698 61.9985 34.0456 62.0094 29.4202 61.9875C24.9612 61.9667 21.2023 58.9248 20.2122 54.5823C20.1291 54.2142 20.0711 53.8383 20 53.4646C20 52.8083 20 52.1519 20 51.4967ZM35.296 54.2854C35.296 54.544 35.2829 54.7752 35.2982 55.0042C35.3365 55.5444 35.7226 55.9246 36.2423 55.9531C36.7838 55.9827 37.2192 55.6365 37.3045 55.0875C37.3363 54.887 37.3428 54.6788 37.3297 54.4749C37.3155 54.247 37.3932 54.1396 37.6196 54.0717C38.2858 53.8723 38.8525 53.4997 39.3317 52.9957C41.0952 51.1394 40.8348 48.2389 38.7748 46.9536C38.4095 46.7257 37.9817 46.5975 37.5923 46.4046C37.4894 46.3531 37.3494 46.2337 37.3483 46.1438C37.3308 45.0689 37.3374 43.9929 37.3374 42.8029C37.6196 43.0034 37.8264 43.1447 38.0266 43.2938C38.3876 43.5622 38.8033 43.594 39.1752 43.3738C39.5384 43.159 39.7627 42.7492 39.6435 42.3295C39.5669 42.0588 39.3995 41.7465 39.1763 41.5997C38.6173 41.2315 38.0025 40.9477 37.345 40.5949C37.3385 40.4919 37.3406 40.2738 37.3111 40.0602C37.2444 39.5791 36.9195 39.246 36.4753 39.1792C35.8342 39.0838 35.284 39.5035 35.308 40.1675C35.3266 40.688 35.1407 40.8897 34.6691 41.0913C33.41 41.6315 32.7481 42.6692 32.6147 44.0192C32.4801 45.3889 33.0249 46.4375 34.2217 47.1311C34.4569 47.2681 34.6899 47.4149 34.9405 47.5179C35.203 47.6264 35.2993 47.7798 35.2949 48.0724C35.2774 49.3018 35.2883 50.5313 35.2862 51.7607C35.2862 51.89 35.2686 52.0182 35.249 52.2867C34.7118 52.0215 34.2534 51.8024 33.8027 51.5723C33.271 51.3005 32.7033 51.4342 32.4068 51.912C32.1147 52.382 32.2274 53.0165 32.7437 53.3025C33.3575 53.6422 34.0182 53.8986 34.6681 54.1692C34.8497 54.2448 35.0619 54.2437 35.2949 54.2843L35.296 54.2854Z" fill="white"/>
<path d="M43.2558 20C43.9647 20.3276 44.1627 20.8909 44.1703 21.6524C44.2032 24.6263 43.3411 27.2967 41.6192 29.7063C41.2713 30.1928 40.8512 30.4273 40.2441 30.424C37.6656 30.4076 35.087 30.4087 32.5085 30.424C31.9222 30.4273 31.5032 30.2136 31.1586 29.7392C29.3098 27.1904 28.4652 24.3447 28.5976 21.2021C28.6249 20.5906 29.0089 20.2564 29.499 20C29.8261 20 30.1543 20 30.4814 20C30.6794 20.0427 30.8763 20.0877 31.0754 20.126C32.8345 20.4646 34.4504 21.1834 36.0224 22.0107C36.2806 22.1466 36.4742 22.151 36.7357 22.0162C37.4128 21.6667 38.0889 21.2941 38.8055 21.0454C39.9443 20.6487 41.116 20.3441 42.2734 20C42.6005 20 42.9287 20 43.2558 20Z" fill="white"/>
<path d="M62 48.3562C61.9223 49.8826 62 51.4353 61.7363 52.9288C60.9607 57.3217 58.3921 60.2989 54.2338 61.8823C53.9428 61.993 53.537 61.9919 53.246 61.8801C48.8241 60.1696 46.1833 56.9744 45.656 52.2429C45.4164 50.0952 45.5706 47.9036 45.5488 45.7329C45.5367 44.5944 45.3879 44.1496 46.9862 43.7869C48.4095 43.4636 49.4663 42.5563 50.1697 41.2776C50.3918 40.8743 50.6675 40.7264 51.116 40.7308C52.8489 40.7483 54.5817 40.7516 56.3135 40.7297C56.7949 40.7231 57.0848 40.8798 57.3243 41.3093C58.0901 42.6823 59.2651 43.5337 60.7966 43.8822C61.7276 44.0937 61.9245 44.3325 61.9245 45.2793C61.9245 46.3038 61.9245 47.3295 61.9245 48.354C61.9486 48.3551 61.9726 48.3562 61.9978 48.3573L62 48.3562ZM52.5622 51.9898C52.1028 51.5175 51.6816 51.0737 51.2484 50.6409C50.6631 50.0568 49.9126 50.0141 49.4007 50.5236C48.8898 51.0331 48.9324 51.7947 49.509 52.3766C50.1818 53.0548 50.8578 53.7298 51.5328 54.4048C52.2516 55.1236 52.9025 55.1291 53.6158 54.4158C55.0532 52.9781 56.4885 51.5383 57.9249 50.0985C58.0114 50.0119 58.0989 49.9242 58.1733 49.8267C58.4982 49.4005 58.5135 48.8098 58.2181 48.3715C57.9359 47.9541 57.3812 47.7327 56.8846 47.9036C56.6384 47.988 56.3999 48.1568 56.2129 48.3419C55.0084 49.5287 53.8192 50.7307 52.5622 51.9887V51.9898Z" fill="white"/>
<path d="M37.3603 48.5666C38.0244 48.7693 38.4138 49.2887 38.4434 49.99C38.4784 50.8151 38.0298 51.6183 37.3603 51.8933V48.5666Z" fill="white"/>
<path d="M35.2555 45.3078C34.8759 45.1719 34.691 44.9133 34.6549 44.5462C34.6002 43.9852 34.7698 43.5118 35.2555 43.0823V45.3078Z" fill="white"/>
</svg>
