<svg  viewBox="0 0 82 82" fill="none" xmlns="http://www.w3.org/2000/svg">
<rect width="82" height="82" rx="16" fill="#F14A58"/>
<path d="M44.5882 23.051C46.2859 21.9778 48.0157 21.3465 49.8415 21.1255C53.8776 20.6205 57.4653 21.6306 60.5084 24.3136C62.5905 26.1443 63.8078 28.5117 64.4484 31.1316C65.8258 36.6554 64.6406 41.6111 60.7006 45.8092C56.7285 50.0704 52.5963 54.1739 47.8555 57.646C46.414 58.7192 44.8124 59.603 43.2428 60.4552C41.8334 61.2128 40.3278 61.1497 38.8543 60.4552C36.9003 59.603 35.1706 58.4035 33.5049 57.1094C28.9242 53.5426 24.792 49.5338 20.884 45.3042C15.7267 39.7172 15.6947 30.4371 20.852 24.8502C22.9341 22.6406 25.6569 21.4412 28.732 21.1255C33.1205 20.6521 36.8363 22.0725 39.9434 25.1343C42.0896 27.2807 44.2358 29.3955 46.414 31.5419C47.343 32.4573 48.6563 32.5836 49.6173 31.8576C50.8025 31.0053 50.9306 29.3639 49.8736 28.2592C48.304 26.6494 46.7023 25.0711 45.1007 23.4613C44.9726 23.3351 44.8124 23.2404 44.5882 23.051ZM38.5981 45.1463C38.5981 45.5251 38.5981 45.8408 38.5981 46.188C38.5981 46.8193 38.566 47.4506 38.6621 48.0503C38.8543 49.1551 40.0395 49.9757 41.1607 49.8495C42.3779 49.7232 43.3069 48.8394 43.3709 47.6399C43.403 46.8193 43.3709 45.9986 43.3709 45.1148C44.2358 45.1148 45.0046 45.1148 45.8054 45.1148C46.8945 45.1148 47.7914 44.4519 48.0797 43.4418C48.5602 41.8952 47.4391 40.4116 45.7413 40.3801C44.9726 40.3801 44.2038 40.3801 43.403 40.3801C43.403 40.096 43.403 39.9066 43.403 39.7172C43.403 39.0859 43.403 38.423 43.403 37.7917C43.3389 36.6238 42.2818 35.7085 41.0646 35.6769C39.8153 35.6769 38.7262 36.5923 38.6621 37.7917C38.6301 38.644 38.6621 39.4647 38.6621 40.3801C37.8613 40.3801 37.1246 40.3801 36.4198 40.3801C34.9143 40.3801 33.8572 41.3901 33.8572 42.7474C33.8572 44.1047 34.9463 45.1148 36.4198 45.1148C37.1566 45.1148 37.8613 45.1148 38.6621 45.1148L38.5981 45.1463Z" fill="white"/>
</svg>
