<svg width="341" height="125" viewBox="0 0 341 125" fill="none" xmlns="http://www.w3.org/2000/svg">
<path d="M145.19 38.502C142.574 38.502 140.217 37.937 138.118 36.807C136.05 35.6446 134.423 34.0464 133.236 32.0124C132.081 29.9783 131.503 27.6698 131.503 25.0869C131.503 22.5039 132.081 20.1954 133.236 18.1613C134.423 16.1273 136.05 14.5452 138.118 13.4152C140.217 12.2528 142.574 11.6717 145.19 11.6717C147.776 11.6717 150.026 12.2528 151.943 13.4152C153.889 14.5452 155.304 16.1757 156.186 18.3066L150.665 21.4546C149.388 19.0654 147.547 17.8708 145.145 17.8708C143.289 17.8708 141.753 18.5165 140.536 19.808C139.32 21.0994 138.711 22.8591 138.711 25.0869C138.711 27.3146 139.32 29.0743 140.536 30.3657C141.753 31.6572 143.289 32.303 145.145 32.303C147.578 32.303 149.418 31.1083 150.665 28.7191L156.186 31.9155C155.304 33.9819 153.889 35.5962 151.943 36.7585C150.026 37.9209 147.776 38.502 145.19 38.502Z" fill="#070707"/>
<path d="M167.082 15.4977C167.934 14.2385 169.074 13.286 170.504 12.6403C171.964 11.9946 173.637 11.6717 175.523 11.6717V18.6456C174.732 18.5811 174.199 18.5488 173.926 18.5488C171.888 18.5488 170.291 19.1622 169.135 20.3891C167.979 21.5837 167.401 23.3918 167.401 25.8133V38.1146H160.284V12.0591H167.082V15.4977Z" fill="#070707"/>
<path d="M203.576 25.1837C203.576 25.2806 203.531 25.9586 203.439 27.2178H184.87C185.205 28.8321 185.995 30.1075 187.242 31.0438C188.49 31.9801 190.041 32.4482 191.896 32.4482C193.174 32.4482 194.299 32.2545 195.272 31.8671C196.276 31.4474 197.204 30.8016 198.056 29.9299L201.842 34.2886C199.531 37.0975 196.155 38.502 191.714 38.502C188.946 38.502 186.497 37.937 184.368 36.807C182.239 35.6446 180.596 34.0464 179.441 32.0124C178.285 29.9783 177.707 27.6698 177.707 25.0869C177.707 22.5362 178.27 20.2438 179.395 18.2098C180.551 16.1434 182.117 14.5452 184.094 13.4152C186.102 12.2528 188.337 11.6717 190.801 11.6717C193.204 11.6717 195.379 12.2206 197.326 13.3183C199.272 14.4161 200.793 15.9981 201.888 18.0645C203.013 20.0985 203.576 22.4716 203.576 25.1837ZM190.847 17.3864C189.235 17.3864 187.881 17.8708 186.786 18.8394C185.691 19.808 185.022 21.1317 184.779 22.8106H196.869C196.626 21.164 195.957 19.8564 194.862 18.8878C193.767 17.8869 192.428 17.3864 190.847 17.3864Z" fill="#070707"/>
<path d="M217.547 11.6717C221.349 11.6717 224.269 12.6403 226.307 14.5775C228.345 16.4824 229.364 19.3721 229.364 23.2465V38.1146H222.703V34.8698C221.364 37.2913 218.87 38.502 215.22 38.502C213.334 38.502 211.692 38.163 210.293 37.485C208.924 36.807 207.875 35.8706 207.145 34.676C206.415 33.4814 206.05 32.1254 206.05 30.6079C206.05 28.1864 206.901 26.2815 208.605 24.8931C210.338 23.5048 213 22.8106 216.589 22.8106H222.246C222.246 21.164 221.775 19.9048 220.832 19.0331C219.889 18.129 218.475 17.677 216.589 17.677C215.281 17.677 213.988 17.903 212.711 18.3551C211.464 18.7748 210.399 19.3559 209.517 20.0985L206.962 14.8196C208.3 13.8188 209.897 13.0439 211.753 12.495C213.638 11.9461 215.57 11.6717 217.547 11.6717ZM217 33.4169C218.216 33.4169 219.296 33.1263 220.239 32.5451C221.182 31.9317 221.851 31.0438 222.246 29.8814V27.2178H217.365C214.445 27.2178 212.985 28.2348 212.985 30.2689C212.985 31.2375 213.334 32.0124 214.034 32.5935C214.764 33.1424 215.752 33.4169 217 33.4169Z" fill="#070707"/>
<path d="M251.637 36.8554C250.938 37.4043 250.071 37.824 249.037 38.1146C248.033 38.3729 246.968 38.502 245.843 38.502C242.923 38.502 240.657 37.711 239.045 36.1289C237.463 34.5469 236.672 32.2222 236.672 29.155V18.4519H232.886V12.6403H236.672V6.29593H243.79V12.6403H249.904V18.4519H243.79V29.0581C243.79 30.1559 244.048 31.0115 244.566 31.6249C245.113 32.2061 245.873 32.4967 246.847 32.4967C247.972 32.4967 248.93 32.1738 249.721 31.5281L251.637 36.8554Z" fill="#070707"/>
<path d="M255.633 12.0591H262.75V38.1146H255.633V12.0591ZM259.192 8.42686C257.884 8.42686 256.819 8.02327 255.998 7.2161C255.177 6.40893 254.766 5.40804 254.766 4.21343C254.766 3.01882 255.177 2.01793 255.998 1.21076C256.819 0.403586 257.884 0 259.192 0C260.499 0 261.564 0.387443 262.385 1.16233C263.207 1.93721 263.617 2.90581 263.617 4.06814C263.617 5.32733 263.207 6.37665 262.385 7.2161C261.564 8.02327 260.499 8.42686 259.192 8.42686Z" fill="#070707"/>
<path d="M293.72 12.0591L283.363 38.1146H276.017L265.706 12.0591H273.052L279.85 29.7846L286.876 12.0591H293.72Z" fill="#070707"/>
<path d="M320 25.1837C320 25.2806 319.954 25.9586 319.863 27.2178H301.294C301.628 28.8321 302.419 30.1075 303.666 31.0438C304.913 31.9801 306.465 32.4482 308.32 32.4482C309.597 32.4482 310.723 32.2545 311.696 31.8671C312.7 31.4474 313.628 30.8016 314.479 29.9299L318.266 34.2886C315.955 37.0975 312.578 38.502 308.137 38.502C305.37 38.502 302.921 37.937 300.792 36.807C298.663 35.6446 297.02 34.0464 295.864 32.0124C294.709 29.9783 294.131 27.6698 294.131 25.0869C294.131 22.5362 294.693 20.2438 295.819 18.2098C296.975 16.1434 298.541 14.5452 300.518 13.4152C302.526 12.2528 304.761 11.6717 307.225 11.6717C309.628 11.6717 311.803 12.2206 313.749 13.3183C315.696 14.4161 317.217 15.9981 318.312 18.0645C319.437 20.0985 320 22.4716 320 25.1837ZM307.271 17.3864C305.659 17.3864 304.305 17.8708 303.21 18.8394C302.115 19.808 301.446 21.1317 301.202 22.8106H313.293C313.05 21.164 312.381 19.8564 311.286 18.8878C310.191 17.8869 308.852 17.3864 307.271 17.3864Z" fill="#070707"/>
<path d="M147.836 55.3045C150.118 55.3045 152.186 55.8696 154.041 56.9996C155.927 58.0973 157.402 59.6633 158.467 61.6973C159.532 63.6991 160.064 66.0399 160.064 68.7197C160.064 71.3995 159.532 73.7564 158.467 75.7905C157.402 77.7923 155.927 79.3582 154.041 80.4882C152.186 81.586 150.118 82.1349 147.836 82.1349C144.703 82.1349 142.24 81.0856 140.445 78.9869V91.1429H133.328V55.692H140.126V58.6947C141.89 56.4346 144.46 55.3045 147.836 55.3045ZM146.604 75.9358C148.429 75.9358 149.92 75.2901 151.076 73.9986C152.262 72.6748 152.855 70.9152 152.855 68.7197C152.855 66.5242 152.262 64.7807 151.076 63.4892C149.92 62.1655 148.429 61.5036 146.604 61.5036C144.779 61.5036 143.274 62.1655 142.088 63.4892C140.932 64.7807 140.354 66.5242 140.354 68.7197C140.354 70.9152 140.932 72.6748 142.088 73.9986C143.274 75.2901 144.779 75.9358 146.604 75.9358Z" fill="#070707"/>
<path d="M164.828 55.692H171.946V81.7474H164.828V55.692ZM168.387 52.0597C167.079 52.0597 166.015 51.6561 165.193 50.849C164.372 50.0418 163.962 49.0409 163.962 47.8463C163.962 46.6517 164.372 45.6508 165.193 44.8436C166.015 44.0364 167.079 43.6329 168.387 43.6329C169.695 43.6329 170.76 44.0203 171.581 44.7952C172.402 45.5701 172.813 46.5387 172.813 47.701C172.813 48.9602 172.402 50.0095 171.581 50.849C170.76 51.6561 169.695 52.0597 168.387 52.0597Z" fill="#070707"/>
<path d="M194.155 81.7474L188.772 73.7565L183.205 81.7474H175.449L184.893 68.6228L175.768 55.692H183.753L188.954 63.2955L194.292 55.692H201.866L192.741 68.4291L202.231 81.7474H194.155Z" fill="#070707"/>
<path d="M228.973 68.8166C228.973 68.9134 228.927 69.5914 228.836 70.8506H210.267C210.601 72.465 211.392 73.7403 212.639 74.6766C213.886 75.6129 215.437 76.0811 217.293 76.0811C218.57 76.0811 219.696 75.8874 220.669 75.4999C221.673 75.0802 222.601 74.4345 223.452 73.5627L227.239 77.9214C224.927 80.7304 221.551 82.1349 217.11 82.1349C214.342 82.1349 211.894 81.5699 209.765 80.4398C207.636 79.2775 205.993 77.6793 204.837 75.6452C203.681 73.6112 203.104 71.3027 203.104 68.7197C203.104 66.1691 203.666 63.8767 204.792 61.8426C205.947 59.7763 207.514 58.1781 209.491 57.048C211.498 55.8857 213.734 55.3045 216.198 55.3045C218.601 55.3045 220.776 55.8534 222.722 56.9512C224.669 58.0489 226.19 59.631 227.285 61.6973C228.41 63.7314 228.973 66.1045 228.973 68.8166ZM216.243 61.0193C214.631 61.0193 213.278 61.5036 212.183 62.4722C211.088 63.4408 210.419 64.7646 210.175 66.4435H222.266C222.023 64.7969 221.354 63.4892 220.259 62.5206C219.164 61.5197 217.825 61.0193 216.243 61.0193Z" fill="#070707"/>
<path d="M233.711 45.8122H240.829V81.7474H233.711V45.8122Z" fill="#070707"/>
<path d="M255.693 82.1349C253.655 82.1349 251.662 81.8766 249.716 81.36C247.769 80.8111 246.218 80.1331 245.062 79.3259L247.435 73.9017C248.53 74.6443 249.853 75.2578 251.404 75.7421C252.955 76.1941 254.476 76.4201 255.966 76.4201C258.978 76.4201 260.483 75.6291 260.483 74.047C260.483 73.3044 260.073 72.7717 259.251 72.4488C258.43 72.126 257.168 71.8515 255.465 71.6255C253.457 71.3026 251.799 70.9314 250.491 70.5116C249.184 70.0919 248.043 69.3493 247.07 68.2838C246.127 67.2184 245.655 65.7009 245.655 63.7314C245.655 62.0848 246.096 60.6319 246.978 59.3727C247.891 58.0812 249.199 57.0803 250.902 56.37C252.636 55.6597 254.674 55.3045 257.016 55.3045C258.75 55.3045 260.468 55.5144 262.171 55.9341C263.905 56.3216 265.335 56.8704 266.46 57.5808L264.088 62.9565C261.928 61.665 259.571 61.0193 257.016 61.0193C255.495 61.0193 254.354 61.2453 253.594 61.6973C252.834 62.1493 252.453 62.7305 252.453 63.4408C252.453 64.248 252.864 64.813 253.685 65.1359C254.506 65.4587 255.814 65.7655 257.609 66.056C259.616 66.4112 261.259 66.7986 262.536 67.2184C263.814 67.6058 264.924 68.3323 265.867 69.3977C266.81 70.4632 267.281 71.9484 267.281 73.8533C267.281 75.4677 266.825 76.9044 265.913 78.1636C265 79.4228 263.662 80.4075 261.898 81.1178C260.164 81.7959 258.096 82.1349 255.693 82.1349Z" fill="#070707"/>
<path d="M16.5334 70.6921C12.8161 64.5974 10.8565 57.478 10.9214 50.2133C10.9214 38.9034 15.0133 29.4593 23.2043 21.8887C29.3134 16.2376 36.5607 12.6894 44.9535 11.2594V2.02177C32.1662 2.09059 21.4898 6.61763 12.9385 15.5952C4.31524 24.6417 0 35.9287 0 49.4486C0 58.3803 1.97392 66.5397 5.90735 73.9115C9.73271 81.1608 15.3519 87.1561 22.1525 91.2549C28.9964 95.4302 36.5895 97.5178 44.9391 97.5408V89.7102C40.4221 88.9149 36.0492 87.4008 31.9573 85.2138C25.4232 81.7038 20.2795 76.8632 16.5334 70.6921Z" fill="#FFE400"/>
<path d="M29.6592 67.3732C25.452 62.5786 23.3484 56.6521 23.3484 49.6092C23.3484 42.5663 25.4232 36.701 29.5728 32.0134C33.6935 27.3564 38.8156 25.0087 44.9607 24.9781V11.2594C36.5751 12.697 29.3206 16.2376 23.2115 21.8887C15.0277 29.4593 10.9286 38.9034 10.9286 50.2133C10.871 57.478 12.8233 64.5974 16.5478 70.692C20.2867 76.8632 25.4304 81.7038 31.9717 85.2061C36.0564 87.3932 40.4293 88.9073 44.9463 89.7026V74.5614C38.9164 74.5309 33.8232 72.1373 29.6592 67.3732Z" fill="#EC9122"/>
<path d="M98.2565 23.8387C102.428 28.9087 105.093 35.1716 105.929 41.8398C107.326 52.2168 104.733 61.4468 98.1628 69.5374C93.2568 75.5709 87.0397 79.8302 79.5186 82.3079L80.6569 90.7808C92.3923 88.9379 101.621 83.3097 108.364 73.8885C115.15 64.3833 117.707 53.4327 116.036 41.0139C114.934 32.8163 112.124 25.6052 107.6 19.3882C103.198 13.2705 97.3055 8.54468 90.5625 5.73058C83.7762 2.86294 76.5434 1.99118 68.871 3.13059L69.8364 10.3264C74.0796 10.4259 78.2867 11.2135 82.3066 12.6435C88.7471 14.9682 94.0637 18.6999 98.2565 23.8387Z" fill="#EC3593"/>
<path d="M86.6435 28.7022C91.0956 32.5258 93.7539 37.6646 94.6184 44.1263C95.4829 50.5804 94.3014 56.2545 91.074 61.1409C87.8682 65.9815 83.4449 68.8491 77.8113 69.7362L79.5042 82.3079C87.0253 79.8226 93.2352 75.5709 98.1484 69.5374C104.726 61.4545 107.312 52.2168 105.922 41.8398C105.079 35.164 102.413 28.9087 98.2492 23.8387C94.0493 18.6923 88.7327 14.9682 82.3066 12.6588C78.2867 11.2211 74.0796 10.4411 69.8364 10.3417L71.7022 24.2211C77.2422 23.4181 82.2274 24.917 86.6435 28.7022Z" fill="#B11F80"/>
<path d="M69.1282 3.20802L51.6975 5.84696L67.6047 124.235L85.0354 121.596L69.1282 3.20802Z" fill="#EC3593"/>
</svg>
