<svg  viewBox="0 0 82 82" fill="none" xmlns="http://www.w3.org/2000/svg">
<rect width="82" height="82" rx="16" fill="#3078FF"/>
<path d="M37.1659 62H36.6866C31.6159 62 26.5488 62 21.478 62C20.4061 62 20.0037 61.5976 20.0037 60.5366C20 52.3634 20 44.1939 20 36.0244C20 35.8854 20 35.75 20 35.578H37.1659V62ZM25.7878 42.9829C25.7878 41.7171 25.7878 40.4512 25.7878 39.1854C25.7878 38.3878 25.3232 37.861 24.6317 37.861C23.9439 37.861 23.4756 38.3878 23.4756 39.1854C23.4756 41.7171 23.4756 44.2524 23.4756 46.7841C23.4756 47.578 23.9439 48.1085 24.6317 48.1085C25.3195 48.1085 25.7878 47.578 25.7878 46.7841C25.7878 45.5183 25.7878 44.2524 25.7878 42.9866V42.9829Z" fill="white"/>
<path d="M39.5293 62V40.8537H61.9927V41.289C61.9927 47.7098 61.9927 54.1305 61.9927 60.5512C61.9927 61.5866 61.5793 62 60.5402 62C53.6805 62 46.8207 62 39.961 62C39.8256 62 39.6902 62 39.5293 62ZM43.6415 51.4122C43.6524 55.3378 46.828 58.528 50.7244 58.5244C54.6902 58.5244 57.8585 55.3451 57.8585 51.3793C57.8585 47.4683 54.6427 44.2963 50.6951 44.3073C46.8244 44.3183 43.6341 47.5341 43.6451 51.4122H43.6415Z" fill="white"/>
<path d="M37.1951 33.2183H20V32.7829C20 28.9927 20 25.2061 20 21.4159C20 20.428 20.4207 20 21.3976 20C28.7256 20 36.0537 20 43.3817 20C44.3695 20 44.7976 20.4207 44.7976 21.3976C44.7976 23.878 44.7976 26.3585 44.7976 28.8354V29.2561C44.5744 29.2561 44.3732 29.2561 44.1719 29.2561C43.0707 29.2561 41.9695 29.2561 40.8646 29.2561C38.6732 29.2561 37.2244 30.6976 37.1915 32.9C37.1915 32.9915 37.1915 33.0866 37.1915 33.2146L37.1951 33.2183ZM25.7878 26.6549C25.7878 26.0073 25.7951 25.3598 25.7878 24.7159C25.7805 23.9915 25.2939 23.4756 24.6317 23.4756C23.9732 23.4756 23.4793 23.9915 23.4756 24.7159C23.4683 25.9817 23.4683 27.2476 23.4756 28.5134C23.4793 29.2378 23.9695 29.7537 24.628 29.7537C25.2902 29.7537 25.7768 29.2378 25.7841 28.5134C25.7915 27.8951 25.7841 27.2768 25.7841 26.6549H25.7878Z" fill="white"/>
<path d="M39.5146 38.4902C39.5146 36.5329 39.5037 34.6049 39.522 32.6768C39.5256 32.0732 40.0049 31.6268 40.6085 31.5793C40.7329 31.5683 40.8573 31.5756 40.9817 31.5756C47.4976 31.5756 54.0134 31.5756 60.5329 31.5756C61.5976 31.5756 62 31.9817 62 33.05C62 34.828 62 36.6061 61.9963 38.3841C61.9963 38.4098 61.9854 38.4354 61.9744 38.4939H39.5146V38.4902ZM45.2951 35.0585C45.3061 34.4293 44.7866 33.8988 44.1537 33.8915C43.5244 33.8841 42.9939 34.4037 42.9866 35.0329C42.9793 35.6659 43.4988 36.1963 44.128 36.2C44.761 36.2037 45.2878 35.6915 45.2951 35.0585ZM48.7598 33.8915C48.1305 33.8951 47.611 34.4256 47.6146 35.0585C47.622 35.6915 48.1524 36.211 48.778 36.2037C49.411 36.1963 49.9268 35.6695 49.9232 35.0366C49.9232 34.4073 49.389 33.8878 48.7561 33.8915H48.7598Z" fill="white"/>
<path d="M50.7646 46.6232C53.4134 46.6305 55.561 48.7963 55.5463 51.4488C55.5354 54.0719 53.3732 56.2159 50.739 56.2122C48.0976 56.2085 45.9427 54.0317 45.9573 51.3829C45.9719 48.7561 48.1341 46.6159 50.7646 46.6232Z" fill="white"/>
</svg>
