<svg width="218" height="216" viewBox="0 0 218 216" fill="none" xmlns="http://www.w3.org/2000/svg">
<path d="M59.769 81.1086L58.6266 70.5272L45.9515 53.7831L53.4751 52.9709L61.2786 64.1763L66.6717 51.5462L74.0746 50.747L65.1803 69.779L66.327 80.4006L59.769 81.1086ZM90.2265 78.1461C87.3028 78.4617 84.703 78.1319 82.4269 77.1565C80.1747 76.1515 78.3547 74.6249 76.9668 72.5768C75.576 70.5019 74.7257 68.0294 74.4158 65.1595C74.0973 62.209 74.4109 59.5838 75.3565 57.2838C76.3261 54.954 77.8186 53.0698 79.834 51.6312C81.8466 50.1657 84.3147 49.2752 87.2384 48.9595C90.1083 48.6497 92.668 48.9839 94.9172 49.9621C97.1933 50.9375 99.0387 52.4478 100.453 54.493C101.892 56.5084 102.769 58.978 103.085 61.9016C103.395 64.7716 103.08 67.3834 102.14 69.7371C101.197 72.0639 99.7075 73.9749 97.671 75.4701C95.6584 76.9356 93.1769 77.8276 90.2265 78.1461ZM89.6826 71.9774C91.5065 71.7805 92.9369 71.2055 93.9736 70.2523C95.0104 69.2992 95.7141 68.1514 96.0847 66.809C96.4554 65.4665 96.5683 64.1247 96.4235 62.7836C96.3164 61.7911 96.0617 60.8146 95.6595 59.8541C95.2841 58.8906 94.7431 58.0264 94.0364 57.2615C93.3566 56.4937 92.5064 55.9072 91.4857 55.5018C90.4651 55.0964 89.244 54.9705 87.8224 55.1239C86.0254 55.3179 84.6084 55.8915 83.5717 56.8446C82.532 57.7709 81.8134 58.9067 81.416 60.2521C81.0453 61.5946 80.9368 62.9766 81.0902 64.3982C81.2437 65.8198 81.6582 67.1453 82.3336 68.3749C83.009 69.6045 83.9535 70.5608 85.1669 71.2438C86.4071 71.924 87.9123 72.1685 89.6826 71.9774ZM120.134 74.9174C117.317 75.2214 114.942 74.9623 113.008 74.1399C111.074 73.3176 109.558 71.9618 108.458 70.0725C107.386 68.1803 106.696 65.8126 106.389 62.9695L104.712 47.4394L111.23 46.7358L112.946 62.6279C113.07 63.7813 113.363 64.8622 113.825 65.8706C114.287 66.879 114.983 67.6722 115.914 68.2501C116.841 68.8012 118.056 68.9956 119.558 68.8335C121.087 68.6684 122.204 68.2086 122.91 67.4541C123.642 66.6967 124.099 65.779 124.281 64.7011C124.49 63.6203 124.534 62.5166 124.412 61.39L122.697 45.4979L129.214 44.7942L130.891 60.3243C131.195 63.1406 131.025 65.5876 130.381 67.6651C129.737 69.7426 128.573 71.4014 126.889 72.6414C125.202 73.8547 122.95 74.6133 120.134 74.9174ZM137.005 72.7703L133.93 44.2851L145.678 43.0168C147.02 42.872 148.362 42.8628 149.705 42.9891C151.072 43.0857 152.342 43.41 153.514 43.9618C154.686 44.5136 155.66 45.3717 156.437 46.536C157.238 47.6707 157.741 49.1902 157.947 51.0945C158.086 52.382 158 53.5988 157.69 54.7448C157.379 55.8908 156.839 56.9125 156.067 57.8099C155.322 58.7043 154.331 59.449 153.093 60.044L160.743 70.2077L153.34 71.0069L146.768 61.785L142.463 62.2497L143.523 72.0667L137.005 72.7703ZM141.842 56.4964L146.871 55.9534C147.649 55.8695 148.326 55.7286 148.902 55.5307C149.501 55.3032 150.001 55.0322 150.401 54.7176C150.799 54.3762 151.08 53.966 151.245 53.4868C151.437 53.0048 151.512 52.4405 151.47 51.7938C151.374 50.9087 151.087 50.2613 150.609 49.8517C150.157 49.4391 149.572 49.1766 148.855 49.0641C148.137 48.9517 147.322 48.9447 146.41 49.0431L141.1 49.6165L141.842 56.4964ZM55.9534 127.788L52.8782 99.3026L59.396 98.5989L61.824 121.089L75.8655 119.574L76.5127 125.568L55.9534 127.788ZM91.9813 124.224C89.0577 124.54 86.4578 124.21 84.1817 123.234C81.9296 122.229 80.1095 120.703 78.7216 118.655C77.3308 116.58 76.4805 114.107 76.1707 111.237C75.8522 108.287 76.1657 105.662 77.1113 103.362C78.0809 101.032 79.5734 99.1477 81.5889 97.709C83.6015 96.2435 86.0696 95.353 88.9932 95.0374C91.8632 94.7275 94.4228 95.0617 96.6721 96.04C98.9481 97.0153 100.794 98.5256 102.208 100.571C103.647 102.586 104.524 105.056 104.84 107.979C105.15 110.849 104.835 113.461 103.895 115.815C102.952 118.142 101.462 120.053 99.4258 121.548C97.4133 123.013 94.9317 123.905 91.9813 124.224ZM91.4374 118.055C93.2614 117.858 94.6917 117.283 95.7285 116.33C96.7652 115.377 97.4689 114.229 97.8396 112.887C98.2102 111.544 98.3231 110.203 98.1783 108.861C98.0712 107.869 97.8165 106.892 97.4144 105.932C97.039 104.968 96.498 104.104 95.7913 103.339C95.1114 102.572 94.2612 101.985 93.2406 101.58C92.22 101.174 90.9989 101.048 89.5773 101.202C87.7802 101.396 86.3633 101.969 85.3265 102.922C84.2868 103.849 83.5683 104.985 83.1708 106.33C82.8002 107.672 82.6916 109.054 82.8451 110.476C82.9985 111.898 83.413 113.223 84.0884 114.453C84.7639 115.682 85.7083 116.639 86.9217 117.322C88.1619 118.002 89.6672 118.246 91.4374 118.055ZM122.56 120.923C119.717 121.23 117.184 120.893 114.962 119.911C112.766 118.927 110.988 117.41 109.627 115.359C108.29 113.278 107.46 110.749 107.139 107.772C106.899 105.546 106.991 103.514 107.417 101.677C107.87 99.8375 108.631 98.2221 109.702 96.8312C110.77 95.4134 112.113 94.278 113.731 93.425C115.372 92.5423 117.265 91.9852 119.411 91.7535C121.584 91.519 123.594 91.6682 125.443 92.2013C127.318 92.7315 128.912 93.672 130.225 95.0227C131.561 96.3437 132.524 98.0985 133.113 100.287L126.595 100.991C126.315 100.153 125.891 99.4929 125.323 99.0115C124.753 98.5033 124.064 98.157 123.257 97.9728C122.451 97.7885 121.538 97.7514 120.518 97.8614C119.124 98.012 117.969 98.3808 117.056 98.9679C116.142 99.5549 115.436 100.296 114.935 101.191C114.432 102.06 114.101 103.018 113.943 104.066C113.785 105.114 113.764 106.175 113.88 107.248C114.033 108.669 114.421 109.998 115.043 111.233C115.688 112.439 116.59 113.373 117.746 114.035C118.93 114.694 120.42 114.926 122.218 114.732C123.264 114.619 124.213 114.368 125.067 113.977C125.92 113.586 126.595 113.052 127.092 112.374C127.585 111.67 127.835 110.842 127.841 109.892L120.599 110.674L120 105.122L134.041 103.606L134.184 104.934C134.515 107.991 134.314 110.659 133.583 112.935C132.852 115.212 131.57 117.033 129.736 118.398C127.929 119.76 125.538 120.601 122.56 120.923ZM152.294 117.713C149.37 118.028 146.77 117.699 144.494 116.723C142.242 115.718 140.422 114.192 139.034 112.143C137.643 110.069 136.793 107.596 136.483 104.726C136.165 101.776 136.478 99.1504 137.424 96.8504C138.393 94.5207 139.886 92.6365 141.901 91.1978C143.914 89.7324 146.382 88.8418 149.306 88.5262C152.176 88.2163 154.735 88.5506 156.984 89.5288C159.26 90.5041 161.106 92.0144 162.521 94.0596C163.959 96.0751 164.836 98.5446 165.152 101.468C165.462 104.338 165.147 106.95 164.207 109.304C163.264 111.631 161.775 113.542 159.738 115.037C157.726 116.502 155.244 117.394 152.294 117.713ZM151.75 111.544C153.574 111.347 155.004 110.772 156.041 109.819C157.078 108.866 157.781 107.718 158.152 106.376C158.523 105.033 158.635 103.691 158.491 102.35C158.384 101.358 158.129 100.381 157.727 99.4207C157.351 98.4573 156.81 97.5931 156.104 96.8282C155.424 96.0604 154.574 95.4738 153.553 95.0684C152.532 94.6631 151.311 94.5371 149.89 94.6906C148.093 94.8846 146.676 95.4581 145.639 96.4113C144.599 97.3375 143.881 98.4734 143.483 99.8188C143.113 101.161 143.004 102.543 143.157 103.965C143.311 105.386 143.725 106.712 144.401 107.942C145.076 109.171 146.021 110.127 147.234 110.81C148.474 111.491 149.98 111.735 151.75 111.544ZM65.2716 173.049L62.1964 144.564L68.7142 143.86L69.9478 155.287L81.2936 154.062L80.0601 142.635L86.5779 141.932L89.6531 170.417L83.1353 171.121L81.9408 160.056L70.595 161.281L71.7894 172.345L65.2716 173.049ZM94.5634 169.887L91.4882 141.402L112.49 139.134L113.142 145.169L98.6576 146.733L99.2396 152.124L111.43 150.808L112.056 156.602L99.8651 157.918L100.434 163.188L114.918 161.625L115.565 167.62L94.5634 169.887ZM118.905 167.259L115.829 138.774L127.578 137.505C128.919 137.361 130.261 137.351 131.604 137.478C132.971 137.574 134.241 137.899 135.413 138.45C136.585 139.002 137.56 139.86 138.337 141.025C139.137 142.159 139.641 143.679 139.846 145.583C139.985 146.871 139.9 148.087 139.589 149.233C139.279 150.38 138.738 151.401 137.966 152.299C137.222 153.193 136.23 153.938 134.992 154.533L142.642 164.696L135.239 165.496L128.668 156.274L124.363 156.738L125.422 166.555L118.905 167.259ZM123.741 150.985L128.771 150.442C129.549 150.358 130.225 150.217 130.801 150.019C131.4 149.792 131.9 149.521 132.3 149.206C132.698 148.865 132.979 148.455 133.144 147.976C133.337 147.493 133.411 146.929 133.369 146.283C133.273 145.397 132.986 144.75 132.508 144.34C132.056 143.928 131.472 143.665 130.754 143.553C130.036 143.44 129.222 143.433 128.31 143.532L122.999 144.105L123.741 150.985ZM146.271 164.305L143.196 135.819L164.198 133.552L164.849 139.587L150.365 141.151L150.947 146.542L163.138 145.226L163.764 151.02L151.573 152.336L152.142 157.606L166.626 156.043L167.273 162.037L146.271 164.305Z" fill="#070707"/>
<rect x="3.98008" y="25.2045" width="190.774" height="187.161" transform="rotate(-6.16166 3.98008 25.2045)" stroke="url(#paint0_linear_507_12)" stroke-width="7.22628"/>
<defs>
<linearGradient id="paint0_linear_507_12" x1="3.37776e-06" y1="30.4978" x2="211.703" y2="61.7555" gradientUnits="userSpaceOnUse">
<stop stop-color="#FFCC40"/>
<stop offset="0.466346" stop-color="#EC9122"/>
<stop offset="1" stop-color="#FF2CAE"/>
</linearGradient>
</defs>
</svg>
