<svg width="28" height="31" viewBox="0 0 28 31" fill="none" xmlns="http://www.w3.org/2000/svg">
<path d="M25.212 4.05233H13.9347C13.4915 4.05396 13.0654 3.87909 12.7476 3.56519L10.7001 1.01325C10.4467 0.692457 10.1247 0.434529 9.75865 0.259012C9.39259 0.0834951 8.99202 -0.00500545 8.58732 0.000218524H2.78802C2.04875 0.000728814 1.33989 0.299502 0.817147 0.830919C0.2944 1.36234 0.000501964 2.08295 0 2.83448V20.521C0.000501964 21.2725 0.2944 21.9931 0.817147 22.5245C1.33989 23.0559 2.04875 23.3547 2.78802 23.3552H5.75574C5.70611 22.6863 5.73352 22.0138 5.83742 21.3513C5.51791 21.0058 5.31794 20.5637 5.26783 20.0922C5.21771 19.6207 5.32018 19.1454 5.5597 18.7385L6.40918 17.2438C6.64297 16.8362 6.99702 16.5136 7.42117 16.3218C7.84533 16.1301 8.31808 16.0789 8.77246 16.1755C9.46038 15.6132 10.2301 15.1632 11.0541 14.8414C11.1962 14.3897 11.4759 13.9956 11.8527 13.716C12.2295 13.4364 12.684 13.2857 13.1505 13.2858H14.8495C15.3131 13.2858 15.7649 13.4353 16.1396 13.7129C16.5144 13.9904 16.7929 14.3816 16.935 14.8303C17.7646 15.157 18.5383 15.6147 19.2275 16.1865C19.6848 16.0845 20.1622 16.1343 20.5896 16.3286C21.0169 16.5229 21.3717 16.8515 21.6017 17.266C22.0727 18.1593 23.0358 19.3239 22.6581 20.4324C22.568 20.7752 22.4001 21.0918 22.1681 21.3569C22.2666 22.018 22.2921 22.6883 22.2443 23.3552H25.212C25.9513 23.3547 26.6601 23.0559 27.1829 22.5245C27.7056 21.9931 27.9995 21.2725 28 20.521V6.8866C27.9967 6.13593 27.702 5.41694 27.1798 4.88613C26.6577 4.35532 25.9504 4.05565 25.212 4.05233Z" fill="#FF8630"/>
<path d="M26.4753 3.16663C26.3741 2.56427 26.0666 2.01771 25.6072 1.62363C25.1478 1.22955 24.5661 1.01334 23.965 1.01325H12.105L13.5425 2.80146C14.0676 3.24164 26.2136 2.62579 26.4753 3.16663Z" fill="#FF8630"/>
<path d="M20.9646 24.479C21.2496 23.3029 21.2514 22.0743 20.9701 20.8974L21.0898 20.831C21.3429 20.6802 21.5275 20.4344 21.6039 20.1465C21.6803 19.8586 21.6424 19.5517 21.4983 19.292L20.6488 17.7974C20.5661 17.6606 20.4567 17.5426 20.3272 17.4507C20.1977 17.3588 20.0509 17.295 19.8961 17.2634C19.7413 17.2317 19.5817 17.2328 19.4274 17.2666C19.273 17.3003 19.1271 17.3661 18.9988 17.4597C18.1428 16.6178 17.0981 16.0003 15.9549 15.6606V15.5223C15.9553 15.3743 15.9271 15.2277 15.8718 15.0908C15.8165 14.954 15.7351 14.8295 15.6325 14.7247C15.5298 14.6198 15.4078 14.5365 15.2734 14.4796C15.1391 14.4227 14.995 14.3932 14.8495 14.393H13.1505C12.9922 14.3958 12.8362 14.4322 12.6926 14.4999C12.5489 14.5675 12.4207 14.6649 12.3161 14.7857C12.2116 14.9066 12.133 15.0483 12.0854 15.2018C12.0378 15.3554 12.0222 15.5173 12.0397 15.6773C10.8949 16.0093 9.84654 16.6191 8.98483 17.4542L8.86503 17.3878C8.6107 17.2387 8.30864 17.1981 8.02493 17.2749C7.74123 17.3516 7.49899 17.5395 7.35123 17.7974L6.50175 19.292C6.42611 19.4329 6.37987 19.5882 6.36594 19.7481C6.352 19.908 6.37066 20.0691 6.42075 20.2213C6.47084 20.3735 6.55128 20.5136 6.65705 20.6328C6.76282 20.752 6.89164 20.8477 7.03545 20.914C6.75045 22.09 6.74857 23.3186 7.02995 24.4956C6.88667 24.5601 6.75819 24.6542 6.65272 24.772C6.54724 24.8898 6.4671 25.0287 6.41739 25.1798C6.36769 25.3308 6.34952 25.4908 6.36404 25.6494C6.37857 25.808 6.42547 25.9618 6.50175 26.1009L7.35123 27.5956C7.43342 27.7329 7.54269 27.8514 7.67215 27.9436C7.80162 28.0359 7.94848 28.0999 8.10347 28.1316C8.25847 28.1633 8.41825 28.1621 8.57275 28.1279C8.72724 28.0938 8.87311 28.0275 9.00117 27.9332C9.85716 28.7752 10.9019 29.3926 12.0451 29.7323C12.0281 29.8909 12.0439 30.0514 12.0915 30.2034C12.1391 30.3555 12.2175 30.4957 12.3216 30.6151C12.4257 30.7345 12.5532 30.8304 12.696 30.8967C12.8388 30.963 12.9936 30.9982 13.1505 31H14.8495C15.0078 30.9971 15.1638 30.9607 15.3074 30.8931C15.4511 30.8255 15.5793 30.7281 15.6839 30.6072C15.7884 30.4863 15.867 30.3446 15.9146 30.1911C15.9622 30.0376 15.9777 29.8757 15.9603 29.7157C17.1031 29.3874 18.1474 28.7748 18.9988 27.9332C19.1267 28.028 19.2726 28.0947 19.4272 28.1292C19.5818 28.1636 19.7417 28.165 19.8968 28.1332C20.052 28.1015 20.1989 28.0373 20.3284 27.9447C20.4578 27.8522 20.5669 27.7333 20.6488 27.5956L21.4983 26.1009C21.5737 25.96 21.6198 25.8048 21.6336 25.6449C21.6474 25.4851 21.6287 25.3241 21.5787 25.1719C21.5286 25.0197 21.4482 24.8797 21.3426 24.7604C21.2369 24.6412 21.1083 24.5454 20.9646 24.479ZM14 26.8482C12.917 26.8476 11.8786 26.41 11.1128 25.6315C10.3471 24.8531 9.91659 23.7974 9.91599 22.6965C10.1053 17.2011 17.8956 17.2025 18.084 22.6966C18.0834 23.7975 17.6529 24.8531 16.8871 25.6316C16.1214 26.41 15.083 26.8476 14 26.8482Z" fill="#FF8630"/>
</svg>
