<svg width="118" height="118" viewBox="0 0 118 118" fill="none" xmlns="http://www.w3.org/2000/svg">
<path d="M55.3128 118C53.1545 117.701 50.9807 117.474 48.8347 117.092C35.3459 114.707 24.0277 108.363 14.9171 98.1716C6.47469 88.7283 1.55147 77.6353 0.316815 65.034C-1.17955 49.7671 2.61678 35.8423 11.8751 23.5796C20.6994 11.8894 32.3593 4.40373 46.7164 1.34729C59.885 -1.45676 72.5857 0.134562 84.7413 5.94888C84.9445 6.04738 85.1385 6.16434 85.3694 6.29054C82.6261 9.88255 78.1709 12.148 77.3365 17.1682C64.7744 12.0156 52.2647 12.0125 39.9089 17.6576C30.512 21.9513 23.4735 28.8183 18.6488 37.9507C9.08255 56.0647 13.1006 78.5648 28.406 92.6189C43.579 106.553 66.397 108.357 83.9593 97.082C100.61 86.3921 110.447 63.3134 100.85 40.6563C105.038 40.0899 107.218 36.7011 110.019 34.171C110.558 33.6846 111.042 33.1337 111.651 32.5089C111.891 32.9644 112.092 33.3061 112.261 33.6631C115.374 40.21 117.24 47.0893 117.791 54.3256C117.815 54.6642 117.923 54.9966 117.991 55.3291V62.7009C117.926 62.9963 117.825 63.2918 117.8 63.5904C117.107 72.692 114.508 81.218 109.761 89.0084C100.425 104.321 86.9243 113.734 69.2666 117.083C67.0898 117.495 64.876 117.698 62.6776 117.997H55.3036L55.3128 118Z" fill="url(#paint0_linear_2288_487)" fill-opacity="0.25"/>
<path d="M118 18.4671C117.289 19.5875 116.735 20.8525 115.842 21.8036C111.59 26.3344 107.248 30.7821 102.935 35.2544C101.746 36.4856 100.256 36.6334 98.6704 36.384C96.0195 35.9654 93.3623 35.5684 90.7206 35.1036C89.7323 34.9282 89.0272 35.1282 88.2852 35.8762C79.7103 44.5099 71.0893 53.0975 62.496 61.7097C61.1813 63.0271 59.7095 63.7197 57.8314 63.1964C54.8017 62.35 53.6286 58.7179 55.5992 56.2709C55.8639 55.9447 56.1749 55.6523 56.4705 55.3537C65.0761 46.7507 73.6756 38.1447 82.3028 29.5632C82.8878 28.9815 83.0879 28.4336 82.9555 27.6426C82.5121 24.9955 82.1611 22.333 81.687 19.6921C81.336 17.7407 81.6408 16.0816 83.1526 14.6596C87.848 10.2458 92.4971 5.78575 97.174 1.35345C98.2363 0.346944 99.5264 -0.047039 100.977 0.0422227C103.027 0.165342 104.222 1.18723 104.631 3.20024C105.022 5.11475 105.407 7.03234 105.792 8.94685C106.174 10.846 107.23 11.8771 109.151 12.2434C110.771 12.5512 112.378 12.9452 114.007 13.176C116.017 13.4592 117.458 14.3456 117.997 16.3956V18.4701L118 18.4671Z" fill="url(#paint1_linear_2288_487)" fill-opacity="0.25"/>
<path d="M86.7796 43.288C93.972 55.3568 92.22 73.0306 79.3809 83.6804C66.7049 94.1918 48.0126 93.293 36.3219 81.6028C24.662 69.9403 23.8091 51.2507 34.3822 38.554C45.0415 25.7527 62.6961 24.069 74.9041 31.3361C74.4515 31.6778 74.0266 31.9271 73.6879 32.2626C70.9076 35.0205 68.1304 37.7815 65.384 40.5732C64.9037 41.0626 64.4973 41.2257 63.7953 41.0472C51.3872 37.8461 39.8011 47.2493 40.3399 60.0538C40.734 69.4263 48.6962 77.3336 58.0746 77.6691C67.8964 78.02 76.3019 70.9868 77.4719 61.5004C77.7829 58.9826 77.5859 56.5326 76.9885 54.0856C76.8993 53.7193 76.9731 53.1406 77.2133 52.8944C80.3569 49.6871 83.5405 46.526 86.7796 43.288Z" fill="url(#paint2_linear_2288_487)" fill-opacity="0.25"/>
<defs>
<linearGradient id="paint0_linear_2288_487" x1="118.586" y1="113.264" x2="-10.9273" y2="32.8776" gradientUnits="userSpaceOnUse">
<stop stop-color="#F14A58"/>
<stop offset="1" stop-color="#F14A58" stop-opacity="0.1"/>
</linearGradient>
<linearGradient id="paint1_linear_2288_487" x1="118.586" y1="113.264" x2="-10.9273" y2="32.8776" gradientUnits="userSpaceOnUse">
<stop stop-color="#F14A58"/>
<stop offset="1" stop-color="#F14A58" stop-opacity="0.1"/>
</linearGradient>
<linearGradient id="paint2_linear_2288_487" x1="118.586" y1="113.264" x2="-10.9273" y2="32.8776" gradientUnits="userSpaceOnUse">
<stop stop-color="#F14A58"/>
<stop offset="1" stop-color="#F14A58" stop-opacity="0.1"/>
</linearGradient>
</defs>
</svg>
