<svg width="34" height="34" viewBox="0 0 34 34" fill="none" xmlns="http://www.w3.org/2000/svg">
<path d="M25.002 5.33481H8.99805C6.9781 5.33481 5.33481 6.9781 5.33481 8.99805V25.002C5.33481 27.0219 6.9781 28.6652 8.99805 28.6652H25.002C27.0222 28.6652 28.6655 27.0219 28.6655 25.002V8.99805C28.6655 6.9781 27.0222 5.33481 25.002 5.33481Z" fill="#FFC300"/>
<path d="M6.3309 4.65959C6.88083 4.65959 7.327 4.21368 7.327 3.6635V0.996094C7.327 0.445908 6.88083 0 6.3309 0C5.78072 0 5.33481 0.445908 5.33481 0.996094V3.6635C5.33481 4.21368 5.78072 4.65959 6.3309 4.65959Z" fill="#FFC300"/>
<path d="M3.6635 5.33481H0.996094C0.446167 5.33481 0 5.78072 0 6.3309C0 6.88083 0.446167 7.327 0.996094 7.327H3.6635C4.21343 7.327 4.65959 6.88083 4.65959 6.3309C4.65959 5.78072 4.21343 5.33481 3.6635 5.33481Z" fill="#FFC300"/>
<path d="M27.6694 29.3407C27.1192 29.3407 26.6733 29.7866 26.6733 30.3368V33.0039C26.6733 33.5541 27.1192 34 27.6694 34C28.2193 34 28.6655 33.5541 28.6655 33.0039V30.3368C28.6655 29.7866 28.2193 29.3407 27.6694 29.3407Z" fill="#FFC300"/>
<path d="M33.0039 26.673H30.3368C29.7866 26.673 29.3407 27.1192 29.3407 27.6691C29.3407 28.2193 29.7866 28.6652 30.3368 28.6652H33.0039C33.5541 28.6652 34 28.2193 34 27.6691C34 27.1192 33.5541 26.673 33.0039 26.673Z" fill="#FFC300"/>
<path d="M30.3368 7.327H33.0039C33.5541 7.327 34 6.88083 34 6.3309C34 5.78072 33.5541 5.33481 33.0039 5.33481H30.3368C29.7866 5.33481 29.3407 5.78072 29.3407 6.3309C29.3407 6.88083 29.7866 7.327 30.3368 7.327Z" fill="#FFC300"/>
<path d="M27.6694 0C27.1192 0 26.6733 0.445908 26.6733 0.996094V3.6635C26.6733 4.21368 27.1192 4.65959 27.6694 4.65959C28.2193 4.65959 28.6655 4.21368 28.6655 3.6635V0.996094C28.6655 0.445908 28.2193 0 27.6694 0Z" fill="#FFC300"/>
<path d="M3.6635 26.673H0.996094C0.446167 26.673 0 27.1192 0 27.6691C0 28.2193 0.446167 28.6652 0.996094 28.6652H3.6635C4.21343 28.6652 4.65959 28.2193 4.65959 27.6691C4.65959 27.1192 4.21343 26.673 3.6635 26.673Z" fill="#FFC300"/>
<path d="M6.3309 29.3407C5.78072 29.3407 5.33481 29.7866 5.33481 30.3368V33.0039C5.33481 33.5541 5.78072 34 6.3309 34C6.88083 34 7.327 33.5541 7.327 33.0039V30.3368C7.327 29.7866 6.88083 29.3407 6.3309 29.3407Z" fill="#FFC300"/>
</svg>
