<svg width="30" height="28" viewBox="0 0 30 28" fill="none" xmlns="http://www.w3.org/2000/svg">
<path d="M5.28834 15.6568C5.28834 15.0093 5.0246 14.4242 4.60361 13.9775C5.0246 13.5308 5.28834 12.9456 5.28834 12.2981C5.28834 10.9091 4.10738 9.77916 2.65566 9.77916H0.0229778C0.0229778 10.4237 0.0229778 18.596 0.0229778 18.1758H2.65566C4.10738 18.1758 5.28834 17.0458 5.28834 15.6568ZM1.7781 11.4585H2.65566C3.13984 11.4585 3.53322 11.8349 3.53322 12.2981C3.53322 12.7614 3.13984 13.1378 2.65566 13.1378H1.7781V11.4585ZM1.7781 14.8171H2.65566C3.13984 14.8171 3.53322 15.1935 3.53322 15.6568C3.53322 16.12 3.13984 16.4964 2.65566 16.4964H1.7781V14.8171Z" fill="#3078FF"/>
<path d="M11.4543 12.2981C11.4543 10.9091 10.2733 9.77916 8.82163 9.77916H6.18895C6.18895 10.4237 6.18895 18.596 6.18895 18.1758H7.94407V14.8171H8.27918L10.1842 18.4628L11.7543 17.7116L10.0755 14.4992C10.8926 14.0712 11.4543 13.2505 11.4543 12.2981ZM7.94407 13.1378V11.4585H8.82163C9.30581 11.4585 9.69919 11.8349 9.69919 12.2981C9.69919 12.7614 9.30581 13.1378 8.82163 13.1378H7.94407Z" fill="#3078FF"/>
<path d="M17.5972 18.1758C17.5972 17.5386 17.5972 12.0138 17.5972 12.2981C17.5972 10.9091 16.4163 9.77916 14.9645 9.77916C13.5128 9.77916 12.3319 10.9091 12.3319 12.2981C12.3319 13.6521 12.3319 18.3482 12.3319 18.1758H14.087V14.8171H15.8421V18.1758H17.5972ZM14.087 13.1378V12.2981C14.087 11.8349 14.4804 11.4585 14.9645 11.4585C15.4487 11.4585 15.8421 11.8349 15.8421 12.2981V13.1378H14.087Z" fill="#3078FF"/>
<path d="M27.3443 9.77916H24.6177V18.1758H27.3443C28.7961 18.1758 29.977 17.0458 29.977 15.6568V12.2981C29.977 10.9091 28.7961 9.77916 27.3443 9.77916ZM28.2219 15.6568C28.2219 16.12 27.8285 16.4964 27.3443 16.4964H26.3728V11.4585H27.3443C27.8285 11.4585 28.2219 11.8349 28.2219 12.2981V15.6568Z" fill="#3078FF"/>
<path d="M21.2994 18.1758H23.7401V9.77916H21.985V13.8741L20.9155 9.77916H18.4748V18.1758H20.2299V14.0808L21.2994 18.1758Z" fill="#3078FF"/>
<path d="M26.1107 6.42052C26.1036 6.37042 26.0894 6.32183 26.0917 6.26966L26.0908 5.91543C26.1183 5.22909 25.8389 4.55345 25.3264 4.06471C24.8139 3.57273 24.1043 3.30543 23.4239 3.33085H22.9997C22.6551 3.32267 22.3046 3.13157 22.1598 2.76341L22.021 2.45917C21.7725 1.79824 21.2351 1.27267 20.583 1.03404C19.9351 0.761823 19.1801 0.769212 18.5133 1.04714L18.1414 1.20046C17.7943 1.34561 17.4053 1.27178 17.1293 0.990547L16.8808 0.754379C15.9278 -0.262394 13.9687 -0.229591 13.0809 0.721576L12.7792 1.01019C12.5247 1.27094 12.1356 1.34477 11.7843 1.19878L11.4218 1.05039C10.7482 0.765854 9.99147 0.760928 9.38385 1.01842C8.69397 1.27262 8.15661 1.79824 7.9278 2.41075L7.75381 2.80108C7.6244 3.13151 7.27818 3.34966 6.90884 3.33079L6.53863 3.33163C5.80335 3.3103 5.11604 3.57351 4.60437 4.06303C4.09018 4.55339 3.81082 5.22904 3.83738 5.88341L3.83826 6.30901C3.83995 6.34377 3.80731 6.38363 3.80257 6.42052H0.0229778V8.09984C0.633818 8.09984 30.9511 8.09984 29.977 8.09984V6.42052H26.1107Z" fill="#3078FF"/>
<path d="M0.0229778 19.8551V21.5344H3.81842C3.8255 21.5845 3.83972 21.6331 3.83738 21.6853L3.83826 22.0395C3.81082 22.7258 4.09023 23.4015 4.60267 23.8902C5.11517 24.3822 5.80932 24.6348 6.50522 24.6241H6.92943C7.22938 24.6159 7.62358 24.8225 7.76926 25.1915L7.90809 25.4957C8.15661 26.1567 8.69397 26.6822 9.34612 26.9209C9.99317 27.1931 10.749 27.1865 11.4158 26.9078L11.7877 26.7545C12.1373 26.6093 12.5238 26.6831 12.7998 26.9644L13.0483 27.2005C13.5248 27.7089 14.2232 28 14.9645 28C15.7059 28 16.4043 27.7089 16.8482 27.2333L17.1498 26.9447C17.4052 26.684 17.7951 26.6094 18.1448 26.7561L18.5073 26.9045C19.1784 27.1874 19.935 27.1924 20.5452 26.9365C21.2351 26.6823 21.7725 26.1567 22.0013 25.5442L22.1753 25.1538C22.3047 24.8234 22.6252 24.6102 23.0203 24.6241L23.3905 24.6233C24.1377 24.6643 24.8139 24.3822 25.3247 23.8919C25.8389 23.4015 26.1183 22.7259 26.0917 22.0715L26.0908 21.6459C26.0891 21.6111 26.1218 21.5713 26.1265 21.5344H29.977V19.8551C29.3662 19.8551 -0.951114 19.8551 0.0229778 19.8551Z" fill="#3078FF"/>
</svg>
