<svg width="48" height="42" viewBox="0 0 48 42" fill="none" xmlns="http://www.w3.org/2000/svg">
<path d="M19.1493 30.0984C18.9755 30.0984 18.8005 30.0395 18.6577 29.9197L13.7434 25.7954C13.5739 25.653 13.4764 25.445 13.4764 25.2253C13.4764 25.006 13.5743 24.798 13.7434 24.6556L18.6577 20.5314C18.9768 20.2632 19.4561 20.3012 19.7282 20.6157C19.9998 20.9307 19.9617 21.4031 19.6422 21.6708L15.4072 25.2253L19.6422 28.7798C19.9617 29.048 19.9998 29.5204 19.7282 29.8349C19.5777 30.009 19.3641 30.0984 19.1493 30.0984Z" fill="white"/>
<path d="M28.8507 30.0984C28.6359 30.0984 28.4223 30.009 28.2722 29.8349C28.0002 29.5204 28.0387 29.048 28.3578 28.7798L32.5928 25.2253L28.3578 21.6708C28.0387 21.4031 28.0002 20.9307 28.2722 20.6157C28.5439 20.3012 29.0236 20.2632 29.3423 20.5314L34.2566 24.6556C34.4261 24.798 34.5236 25.006 34.5236 25.2253C34.5236 25.445 34.4261 25.653 34.2566 25.7954L29.3423 29.9197C29.1995 30.0395 29.0245 30.0984 28.8507 30.0984Z" fill="white"/>
<path d="M22.2603 33.1918C22.2082 33.1918 22.1557 33.1864 22.1027 33.1755C21.6925 33.0903 21.4297 32.6931 21.5162 32.2888L24.5789 17.9568C24.6654 17.5524 25.068 17.2935 25.4786 17.3787C25.8888 17.4639 26.1516 17.8607 26.0651 18.2654L23.0024 32.5974C22.927 32.95 22.6117 33.1918 22.2603 33.1918Z" fill="white"/>
<path d="M41.9009 41H6.09906C3.28762 41 1 38.7458 1 35.9744V6.02558C1 3.25466 3.28762 1 6.09906 1H41.9009C44.7124 1 47 3.25466 47 6.02558V35.9744C47 38.7458 44.7124 41 41.9009 41ZM6.09906 2.49698C4.12504 2.49698 2.51887 4.08001 2.51887 6.02558V35.9744C2.51887 37.92 4.12504 39.503 6.09906 39.503H41.9009C43.875 39.503 45.4811 37.92 45.4811 35.9744V6.02558C45.4811 4.08001 43.875 2.49698 41.9009 2.49698H6.09906Z" fill="white"/>
<path d="M46.2406 12.9855H1.75943C1.33988 12.9855 1 12.6505 1 12.237C1 11.8239 1.33988 11.4885 1.75943 11.4885H46.2406C46.6601 11.4885 47 11.8239 47 12.237C47 12.6505 46.6601 12.9855 46.2406 12.9855Z" fill="white"/>
<path d="M13.9756 9.40382C12.6509 9.40382 11.5723 8.34081 11.5723 7.03513C11.5723 5.72903 12.6509 4.66644 13.9756 4.66644C15.3008 4.66644 16.379 5.72903 16.379 7.03513C16.379 8.34081 15.3008 9.40382 13.9756 9.40382ZM13.9756 6.16342C13.4883 6.16342 13.0912 6.55437 13.0912 7.03513C13.0912 7.51588 13.4883 7.90684 13.9756 7.90684C14.4634 7.90684 14.8601 7.51588 14.8601 7.03513C14.8601 6.55437 14.4634 6.16342 13.9756 6.16342Z" fill="white"/>
<path d="M6.5915 9.38085C5.26631 9.38085 4.18818 8.31826 4.18818 7.01215C4.18818 5.70605 5.26631 4.64346 6.5915 4.64346C7.9167 4.64346 8.99482 5.70605 8.99482 7.01215C8.99482 8.31826 7.9167 9.38085 6.5915 9.38085ZM6.5915 6.14045C6.10414 6.14045 5.70705 6.53182 5.70705 7.01215C5.70705 7.49291 6.10414 7.88386 6.5915 7.88386C7.07929 7.88386 7.47595 7.49291 7.47595 7.01215C7.47595 6.53182 7.07929 6.14045 6.5915 6.14045Z" fill="white"/>
<path d="M21.3598 9.42637C20.035 9.42637 18.9569 8.36378 18.9569 7.05768C18.9569 5.752 20.035 4.68941 21.3598 4.68941C22.685 4.68941 23.7631 5.752 23.7631 7.05768C23.7631 8.36378 22.685 9.42637 21.3598 9.42637ZM21.3598 6.18597C20.8724 6.18597 20.4758 6.57693 20.4758 7.05768C20.4758 7.53844 20.8724 7.92939 21.3598 7.92939C21.8476 7.92939 22.2442 7.53844 22.2442 7.05768C22.2442 6.57693 21.8476 6.18597 21.3598 6.18597Z" fill="white"/>
<path d="M19.1493 30.0984C18.9755 30.0984 18.8005 30.0395 18.6577 29.9197L13.7434 25.7954C13.5739 25.653 13.4764 25.445 13.4764 25.2253C13.4764 25.006 13.5743 24.798 13.7434 24.6556L18.6577 20.5314C18.9768 20.2632 19.4561 20.3012 19.7282 20.6157C19.9998 20.9307 19.9617 21.4031 19.6422 21.6708L15.4072 25.2253L19.6422 28.7798C19.9617 29.048 19.9998 29.5204 19.7282 29.8349C19.5777 30.009 19.3641 30.0984 19.1493 30.0984Z" stroke="white" stroke-width="0.5"/>
<path d="M28.8507 30.0984C28.6359 30.0984 28.4223 30.009 28.2722 29.8349C28.0002 29.5204 28.0387 29.048 28.3578 28.7798L32.5928 25.2253L28.3578 21.6708C28.0387 21.4031 28.0002 20.9307 28.2722 20.6157C28.5439 20.3012 29.0236 20.2632 29.3423 20.5314L34.2566 24.6556C34.4261 24.798 34.5236 25.006 34.5236 25.2253C34.5236 25.445 34.4261 25.653 34.2566 25.7954L29.3423 29.9197C29.1995 30.0395 29.0245 30.0984 28.8507 30.0984Z" stroke="white" stroke-width="0.5"/>
<path d="M22.2603 33.1918C22.2082 33.1918 22.1557 33.1864 22.1027 33.1755C21.6925 33.0903 21.4297 32.6931 21.5162 32.2888L24.5789 17.9568C24.6654 17.5524 25.068 17.2935 25.4786 17.3787C25.8888 17.4639 26.1516 17.8607 26.0651 18.2654L23.0024 32.5974C22.927 32.95 22.6117 33.1918 22.2603 33.1918Z" stroke="white" stroke-width="0.5"/>
<path d="M41.9009 41H6.09906C3.28762 41 1 38.7458 1 35.9744V6.02558C1 3.25466 3.28762 1 6.09906 1H41.9009C44.7124 1 47 3.25466 47 6.02558V35.9744C47 38.7458 44.7124 41 41.9009 41ZM6.09906 2.49698C4.12504 2.49698 2.51887 4.08001 2.51887 6.02558V35.9744C2.51887 37.92 4.12504 39.503 6.09906 39.503H41.9009C43.875 39.503 45.4811 37.92 45.4811 35.9744V6.02558C45.4811 4.08001 43.875 2.49698 41.9009 2.49698H6.09906Z" stroke="white" stroke-width="0.5"/>
<path d="M46.2406 12.9855H1.75943C1.33988 12.9855 1 12.6505 1 12.237C1 11.8239 1.33988 11.4885 1.75943 11.4885H46.2406C46.6601 11.4885 47 11.8239 47 12.237C47 12.6505 46.6601 12.9855 46.2406 12.9855Z" stroke="white" stroke-width="0.5"/>
<path d="M13.9756 9.40382C12.6509 9.40382 11.5723 8.34081 11.5723 7.03513C11.5723 5.72903 12.6509 4.66644 13.9756 4.66644C15.3008 4.66644 16.379 5.72903 16.379 7.03513C16.379 8.34081 15.3008 9.40382 13.9756 9.40382ZM13.9756 6.16342C13.4883 6.16342 13.0912 6.55437 13.0912 7.03513C13.0912 7.51588 13.4883 7.90684 13.9756 7.90684C14.4634 7.90684 14.8601 7.51588 14.8601 7.03513C14.8601 6.55437 14.4634 6.16342 13.9756 6.16342Z" stroke="white" stroke-width="0.5"/>
<path d="M6.5915 9.38085C5.26631 9.38085 4.18818 8.31826 4.18818 7.01215C4.18818 5.70605 5.26631 4.64346 6.5915 4.64346C7.9167 4.64346 8.99482 5.70605 8.99482 7.01215C8.99482 8.31826 7.9167 9.38085 6.5915 9.38085ZM6.5915 6.14045C6.10414 6.14045 5.70705 6.53182 5.70705 7.01215C5.70705 7.49291 6.10414 7.88386 6.5915 7.88386C7.07929 7.88386 7.47595 7.49291 7.47595 7.01215C7.47595 6.53182 7.07929 6.14045 6.5915 6.14045Z" stroke="white" stroke-width="0.5"/>
<path d="M21.3598 9.42637C20.035 9.42637 18.9569 8.36378 18.9569 7.05768C18.9569 5.752 20.035 4.68941 21.3598 4.68941C22.685 4.68941 23.7631 5.752 23.7631 7.05768C23.7631 8.36378 22.685 9.42637 21.3598 9.42637ZM21.3598 6.18597C20.8724 6.18597 20.4758 6.57693 20.4758 7.05768C20.4758 7.53844 20.8724 7.92939 21.3598 7.92939C21.8476 7.92939 22.2442 7.53844 22.2442 7.05768C22.2442 6.57693 21.8476 6.18597 21.3598 6.18597Z" stroke="white" stroke-width="0.5"/>
</svg>
