<svg width="31" height="29" viewBox="0 0 31 29" fill="none" xmlns="http://www.w3.org/2000/svg">
<path d="M11.4112 18.7236C9.21826 17.8345 7.39381 16.2608 6.18997 14.1931C5.79429 13.5137 5.47926 12.8028 5.24511 12.0724C2.15414 13.4677 0 16.5593 0 20.1409C0 25.0258 4.00768 29 8.93398 29C10.8753 29 12.6737 28.3825 14.1408 27.3355C12.3875 25.4379 11.3159 22.9112 11.3159 20.1409C11.3159 19.6604 11.3488 19.1873 11.4112 18.7236Z" fill="#44B276"/>
<path d="M15.5 11.7061C17.3176 10.3116 19.5957 9.48037 22.066 9.48037C22.8628 9.48037 23.6395 9.56761 24.3874 9.73155C24.5669 7.94979 24.2067 6.09884 23.237 4.43341C22.0438 2.38405 20.1174 0.918204 17.8124 0.305599C17.0428 0.101085 16.2616 0 15.4856 0C13.9374 0 12.4097 0.402462 11.033 1.19073C8.96638 2.37396 7.48818 4.28448 6.87065 6.57026C6.58755 7.61722 6.50146 8.68576 6.60505 9.7332C7.35526 9.56832 8.13457 9.48037 8.93398 9.48037C11.4043 9.48037 13.6824 10.3116 15.5 11.7061Z" fill="#44B276"/>
<path d="M7.76301 13.2927C8.71 14.9192 10.1194 16.1777 11.813 16.9341C12.2908 15.4352 13.0942 14.0787 14.1408 12.9461C12.6737 11.8991 10.8753 11.2814 8.93398 11.2814C8.25826 11.2814 7.60029 11.3566 6.96715 11.4983C7.16274 12.1165 7.42834 12.7179 7.76301 13.2927Z" fill="#44B276"/>
<path d="M31 20.1409C31 16.5563 28.8421 13.4623 25.7468 12.0689C24.9668 14.5247 23.2956 16.7094 20.8752 18.0953C20.4573 18.3345 20.0275 18.544 19.589 18.7239C19.6512 19.1875 19.6841 19.6604 19.6841 20.1409C19.6841 22.9112 18.6127 25.4379 16.8592 27.3355C18.3263 28.3825 20.1247 29 22.066 29C26.9923 29 31 25.0258 31 20.1409Z" fill="#44B276"/>
<path d="M17.8251 19.2752C17.0676 19.4425 16.2947 19.5281 15.5175 19.5281C14.737 19.5281 13.9527 19.4418 13.1753 19.2701C13.147 19.5567 13.1323 19.847 13.1323 20.1409C13.1323 22.4537 14.031 24.5621 15.5 26.1415C16.969 24.5621 17.8677 22.4537 17.8677 20.1409C17.8677 19.8487 17.8531 19.56 17.8251 19.2752Z" fill="#44B276"/>
<path d="M24.025 11.4967C23.3945 11.3562 22.7389 11.2816 22.066 11.2816C20.1247 11.2816 18.3263 11.8991 16.8592 12.9461C17.9056 14.0784 18.709 15.435 19.1867 16.9337C19.4514 16.814 19.7118 16.6813 19.967 16.5352C21.9884 15.378 23.381 13.5498 24.025 11.4967Z" fill="#44B276"/>
<path d="M13.5358 17.505C14.8468 17.7993 16.1835 17.7972 17.4654 17.509C17.0667 16.2406 16.3872 15.094 15.5 14.1401C14.6138 15.093 13.9348 16.2383 13.5358 17.505Z" fill="#44B276"/>
</svg>
