<svg width="110" height="107" viewBox="0 0 110 107" fill="none" xmlns="http://www.w3.org/2000/svg">
<path d="M0.00340009 23.7322C0.00340009 17.9749 -0.00425012 12.2176 0.00340009 6.45655C0.0148754 2.47072 2.52414 0.0107513 6.59405 0.0107513C18.4825 0.00330808 30.3671 0.00330808 42.2555 0.0107513C46.3445 0.0107513 48.8997 2.44095 48.9074 6.41561C48.9303 17.9786 48.9265 29.5416 48.9074 41.1046C48.8997 45.0829 46.3713 47.569 42.3014 47.5764C30.413 47.5987 18.5284 47.595 6.63996 47.5764C2.48589 47.569 0.0110503 45.0867 0.0072252 41.0078C-0.000425011 35.2505 0.0072252 29.4932 0.0072252 23.7322H0.00340009Z" fill="url(#paint0_linear_2288_486)" fill-opacity="0.25"/>
<path d="M85.6016 0.00330808C91.5228 0.00330808 97.4403 -0.0041351 103.362 0.00330808C107.458 0.0107513 109.99 2.44467 109.994 6.40817C110.002 17.9712 110.002 29.5341 109.994 41.0971C109.994 45.0755 107.493 47.5615 103.407 47.569C91.519 47.5913 79.6344 47.5876 67.746 47.569C63.657 47.5615 61.1018 45.0978 61.0941 41.1418C61.075 29.5788 61.075 18.0158 61.0941 6.45283C61.1018 2.4149 63.6493 0.0107513 67.8454 0.00702967C73.7667 -0.00041351 79.6841 0.00702967 85.6054 0.00702967L85.6016 0.00330808Z" fill="url(#paint1_linear_2288_486)" fill-opacity="0.25"/>
<path d="M0.00340009 83.1288C0.00340009 77.3715 -0.00425012 71.6142 0.00340009 65.8531C0.0110503 61.9566 2.50884 59.4408 6.49078 59.4334C18.471 59.4074 30.4551 59.4036 42.4353 59.4334C46.3331 59.4446 48.8844 61.9492 48.8959 65.7601C48.9227 77.4161 48.9265 89.0722 48.8959 100.728C48.8844 104.535 46.2948 106.988 42.3932 106.992C30.413 107.003 18.4289 107.003 6.4487 106.992C2.56239 106.988 0.0187005 104.48 0.0072252 100.68C-0.00807522 94.8295 0.0072252 88.9791 0.00340009 83.1251V83.1288Z" fill="url(#paint2_linear_2288_486)" fill-opacity="0.25"/>
<path d="M103.84 77.2003V89.1131H91.7141V100.978H79.4661V89.2099H67.3635V77.2896H79.4087V65.5108H91.6185V77.1966H103.836L103.84 77.2003Z" fill="url(#paint3_linear_2288_486)" fill-opacity="0.25"/>
<defs>
<linearGradient id="paint0_linear_2288_486" x1="110.547" y1="102.705" x2="-8.30705" y2="26.8673" gradientUnits="userSpaceOnUse">
<stop stop-color="#3078FF"/>
<stop offset="1" stop-color="#3078FF" stop-opacity="0.1"/>
</linearGradient>
<linearGradient id="paint1_linear_2288_486" x1="110.547" y1="102.705" x2="-8.30705" y2="26.8673" gradientUnits="userSpaceOnUse">
<stop stop-color="#3078FF"/>
<stop offset="1" stop-color="#3078FF" stop-opacity="0.1"/>
</linearGradient>
<linearGradient id="paint2_linear_2288_486" x1="110.547" y1="102.705" x2="-8.30705" y2="26.8673" gradientUnits="userSpaceOnUse">
<stop stop-color="#3078FF"/>
<stop offset="1" stop-color="#3078FF" stop-opacity="0.1"/>
</linearGradient>
<linearGradient id="paint3_linear_2288_486" x1="110.547" y1="102.705" x2="-8.30705" y2="26.8673" gradientUnits="userSpaceOnUse">
<stop stop-color="#3078FF"/>
<stop offset="1" stop-color="#3078FF" stop-opacity="0.1"/>
</linearGradient>
</defs>
</svg>
