<svg width="30" height="30" viewBox="0 0 30 30" fill="none" xmlns="http://www.w3.org/2000/svg">
<path d="M17.6573 23.6793C16.4203 24.3454 15.0238 24.7175 13.5564 24.7175C8.67958 24.7175 4.60528 20.6155 4.60528 15.4433C4.60528 10.9647 7.74852 6.76147 12.6253 6.25166L12.8958 6.22407V1.38253C6.10817 1.71784 0.641819 7.21162 0.0388237 14.1662C-0.0764499 15.457 0.0610131 17.7125 0.504356 19.3155C2.14027 25.241 7.42932 29.5084 13.5564 29.5084C15.9283 29.5084 18.1582 28.8653 20.1045 27.7629L17.6573 23.6793Z" fill="#FFC300"/>
<path d="M22.5207 15.5487C22.4587 20.992 18.4287 23.1098 18.2337 23.3395L22.2326 30C26.8922 26.9958 30 21.6535 30 15.5487H22.5207ZM25.1099 23.4588C24.9826 23.5998 24.7735 23.6054 24.6399 23.4772C24.5069 23.3439 24.498 23.128 24.6266 22.9902C25.6685 21.8374 26.4133 20.4226 26.7769 18.8974C26.8211 18.7137 26.9986 18.5989 27.1803 18.6448C27.3576 18.6908 27.4641 18.879 27.4197 19.0629C27.0339 20.6982 26.2316 22.2232 25.1099 23.4588Z" fill="#FFC300"/>
<path d="M13.5608 0V6.1505H13.5652C18.0342 6.1505 21.7449 9.55434 22.4143 13.9917C22.4143 13.9917 22.4765 14.4004 22.5074 14.8597H28.5547C28.2044 6.59145 21.6252 0 13.5608 0ZM20.344 4.7036C20.2432 4.8528 20.0304 4.8921 19.8829 4.78637C18.9651 4.11574 17.95 3.62409 16.8726 3.32108C16.6953 3.27061 16.5889 3.08221 16.6376 2.89851C16.6864 2.71482 16.8681 2.60447 17.0455 2.65494C18.1981 2.97657 19.2843 3.50477 20.2641 4.22138C20.4149 4.3315 20.4504 4.54749 20.344 4.7036Z" fill="#FFC300"/>
<path d="M18.3394 10.1155C18.3371 10.1153 18.3354 10.1139 18.3331 10.1137L16.6288 9.99215C16.4478 9.97779 16.2868 10.1222 16.2742 10.312C16.2614 10.5017 16.3998 10.6664 16.5829 10.6794L17.4342 10.7404L13.9536 13.6167L12.0261 12.0094C11.9135 11.9157 11.7555 11.9076 11.6349 11.9899L9.07357 13.7356C8.92009 13.8401 8.87766 14.0538 8.97854 14.2128C9.07963 14.3721 9.28593 14.4156 9.43898 14.3113L11.7979 12.7036L13.7443 14.3266C13.865 14.4276 14.0386 14.428 14.1601 14.3277L17.9266 11.2148L17.8614 12.1992C17.8487 12.3891 17.987 12.5535 18.1703 12.5666C18.3466 12.5818 18.512 12.4408 18.5247 12.2467L18.6418 10.4811C18.655 10.2789 18.5081 10.1305 18.3394 10.1155Z" fill="#FFC300"/>
<path d="M14.7622 17.322V19.5819C14.7622 19.7703 14.6115 19.9264 14.4297 19.9264H12.7007C12.5145 19.9264 12.3682 19.7703 12.3682 19.5819V17.322C12.3682 17.1336 12.5145 16.9775 12.7007 16.9775H14.4297C14.6115 16.9775 14.7622 17.1336 14.7622 17.322Z" fill="#FFC300"/>
<path d="M10.8785 16.0541V19.5819C10.8785 19.7703 10.7322 19.9264 10.546 19.9264H8.81704C8.6352 19.9264 8.48454 19.7703 8.48454 19.5819V16.0541C8.48454 15.8612 8.6352 15.7095 8.81704 15.7095H10.546C10.7322 15.7095 10.8785 15.8612 10.8785 16.0541Z" fill="#FFC300"/>
<path d="M18.6415 14.3683V19.5819C18.6415 19.7703 18.4953 19.9264 18.309 19.9264H16.58C16.3983 19.9264 16.2475 19.7703 16.2475 19.5819V14.3683C16.2475 14.1754 16.3983 14.0238 16.58 14.0238H18.309C18.4953 14.0238 18.6415 14.1754 18.6415 14.3683Z" fill="#FFC300"/>
</svg>
