<svg width="44" height="44" viewBox="0 0 44 44" fill="none" xmlns="http://www.w3.org/2000/svg">
<path d="M22 7.85292C17.0245 7.85292 12.9766 11.9629 12.9766 17.0147C12.9766 20.5489 15.0147 23.7539 18.1328 25.2594V34.0293H25.8672V25.2594C28.9853 23.7539 31.0234 20.5488 31.0234 17.0146C31.0234 11.9629 26.9755 7.85292 22 7.85292ZM23.2891 31.4117H20.7109V28.794H23.2891V31.4117ZM24.1464 23.1535L23.2891 23.463V26.1764H20.7109V23.463L19.8536 23.1536C17.2824 22.2253 15.5547 19.7584 15.5547 17.0147C15.5547 13.4062 18.4461 10.4706 22 10.4706C25.5539 10.4706 28.4453 13.4062 28.4453 17.0147C28.4453 19.7584 26.7176 22.2253 24.1464 23.1535Z" fill="white"/>
<path d="M22 17.7813L20.3333 16.0892L18.5104 17.9401L22 21.4832L25.4896 17.9401L23.6667 16.0892L22 17.7813Z" fill="white"/>
<path d="M5.24219 15.7058H10.3984V18.3235H5.24219V15.7058Z" fill="white"/>
<path d="M33.6016 15.7058H38.7578V18.3235H33.6016V15.7058Z" fill="white"/>
<path d="M6.84254 24.388L11.3079 21.7704L12.5969 24.0373L8.1316 26.6549L6.84254 24.388Z" fill="white"/>
<path d="M31.402 9.99145L35.8673 7.37381L37.1563 9.64069L32.691 12.2583L31.402 9.99145Z" fill="white"/>
<path d="M6.84261 9.641L8.13167 7.37413L12.597 9.99177L11.3079 12.2586L6.84261 9.641Z" fill="white"/>
<path d="M31.4022 24.0387L32.6912 21.7718L37.1565 24.3895L35.8675 26.6563L31.4022 24.0387Z" fill="white"/>
<path d="M32.3125 0H11.6875C5.24296 0 0 5.28423 0 11.7794V27.4852C0 33.5416 4.55795 38.5449 10.3984 39.1935V44L19.7262 39.2646H32.3125C38.757 39.2646 44 33.9804 44 27.4852V11.7794C44 5.28414 38.757 0 32.3125 0ZM41.4219 27.4852C41.4219 32.537 37.3355 36.647 32.3125 36.647H19.1176L12.9766 39.7645V36.647H11.6875C6.66454 36.647 2.57812 32.537 2.57812 27.4852V11.7794C2.57812 6.7276 6.66454 2.61764 11.6875 2.61764H32.3125C37.3355 2.61764 41.4219 6.7276 41.4219 11.7794V27.4852Z" fill="white"/>
</svg>
