<svg width="20" height="22" viewBox="0 0 20 22" fill="none" xmlns="http://www.w3.org/2000/svg">
<path d="M13.6 0H9.27333C7.31333 0 5.76 0 4.54556 0.1628C3.29444 0.33 2.28222 0.682 1.48444 1.4751C0.685556 2.2682 0.331111 3.2747 0.163333 4.5177C8.27842e-08 5.7255 0 7.2688 0 9.2169V15.6387C0 17.2975 1.02222 18.7187 2.47444 19.3149C2.4 18.3139 2.4 16.9114 2.4 15.7432V10.2322C2.4 8.8231 2.4 7.6076 2.53111 6.6352C2.67222 5.5924 2.99 4.5936 3.80556 3.7829C4.62111 2.9722 5.62667 2.6565 6.67556 2.5157C7.65333 2.3859 8.87556 2.3859 10.2944 2.3859H13.7056C15.1233 2.3859 16.3433 2.3859 17.3222 2.5157C17.029 1.77462 16.517 1.13821 15.8531 0.689461C15.1891 0.240711 14.4039 0.000446405 13.6 0Z" fill="#070707"/>
<path d="M4 10.3367C4 7.3381 4 5.8388 4.93778 4.9071C5.87444 3.9754 7.38222 3.9754 10.4 3.9754H13.6C16.6167 3.9754 18.1256 3.9754 19.0633 4.9071C20.0011 5.8388 20 7.3381 20 10.3367V15.6387C20 18.6373 20 20.1366 19.0633 21.0683C18.1256 22 16.6167 22 13.6 22H10.4C7.38333 22 5.87444 22 4.93778 21.0683C4 20.1366 4 18.6373 4 15.6387V10.3367Z" fill="#070707"/>
</svg>
