<svg width="15" height="21" viewBox="0 0 15 21" fill="none" xmlns="http://www.w3.org/2000/svg">
<path d="M15 5.40944V1.94444C15 1.42875 14.7921 0.934169 14.4219 0.569515C14.0518 0.204861 13.5498 0 13.0263 0H1.97368C1.45023 0 0.948216 0.204861 0.578079 0.569515C0.207941 0.934169 0 1.42875 0 1.94444V5.44444C0.000761395 5.74618 0.0724346 6.04364 0.209403 6.31352C0.346372 6.5834 0.544915 6.81836 0.789474 7L5.52632 10.5L0.789474 14C0.544915 14.1816 0.346372 14.4166 0.209403 14.6865C0.0724346 14.9564 0.000761395 15.2538 0 15.5556V19.0556C0 19.5713 0.207941 20.0658 0.578079 20.4305C0.948216 20.7951 1.45023 21 1.97368 21H13.0263C13.5498 21 14.0518 20.7951 14.4219 20.4305C14.7921 20.0658 15 19.5713 15 19.0556V15.5906C14.9997 15.2894 14.9288 14.9923 14.7929 14.7225C14.657 14.4527 14.4597 14.2174 14.2164 14.035L9.46382 10.5L14.2164 6.96111C14.4592 6.77911 14.6562 6.54447 14.7921 6.27538C14.9279 6.0063 14.9991 5.70999 15 5.40944ZM11.2806 14.7778H3.68191L7.5 11.9583L11.2806 14.7778ZM2.36842 18.6667V17.1111H12.6316V18.6667H2.36842ZM12.6316 5.21597L7.5 9.04167L2.36842 5.25V2.33333H12.6316V5.21597Z" fill="white"/>
</svg>
