<svg width="22" height="22" viewBox="0 0 22 22" fill="none" xmlns="http://www.w3.org/2000/svg">
<path d="M7.7 0H2.2C0.984974 0 0 0.984974 0 2.2V11C0 12.215 0.984974 13.2 2.2 13.2H7.7C8.91503 13.2 9.9 12.215 9.9 11V2.2C9.9 0.984974 8.91503 0 7.7 0Z" fill="white"/>
<path d="M7.7 14.3H2.2C0.984974 14.3 0 15.285 0 16.5V19.8C0 21.015 0.984974 22 2.2 22H7.7C8.91503 22 9.9 21.015 9.9 19.8V16.5C9.9 15.285 8.91503 14.3 7.7 14.3Z" fill="white"/>
<path d="M19.8 8.8H14.3C13.085 8.8 12.1 9.78497 12.1 11V19.8C12.1 21.015 13.085 22 14.3 22H19.8C21.015 22 22 21.015 22 19.8V11C22 9.78497 21.015 8.8 19.8 8.8Z" fill="white"/>
<path d="M19.8 0H14.3C13.085 0 12.1 0.984974 12.1 2.2V5.5C12.1 6.71503 13.085 7.7 14.3 7.7H19.8C21.015 7.7 22 6.71503 22 5.5V2.2C22 0.984974 21.015 0 19.8 0Z" fill="white"/>
</svg>
