<svg width="28" height="28" viewBox="0 0 28 28" fill="none" xmlns="http://www.w3.org/2000/svg">
<path d="M4.10069 26.2198L1.7803 23.8994C1.54197 23.6611 1.36188 23.3831 1.24135 23.085L0.905297 23.421C0.157828 24.1685 0.157828 25.3804 0.905297 26.1279L1.87201 27.0946C2.61948 27.8421 3.83141 27.8421 4.57887 27.0946L4.91493 26.7586C4.61694 26.6382 4.33902 26.4581 4.10069 26.2198Z" fill="white"/>
<path d="M27.3375 11.5544L25.4128 11.177C25.2489 10.5102 25.0282 9.86393 24.7527 9.2412L21.5065 12.4873C21.6045 12.9764 21.6562 13.4821 21.6562 14C21.6562 18.2284 18.2284 21.6562 14 21.6562C9.77156 21.6562 6.34375 18.2284 6.34375 14C6.34375 9.77156 9.77156 6.34375 14 6.34375C14.5179 6.34375 15.0236 6.39548 15.5127 6.49348L18.7589 3.24734C18.1362 2.97183 17.4899 2.75105 16.8231 2.58721L16.4457 0.662484C16.3702 0.277594 16.0328 0 15.6407 0H12.3594C11.9672 0 11.6298 0.277594 11.5544 0.662484L11.177 2.58721C10.0265 2.86989 8.9367 3.32084 7.92498 3.93296L6.29825 2.83959C5.9727 2.62079 5.53793 2.66301 5.26061 2.94038L2.94044 5.26061C2.66312 5.53793 2.6209 5.97275 2.83965 6.29825L3.93302 7.92498C3.32084 8.93681 2.86989 10.0266 2.58721 11.177L0.662484 11.5544C0.277594 11.6298 0 11.9672 0 12.3594V15.6406C0 16.0328 0.277594 16.3702 0.662484 16.4456L2.58721 16.823C2.86984 17.9735 3.32084 19.0633 3.93296 20.0751L2.83959 21.7018C2.62084 22.0272 2.66301 22.462 2.94038 22.7394L5.26061 25.0596C5.53793 25.337 5.97275 25.3792 6.29825 25.1604L7.92493 24.0671C8.93665 24.6792 10.0266 25.1302 11.1769 25.4128L11.5543 27.3376C11.6298 27.7224 11.9672 28 12.3594 28H15.6406C16.0328 28 16.3702 27.7224 16.4456 27.3375L16.823 25.4128C17.9735 25.1302 19.0632 24.6792 20.075 24.067L21.7018 25.1604C22.0271 25.379 22.462 25.3369 22.7394 25.0596L25.0596 22.7393C25.3369 22.462 25.3792 22.0272 25.1604 21.7017L24.067 20.075C24.6792 19.0632 25.1302 17.9734 25.4128 16.823L27.3375 16.4456C27.7224 16.3702 28 16.0328 28 15.6406V12.3594C28 11.9672 27.7224 11.6298 27.3375 11.5544Z" fill="white"/>
<path d="M27.2463 1.86293C27.6256 1.14855 26.8515 0.3745 26.1371 0.753758L21.3714 3.28382L24.7162 6.62862L27.2463 1.86293Z" fill="white"/>
<path d="M9.74827 18.2517C10.3773 18.8808 11.1447 19.3711 12.0001 19.6735L23.7205 7.95304L20.0469 4.27941L8.32661 15.9998C8.62909 16.8552 9.11941 17.6227 9.74827 18.2517Z" fill="white"/>
</svg>
