<svg viewBox="0 0 59 60" fill="none" xmlns="http://www.w3.org/2000/svg">
<path d="M18.7564 4.67281C19.226 4.67281 19.6066 4.29218 19.6066 3.82263V2.18221C19.6066 1.71266 19.226 1.33203 18.7564 1.33203C18.2869 1.33203 17.9062 1.71266 17.9062 2.18221V3.82263C17.9062 4.29207 18.2869 4.67281 18.7564 4.67281Z" fill="black" stroke="black" stroke-width="0.5"/>
<path d="M30.1544 8.8955L31.3143 7.7355C31.6463 7.40347 31.6463 6.86516 31.3143 6.53324C30.9823 6.2011 30.4439 6.20122 30.112 6.53324L28.9521 7.69324C28.6201 8.02527 28.6201 8.56358 28.9521 8.8955C29.1181 9.06157 29.3357 9.14449 29.5533 9.14449C29.7708 9.14449 29.9883 9.06145 30.1544 8.8955Z" fill="black" stroke="black" stroke-width="0.5"/>
<path d="M7.36215 29.2849L6.20215 30.4448C5.87012 30.7768 5.87012 31.315 6.20215 31.6471C6.3681 31.8131 6.58572 31.896 6.80333 31.896C7.02094 31.896 7.23844 31.813 7.40451 31.6471L8.56451 30.4872C8.89654 30.1551 8.89654 29.6169 8.56451 29.2849C8.23249 28.9529 7.69417 28.9529 7.36215 29.2849Z" fill="black" stroke="black" stroke-width="0.5"/>
<path d="M35.6663 19.9403C36.1358 19.9403 36.5164 19.5597 36.5164 19.0902C36.5164 18.6206 36.1358 18.24 35.6663 18.24H34.026C33.5564 18.24 33.1758 18.6206 33.1758 19.0902C33.1758 19.5597 33.5564 19.9403 34.026 19.9403H35.6663Z" fill="black" stroke="black" stroke-width="0.5"/>
<path d="M3.4906 18.24H1.85018C1.38062 18.24 1 18.6206 1 19.0902C1 19.5597 1.38062 19.9403 1.85018 19.9403H3.4906C3.96015 19.9403 4.34078 19.5597 4.34078 19.0902C4.34078 18.6206 3.96004 18.24 3.4906 18.24Z" fill="black" stroke="black" stroke-width="0.5"/>
<path d="M30.1544 29.2849C29.8224 28.9529 29.2841 28.9529 28.9521 29.2849C28.6201 29.6169 28.6201 30.1552 28.9521 30.4872L30.0151 31.5501C30.181 31.716 30.3986 31.7991 30.6162 31.7991C30.8339 31.7991 31.0514 31.716 31.2174 31.5501C31.5495 31.2181 31.5495 30.6797 31.2174 30.3478L30.1544 29.2849Z" fill="black" stroke="black" stroke-width="0.5"/>
<path d="M7.36203 8.89545C7.52799 9.06141 7.7456 9.14445 7.96322 9.14445C8.18083 9.14445 8.39833 9.06141 8.5644 8.89545C8.89643 8.56343 8.89643 8.02511 8.5644 7.6932L7.4044 6.5332C7.07237 6.20117 6.53406 6.20117 6.20215 6.5332C5.87012 6.86523 5.87012 7.40354 6.20215 7.73545L7.36203 8.89545Z" fill="black" stroke="black" stroke-width="0.5"/>
<path d="M16.0367 25.3872C16.1035 25.3205 16.1816 25.305 16.2689 25.341C16.3562 25.3773 16.4004 25.4434 16.4004 25.5379C16.4004 26.6623 17.3152 27.5771 18.4396 27.5771H19.0779C20.2024 27.5771 21.1171 26.6623 21.1171 25.5379C21.1171 25.4434 21.1614 25.3772 21.2486 25.341C21.336 25.305 21.414 25.3204 21.4809 25.3872C21.866 25.7724 22.378 25.9845 22.9227 25.9845C23.4674 25.9845 23.9795 25.7724 24.3647 25.3872L24.8161 24.9358C25.2012 24.5507 25.4133 24.0386 25.4133 23.494C25.4133 22.9493 25.2012 22.4372 24.8161 22.052C24.7492 21.9852 24.7337 21.907 24.7699 21.8198C24.8061 21.7324 24.8723 21.6883 24.9667 21.6883C26.0912 21.6883 27.0059 20.7735 27.0059 19.6491V19.0108C27.0059 17.8863 26.0911 16.9716 24.9667 16.9716C24.8723 16.9716 24.8061 16.9273 24.7699 16.8401C24.7337 16.7527 24.7492 16.6747 24.8161 16.6078C25.2012 16.2227 25.4133 15.7106 25.4133 15.1659C25.4133 14.6212 25.2012 14.1091 24.8161 13.724L24.3648 13.2726C23.9796 12.8874 23.4675 12.6754 22.9228 12.6754C22.3782 12.6754 21.866 12.8874 21.481 13.2726C21.414 13.3393 21.336 13.3548 21.2487 13.3188C21.1614 13.2826 21.1172 13.2164 21.1172 13.1219C21.1172 11.9975 20.2025 11.0828 19.078 11.0828H18.4397C17.3153 11.0828 16.4005 11.9975 16.4005 13.1219C16.4005 13.2164 16.3562 13.2827 16.269 13.3188C16.1817 13.355 16.1036 13.3393 16.0368 13.2726C15.6516 12.8874 15.1395 12.6754 14.5949 12.6754C14.0503 12.6754 13.5381 12.8874 13.153 13.2727L12.7017 13.724C12.3165 14.1092 12.1045 14.6213 12.1045 15.166C12.1045 15.7106 12.3165 16.2228 12.7017 16.6079C12.7685 16.6748 12.784 16.7529 12.7478 16.8402C12.7116 16.9275 12.6454 16.9717 12.5509 16.9717C11.4265 16.9717 10.5117 17.8864 10.5117 19.0109V19.6492C10.5117 20.7736 11.4265 21.6884 12.5509 21.6884C12.6454 21.6884 12.7116 21.7327 12.7478 21.8199C12.784 21.9072 12.7684 21.9853 12.7017 22.0521C12.3165 22.4373 12.1045 22.9494 12.1045 23.4941C12.1045 24.0387 12.3165 24.5509 12.7017 24.9359L13.1531 25.3874C13.948 26.1822 15.2417 26.1822 16.0367 25.3872ZM12.5508 19.9879C12.3639 19.9879 12.212 19.8359 12.212 19.6491V19.0108C12.212 18.8238 12.364 18.6719 12.5508 18.6719C13.3274 18.6719 14.0214 18.2083 14.3185 17.4907C14.6158 16.7732 14.4529 15.9547 13.9037 15.4055C13.8174 15.3191 13.8045 15.2183 13.8045 15.1659C13.8045 15.1134 13.8173 15.0127 13.9038 14.9262L14.3551 14.4749C14.4872 14.3427 14.7022 14.3425 14.8343 14.4749C15.3835 15.024 16.2021 15.1867 16.9195 14.8897C17.6371 14.5926 18.1008 13.8986 18.1008 13.1219C18.1008 12.935 18.2528 12.7831 18.4396 12.7831H19.0779C19.2648 12.7831 19.4168 12.9351 19.4168 13.1219C19.4168 13.8986 19.8804 14.5926 20.5979 14.8897C21.3155 15.1871 22.1339 15.0242 22.6832 14.4749C22.7695 14.3885 22.8704 14.3756 22.9228 14.3756C22.9753 14.3756 23.076 14.3884 23.1624 14.4749L23.6138 14.9263C23.7459 15.0584 23.7459 15.2734 23.6138 15.4055C23.0646 15.9547 22.9019 16.7731 23.199 17.4906C23.4962 18.2082 24.1901 18.6718 24.9667 18.6718C25.1537 18.6718 25.3057 18.8238 25.3057 19.0106V19.649C25.3057 19.8359 25.1537 19.9878 24.9667 19.9878C24.1901 19.9878 23.4962 20.4515 23.199 21.169C22.9017 21.8865 23.0645 22.7051 23.6138 23.2542C23.7459 23.3862 23.7459 23.6012 23.6138 23.7333L23.1624 24.1848C23.0302 24.3168 22.8153 24.3168 22.6832 24.1848C22.134 23.6356 21.3154 23.4728 20.5981 23.7699C19.8805 24.0672 19.4169 24.761 19.4169 25.5377C19.4169 25.7246 19.2648 25.8765 19.078 25.8765H18.4397C18.2528 25.8765 18.1009 25.7245 18.1009 25.5377C18.1009 24.7609 17.6372 24.0671 16.9196 23.7699C16.6815 23.6713 16.4322 23.6233 16.1854 23.6233C15.6884 23.6233 15.2013 23.8177 14.8344 24.1846C14.7022 24.3168 14.4873 24.3167 14.3552 24.1846L13.9038 23.7332C13.8175 23.6469 13.8046 23.5461 13.8046 23.4936C13.8046 23.4412 13.8174 23.3405 13.9038 23.254C14.453 22.7049 14.6158 21.8864 14.3186 21.1689C14.0213 20.4516 13.3274 19.9879 12.5508 19.9879Z" fill="black" stroke="black" stroke-width="0.5"/>
<path d="M18.7599 22.281C20.3872 22.281 21.7112 20.9571 21.7112 19.3297C21.7112 17.7023 20.3873 16.3784 18.7599 16.3784C17.1326 16.3784 15.8086 17.7023 15.8086 19.3297C15.8086 20.9571 17.1325 22.281 18.7599 22.281ZM18.7599 18.0788C19.4497 18.0788 20.0109 18.64 20.0109 19.3297C20.0109 20.0195 19.4497 20.5807 18.7599 20.5807C18.0701 20.5807 17.5089 20.0195 17.5089 19.3297C17.5089 18.64 18.0701 18.0788 18.7599 18.0788Z" fill="black" stroke="black" stroke-width="0.5"/>
<path d="M57.5071 32.5775L54.971 27.254C54.8735 27.0491 54.8205 26.821 54.8177 26.5942L54.7692 22.6946C54.7692 10.7731 45.1714 1.04089 33.3743 1.00011C33.3494 1 33.3245 1 33.2994 1C29.4646 1 25.7027 2.0227 22.4157 3.9597C22.0112 4.19804 21.8765 4.71925 22.1148 5.12378C22.3532 5.5283 22.8744 5.663 23.2789 5.42465C26.3045 3.64172 29.768 2.70035 33.2994 2.70035C33.3224 2.70035 33.3454 2.70035 33.3684 2.70046C44.2312 2.73807 53.0688 11.7075 53.0689 22.7051L53.1174 26.6152C53.1232 27.0861 53.2334 27.5597 53.436 27.9851L55.972 33.3086C56.4806 34.3764 55.6959 35.5884 54.541 35.5885C52.7225 35.5672 51.2297 37.039 51.2296 38.8679L51.2293 45.7348C51.2291 47.3773 49.7705 48.6344 48.1479 48.3971L42.2122 47.5265C40.412 47.2625 38.7974 48.6595 38.7974 50.4771V52.3555L20.8384 50.6949V47.8777C20.8384 47.4082 20.4578 47.0275 19.9882 47.0275C19.5187 47.0275 19.138 47.4082 19.138 47.8777V50.5377L18.8257 50.5088C17.1511 50.3537 15.7031 51.6746 15.7031 53.356V56.1194C15.7031 57.6945 16.9846 58.9772 18.5597 58.9787L40.9007 59H40.9036C42.4826 59 43.7628 57.7223 43.7628 56.1407V55.4217C43.7628 53.9353 42.6467 52.7113 41.1667 52.5745L40.4977 52.5126V50.4769C40.4977 49.6939 41.1894 49.0955 41.9653 49.2088L47.9011 50.0793C50.5521 50.4683 52.9294 48.4108 52.9295 45.7348L52.9298 38.8679C52.9299 37.9929 53.6409 37.2785 54.5328 37.2887C56.952 37.2889 58.5495 34.7657 57.5071 32.5775ZM42.0624 55.4218V56.1408C42.0624 56.7808 41.5445 57.2998 40.9034 57.2998C40.9031 57.2998 40.9026 57.2998 40.9023 57.2998L18.5612 57.2784C17.9228 57.2778 17.4034 56.7578 17.4034 56.1194V53.356C17.4034 52.6785 17.9837 52.1383 18.6691 52.202L19.9008 52.3158C19.9011 52.3158 19.9013 52.3158 19.9017 52.316L41.0102 54.2678C41.6101 54.3232 42.0624 54.8192 42.0624 55.4218Z" fill="black" stroke="black" stroke-width="0.5"/>
<path d="M17.0832 44.7532H20.6731C22.9125 44.7532 24.7592 43.0413 24.9741 40.8575C25.6517 40.5557 26.1259 39.8772 26.1259 39.0889V34.9847C26.1259 34.3149 25.784 33.7238 25.2657 33.3759C25.9033 31.1629 27.0113 29.0762 28.4988 27.3035C35.5075 18.9515 29.3878 6.28859 18.5777 6.43212C7.92123 6.58063 2.20551 19.0797 8.96704 27.2414C10.4744 29.061 11.5968 31.1712 12.242 33.3825C11.7293 33.7312 11.3917 34.3191 11.3917 34.9845V39.0888C11.3917 39.9708 11.9851 40.7154 12.7931 40.9483C13.0497 43.0885 14.8751 44.7532 17.0832 44.7532ZM13.3279 39.3249C13.1978 39.3249 13.092 39.2191 13.092 39.0889V34.9847C13.092 34.8545 13.1978 34.7487 13.3279 34.7487H24.1878C24.1907 34.7489 24.1935 34.7493 24.1963 34.7494C24.3231 34.7532 24.4253 34.857 24.4253 34.9847V39.0889C24.4253 39.2191 24.3194 39.3249 24.1893 39.3249H13.3279ZM20.6731 43.0529H17.0832C15.8419 43.0529 14.8 42.1855 14.5301 41.0252H23.2262C22.9563 42.1855 21.9144 43.0529 20.6731 43.0529ZM18.6014 8.13224C28.0306 8.00786 33.2096 19.0444 27.1963 26.2106C25.5246 28.2026 24.2873 30.5548 23.5911 33.0483H13.9152C13.212 30.5634 11.9631 28.1929 10.2763 26.1568C4.41766 19.0847 9.3778 8.26093 18.6014 8.13224Z" fill="black" stroke="black" stroke-width="0.5"/>
</svg>
