<svg width="24" height="24" viewBox="0 0 24 24" fill="none" xmlns="http://www.w3.org/2000/svg">
<path d="M21.1852 0H2.81484C1.26281 0 0 1.26281 0 2.81484V5.625H24V2.81484C24 1.26281 22.7372 0 21.1852 0ZM3.04688 3.51562C2.65875 3.51562 2.34375 3.20062 2.34375 2.8125C2.34375 2.42438 2.65875 2.10938 3.04688 2.10938C3.435 2.10938 3.75 2.42438 3.75 2.8125C3.75 3.20062 3.435 3.51562 3.04688 3.51562ZM5.85938 3.51562C5.47125 3.51562 5.15625 3.20062 5.15625 2.8125C5.15625 2.42438 5.47125 2.10938 5.85938 2.10938C6.2475 2.10938 6.5625 2.42438 6.5625 2.8125C6.5625 3.20062 6.2475 3.51562 5.85938 3.51562ZM20.9531 3.51562H9.60938C9.22125 3.51562 8.90625 3.20062 8.90625 2.8125C8.90625 2.42438 9.22125 2.10938 9.60938 2.10938H20.9531C21.3412 2.10938 21.6562 2.42438 21.6562 2.8125C21.6562 3.20062 21.3412 3.51562 20.9531 3.51562Z" fill="white"/>
<path d="M9.60609 20.4844C9.99442 20.4844 10.3092 20.1696 10.3092 19.7812C10.3092 19.3929 9.99442 19.0781 9.60609 19.0781C9.21777 19.0781 8.90297 19.3929 8.90297 19.7812C8.90297 20.1696 9.21777 20.4844 9.60609 20.4844Z" fill="white"/>
<path d="M16.2155 20.4844C16.6038 20.4844 16.9186 20.1696 16.9186 19.7812C16.9186 19.3929 16.6038 19.0781 16.2155 19.0781C15.8271 19.0781 15.5123 19.3929 15.5123 19.7812C15.5123 20.1696 15.8271 20.4844 16.2155 20.4844Z" fill="white"/>
<path d="M17.3194 13.402C17.5097 13.6622 17.5627 13.988 17.4647 14.295L16.387 17.6709H9.17297L8.30672 14.0948V14.093L8.04328 12.9919H16.5127C16.8352 12.9919 17.1291 13.1414 17.3194 13.402Z" fill="white"/>
<path d="M0 7.03125V21.1852C0 22.7372 1.26281 24 2.81484 24H21.1852C22.7372 24 24 22.7372 24 21.1852V7.03125H0ZM18.8039 14.723L17.6747 18.2606C18.075 18.6445 18.3248 19.1841 18.3248 19.7812C18.3248 20.9442 17.3784 21.8906 16.2155 21.8906C15.0525 21.8906 14.1061 20.9442 14.1061 19.7812C14.1061 19.5342 14.1492 19.2975 14.2275 19.0772H11.5941C11.6723 19.2975 11.7155 19.5342 11.7155 19.7812C11.7155 20.9442 10.7691 21.8906 9.60609 21.8906C8.44312 21.8906 7.49672 20.9442 7.49672 19.7812C7.49672 19.3017 7.6575 18.8597 7.92797 18.5048L6.01219 10.5469H3.90891C3.52031 10.5469 3.20578 10.2319 3.20578 9.84375C3.20578 9.45563 3.52031 9.14062 3.90891 9.14062H6.56719C6.88505 9.13758 7.17998 9.37041 7.25109 9.68016L7.70672 11.5856H16.5127C17.2889 11.5856 17.9972 11.9452 18.4552 12.5723C18.9131 13.1991 19.0402 13.9833 18.8039 14.723Z" fill="white"/>
</svg>
