<svg width="30" height="44" viewBox="0 0 30 44" fill="none" xmlns="http://www.w3.org/2000/svg">
<path d="M26.3482 15.1164C28.5462 13.6434 30 11.1074 30 8.23195C30 3.69273 26.3777 0 21.9261 0H8.07394C3.62232 0 0 3.69273 0 8.23195C0 11.1074 1.45382 13.6434 3.65181 15.1164C1.45382 16.5885 0 19.1245 0 22C0 24.8755 1.45382 27.4115 3.65181 28.8845C1.45382 30.3557 0 32.8926 0 35.768C0 40.3073 3.6417 44 8.11692 44C12.641 44 16.3223 40.2669 16.3223 35.6787V28.087C17.7568 29.4198 19.6623 30.232 21.7508 30.232H21.9261C26.3777 30.232 30 26.5392 30 22C30 19.1245 28.5462 16.5885 26.3482 15.1164ZM16.3223 2.69672H21.9261C24.9197 2.69672 27.3553 5.17945 27.3553 8.23195C27.3553 11.2845 24.9197 13.768 21.9261 13.768H16.3223V2.69672ZM2.64468 8.23195C2.64468 5.17945 5.08035 2.69672 8.07394 2.69672H13.6777V13.768H8.07394C5.08035 13.768 2.64468 11.2845 2.64468 8.23195ZM2.64468 22C2.64468 18.9475 5.08035 16.4648 8.07394 16.4648H13.6777V27.5361H8.03939C5.0618 27.5172 2.64468 25.0405 2.64468 22ZM13.6777 35.6787C13.6777 38.7802 11.183 41.3033 8.11692 41.3033C5.09973 41.3033 2.64468 38.8205 2.64468 35.768C2.64468 32.7155 5.08035 30.232 8.07394 30.232H13.6777V35.6787ZM21.9261 27.5361H21.7508C18.7572 27.5361 16.3223 25.0525 16.3223 22C16.3223 18.9475 18.7572 16.4648 21.7508 16.4648H21.9261C24.9197 16.4648 27.3553 18.9475 27.3553 22C27.3553 25.0525 24.9197 27.5361 21.9261 27.5361Z" fill="white"/>
<path d="M8.07394 27.5352C8.06214 27.5352 8.05119 27.5352 8.03939 27.5361H13.6777V27.5352H8.07394Z" fill="white"/>
</svg>
