<svg width="22" height="22" viewBox="0 0 22 22" fill="none" xmlns="http://www.w3.org/2000/svg">
<path d="M4.51282 13.8205C4.51282 13.43 4.62861 13.0483 4.84556 12.7236C5.06251 12.3989 5.37086 12.1459 5.73163 11.9964C6.09239 11.847 6.48937 11.8079 6.87236 11.8841C7.25535 11.9603 7.60714 12.1483 7.88326 12.4244C8.15938 12.7005 8.34742 13.0523 8.4236 13.4353C8.49978 13.8183 8.46068 14.2153 8.31125 14.5761C8.16181 14.9368 7.90876 15.2452 7.58408 15.4621C7.25939 15.6791 6.87767 15.7949 6.48718 15.7949C5.96446 15.7919 5.46399 15.5829 5.09437 15.2133C4.72475 14.8437 4.51578 14.3432 4.51282 13.8205ZM0 7.33333H22V19.4615C22 20.1348 21.7326 20.7804 21.2565 21.2565C20.7804 21.7326 20.1348 22 19.4615 22H2.53846C1.86522 22 1.21955 21.7326 0.743498 21.2565C0.267444 20.7804 0 20.1348 0 19.4615V7.33333ZM17.3744 16.641C17.3744 16.8654 17.4635 17.0807 17.6222 17.2393C17.7809 17.398 17.9961 17.4872 18.2205 17.4872C18.4449 17.4872 18.6602 17.398 18.8188 17.2393C18.9775 17.0807 19.0667 16.8654 19.0667 16.641V13.2564C19.0667 13.032 18.9775 12.8168 18.8188 12.6581C18.6602 12.4994 18.4449 12.4103 18.2205 12.4103C17.9961 12.4103 17.7809 12.4994 17.6222 12.6581C17.4635 12.8168 17.3744 13.032 17.3744 13.2564V16.641ZM14.6667 16.641C14.6667 16.8654 14.7558 17.0807 14.9145 17.2393C15.0732 17.398 15.2884 17.4872 15.5128 17.4872C15.7372 17.4872 15.9525 17.398 16.1111 17.2393C16.2698 17.0807 16.359 16.8654 16.359 16.641V11C16.359 10.7756 16.2698 10.5604 16.1111 10.4017C15.9525 10.243 15.7372 10.1538 15.5128 10.1538C15.2884 10.1538 15.0732 10.243 14.9145 10.4017C14.7558 10.5604 14.6667 10.7756 14.6667 11V16.641ZM11.8462 16.641C11.8462 16.8654 11.9353 17.0807 12.094 17.2393C12.2527 17.398 12.4679 17.4872 12.6923 17.4872C12.9167 17.4872 13.1319 17.398 13.2906 17.2393C13.4493 17.0807 13.5385 16.8654 13.5385 16.641V14.3846C13.5385 14.1602 13.4493 13.945 13.2906 13.7863C13.1319 13.6276 12.9167 13.5385 12.6923 13.5385C12.4679 13.5385 12.2527 13.6276 12.094 13.7863C11.9353 13.945 11.8462 14.1602 11.8462 14.3846V16.641ZM2.82051 13.8205C2.82051 14.5457 3.03556 15.2546 3.43846 15.8576C3.84136 16.4606 4.41401 16.9306 5.08401 17.2081C5.754 17.4856 6.49125 17.5582 7.20251 17.4167C7.91377 17.2752 8.56711 16.926 9.0799 16.4132C9.5927 15.9004 9.94191 15.2471 10.0834 14.5358C10.2249 13.8246 10.1523 13.0873 9.87474 12.4173C9.59722 11.7473 9.12725 11.1747 8.52427 10.7718C7.92129 10.3689 7.21238 10.1538 6.48718 10.1538C5.51563 10.1568 4.58473 10.5441 3.89774 11.2311C3.21075 11.9181 2.82349 12.849 2.82051 13.8205ZM22 2.53846V5.64103H0V2.53846C0 1.86522 0.267444 1.21955 0.743498 0.743498C1.21955 0.267444 1.86522 0 2.53846 0H19.4615C20.1348 0 20.7804 0.267444 21.2565 0.743498C21.7326 1.21955 22 1.86522 22 2.53846ZM5.64103 3.10256C5.6381 2.87906 5.54802 2.66553 5.38996 2.50747C5.23191 2.34942 5.01838 2.25933 4.79487 2.25641H3.66667C3.44225 2.25641 3.22703 2.34556 3.06835 2.50424C2.90966 2.66293 2.82051 2.87815 2.82051 3.10256C2.82051 3.32698 2.90966 3.5422 3.06835 3.70089C3.22703 3.85957 3.44225 3.94872 3.66667 3.94872H4.79487C5.01838 3.9458 5.23191 3.85571 5.38996 3.69765C5.54802 3.5396 5.6381 3.32607 5.64103 3.10256ZM9.02564 3.10256C9.02272 2.87906 8.93263 2.66553 8.77458 2.50747C8.61652 2.34942 8.40299 2.25933 8.17949 2.25641H7.05128C6.82687 2.25641 6.61165 2.34556 6.45296 2.50424C6.29428 2.66293 6.20513 2.87815 6.20513 3.10256C6.20513 3.32698 6.29428 3.5422 6.45296 3.70089C6.61165 3.85957 6.82687 3.94872 7.05128 3.94872H8.17949C8.40299 3.9458 8.61652 3.85571 8.77458 3.69765C8.93263 3.5396 9.02272 3.32607 9.02564 3.10256Z" fill="#070707"/>
</svg>
