<svg width="21" height="21" viewBox="0 0 21 21" fill="none" xmlns="http://www.w3.org/2000/svg">
<path d="M2.625 21C1.90313 21 1.28538 20.7432 0.771751 20.2295C0.258127 19.7159 0.000877224 19.0977 2.22458e-06 18.375C-0.000872774 17.6522 0.256377 17.0345 0.771751 16.5217C1.28713 16.009 1.90488 15.7517 2.625 15.75C3.34512 15.7482 3.96331 16.0055 4.47956 16.5217C4.99581 17.038 5.25262 17.6557 5.25 18.375C5.24737 19.0942 4.99056 19.7124 4.47956 20.2295C3.96856 20.7467 3.35037 21.0035 2.625 21ZM10.5 21C9.77812 21 9.16037 20.7432 8.64674 20.2295C8.13312 19.7159 7.87587 19.0977 7.87499 18.375C7.87412 17.6522 8.13137 17.0345 8.64674 16.5217C9.16212 16.009 9.77987 15.7517 10.5 15.75C11.2201 15.7482 11.8383 16.0055 12.3546 16.5217C12.8708 17.038 13.1276 17.6557 13.125 18.375C13.1224 19.0942 12.8656 19.7124 12.3546 20.2295C11.8436 20.7467 11.2254 21.0035 10.5 21ZM18.375 21C17.6531 21 17.0354 20.7432 16.5217 20.2295C16.0081 19.7159 15.7509 19.0977 15.75 18.375C15.7491 17.6522 16.0064 17.0345 16.5217 16.5217C17.0371 16.009 17.6549 15.7517 18.375 15.75C19.0951 15.7482 19.7133 16.0055 20.2295 16.5217C20.7458 17.038 21.0026 17.6557 21 18.375C20.9974 19.0942 20.7405 19.7124 20.2295 20.2295C19.7185 20.7467 19.1004 21.0035 18.375 21ZM2.625 13.125C1.90313 13.125 1.28538 12.8682 0.771751 12.3545C0.258127 11.8409 0.000877224 11.2227 2.22458e-06 10.5C-0.000872774 9.77724 0.256377 9.15949 0.771751 8.64674C1.28713 8.13399 1.90488 7.87674 2.625 7.87499C3.34512 7.87324 3.96331 8.13049 4.47956 8.64674C4.99581 9.16299 5.25262 9.78074 5.25 10.5C5.24737 11.2192 4.99056 11.8374 4.47956 12.3545C3.96856 12.8717 3.35037 13.1285 2.625 13.125ZM10.5 13.125C9.77812 13.125 9.16037 12.8682 8.64674 12.3545C8.13312 11.8409 7.87587 11.2227 7.87499 10.5C7.87412 9.77724 8.13137 9.15949 8.64674 8.64674C9.16212 8.13399 9.77987 7.87674 10.5 7.87499C11.2201 7.87324 11.8383 8.13049 12.3546 8.64674C12.8708 9.16299 13.1276 9.78074 13.125 10.5C13.1224 11.2192 12.8656 11.8374 12.3546 12.3545C11.8436 12.8717 11.2254 13.1285 10.5 13.125ZM18.375 13.125C17.6531 13.125 17.0354 12.8682 16.5217 12.3545C16.0081 11.8409 15.7509 11.2227 15.75 10.5C15.7491 9.77724 16.0064 9.15949 16.5217 8.64674C17.0371 8.13399 17.6549 7.87674 18.375 7.87499C19.0951 7.87324 19.7133 8.13049 20.2295 8.64674C20.7458 9.16299 21.0026 9.78074 21 10.5C20.9974 11.2192 20.7405 11.8374 20.2295 12.3545C19.7185 12.8717 19.1004 13.1285 18.375 13.125ZM2.625 5.25C1.90313 5.25 1.28538 4.99319 0.771751 4.47956C0.258127 3.96594 0.000877224 3.34775 2.22458e-06 2.625C-0.000872774 1.90225 0.256377 1.28451 0.771751 0.771757C1.28713 0.259008 1.90488 0.00175886 2.625 8.86823e-06C3.34512 -0.00174113 3.96331 0.255508 4.47956 0.771757C4.99581 1.28801 5.25262 1.90575 5.25 2.625C5.24737 3.34425 4.99056 3.96244 4.47956 4.47956C3.96856 4.99669 3.35037 5.2535 2.625 5.25ZM10.5 5.25C9.77812 5.25 9.16037 4.99319 8.64674 4.47956C8.13312 3.96594 7.87587 3.34775 7.87499 2.625C7.87412 1.90225 8.13137 1.28451 8.64674 0.771757C9.16212 0.259008 9.77987 0.00175886 10.5 8.86823e-06C11.2201 -0.00174113 11.8383 0.255508 12.3546 0.771757C12.8708 1.28801 13.1276 1.90575 13.125 2.625C13.1224 3.34425 12.8656 3.96244 12.3546 4.47956C11.8436 4.99669 11.2254 5.2535 10.5 5.25ZM18.375 5.25C17.6531 5.25 17.0354 4.99319 16.5217 4.47956C16.0081 3.96594 15.7509 3.34775 15.75 2.625C15.7491 1.90225 16.0064 1.28451 16.5217 0.771757C17.0371 0.259008 17.6549 0.00175886 18.375 8.86823e-06C19.0951 -0.00174113 19.7133 0.255508 20.2295 0.771757C20.7458 1.28801 21.0026 1.90575 21 2.625C20.9974 3.34425 20.7405 3.96244 20.2295 4.47956C19.7185 4.99669 19.1004 5.2535 18.375 5.25Z" fill="white"/>
</svg>
