<svg width="25" height="17" viewBox="0 0 25 17" fill="none" xmlns="http://www.w3.org/2000/svg">
<path d="M24 9.43754C24 9.95531 23.6322 10.375 23.1786 10.375C22.7249 10.375 22.3571 9.95531 22.3571 9.43754V4.2007L14.4717 13.2004C14.1646 13.5439 13.7514 13.7369 13.3214 13.7369C12.8914 13.7369 12.4782 13.5439 12.1711 13.2004L8.39282 8.88822L2.40215 15.7254C2.08136 16.0915 1.56138 16.0915 1.24059 15.7254C0.919803 15.3593 0.919803 14.7658 1.24059 14.3997L7.24249 7.54971C7.54959 7.20616 7.96279 7.01321 8.39282 7.01321C8.76897 7.01321 9.13222 7.16021 9.42281 7.42703L9.54314 7.54971L13.3214 11.8619L21.1956 2.87501H16.6071C16.1535 2.87501 15.7857 2.45527 15.7857 1.9375C15.7857 1.41973 16.1535 1 16.6071 1H23.1786C23.6322 1 24 1.41973 24 1.9375V9.43754Z" fill="white" stroke="white" stroke-linecap="round" stroke-linejoin="round"/>
</svg>
