<svg width="23" height="25" viewBox="0 0 23 25" fill="none" xmlns="http://www.w3.org/2000/svg">
<path d="M3.70916 13.9516C4.18732 13.9516 4.66166 14.0581 5.09376 14.265L7.50125 15.4132C7.6902 15.5031 7.90145 15.5506 8.11753 15.5506H9.34662C10.3333 15.5506 11.2242 16.0122 11.7829 16.7328L16.659 15.2565C17.3088 15.0599 18.0051 15.0716 18.6483 15.2882C19.2915 15.5049 19.8494 15.9162 20.2414 16.4636H20.2403C20.9215 17.4011 20.7144 18.7241 19.7806 19.4004L19.5837 19.5265L10.7197 24.5688C10.3386 24.7861 9.91736 24.9262 9.48024 24.9776C9.04302 25.029 8.59972 24.9915 8.17743 24.8686H8.17627L0.6324 22.6609C0.164365 22.5236 -0.102098 22.0379 0.0368612 21.5763C0.176101 21.1149 0.668727 20.8522 1.13694 20.9892L8.67966 23.1958H8.67851C8.87045 23.2517 9.07187 23.268 9.27059 23.2446C9.46922 23.2213 9.66072 23.1582 9.83388 23.0595H9.83503L18.7001 18.0161V18.0149C18.8672 17.9199 18.9376 17.6634 18.8015 17.4778L18.7958 17.4698C18.6188 17.2226 18.3663 17.0362 18.0758 16.9383C17.7856 16.8407 17.4717 16.8361 17.1785 16.9247L12.3796 18.3772C12.3808 18.4108 12.3854 18.4444 12.3854 18.4783C12.3853 18.9375 12.068 19.3037 11.6631 19.4163L11.6585 19.4175L8.66123 20.2351C7.91656 20.438 7.12206 20.3668 6.42652 20.0353L3.852 18.8076C3.41216 18.5979 3.228 18.0761 3.44076 17.6425C3.65356 17.2089 4.18283 17.0273 4.62262 17.237L7.19715 18.4647L7.31464 18.5146C7.59387 18.6182 7.90043 18.6333 8.1901 18.5544L10.4709 17.9309C10.263 17.5606 9.84933 17.2949 9.34662 17.2949H8.11753C7.6378 17.2949 7.16432 17.1891 6.73293 16.9838H6.73178L4.32313 15.8345H4.32198C4.13417 15.7444 3.92383 15.6959 3.70916 15.6959H0.884669C0.39608 15.6959 0 15.3055 0 14.8238C0.000298976 14.3423 0.396264 13.9516 0.884669 13.9516H3.70916ZM9.95368 0.863212C11.4056 0.18706 13.0129 -0.0999089 14.6132 0.0307804C16.2135 0.161505 17.7506 0.705652 19.0699 1.6082C20.3893 2.51081 21.444 3.74069 22.1282 5.17301C22.8123 6.60508 23.1023 8.18934 22.968 9.76671C22.8335 11.3444 22.2793 12.8597 21.3622 14.1594C21.0832 14.5547 20.5319 14.6525 20.1308 14.3775C19.73 14.1024 19.6309 13.5588 19.9097 13.1634C20.6492 12.1154 21.0959 10.8936 21.2044 9.62135C21.3128 8.34908 21.08 7.07078 20.5282 5.91572C19.9764 4.76063 19.1248 3.7693 18.0608 3.04139C16.9969 2.31359 15.7574 1.87486 14.4669 1.76946C13.1763 1.66407 11.8803 1.89531 10.7093 2.44063C9.53842 2.98599 8.53321 3.82572 7.79614 4.87547C7.0591 5.92524 6.61603 7.14848 6.51061 8.42097C6.40522 9.69353 6.64142 10.9717 7.196 12.1255C7.405 12.5607 7.21698 13.081 6.77555 13.2872C6.33407 13.4933 5.80633 13.3068 5.59714 12.8716C4.9096 11.441 4.61636 9.85685 4.74703 8.27901C4.87775 6.7011 5.42733 5.18465 6.34128 3.88291C7.25526 2.58112 8.50166 1.53949 9.95368 0.863212ZM10.343 9.91435V9.88142H9.73136C9.24277 9.88142 8.84669 9.49093 8.84669 9.00924C8.84699 8.52779 9.24295 8.13706 9.73136 8.13706H10.343V8.10526C10.343 6.02772 11.8017 4.06697 13.9151 4.06688C15.2964 4.06688 16.4222 4.93444 17.0091 6.08153C17.2292 6.51159 17.0537 7.03657 16.6175 7.25352C16.1813 7.47046 15.6488 7.29747 15.4287 6.8674C15.0744 6.17494 14.4894 5.81124 13.9151 5.81124C13.0609 5.81134 12.1124 6.68723 12.1124 8.10526V8.13706H14.1777C14.6661 8.13706 15.0621 8.5278 15.0624 9.00924C15.0624 9.49093 14.6663 9.88142 14.1777 9.88142H12.1124V9.91435C12.1124 11.3324 13.0609 12.2071 13.9151 12.2072C14.4894 12.2072 15.0744 11.8446 15.4287 11.1522C15.6488 10.7221 16.1813 10.5491 16.6175 10.7661C17.0537 10.983 17.2292 11.508 17.0091 11.9381C16.4222 13.0852 15.2964 13.9516 13.9151 13.9516C11.8017 13.9515 10.343 11.9919 10.343 9.91435Z" fill="white"/>
</svg>
