<svg width="108" height="131" viewBox="0 0 108 131" fill="none" xmlns="http://www.w3.org/2000/svg">
<path d="M56.3682 130.997H51.7469C51.5582 130.918 51.3729 130.802 51.1739 130.771C43.0257 129.414 36.7988 123.676 35.2618 115.635C34.6923 112.657 34.7747 109.525 34.8536 106.472C34.9016 104.61 34.3973 103.77 32.603 102.955C14.7525 94.8258 4.13412 81.0439 0.747916 61.7867C0.288188 59.1736 0.240156 56.4889 0 53.8246H7.81195C7.92859 62.817 10.2821 71.0691 15.1367 78.5672C20.0016 86.0791 26.479 91.742 34.7952 95.5968C34.7952 93.1099 34.7198 90.8516 34.8261 88.6035C34.8844 87.3822 34.4727 86.7272 33.4229 86.0859C19.8678 77.786 12.8312 60.8861 16.4439 45.4565C21.1338 25.4454 39.5469 12.9223 60.0048 15.8288C81.6257 18.899 96.6012 40.6976 91.6746 61.9607C89.2387 72.4814 83.3892 80.6072 74.2598 86.4134C73.8756 86.659 73.3678 87.1093 73.3541 87.4743C73.2752 90.1045 73.3129 92.7381 73.3129 95.3921C77.2858 94.5222 85.6295 88.1361 90.0587 82.5961C96.8311 74.1256 100.286 64.4612 100.255 53.637C100.224 42.7172 96.7453 32.9368 89.7396 24.5414C80.5142 13.4851 68.5132 7.99966 54.0524 7.61076V0C55.2531 0 56.4539 0 57.6513 0C59.6308 0.276321 61.6241 0.487826 63.5934 0.839197C97.3183 6.9012 116.963 42.4272 103.95 74.0574C98.2857 87.8257 88.3844 97.6095 74.5857 103.388C73.6148 103.794 73.2477 104.258 73.2889 105.323C73.3781 107.578 73.3369 109.839 73.3095 112.101C73.2031 120.53 67.4702 127.964 59.3152 130.253C58.3409 130.526 57.3494 130.754 56.3682 131V130.997ZM57.9841 95.6241V68.5822C59.0785 68.7459 60.1249 69.0086 61.1816 69.0495C68.2833 69.3224 74.819 63.5913 73.1173 53.7291H65.6142C65.6142 54.4011 65.6142 54.9435 65.6142 55.4893C65.6142 59.5796 64.4511 61.3739 61.7923 61.3978C59.1334 61.4217 57.9086 59.5796 57.9086 55.5541C57.9086 54.9742 57.9086 54.3943 57.9086 53.8246H50.203C50.203 55.0697 50.2201 56.2194 50.203 57.3656C50.1653 59.716 48.4945 61.4285 46.2987 61.3978C44.1511 61.3671 42.542 59.6751 42.5077 57.3826C42.4871 56.158 42.5043 54.9367 42.5043 53.6779H34.881C34.5345 58.082 34.7438 62.2575 38.0751 65.5597C41.4716 68.9267 45.544 69.7693 50.1172 68.5174V95.6514H34.8879V103.249H73.2374V95.6207H57.9875L57.9841 95.6241Z" fill="url(#paint0_linear_2288_484)" fill-opacity="0.25"/>
<path d="M18.5126 23.5453C16.907 21.9385 15.1642 20.1953 13.5105 18.5442C15.195 16.8692 16.9619 15.109 18.6156 13.4613C20.2177 15.0578 21.9777 16.8146 23.628 18.4623C22.0567 20.0213 20.2932 21.7782 18.5126 23.5453Z" fill="url(#paint1_linear_2288_484)" fill-opacity="0.25"/>
<path d="M9.88072 39.6469C7.49631 38.661 5.22855 37.7263 2.78925 36.72C3.75673 34.3695 4.7002 32.0805 5.71229 29.6277C8.10013 30.6136 10.4262 31.5756 12.8346 32.5683C11.826 34.9904 10.8654 37.2863 9.88072 39.6469Z" fill="url(#paint2_linear_2288_484)" fill-opacity="0.25"/>
<path d="M32.8225 12.6425C31.8139 10.2205 30.8704 7.95531 29.8755 5.56053C32.2393 4.58147 34.5414 3.62629 36.9738 2.61652C37.9653 4.98401 38.9225 7.27645 39.9346 9.6917C37.5776 10.6708 35.2687 11.6259 32.8225 12.6425Z" fill="url(#paint3_linear_2288_484)" fill-opacity="0.25"/>
<defs>
<linearGradient id="paint0_linear_2288_484" x1="108.537" y1="125.742" x2="-21.5935" y2="59.154" gradientUnits="userSpaceOnUse">
<stop stop-color="#FFC300"/>
<stop offset="1" stop-color="#FFC300" stop-opacity="0.1"/>
</linearGradient>
<linearGradient id="paint1_linear_2288_484" x1="108.537" y1="125.742" x2="-21.5935" y2="59.154" gradientUnits="userSpaceOnUse">
<stop stop-color="#FFC300"/>
<stop offset="1" stop-color="#FFC300" stop-opacity="0.1"/>
</linearGradient>
<linearGradient id="paint2_linear_2288_484" x1="108.537" y1="125.742" x2="-21.5935" y2="59.154" gradientUnits="userSpaceOnUse">
<stop stop-color="#FFC300"/>
<stop offset="1" stop-color="#FFC300" stop-opacity="0.1"/>
</linearGradient>
<linearGradient id="paint3_linear_2288_484" x1="108.537" y1="125.742" x2="-21.5935" y2="59.154" gradientUnits="userSpaceOnUse">
<stop stop-color="#FFC300"/>
<stop offset="1" stop-color="#FFC300" stop-opacity="0.1"/>
</linearGradient>
</defs>
</svg>
