<svg width="15" height="15" viewBox="0 0 15 15" fill="none" xmlns="http://www.w3.org/2000/svg">
<path d="M0.165039 6.90398L0.165039 8.22701L0.826555 8.22701L0.826555 8.88852L1.48807 8.88852L1.48807 9.55004L2.14959 9.55004L2.14959 10.2116L2.8111 10.2116L2.8111 10.8731L3.47262 10.8731L3.47262 11.5346L4.13413 11.5346L4.13413 12.1961L4.79565 12.1961L4.79565 12.8576L5.45717 12.8576L5.45717 13.5191L6.11868 13.5191L6.11868 14.1806L6.7802 14.1806L6.7802 14.8422L7.44171 14.8422L7.44171 14.1806L8.10323 14.1806L8.10323 13.5191L8.76474 13.5191L8.76474 12.8576L8.10323 12.8576L8.10323 12.1961L7.44171 12.1961L7.44171 11.5346L6.7802 11.5346L6.7802 10.8731L6.11868 10.8731L6.11868 10.2116L5.45717 10.2116L5.45717 9.55004L4.79565 9.55004L4.79565 8.88852L14.7184 8.88852L14.7184 6.24246L4.79565 6.24246L4.79565 5.58094L5.45717 5.58094L5.45717 4.91943L6.11868 4.91943L6.11868 4.25791L6.7802 4.25791L6.7802 3.5964L7.44171 3.5964L7.44171 2.93488L8.10323 2.93488L8.10323 2.27337L8.76474 2.27337L8.76474 1.61185L8.10323 1.61185L8.10323 0.950334L7.44171 0.950334L7.44171 0.288818L6.7802 0.288818L6.7802 0.950334L6.11868 0.950334L6.11868 1.61185L5.45717 1.61185L5.45717 2.27337L4.79565 2.27337L4.79565 2.93488L4.13413 2.93488L4.13413 3.5964L3.47262 3.5964L3.47262 4.25791L2.8111 4.25791L2.8111 4.91943L2.14959 4.91943L2.14959 5.58094L1.48807 5.58094L1.48807 6.24246L0.826555 6.24246L0.826555 6.90398L0.165039 6.90398Z" fill="white"/>
</svg>
