<svg width="23" height="27" viewBox="0 0 23 27" fill="none" xmlns="http://www.w3.org/2000/svg">
<path d="M8.22668 27C7.91838 26.9155 7.6001 26.8521 7.3033 26.7415C6.37378 26.3964 5.71652 25.7886 5.29777 24.952C5.24869 24.8541 5.11601 24.7562 5.00174 24.7273C2.98317 24.228 1.87802 22.4405 2.45629 20.5918C2.46626 20.5594 2.4724 20.5256 2.4793 20.4953C-0.229504 19.1635 -0.0860882 15.7379 2.61351 14.5998C2.58283 14.1625 2.48927 13.7315 2.53452 13.3131C2.68714 11.8961 3.5438 10.9651 4.99714 10.4946C5.15896 10.4418 5.23105 10.3777 5.26863 10.2157C5.5662 8.93886 6.39679 8.07612 7.75502 7.70074C9.10329 7.32818 10.3028 7.63524 11.3236 8.52334C11.3772 8.56982 11.4033 8.64306 11.444 8.70574C11.6817 8.51488 11.852 8.36206 12.0399 8.23036C14.1382 6.76124 17.1706 7.79159 17.7144 10.1622C17.7604 10.3622 17.8455 10.4446 18.0549 10.5073C19.835 11.039 20.8389 12.7391 20.371 14.4061C20.3565 14.4569 20.345 14.5076 20.3273 14.578C21.6334 15.1759 22.4257 16.1133 22.4671 17.4838C22.5077 18.8452 21.783 19.8178 20.5129 20.489C20.753 21.1686 20.799 21.856 20.5467 22.5328C20.1187 23.6836 19.2345 24.397 17.969 24.7301C17.8685 24.7569 17.7504 24.8393 17.7083 24.9245C17.1461 26.057 16.2035 26.7331 14.8706 26.9549C14.8361 26.9606 14.8047 26.9831 14.7717 26.9986H13.8529C13.8007 26.9824 13.7494 26.9584 13.6949 26.95C12.9203 26.8282 12.2569 26.5119 11.6994 26.0049C11.6342 25.9457 11.5659 25.8887 11.4892 25.8217C11.0283 26.2943 10.493 26.6331 9.85565 26.8239C9.62327 26.8937 9.38245 26.9408 9.1447 26.9979H8.22592L8.22668 27ZM10.6387 17.2409C10.6387 17.0211 10.6387 16.8014 10.6387 16.5824C10.6387 14.6498 10.6448 12.7173 10.6348 10.7848C10.6295 9.83258 9.74214 9.09169 8.69298 9.13465C7.65839 9.1769 6.84544 10.0002 6.9298 10.92C6.98809 11.5552 6.66368 11.8546 5.96577 11.9341C5.61221 11.9743 5.23028 12.0968 4.94268 12.2863C4.12513 12.8229 4.00012 13.8096 4.5968 14.5752C4.91814 14.9879 4.92504 15.4126 4.55538 15.683C4.37439 15.8154 4.1144 15.8929 3.88048 15.9189C2.96247 16.0225 2.25689 16.7084 2.24385 17.5486C2.23081 18.4029 2.83209 19.0339 3.8475 19.2304C4.58606 19.3734 4.83915 19.9805 4.40583 20.5474C4.28619 20.7038 4.17115 20.8728 4.10366 21.0517C3.70639 22.1004 4.55538 23.1582 5.85456 23.2483C6.40982 23.2871 6.6399 23.4857 6.78485 23.9829C6.85541 24.2237 6.95511 24.4724 7.10773 24.6759C7.5886 25.3168 8.48437 25.5717 9.29579 25.3316C10.108 25.0914 10.6356 24.4385 10.6372 23.6455C10.641 21.5109 10.6387 19.3755 10.6387 17.2409ZM16.0655 10.9383C16.1575 10.0143 15.3615 9.19028 14.3246 9.13535C13.2685 9.07901 12.3643 9.82977 12.3627 10.7932C12.3566 15.0886 12.3574 19.384 12.3627 23.6793C12.3635 24.5794 13.1212 25.3203 14.1021 25.4126C15.0785 25.5048 15.9911 24.9153 16.2074 24.0526C16.3592 23.4469 16.5341 23.3075 17.2105 23.2427C17.9514 23.1716 18.5197 22.8476 18.8318 22.2201C19.1171 21.6468 19.0282 21.0911 18.624 20.5798C18.1385 19.965 18.3977 19.3678 19.216 19.2149C20.1908 19.0325 20.7929 18.3557 20.753 17.4866C20.7146 16.6563 20.0198 16.0168 19.0512 15.9217C18.2405 15.8422 17.9161 15.1914 18.3916 14.59C18.8165 14.0526 18.9054 13.4751 18.5925 12.8779C18.2766 12.2757 17.7274 11.9574 16.9973 11.9201C16.3424 11.887 16.0072 11.5369 16.067 10.9383H16.0655Z" fill="white"/>
<path d="M12.3574 2.77856C12.3574 3.12577 12.3574 3.47368 12.3574 3.82089C12.3574 4.2512 12.3635 4.68151 12.3551 5.11183C12.3459 5.58651 11.9823 5.92245 11.4946 5.92245C11.0068 5.92245 10.6418 5.58369 10.6379 5.11112C10.6325 4.41741 10.6364 3.72299 10.6364 3.02928C10.6364 2.94477 10.6364 2.86026 10.6364 2.77645C10.6057 2.75814 10.575 2.73983 10.5451 2.72152C10.2966 2.97083 10.0658 3.23845 9.79583 3.46593C9.28428 3.89625 8.50892 3.65891 8.36857 3.04196C8.30721 2.77152 8.39694 2.53207 8.60248 2.34121C9.36251 1.63552 10.1241 0.930543 10.8964 0.236832C11.2438 -0.0751623 11.7362 -0.0807965 12.0859 0.231197C12.8674 0.929134 13.6389 1.63764 14.3997 2.35459C14.7494 2.68419 14.728 3.16169 14.3874 3.46664C14.0477 3.77159 13.5392 3.77229 13.1742 3.45326C12.9149 3.22648 12.6726 2.9828 12.4226 2.74687C12.4011 2.75743 12.3789 2.768 12.3574 2.77856Z" fill="white"/>
<path d="M2.97167 4.11387C3.57448 4.66672 4.16118 5.2069 4.75018 5.74356C4.97413 5.9478 5.09914 6.18444 5.04392 6.47671C4.98486 6.7873 4.7916 7.00914 4.45952 7.1007C4.13434 7.19014 3.8337 7.13028 3.58675 6.90561C3.05833 6.42319 2.53068 5.93935 2.0061 5.45199C1.93324 5.38438 1.88339 5.29705 1.82357 5.21817C1.79289 5.23296 1.76298 5.24705 1.73231 5.26184C1.72771 5.35198 1.72157 5.44143 1.7185 5.53157C1.70853 5.82948 1.72924 6.13091 1.68246 6.42389C1.62187 6.80772 1.2269 7.07182 0.816591 7.04999C0.397079 7.02816 0.0212824 6.73518 0.01438 6.35487C-0.00479332 5.30198 -0.00479332 4.24838 0.01438 3.19549C0.0212824 2.80392 0.393244 2.50037 0.838832 2.49615C1.92864 2.48558 3.01845 2.48417 4.10826 2.49615C4.58989 2.50178 4.96262 2.87998 4.94882 3.30184C4.93501 3.73497 4.56535 4.05964 4.06761 4.0695C3.72403 4.07584 3.37968 4.07513 3.03609 4.07795C3.02842 4.07795 3.02075 4.0864 2.97167 4.11387Z" fill="white"/>
<path d="M21.2062 5.2555C20.6126 5.80201 20.0198 6.34853 19.4254 6.89435C19.1723 7.12676 18.8656 7.19437 18.5289 7.09859C18.1976 7.00421 18.0074 6.77955 17.9521 6.46896C17.9015 6.18796 18.0181 5.95484 18.2344 5.75765C18.7628 5.27522 19.2897 4.78997 19.8166 4.30543C19.8817 4.24486 19.9431 4.18148 20.0543 4.07161C19.6662 4.07161 19.338 4.07302 19.0097 4.07161C18.4453 4.06879 18.0587 3.75469 18.0495 3.2962C18.0403 2.8342 18.4453 2.49474 19.0128 2.49333C20.0259 2.49122 21.039 2.49051 22.0522 2.49333C22.6496 2.49474 22.9932 2.80814 22.9963 3.361C23.0009 4.30895 23.0016 5.25691 22.9963 6.20486C22.9932 6.70208 22.635 7.0507 22.145 7.05281C21.6587 7.05492 21.2944 6.7049 21.2814 6.21049C21.273 5.8985 21.2799 5.5858 21.2799 5.2731C21.2553 5.26747 21.23 5.26113 21.2062 5.2555Z" fill="white"/>
</svg>
