<svg width="23" height="19" viewBox="0 0 23 19" fill="none" xmlns="http://www.w3.org/2000/svg">
<path d="M11.5 15.4375C12.765 15.4375 13.8479 14.9724 14.7487 14.0422C15.6496 13.112 16.1 11.9937 16.1 10.6875C16.1 9.38125 15.6496 8.26302 14.7487 7.33281C13.8479 6.4026 12.765 5.9375 11.5 5.9375C10.235 5.9375 9.15208 6.4026 8.25125 7.33281C7.35042 8.26302 6.9 9.38125 6.9 10.6875C6.9 11.9937 7.35042 13.112 8.25125 14.0422C9.15208 14.9724 10.235 15.4375 11.5 15.4375ZM10.1775 8.075C10.3883 7.97604 10.5992 7.89173 10.81 7.82206C11.0208 7.75239 11.2508 7.71796 11.5 7.71875C12.305 7.71875 12.9854 8.00573 13.5412 8.57969C14.0971 9.15365 14.375 9.85625 14.375 10.6875C14.375 10.9448 14.3413 11.1823 14.2738 11.4C14.2063 11.6177 14.1251 11.8354 14.03 12.0531L10.1775 8.075ZM11.5 13.6562C10.695 13.6562 10.0146 13.3693 9.45875 12.7953C8.90292 12.2214 8.625 11.5187 8.625 10.6875C8.625 10.4302 8.65873 10.1927 8.7262 9.975C8.79367 9.75729 8.87493 9.53958 8.97 9.32187L12.8225 13.3C12.6117 13.399 12.4008 13.4833 12.19 13.5529C11.9792 13.6226 11.7492 13.657 11.5 13.6562ZM2.3 19C1.6675 19 1.12623 18.7676 0.6762 18.3029C0.226167 17.8382 0.000766667 17.2789 0 16.625V2.375C0 1.72187 0.2254 1.16296 0.6762 0.69825C1.127 0.233541 1.66827 0.000791667 2.3 0H9.2L11.5 2.375H20.7C21.3325 2.375 21.8741 2.60775 22.3249 3.07325C22.7757 3.53875 23.0008 4.09767 23 4.75V16.625C23 17.2781 22.775 17.8374 22.3249 18.3029C21.8749 18.7684 21.3333 19.0008 20.7 19H2.3ZM2.3 16.625H20.7V4.75H10.5512L8.25125 2.375H2.3V16.625Z" fill="white"/>
</svg>
