<svg width="23" height="22" viewBox="0 0 23 22" fill="none" xmlns="http://www.w3.org/2000/svg">
<path d="M4.82686 2.44553C4.82654 3.0938 4.57196 3.71539 4.11913 4.17356C3.6663 4.63173 3.05231 4.88894 2.41223 4.88862C1.77214 4.88829 1.1584 4.63046 0.706025 4.17183C0.253645 3.71321 -0.000319739 3.09136 3.02115e-07 2.44309C0.000320343 1.79482 0.254899 1.17323 0.707731 0.715057C1.16056 0.25689 1.77456 -0.00032383 2.41464 3.0598e-07C3.05472 0.000324441 3.66846 0.25816 4.12084 0.716786C4.57322 1.17541 4.82718 1.79726 4.82686 2.44553ZM4.89927 6.69863H0.0724032V22H4.89927V6.69863ZM12.5257 6.69863H7.72298V22H12.4774V13.9704C12.4774 9.49736 18.2335 9.08183 18.2335 13.9704V22H23V12.3083C23 4.76762 14.4806 5.04872 12.4774 8.75185L12.5257 6.69863Z" fill="#070707"/>
</svg>
