<svg  viewBox="0 0 82 82" fill="none" xmlns="http://www.w3.org/2000/svg">
<rect width="82" height="82" rx="16" fill="#44B276"/>
<path d="M42.8126 21.7125C45.2193 19.9842 48.0111 19.12 51.1638 19.12C52.8967 19.12 54.7979 19.5761 56.8677 20.5363C58.9374 21.4724 60.574 22.5767 61.7773 23.8489C64.2562 26.9214 65.2911 30.4981 64.9301 34.5788C64.545 38.6596 63.1973 41.8522 60.8628 44.1086L42.596 62.3279C42.1388 62.784 41.5612 63 40.8873 63C40.2134 63 39.6599 62.784 39.2026 62.3279C38.9801 62.1094 38.8054 61.8472 38.6894 61.5581C38.5734 61.2689 38.5187 60.9589 38.5287 60.6476C38.5287 59.9755 38.7453 59.3994 39.2026 58.9433L50.2493 47.9253C50.851 47.3972 50.851 46.8451 50.2493 46.245C49.6476 45.6448 49.0941 45.6448 48.5646 46.245L37.5179 57.263C37.2952 57.4867 37.0283 57.662 36.7342 57.7777C36.4401 57.8934 36.1251 57.947 35.8092 57.9351C35.1353 57.9351 34.5818 57.719 34.1245 57.263C33.902 57.0444 33.7272 56.7823 33.6113 56.4931C33.4953 56.204 33.4406 55.894 33.4506 55.5827C33.4506 54.9105 33.6672 54.3344 34.1245 53.8783L45.1712 42.8603C45.821 42.2602 45.821 41.6601 45.1712 41.06C44.6177 40.4599 44.0882 40.4599 43.4865 41.06L32.4398 52.198C32.2146 52.4184 31.9473 52.5914 31.6537 52.7068C31.3602 52.8223 31.0465 52.8778 30.7311 52.8702C30.0572 52.8702 29.4796 52.6541 28.9742 52.198C28.4929 51.742 28.2522 51.1899 28.2522 50.5177C28.2522 49.8456 28.5169 49.2455 29.0464 48.7174L40.1172 37.6754C40.7188 37.0753 40.7188 36.5232 40.1172 35.9951C39.5155 35.467 38.9379 35.467 38.4084 35.9951L27.2414 47.0611C26.7119 47.5412 26.1584 47.8052 25.5567 47.8052C24.8828 47.8052 24.3052 47.5652 23.872 47.0611C23.4148 46.581 23.1741 46.0049 23.1741 45.3328C23.1741 44.6607 23.4148 44.1086 23.872 43.6525C31.2365 36.2591 35.7851 31.7943 37.5179 30.138L46.0857 38.5876C47.0243 39.4757 48.1073 39.9318 49.431 39.9318C51.1157 39.9318 52.4394 39.2597 53.4261 37.9154C54.1 36.9313 54.3407 35.8511 54.1481 34.6508C53.9556 33.4506 53.4502 32.4424 52.6319 31.6023L42.8126 21.7125ZM47.7704 36.9073L37.5179 26.6574L20.4786 43.6525C18.457 41.6121 17.3018 38.4915 17.037 34.2428C16.7723 30.018 17.9275 26.3453 20.4786 23.2728C23.3426 20.4403 26.76 19 30.7311 19C34.7262 19 38.1196 20.4403 40.8873 23.2728L51.1638 33.5226C51.6211 33.9787 51.8377 34.5308 51.8377 35.2029C51.8377 35.8751 51.6211 36.4512 51.1638 36.9073C50.7066 37.3393 50.153 37.5794 49.431 37.5794C48.7812 37.5794 48.2277 37.3393 47.7704 36.9073Z" fill="white"/>
</svg>
