<svg width="128" height="128" viewBox="0 0 128 128" fill="none" xmlns="http://www.w3.org/2000/svg">
<path d="M0 75.9302C1.34608 74.5697 2.70886 73.2259 4.03156 71.8419C4.76639 71.0745 5.38432 71.0778 6.13252 71.8419C9.05181 74.811 11.9945 77.7566 14.9472 80.6888C15.662 81.3993 15.6653 82.0058 14.9472 82.7062C13.7514 83.8657 12.579 85.0486 11.4166 86.2416C10.7653 86.9085 10.1507 86.9353 9.48937 86.2651C6.32958 83.0681 3.16312 79.8779 0 76.6842C0 76.4329 0 76.1816 0 75.9302Z" fill="url(#paint0_linear_2288_485)" fill-opacity="0.25"/>
<path d="M76.0986 22.8987C66.6059 23.1433 58.9136 26.977 53.1318 34.5807C52.0429 36.015 52.0529 36.0317 50.5098 35.2576C46.9391 33.4648 43.3518 31.6987 39.8079 29.8556C39.19 29.5339 38.5954 28.9743 38.2414 28.3744C37.0289 26.3302 35.9534 24.2056 34.7776 22.1413C34.32 21.3371 34.3802 20.7171 34.948 19.9832C37.7771 16.3338 41.0037 13.0933 44.6378 10.2516C45.4127 9.645 46.0506 9.60814 46.8924 10.1008C48.7228 11.1731 50.5866 12.2019 52.4838 13.1503C52.9046 13.3614 53.6361 13.358 54.0403 13.1302C57.4305 11.2133 60.9978 9.75559 64.7355 8.67652C65.1763 8.54918 65.674 8.02306 65.8243 7.57065C66.4957 5.55328 67.0903 3.50909 67.6347 1.4515C67.8685 0.560102 68.3061 0.0138684 69.2346 0.0105173C73.8474 -0.0028872 78.4601 -0.0028872 83.0695 0.00716617C84.0014 0.00716617 84.4524 0.553399 84.6895 1.43474C85.244 3.48898 85.8252 5.53652 86.4932 7.5539C86.6435 8.0063 87.1312 8.54583 87.5687 8.66982C91.3097 9.73213 94.8703 11.21 98.2672 13.1067C98.6981 13.348 99.4763 13.3245 99.9306 13.1C101.794 12.1784 103.618 11.1631 105.412 10.1075C106.247 9.61819 106.885 9.62154 107.666 10.2348C111.3 13.0799 114.524 16.3204 117.36 19.9598C117.974 20.7506 117.971 21.3907 117.49 22.2218C116.424 24.0649 115.466 25.965 114.4 27.8047C114.056 28.3979 114.1 28.8168 114.434 29.3898C116.374 32.7208 117.867 36.2496 118.812 39.9928C119 40.73 119.367 41.0919 120.092 41.2863C122.139 41.8392 124.16 42.486 126.208 43.0457C127.039 43.2735 127.427 43.7058 127.544 44.5972C128.158 49.2687 128.148 53.9268 127.537 58.5949C127.427 59.436 127.043 59.8582 126.278 60.0761C124.197 60.6659 122.129 61.3026 120.042 61.8689C119.364 62.0532 119.01 62.3749 118.833 63.0787C117.877 66.8654 116.378 70.4344 114.4 73.7956C114.043 74.4021 114.12 74.821 114.434 75.3773C115.482 77.2271 116.444 79.1306 117.513 80.967C118.014 81.8249 117.914 82.4582 117.319 83.2223C114.484 86.8683 111.25 90.0988 107.616 92.9405C106.942 93.4667 106.37 93.5839 105.585 93.1315C103.458 91.9017 101.267 90.7858 99.1457 89.5459C98.6112 89.2342 98.1102 88.6947 97.8297 88.1417C95.9659 84.5024 94.1922 80.8195 92.3318 77.1802C91.794 76.1279 91.9543 75.5046 92.913 74.7707C101.871 67.9009 105.953 58.7624 104.393 47.5831C102.847 36.511 96.4969 28.8771 86.1291 24.7083C82.9259 23.4215 79.559 22.892 76.0986 22.8953V22.8987Z" fill="url(#paint1_linear_2288_485)" fill-opacity="0.25"/>
<path d="M82.652 59.7946C77.2877 65.1765 72.0504 70.4377 66.8097 75.6956C64.1609 78.3564 61.5089 81.0139 58.8568 83.6747C57.6744 84.861 57.3704 84.8643 56.2147 83.7048C52.2065 79.6868 48.2017 75.6688 44.1969 71.6508C42.9209 70.3707 42.9176 70.1831 44.1668 68.9264C51.7656 61.3026 59.3645 53.6788 66.9633 46.055C67.2539 45.7634 67.5312 45.4585 67.9353 45.0329C66.2285 43.3305 64.5551 41.6616 62.885 39.9894C62.3239 39.4298 61.7059 38.9137 61.2283 38.2871C60.9344 37.9084 60.6137 37.2616 60.7507 36.9198C60.8876 36.5813 61.5857 36.2965 62.0433 36.2898C65.8744 36.2395 69.7056 36.263 73.5401 36.263C78.9144 36.263 84.2853 36.263 89.6596 36.263C91.2429 36.263 91.45 36.4707 91.4533 38.0726C91.4566 47.1843 91.4667 56.2926 91.4266 65.4044C91.4266 65.9774 90.989 66.5504 90.7552 67.1201C90.2275 66.8654 89.5895 66.728 89.1887 66.3393C87.0076 64.218 84.8832 62.0365 82.6587 59.7912L82.652 59.7946Z" fill="url(#paint2_linear_2288_485)" fill-opacity="0.25"/>
<path d="M72.9255 85.5144C71.2187 83.8087 69.749 82.3912 68.3562 80.9066C68.0055 80.5347 67.8952 79.9315 67.6781 79.4355C68.2059 79.2009 68.7303 78.772 69.2613 78.7653C75.6744 78.7184 82.0875 78.7519 88.5006 78.7217C89.6897 78.715 90.1239 79.1942 90.1172 80.3638C90.0905 86.7979 90.1172 93.2321 90.0805 99.6662C90.0805 100.186 89.7398 100.705 89.5594 101.221C89.0217 101.013 88.3603 100.936 87.9695 100.571C86.5099 99.2038 85.1404 97.7427 83.6374 96.2179C83.2733 96.5597 82.9459 96.8513 82.6387 97.1596C77.4547 102.357 72.2742 107.558 67.0902 112.756C65.7876 114.063 65.6206 114.059 64.2879 112.722C61.5489 109.978 58.8067 107.23 56.0744 104.478C54.9722 103.369 54.9689 103.138 56.0644 102.035C61.2717 96.8044 66.4823 91.5733 71.7063 86.3556C72.027 86.0372 72.4612 85.8295 72.9288 85.5111L72.9255 85.5144Z" fill="url(#paint3_linear_2288_485)" fill-opacity="0.25"/>
<path d="M31.9252 44.3559C30.1849 42.6268 28.742 41.2494 27.3792 39.7951C27.0018 39.3929 26.8682 38.7596 26.621 38.2301C27.1554 38.0056 27.6865 37.5934 28.2243 37.59C34.634 37.5465 41.0471 37.58 47.4569 37.5465C48.6526 37.5398 49.0668 38.0089 49.0635 39.1852C49.0301 45.616 49.0635 52.0501 49.02 58.4843C49.0167 59.0205 48.6159 59.5566 48.3988 60.0928C47.871 59.8415 47.2364 59.7007 46.8389 59.3154C45.406 57.9313 44.0532 56.4669 42.627 54.9857C42.1527 55.4381 41.8187 55.7431 41.5014 56.0614C36.3175 61.259 31.1369 66.4566 25.953 71.6508C24.7772 72.8304 24.52 72.8271 23.3243 71.6274C20.5553 68.8527 17.7896 66.0746 15.0273 63.2965C13.9384 62.1973 13.9351 61.9292 15.014 60.8468C20.1945 55.6459 25.3718 50.4449 30.5657 45.2607C30.9131 44.9156 31.3941 44.7045 31.9252 44.3559Z" fill="url(#paint4_linear_2288_485)" fill-opacity="0.25"/>
<path d="M54.4979 87.696C54.2407 88.0814 54.0637 88.4601 53.7898 88.7416C52.0997 90.4674 50.3728 92.1631 48.6827 93.8889C47.9846 94.6027 47.38 94.6161 46.6686 93.8956C42.4433 89.633 38.2046 85.3838 33.9626 81.1412C33.2479 80.4274 33.3013 79.8008 34.0027 79.1104C35.7262 77.4148 37.4297 75.7024 39.1198 73.9732C39.8179 73.2594 40.4292 73.2493 41.1373 73.9631C45.3626 78.2224 49.6079 82.4649 53.8365 86.7242C54.087 86.9755 54.2474 87.3207 54.4945 87.6893L54.4979 87.696Z" fill="url(#paint5_linear_2288_485)" fill-opacity="0.25"/>
<path d="M30.0446 83.4334C30.4354 83.7149 30.8029 83.9126 31.0834 84.1941C35.272 88.3763 39.4372 92.5786 43.6357 96.7508C44.434 97.545 44.434 98.1884 43.6357 98.9659C41.9623 100.591 40.3156 102.247 38.6923 103.926C37.9341 104.71 37.2861 104.787 36.4811 103.972C32.3226 99.7634 28.1474 95.5678 23.9489 91.399C23.1472 90.6015 23.1439 89.9781 23.9489 89.1973C25.6557 87.5452 27.3024 85.8328 28.9958 84.1639C29.2764 83.8858 29.6539 83.7048 30.0446 83.4367V83.4334Z" fill="url(#paint6_linear_2288_485)" fill-opacity="0.25"/>
<path d="M63.8703 115.631C63.6566 115.973 63.5096 116.321 63.2658 116.573C62.0767 117.799 60.8575 118.992 59.6618 120.212C59.0138 120.872 58.4159 120.909 57.7412 120.229C54.7551 117.209 51.7523 114.2 48.7495 111.197C48.1215 110.567 48.1149 109.998 48.7495 109.374C49.9653 108.175 51.1744 106.972 52.3669 105.745C53.0215 105.075 53.6328 105.052 54.2941 105.715C57.2903 108.728 60.2931 111.73 63.2825 114.75C63.5063 114.974 63.6466 115.282 63.8804 115.628L63.8703 115.631Z" fill="url(#paint7_linear_2288_485)" fill-opacity="0.25"/>
<path d="M51.4918 128C51.141 127.786 50.7469 127.635 50.473 127.363C47.5136 124.421 44.581 121.455 41.6216 118.513C40.9068 117.803 40.9068 117.193 41.6316 116.492C42.8307 115.333 44.0065 114.146 45.1688 112.95C45.8302 112.27 46.4314 112.283 47.0928 112.95C50.0588 115.943 53.0349 118.925 56.0177 121.904C56.5654 122.454 56.7892 123.037 56.2014 123.647C54.9288 124.971 53.6261 126.264 52.3168 127.548C52.1264 127.735 51.8291 127.819 51.4918 127.997V128Z" fill="url(#paint8_linear_2288_485)" fill-opacity="0.25"/>
<path d="M22.8433 74.4658C22.5995 74.821 22.4324 75.1561 22.1853 75.4108C20.9962 76.634 19.777 77.8303 18.5813 79.0468C17.9166 79.7237 17.312 79.6701 16.6573 79.0099C13.698 76.0207 10.7319 73.0416 7.75249 70.0758C7.09114 69.4156 7.04772 68.8124 7.72243 68.1489C8.9349 66.9492 10.1374 65.7361 11.3365 64.523C12.0012 63.8528 12.6258 63.9097 13.2738 64.5632C16.2365 67.5491 19.2092 70.5215 22.1686 73.5074C22.4191 73.7621 22.5894 74.0972 22.8466 74.4624L22.8433 74.4658Z" fill="url(#paint9_linear_2288_485)" fill-opacity="0.25"/>
<defs>
<linearGradient id="paint0_linear_2288_485" x1="128.636" y1="122.862" x2="-11.8534" y2="35.6639" gradientUnits="userSpaceOnUse">
<stop stop-color="#FF8630"/>
<stop offset="1" stop-color="#FF8630" stop-opacity="0.1"/>
</linearGradient>
<linearGradient id="paint1_linear_2288_485" x1="128.636" y1="122.862" x2="-11.8534" y2="35.6639" gradientUnits="userSpaceOnUse">
<stop stop-color="#FF8630"/>
<stop offset="1" stop-color="#FF8630" stop-opacity="0.1"/>
</linearGradient>
<linearGradient id="paint2_linear_2288_485" x1="128.636" y1="122.862" x2="-11.8534" y2="35.6639" gradientUnits="userSpaceOnUse">
<stop stop-color="#FF8630"/>
<stop offset="1" stop-color="#FF8630" stop-opacity="0.1"/>
</linearGradient>
<linearGradient id="paint3_linear_2288_485" x1="128.636" y1="122.862" x2="-11.8534" y2="35.6639" gradientUnits="userSpaceOnUse">
<stop stop-color="#FF8630"/>
<stop offset="1" stop-color="#FF8630" stop-opacity="0.1"/>
</linearGradient>
<linearGradient id="paint4_linear_2288_485" x1="128.636" y1="122.862" x2="-11.8534" y2="35.6639" gradientUnits="userSpaceOnUse">
<stop stop-color="#FF8630"/>
<stop offset="1" stop-color="#FF8630" stop-opacity="0.1"/>
</linearGradient>
<linearGradient id="paint5_linear_2288_485" x1="128.636" y1="122.862" x2="-11.8534" y2="35.6639" gradientUnits="userSpaceOnUse">
<stop stop-color="#FF8630"/>
<stop offset="1" stop-color="#FF8630" stop-opacity="0.1"/>
</linearGradient>
<linearGradient id="paint6_linear_2288_485" x1="128.636" y1="122.862" x2="-11.8534" y2="35.6639" gradientUnits="userSpaceOnUse">
<stop stop-color="#FF8630"/>
<stop offset="1" stop-color="#FF8630" stop-opacity="0.1"/>
</linearGradient>
<linearGradient id="paint7_linear_2288_485" x1="128.636" y1="122.862" x2="-11.8534" y2="35.6639" gradientUnits="userSpaceOnUse">
<stop stop-color="#FF8630"/>
<stop offset="1" stop-color="#FF8630" stop-opacity="0.1"/>
</linearGradient>
<linearGradient id="paint8_linear_2288_485" x1="128.636" y1="122.862" x2="-11.8534" y2="35.6639" gradientUnits="userSpaceOnUse">
<stop stop-color="#FF8630"/>
<stop offset="1" stop-color="#FF8630" stop-opacity="0.1"/>
</linearGradient>
<linearGradient id="paint9_linear_2288_485" x1="128.636" y1="122.862" x2="-11.8534" y2="35.6639" gradientUnits="userSpaceOnUse">
<stop stop-color="#FF8630"/>
<stop offset="1" stop-color="#FF8630" stop-opacity="0.1"/>
</linearGradient>
</defs>
</svg>
