<svg width="48" height="46" viewBox="0 0 48 46" fill="none" xmlns="http://www.w3.org/2000/svg">
<path fill-rule="evenodd" clip-rule="evenodd" d="M6.05936 26.7314C6.44145 26.8805 6.63232 27.3159 6.48523 27.7032C6.33814 28.0906 5.90847 28.284 5.52637 28.1349L2.24776 26.8562C1.96128 26.7444 1.77227 26.4655 1.77227 26.1545V20.4919C1.77227 20.1809 1.96128 19.902 2.24776 19.7902L5.30963 18.596C5.73949 16.9354 6.38822 15.3486 7.24441 13.8706L5.91023 10.8296C5.78549 10.5453 5.84642 10.2125 6.06353 9.99249L10.0136 5.98935C10.2307 5.76933 10.5591 5.70758 10.8396 5.834L13.8404 7.18617C15.2989 6.31849 16.8643 5.66134 18.4984 5.23014L19.6819 2.12184C19.7924 1.8319 20.0675 1.64063 20.3742 1.64063H25.9617C26.2687 1.64063 26.5441 1.83237 26.6543 2.12288L27.8324 5.23032C29.5933 5.69508 31.2741 6.42206 32.8275 7.39209C33.1762 7.60976 33.2848 8.0733 33.07 8.42659C32.8551 8.77988 32.3977 8.89003 32.0491 8.67227C30.5185 7.71653 28.8531 7.01737 27.1069 6.59678C26.8686 6.53945 26.6737 6.36661 26.5858 6.13494L25.452 3.14441H20.8831L19.744 6.13597C19.656 6.36708 19.4612 6.53955 19.2233 6.59678C17.4771 7.01737 15.8117 7.71653 14.2811 8.67227C14.0726 8.80253 13.8143 8.82002 13.5905 8.71926L10.7025 7.41794L7.47312 10.6906L8.75722 13.6173C8.85673 13.844 8.83939 14.106 8.71094 14.3172C7.76739 15.8689 7.07739 17.5573 6.65689 19.3331C6.59986 19.5737 6.42977 19.7704 6.2019 19.8593L3.25614 21.0082V25.6382L6.05936 26.7314ZM39.5787 18.948C39.4751 18.5465 39.7127 18.1353 40.1089 18.0304C40.5051 17.9254 40.9107 18.1662 41.0143 18.5676C41.0168 18.5773 41.0193 18.5869 41.0218 18.5965L44.0824 19.7902C44.3689 19.902 44.5579 20.1809 44.5579 20.4919V26.1545C44.5579 26.4655 44.3689 26.7444 44.0824 26.8562L41.0214 28.0501C40.5952 29.7058 39.9429 31.292 39.0906 32.7696L40.4204 35.8121C40.5446 36.0962 40.4835 36.4284 40.2667 36.6481L36.3166 40.6513C36.0998 40.871 35.7718 40.933 35.4915 40.8071L32.4909 39.4601C31.0362 40.3277 29.4669 40.9848 27.8322 41.4161L26.6541 44.5182C26.5438 44.8086 26.2687 45 25.9617 45H20.3742C20.0672 45 19.7919 44.8086 19.6818 44.5182L18.5037 41.4164C16.8651 40.9846 15.2993 40.3234 13.8409 39.4595L10.8387 40.8071C10.5584 40.933 10.2304 40.871 10.0136 40.6513L6.06353 36.6481C5.84642 36.4282 5.78549 36.0953 5.91023 35.811L7.40133 32.4124C7.56771 32.0333 8.00657 31.8623 8.38069 32.0308C8.7549 32.1994 8.9236 32.6442 8.75722 33.0234L7.47312 35.9501L10.703 39.2233L13.5914 37.9267C13.8143 37.8266 14.0716 37.8439 14.2795 37.9731C15.8106 38.9237 17.4764 39.6288 19.2284 40.0495C19.4668 40.1067 19.6619 40.2794 19.7498 40.5111L20.8836 43.4962H25.4522L26.5859 40.5111C26.6738 40.2796 26.8688 40.1069 27.1069 40.0496C28.8527 39.6291 30.5232 38.9303 32.048 37.9747C32.2563 37.8441 32.5148 37.8262 32.7388 37.9267L35.6271 39.2233L38.8576 35.9496L37.5782 33.0224C37.4794 32.7965 37.4965 32.5358 37.6239 32.3251C38.5621 30.7734 39.2578 29.0852 39.6729 27.315C39.7295 27.0736 39.8999 26.8762 40.1283 26.7871L43.074 25.6382V21.0082L40.1283 19.8593C39.8998 19.7701 39.7293 19.5724 39.6728 19.3309C39.6429 19.2028 39.6115 19.0752 39.5787 18.948ZM31.9167 25.4986C32.0141 25.0955 32.416 24.8483 32.8138 24.947C33.2115 25.0457 33.4554 25.453 33.358 25.8561C32.2354 30.5043 28.0974 33.9545 23.1651 33.9545C21.1777 33.9545 19.3201 33.3942 17.7367 32.4214C17.3865 32.2063 17.2745 31.7435 17.4868 31.3887C17.6991 31.0338 18.1558 30.9204 18.5059 31.1355C19.8648 31.9704 21.4594 32.4507 23.1651 32.4507C27.3997 32.4507 30.9529 29.4893 31.9167 25.4986ZM14.3279 25.0794C14.4062 25.4867 14.1435 25.8818 13.7416 25.9611C13.3397 26.0405 12.9498 25.7743 12.8714 25.367C12.7441 24.7047 12.6773 24.0204 12.6773 23.3203C12.6773 17.4477 17.3702 12.6919 23.1651 12.6919C25.4517 12.6919 27.5675 13.4326 29.2915 14.69C29.6239 14.9324 29.6995 15.4026 29.4603 15.7394C29.2211 16.0763 28.7571 16.1529 28.4247 15.9105C26.9447 14.8311 25.1281 14.1956 23.1651 14.1956C18.1901 14.1956 14.1612 18.2785 14.1612 23.3203C14.1612 23.922 14.2184 24.5102 14.3279 25.0794ZM42.8184 13.3544C39.6014 18.365 34.8834 22.9043 28.9565 26.2566L28.9562 26.2567C19.7496 31.4595 9.67444 32.6433 1.53661 30.2681C1.18021 30.1641 0.95438 29.8093 1.0078 29.4374C1.06113 29.0654 1.37738 28.7906 1.74825 28.7938C7.71582 28.8448 13.7292 27.465 20.2117 23.8007C25.902 20.5836 32.4976 14.3395 36.07 8.76588L32.9091 6.61981C32.6767 6.4621 32.5516 6.18541 32.5855 5.90411C32.6193 5.62281 32.8065 5.38465 33.0694 5.28822L44.6355 1.04486C44.8499 0.966287 45.088 0.991851 45.2813 1.11431C45.4747 1.23678 45.6017 1.44251 45.6258 1.67221L46.9958 14.7074C47.0263 14.9978 46.8882 15.2798 46.6415 15.4308C46.3948 15.5816 46.0842 15.5741 45.8448 15.4115L42.8184 13.3544ZM43.0131 11.6761L45.3521 13.2659L44.2506 2.78538L34.952 6.19678L37.496 7.92396C37.827 8.14868 37.9238 8.59811 37.7152 8.9421C34.1312 14.8558 27.0313 21.6672 20.9346 25.1139C16.3687 27.6949 12.0257 29.1821 7.76998 29.8566C14.2792 30.3324 21.4974 28.7501 28.2334 24.9435C34.1833 21.5782 38.8716 16.9746 41.969 11.9048C42.075 11.7312 42.2462 11.6088 42.4431 11.5657C42.64 11.5226 42.8458 11.5624 43.0131 11.6761Z" fill="white" stroke="white" stroke-width="0.3"/>
</svg>
