<svg width="26" height="26" viewBox="0 0 26 26" fill="none" xmlns="http://www.w3.org/2000/svg">
<path d="M26 21.1538V10.2717C26 9.85105 25.659 9.51001 25.2383 9.51001H21.7319V4.35769C21.7319 3.93702 21.3909 3.59597 20.9702 3.59597H14.0665L14.7007 2.87788C14.9792 2.56257 14.9494 2.08122 14.6341 1.80273C14.3188 1.5242 13.8374 1.55411 13.5589 1.86936L11.8065 3.85338C11.5521 4.14141 11.5521 4.57387 11.8065 4.8619L13.5589 6.84587C13.7095 7.01629 13.9193 7.10328 14.1301 7.10328C14.3093 7.10328 14.4893 7.04041 14.6341 6.91245C14.9494 6.63396 14.9792 6.15255 14.7007 5.83725L14.0665 5.11926H20.2086V9.50986H16.7023C16.2816 9.50986 15.9405 9.8509 15.9405 10.2716V21.1536H26V21.1538ZM22.043 18.0688H19.8975C19.4768 18.0688 19.1357 17.7277 19.1357 17.3071C19.1357 16.8864 19.4768 16.5453 19.8975 16.5453H22.043C22.4636 16.5453 22.8047 16.8864 22.8047 17.3071C22.8047 17.7277 22.4636 18.0688 22.043 18.0688ZM22.043 14.6262H19.8975C19.4768 14.6262 19.1357 14.2852 19.1357 13.8645C19.1357 13.4438 19.4768 13.1028 19.8975 13.1028H22.043C22.4636 13.1028 22.8047 13.4438 22.8047 13.8645C22.8047 14.2852 22.4636 14.6262 22.043 14.6262Z" fill="white"/>
<path d="M15.9405 22.6772V25.2383C15.9405 25.659 16.2815 26 16.7022 26H25.2383C25.659 26 26 25.659 26 25.2383V22.6772H15.9405Z" fill="white"/>
<path d="M10.0595 11.6438V0.761719C10.0595 0.341047 9.71846 0 9.29779 0H0.761719C0.341047 0 0 0.341047 0 0.761719V11.6438H10.0595ZM6.10248 8.55877H3.95698C3.5363 8.55877 3.19526 8.21773 3.19526 7.79706C3.19526 7.37638 3.5363 7.03534 3.95698 7.03534H6.10248C6.52316 7.03534 6.8642 7.37638 6.8642 7.79706C6.8642 8.21773 6.52321 8.55877 6.10248 8.55877ZM6.10248 5.11621H3.95698C3.5363 5.11621 3.19526 4.77516 3.19526 4.35449C3.19526 3.93382 3.5363 3.59277 3.95698 3.59277H6.10248C6.52316 3.59277 6.8642 3.93382 6.8642 4.35449C6.8642 4.77516 6.52321 5.11621 6.10248 5.11621Z" fill="white"/>
<path d="M12.4645 19.4272C12.186 19.1119 11.7046 19.0821 11.3893 19.3606C11.074 19.639 11.0442 20.1204 11.3227 20.4357L11.9569 21.1538H5.7915V16.4899H9.29779C9.71846 16.4899 10.0595 16.1489 10.0595 15.7282V13.1672H0V15.7282C0 16.1489 0.341047 16.4899 0.761719 16.4899H4.26806V21.9155C4.26806 22.3362 4.60911 22.6772 5.02978 22.6772H11.9569L11.3226 23.3952C11.0442 23.7105 11.074 24.1919 11.3893 24.4704C11.5341 24.5984 11.7141 24.6613 11.8932 24.6613C12.1041 24.6613 12.3139 24.5742 12.4644 24.4038L14.2169 22.4199C14.4713 22.1318 14.4713 21.6994 14.2169 21.4113L12.4645 19.4272Z" fill="white"/>
</svg>
