<svg width="25" height="22" viewBox="0 0 25 22" fill="none" xmlns="http://www.w3.org/2000/svg">
<path d="M22.399 6.91908C21.2526 6.91908 20.1232 6.90229 19.011 6.91908C18.5147 6.91908 17.9843 7.00305 17.5222 7.1542C15.8282 7.72519 14.7502 9.23664 14.7502 11.0336C14.7502 12.8809 14.7502 14.7282 14.7502 16.5756C14.7502 16.6931 14.7502 16.8107 14.7502 16.9618H12.5257V20.1191C12.6283 20.1191 12.731 20.1191 12.8337 20.1191C13.5524 20.1191 14.271 20.1191 14.9897 20.1191C15.5886 20.1191 16.0164 20.5053 16.0164 21.0427C16.0164 21.5802 15.5886 22 14.9897 22C12.0465 22 9.10335 22 6.16016 22C5.56126 22 5.11636 21.5802 5.13347 21.0427C5.13347 20.5053 5.56126 20.1191 6.16016 20.1191C6.98152 20.1191 7.80287 20.1191 8.64134 20.1191V16.9618C8.53867 16.9618 8.41889 16.9618 8.29911 16.9618C6.75907 16.9618 5.21903 16.9618 3.67899 16.9618C1.50582 16.9618 0 15.484 0 13.3847C0 10.1267 0 6.8687 0 3.61069C0 1.51145 1.52293 0 3.64476 0C8.69268 0 13.7406 0 18.8056 0C20.6194 0 22.0397 1.14198 22.3648 2.88855C22.399 3.07328 22.4162 3.27481 22.4162 3.47634C22.4162 4.53435 22.4162 5.59237 22.4162 6.65038C22.4162 6.73435 22.4162 6.80153 22.4162 6.91908H22.399Z" fill="white"/>
<path d="M24.9829 15.4168C24.9829 16.8443 24.9829 18.2718 24.9829 19.6824C24.9829 21.0595 24.0418 22 22.6386 22C21.4237 22 20.2259 22 19.011 22C17.6249 22 16.6667 21.0595 16.6667 19.6992C16.6667 16.8275 16.6667 13.9725 16.6667 11.1008C16.6667 9.74046 17.6249 8.81679 19.011 8.8C20.2259 8.8 21.4579 8.8 22.6728 8.8C24.0589 8.8 25 9.74046 25 11.1008C25 12.5282 25 13.9725 25 15.4L24.9829 15.4168Z" fill="white"/>
</svg>
