<svg width="21" height="21" viewBox="0 0 21 21" fill="none" xmlns="http://www.w3.org/2000/svg">
<path d="M9.33333 0C9.63069 0.000329825 9.9167 0.114192 10.1329 0.318323C10.3492 0.522454 10.4793 0.801445 10.4967 1.09829C10.5141 1.39514 10.4175 1.68744 10.2267 1.91547C10.0358 2.1435 9.76511 2.29005 9.46983 2.32517L9.33333 2.33333H2.33333V18.6667H18.6667V11.6667C18.667 11.3693 18.7809 11.0833 18.985 10.8671C19.1891 10.6508 19.4681 10.5207 19.765 10.5033C20.0618 10.4859 20.3541 10.5825 20.5821 10.7733C20.8102 10.9642 20.9567 11.2349 20.9918 11.5302L21 11.6667V18.6667C21.0002 19.2553 20.7779 19.8223 20.3776 20.254C19.9773 20.6856 19.4287 20.95 18.8417 20.9942L18.6667 21H2.33333C1.74466 21.0002 1.17767 20.7779 0.746027 20.3776C0.314382 19.9773 0.049984 19.4287 0.00583358 18.8417L1.16979e-07 18.6667V2.33333C-0.000186176 1.74466 0.222141 1.17767 0.622413 0.746027C1.02269 0.314382 1.57132 0.0499839 2.15833 0.00583347L2.33333 0H9.33333ZM19.5417 0C20.3467 0 21 0.653333 21 1.45833V5.83333C21 6.14275 20.8771 6.4395 20.6583 6.65829C20.4395 6.87708 20.1428 7 19.8333 7C19.5239 7 19.2272 6.87708 19.0084 6.65829C18.7896 6.4395 18.6667 6.14275 18.6667 5.83333V3.983L10.983 11.6667H12.8333C13.1428 11.6667 13.4395 11.7896 13.6583 12.0084C13.8771 12.2272 14 12.5239 14 12.8333C14 13.1428 13.8771 13.4395 13.6583 13.6583C13.4395 13.8771 13.1428 14 12.8333 14H8.45833C7.65333 14 7 13.3467 7 12.5417V8.16667C7 7.85725 7.12292 7.5605 7.34171 7.34171C7.5605 7.12292 7.85725 7 8.16667 7C8.47609 7 8.77283 7.12292 8.99162 7.34171C9.21042 7.5605 9.33333 7.85725 9.33333 8.16667V10.017L17.017 2.33333H15.1667C14.8572 2.33333 14.5605 2.21042 14.3417 1.99162C14.1229 1.77283 14 1.47609 14 1.16667C14 0.857247 14.1229 0.560501 14.3417 0.341709C14.5605 0.122916 14.8572 0 15.1667 0H19.5417Z" fill="white"/>
</svg>
