<svg width="23" height="20" viewBox="0 0 23 20" fill="none" xmlns="http://www.w3.org/2000/svg">
<path d="M2.3 11.7158C2.3 14.305 3.32925 16.6481 4.99445 18.3434L3.3695 19.9988C2.30003 18.9123 1.4518 17.6213 0.873559 16.1998C0.295315 14.7783 -0.00155412 13.2545 6.11818e-06 11.7158C6.11818e-06 5.24515 5.14855 0 11.5 0C17.8514 0 23 5.24515 23 11.7158C23.0019 13.2546 22.7052 14.7786 22.1272 16.2003C21.5491 17.622 20.701 18.9133 19.6316 20L18.0055 18.3434C19.0753 17.2535 19.8647 15.9116 20.3039 14.4367C20.743 12.9617 20.8184 11.3992 20.5232 9.88752C20.228 8.37582 19.5715 6.96162 18.6117 5.77017C17.6519 4.57872 16.4185 3.64681 15.0207 3.05696C13.623 2.46712 12.104 2.23756 10.5984 2.38862C9.09272 2.53967 7.64688 3.06668 6.38892 3.92296C5.13095 4.77924 4.09968 5.93836 3.38645 7.29766C2.67323 8.65695 2.30006 10.1745 2.3 11.7158ZM7.71305 6.20116L13.225 11.13L10.925 13.4731L6.08695 7.85777L7.71305 6.20116Z" fill="white"/>
</svg>
