<svg width="33" height="33" viewBox="0 0 33 33" fill="none" xmlns="http://www.w3.org/2000/svg">
<path d="M26.2905 6.04127C24.8395 5.67737 23.6949 4.53278 23.331 3.08169H6.04126C5.67735 4.53272 4.53277 5.6773 3.08174 6.04127V23.331C4.53277 23.6949 5.67735 24.8395 6.04126 26.2906H20.7617L19.948 21.0801C19.8446 20.4188 20.417 19.8443 21.0801 19.9481L26.2905 20.7617V6.04127ZM21.3364 11.2194C21.3364 11.7669 20.8932 12.2101 20.3457 12.2101C19.7988 12.2101 19.3549 11.7669 19.3549 11.2194V9.89975H15.6768V19.4725H16.5803C17.1272 19.4725 17.571 19.9157 17.571 20.4633C17.571 21.0101 17.1272 21.454 16.5803 21.454H12.7919C12.2444 21.454 11.8012 21.0102 11.8012 20.4633C11.8012 19.9157 12.2444 19.4725 12.7919 19.4725H13.6954C13.6954 19.1149 13.6954 10.2473 13.6954 9.89975H10.0166V11.2194C10.0166 11.7669 9.57278 12.2101 9.02588 12.2101C8.47899 12.2101 8.03517 11.7669 8.03517 11.2194V8.90904C8.03517 8.3615 8.47899 7.91833 9.02588 7.91833H20.3456C20.8931 7.91833 21.3363 8.3615 21.3363 8.90904L21.3364 11.2194Z" fill="#F14A58"/>
<path d="M2.09104 4.18208C3.24351 4.18208 4.18207 3.24306 4.18207 2.09104C4.18207 0.939661 3.24487 9.75794e-07 2.09104 9.75794e-07C0.937848 9.75794e-07 9.75793e-07 0.937849 9.75793e-07 2.09104C9.75793e-07 3.24442 0.939142 4.18208 2.09104 4.18208Z" fill="#F14A58"/>
<path d="M27.2812 4.18208C28.4321 4.18208 29.3716 3.24526 29.3716 2.09104C29.3715 0.937848 28.4337 0 27.2812 0C26.1238 0 25.1902 0.94296 25.1902 2.09104C25.1902 3.24384 26.1291 4.18208 27.2812 4.18208Z" fill="#F14A58"/>
<path d="M2.09103 25.1902C0.9427 25.1902 0 26.1241 0 27.2813C0 28.4337 0.937847 29.3717 2.09103 29.3717C3.24513 29.3717 4.18207 28.4323 4.18207 27.2813C4.18207 26.1285 3.24312 25.1902 2.09103 25.1902Z" fill="#F14A58"/>
<path d="M28.8035 26.7912C28.4165 26.4041 28.4165 25.7767 28.8035 25.3904L29.8138 24.3801C30.1958 23.9981 29.9821 23.3438 29.4483 23.2604C26.2748 22.7648 29.9461 23.3384 22.5632 22.1856C22.3422 22.1511 22.1511 22.342 22.1856 22.563C22.6536 25.5603 22.9844 27.68 23.2606 29.4492C23.344 29.983 23.9981 30.1958 24.3801 29.8137L25.3903 28.8035C25.7745 28.418 26.4034 28.4158 26.7911 28.8035L30.7935 32.8065C31.0514 33.0645 31.4696 33.0645 31.7276 32.8066L32.8066 31.7276C33.0645 31.4697 33.0645 31.0514 32.8065 30.7935L28.8035 26.7912Z" fill="#F14A58"/>
</svg>
