<svg width="16" height="16" viewBox="0 0 16 16" fill="none" xmlns="http://www.w3.org/2000/svg">
<path d="M7.27273 -1.2716e-06L8.72727 -1.52593e-06L8.72727 0.727271L9.45455 0.727271L9.45455 1.45454L10.1818 1.45454L10.1818 2.18182L10.9091 2.18182L10.9091 2.90909L11.6364 2.90909L11.6364 3.63636L12.3636 3.63636L12.3636 4.36363L13.0909 4.36363L13.0909 5.09091L13.8182 5.09091L13.8182 5.81818L14.5455 5.81818L14.5455 6.54545L15.2727 6.54545L15.2727 7.27272L16 7.27272L16 8L15.2727 8L15.2727 8.72727L14.5455 8.72727L14.5455 9.45454L13.8182 9.45454L13.8182 8.72727L13.0909 8.72727L13.0909 8L12.3636 8L12.3636 7.27272L11.6364 7.27272L11.6364 6.54545L10.9091 6.54545L10.9091 5.81818L10.1818 5.81818L10.1818 5.09091L9.45455 5.09091L9.45455 16L6.54546 16L6.54546 5.09091L5.81818 5.09091L5.81818 5.81818L5.09091 5.81818L5.09091 6.54545L4.36364 6.54545L4.36364 7.27273L3.63637 7.27273L3.63637 8L2.90909 8L2.90909 8.72727L2.18182 8.72727L2.18182 9.45454L1.45455 9.45454L1.45455 8.72727L0.727274 8.72727L0.727274 8L1.39876e-06 8L1.2716e-06 7.27273L0.727274 7.27273L0.727274 6.54545L1.45455 6.54545L1.45455 5.81818L2.18182 5.81818L2.18182 5.09091L2.90909 5.09091L2.90909 4.36364L3.63636 4.36364L3.63636 3.63636L4.36364 3.63636L4.36364 2.90909L5.09091 2.90909L5.09091 2.18182L5.81818 2.18182L5.81818 1.45454L6.54546 1.45454L6.54546 0.727272L7.27273 0.727271L7.27273 -1.2716e-06Z" fill="#070707"/>
</svg>
