<svg width="23" height="21" viewBox="0 0 23 21" fill="none" xmlns="http://www.w3.org/2000/svg">
<path d="M0 16.5565C0.114064 15.5123 0.668939 14.6548 1.18104 13.7783C1.61413 13.0365 2.04246 12.2917 2.47317 11.5481C4.28038 8.42476 6.09055 5.30322 7.8936 2.17753C8.55125 1.03779 9.49941 0.320262 10.8052 0.0658662C12.2857 -0.222331 14.0311 0.453686 14.8254 1.73219C15.6767 3.10261 16.4674 4.51038 17.2766 5.9063C18.9816 8.84697 20.6795 11.7918 22.3839 14.7325C22.9346 15.683 23.1384 16.6852 22.9043 17.7698C22.4962 19.6597 20.8268 20.9898 18.8242 20.9963C16.6522 21.0034 14.4802 20.9981 12.3088 20.9981C9.60516 20.9981 6.90148 20.9993 4.1984 20.9981C2.88844 20.9975 1.79057 20.5255 0.946971 19.5108C0.44794 18.9107 0.15268 18.2175 0.0398037 17.446C0.0314865 17.3885 0.0136639 17.3322 0 17.2752V16.5565ZM11.4635 19.1461C13.8891 19.1461 16.3148 19.145 18.7404 19.1467C19.4301 19.1473 20.0385 18.9516 20.5191 18.4381C21.2379 17.6702 21.3425 16.636 20.7941 15.6878C18.8586 12.3379 16.9213 8.98929 14.9828 5.64123C14.4404 4.70429 13.9182 3.75372 13.3396 2.83931C12.8726 2.10103 12.149 1.79327 11.2793 1.87391C10.469 1.94863 9.90636 2.39279 9.50654 3.08659C7.59953 6.39255 5.6842 9.69318 3.77303 12.9968C3.20865 13.9728 2.62348 14.9382 2.09534 15.9339C1.70027 16.6781 1.77928 17.4407 2.2397 18.1458C2.70546 18.8591 3.39698 19.1467 4.23107 19.1461C6.64187 19.1444 9.05266 19.1456 11.4635 19.1456V19.1461Z" fill="white"/>
<path d="M12.6736 7.86556C12.5821 9.43819 12.49 11.0108 12.3991 12.5834C12.3867 12.7993 12.3962 13.0181 12.3611 13.2298C12.2886 13.6609 11.9173 13.9562 11.489 13.9497C11.0613 13.9432 10.6953 13.6603 10.6466 13.2298C10.5801 12.6445 10.5593 12.0545 10.5224 11.4662C10.4476 10.2666 10.3804 9.06697 10.3008 7.86734C10.2343 6.8628 11.1314 6.15358 11.9886 6.55148C12.5459 6.81002 12.7104 7.29035 12.6742 7.86556H12.6736Z" fill="white"/>
<path d="M11.4777 17.111C10.8242 17.0944 10.3121 16.5547 10.3293 15.9007C10.3454 15.2662 10.8902 14.7491 11.5288 14.7615C12.1787 14.774 12.6807 15.3172 12.6593 15.9849C12.6391 16.6212 12.108 17.127 11.4783 17.111H11.4777Z" fill="white"/>
</svg>
