<svg width="26" height="29" viewBox="0 0 26 29" fill="none" xmlns="http://www.w3.org/2000/svg">
<path d="M17.2761 14.6211C17.152 15.6854 16.6962 16.6999 15.9454 17.4883C15.0328 18.4472 13.7571 18.8987 12.1551 18.8307C11.0316 18.7837 10.5127 19.0924 10.4275 19.1484C10.0834 19.4651 9.64645 19.6384 9.18527 19.6384C8.68095 19.6384 8.20682 19.4322 7.85029 19.0578C7.23485 18.4115 7.1356 17.4147 7.55578 16.6551L7.8573 16.1533C7.95979 15.891 8.09841 15.3733 8.06605 14.5367C8.00186 12.8539 8.43175 11.5149 9.34439 10.5566C10.092 9.7721 11.0478 9.28613 12.0812 9.15642C12.2274 8.41839 12.544 7.72793 13.0009 7.14793H2.1603C0.969332 7.14793 5.39602e-05 8.1652 5.39602e-05 9.41583V20.6642H22.5356V9.49513L19.7972 13.0193C19.1531 13.8457 18.2588 14.4082 17.2761 14.6211Z" fill="white"/>
<path d="M5.39605e-05 23.0884C5.39605e-05 24.3385 0.969332 25.3557 2.1603 25.3557H8.29954V27.3008H6.93878C6.49195 27.3008 6.1297 27.6812 6.1297 28.1504C6.1297 28.6196 6.49195 29 6.93878 29H15.5966C16.0435 29 16.4057 28.6196 16.4057 28.1504C16.4057 27.6812 16.0435 27.3008 15.5966 27.3008H14.2359V25.3557H20.3753C21.5663 25.3557 22.5356 24.3385 22.5356 23.0884V22.3634H0V23.0884H5.39605e-05Z" fill="white"/>
<path d="M9.01407 17.436C9.01391 17.4361 9.01375 17.4363 9.01364 17.4364C9.01353 17.4365 9.01348 17.4365 9.01342 17.4367L9.01321 17.4369C9.0131 17.4369 9.01304 17.4371 9.01294 17.4372C9.01288 17.4373 9.01283 17.4373 9.01267 17.4375L9.01261 17.4375C9.01256 17.4376 9.01245 17.4377 9.01234 17.4378L9.01229 17.4378C9.01229 17.4378 9.01213 17.438 9.01207 17.4381L9.01202 17.4382C9.01191 17.4382 9.01186 17.4384 9.01175 17.4385L9.01143 17.4388C8.90916 17.5497 8.91018 17.7265 9.01445 17.8361C9.06714 17.8914 9.13613 17.919 9.20517 17.919C9.27357 17.919 9.34196 17.8919 9.39444 17.8376C9.41095 17.8211 10.228 17.028 12.2406 17.113C13.3729 17.1609 14.2411 16.876 14.8213 16.2668C16.0103 15.0183 16.0103 12.9868 14.8213 11.7383C14.2454 11.1335 13.4796 10.8004 12.6651 10.8004C11.8506 10.8004 11.0848 11.1334 10.5089 11.7383C9.9287 12.3475 9.65755 13.2593 9.70308 14.4483C9.78442 16.5733 9.0206 17.4289 9.01445 17.4356C9.01423 17.4358 9.01418 17.4359 9.01407 17.436Z" fill="white"/>
<path d="M17.2059 12.8743C17.7335 12.7083 18.2086 12.3798 18.563 11.925L19.5968 10.5946L15.9141 6.72743L14.6525 7.80949C14.2183 8.18105 13.9044 8.67949 13.7458 9.23343C14.5797 9.43904 15.3445 9.8848 15.9654 10.5367C16.6007 11.204 17.0145 12.0168 17.2059 12.8743Z" fill="white"/>
<path d="M25.5141 0.510177C24.9116 -0.122499 23.959 -0.172909 23.2988 0.393497L17.1737 5.64708L20.6251 9.27134L25.6257 2.8359C26.1646 2.14313 26.1166 1.14285 25.5141 0.510177Z" fill="white"/>
</svg>
