<svg width="14" height="14" viewBox="0 0 14 14" fill="none" xmlns="http://www.w3.org/2000/svg">
<path d="M13.6787 6.21756L13.6787 7.46108L13.057 7.46108L13.057 8.08283L12.4352 8.08283L12.4352 8.70459L11.8134 8.70459L11.8134 9.32634L11.1917 9.32634L11.1917 9.9481L10.5699 9.9481L10.5699 10.5699L9.94817 10.5699L9.94817 11.1916L9.32642 11.1916L9.32642 11.8134L8.70466 11.8134L8.70466 12.4351L8.0829 12.4351L8.0829 13.0569L7.46115 13.0569L7.46115 13.6786L6.83939 13.6786L6.83939 13.0569L6.21763 13.0569L6.21763 12.4351L5.59588 12.4351L5.59588 11.8134L6.21763 11.8134L6.21763 11.1916L6.83939 11.1916L6.83939 10.5699L7.46115 10.5699L7.46115 9.9481L8.0829 9.9481L8.0829 9.32634L8.70466 9.32634L8.70466 8.70459L9.32642 8.70459L9.32642 8.08283L7.21259e-05 8.08283L7.22346e-05 5.59581L9.32642 5.59581L9.32642 4.97405L8.70466 4.97405L8.70466 4.35229L8.0829 4.35229L8.0829 3.73054L7.46115 3.73054L7.46115 3.10878L6.83939 3.10878L6.83939 2.48702L6.21764 2.48702L6.21764 1.86527L5.59588 1.86527L5.59588 1.24351L6.21764 1.24351L6.21764 0.621756L6.83939 0.621756L6.83939 -2.98956e-07L7.46115 -2.71778e-07L7.46115 0.621756L8.0829 0.621756L8.0829 1.24351L8.70466 1.24351L8.70466 1.86527L9.32642 1.86527L9.32642 2.48703L9.94817 2.48703L9.94817 3.10878L10.5699 3.10878L10.5699 3.73054L11.1917 3.73054L11.1917 4.35229L11.8134 4.35229L11.8134 4.97405L12.4352 4.97405L12.4352 5.59581L13.057 5.59581L13.057 6.21756L13.6787 6.21756Z" fill="white"/>
</svg>
