<svg width="100" height="100" viewBox="0 0 100 100" fill="none" xmlns="http://www.w3.org/2000/svg">
<rect width="100" height="100" fill="#EAEAEA"/>
<g clip-path="url(#clip0_1250_52)">
<path d="M23.5847 38.3904C23.5847 38.3904 24.0407 34.6708 21.0993 33.3553C20.0733 32.9017 18.9104 32.8904 17.8502 33.2759C17.8274 33.2873 17.816 33.2873 17.7932 33.2986C16.1059 33.945 15 35.578 15 37.3811V40.0687C15 42.4388 16.7443 44.48 19.1042 44.7635C19.1726 44.7749 19.2296 44.7749 19.298 44.7862C22.5016 45.0697 23.9039 41.9398 23.6075 39.7965L19.3208 40.0347V41.112H20.6205C20.6205 41.112 21.0423 42.3934 19.4235 42.6316C19.4235 42.6316 18.2036 42.5409 18.158 41.2594C18.1124 39.978 18.158 38.3904 18.158 38.3904C18.158 38.3904 18.1352 36.8254 19.3208 36.8027C20.5065 36.78 20.8371 37.8574 20.7459 38.7192L23.5847 38.3904Z" fill="#111111"/>
<path d="M30.9723 33.1625H27.0619L24.2459 44.5821L27.2443 44.48L27.8827 41.7244H30.1971L30.5277 44.3099L33.6743 44.2646L30.9723 33.1625ZM28.1677 40.4429L28.7264 37.177H29.3876L29.9234 40.4429H28.1677Z" fill="#111111"/>
<path d="M56.6808 47.9275H50.3534L46.0212 65.9584H50.8323L51.6873 61.7738H55.4381L55.9397 65.9811L61.0016 65.9244L56.6808 47.9275ZM52.1433 59.7213L53.0554 54.4367H54.1156L54.9707 59.7213H52.1433Z" fill="#111111"/>
<path d="M65.7785 33.1625H61.8681L59.5651 43.3007H62.5407L62.7003 41.713H65.0147L65.1401 43.1759L68.2638 43.1419L65.7785 33.1625ZM63.0195 40.1481L63.5326 37.177H64.1938L64.684 40.1821L63.0195 40.1481Z" fill="#111111"/>
<path d="M34.8371 44.2079L34.8941 33.1625H39.0212L40.4235 40.3182H40.7427L41.6433 33.1625H45.8388L46.215 43.811L43.2394 43.9357L42.8974 37.6759H42.4642L41.8371 43.8904L39.899 44.0378L38.5195 37.8914H38.1091L38.0635 44.0718L34.8371 44.2079Z" fill="#111111"/>
<path d="M54.9365 33.1625H47.8339V43.7543L54.9365 43.5048V41.5883H50.342V40.1254H54.0016V37.4831H50.342V36.145H54.9365V33.1625Z" fill="#111111"/>
<path d="M77.1221 42.6089L76.9967 40.2275C76.9625 39.6038 76.6205 39.0254 76.0505 38.7419C75.8567 38.6398 75.6287 38.5718 75.3778 38.5718C75.3778 38.5718 77.3502 38.0048 76.9511 35.578C76.5635 33.1512 73.7818 33.0945 73.7818 33.0945H69.2215V42.9378L72.1287 42.813V39.8306C72.1287 39.8306 74.272 39.1501 74.3974 41.1007V42.6883L77.1221 42.6089ZM74.0782 36.78C73.9642 38.6398 71.9234 38.0161 71.9234 38.0161V35.544C71.9234 35.544 74.2036 34.9089 74.0782 36.78Z" fill="#111111"/>
<path d="M43.9805 65.7769L43.7638 61.0141C43.7068 59.9141 43.0912 58.9048 42.1107 58.4058C41.7687 58.2357 41.3811 58.111 40.9365 58.0996C40.9365 58.0996 44.0717 57.147 43.7068 52.8378C43.342 48.4831 38.4625 48.4831 38.4625 48.4831H30.1173V65.7656L35.0423 65.7202L35.2248 60.2996C35.2248 60.2996 38.987 59.0976 39.2036 62.545V65.7656H43.9805V65.7769ZM38.6336 54.9697C38.5081 57.68 34.8485 57.1357 34.8485 57.1357V52.8037C34.8485 52.8037 38.7932 51.6924 38.6336 54.9697Z" fill="#111111"/>
<path d="M77.8632 33.0831V36.3718H80.0179V42.4615H82.8909V36.3718L84.9316 36.2697V33.0831H77.8632Z" fill="#111111"/>
<path d="M25.4544 57.3171C26.184 56.9202 26.7655 56.3419 27.1645 55.6501C27.5749 54.9697 27.7915 54.1759 27.7915 53.3481V53.2006C27.7915 50.6945 25.7508 48.6646 23.2313 48.6646H15V65.947L23.8127 65.7089C26.2296 65.6409 28.1678 63.6677 28.1678 61.2635V60.3336C28.1678 58.8027 27.0049 57.4986 25.4544 57.3171ZM19.3322 52.2254C22.8436 51.511 22.8892 53.745 22.8892 53.745C22.9577 56.2965 19.3322 55.7409 19.3322 55.7409V52.2254ZM19.5033 63.1006V59.5852C23.0261 58.8708 23.0717 61.1048 23.0717 61.1048C23.1401 63.6563 19.5033 63.1006 19.5033 63.1006Z" fill="#111111"/>
<path d="M63.0195 56.3532L63.4072 65.7769H67.9104L68.1042 56.3532H63.0195Z" fill="#111111"/>
<path d="M71.0114 47.2017V65.7769H76.1189V57.9862L79.2199 65.7769H84.145L84.4756 47.2017H79.2655V56.7728L76.2215 47.2017H71.0114Z" fill="#111111"/>
<path d="M63.5098 52.8378C63.5098 52.8378 61.2182 53.1213 60.557 51.7604C60.557 51.7604 58.8925 51.9192 58.7671 50.1728C58.6531 48.5852 60.6596 48.5285 60.6596 48.5285C60.6596 48.5285 60.3404 47.1563 61.9593 46.8615C61.9593 46.8615 61.6401 46.1924 62.4723 45.5687C63.2818 44.9677 64.5814 45.3305 64.5814 45.3305C64.5814 45.3305 64.5472 44.9223 65.1059 44.9677C65.1059 44.9677 65.1971 44.6161 66.1091 44.7522C66.9642 44.8769 67.7736 45.6821 67.7166 46.079C67.7166 46.079 68.7541 45.9429 69.2671 46.5099C69.7801 47.0769 69.4723 48.0409 69.4723 48.0409C69.4723 48.0409 70.3388 48.313 70.2134 49.4017C70.0879 50.4903 69.6775 51.2388 66.3941 52.0326V53.2574C66.3941 53.4615 66.2231 53.6316 66.0179 53.6316H65.9837C65.7785 53.6316 65.6075 53.4615 65.6075 53.2574V52.4749C65.6075 52.4749 64.9919 52.9398 64.2964 52.8718V54.9357C64.2964 55.1398 64.1254 55.3099 63.9202 55.3099C63.715 55.3099 63.544 55.1398 63.544 54.9357L63.5098 52.8378Z" fill="#111111"/>
</g>
<defs>
<clipPath id="clip0_1250_52">
<rect width="70" height="33" fill="white" transform="translate(15 33)"/>
</clipPath>
</defs>
</svg>
