<svg width="28" height="24" viewBox="0 0 28 24" fill="none" xmlns="http://www.w3.org/2000/svg">
<path d="M11.8187 0.00187291C11.8187 0.556873 11.8627 1.02187 11.7987 1.47087C11.7717 1.66187 11.5487 1.86687 11.3657 1.98187C10.4787 2.54487 9.51569 2.99487 8.68869 3.64087C6.01269 5.73287 4.42669 8.48687 4.33969 12.0649C4.31569 13.0799 4.68969 13.3349 5.54169 12.9379C8.00469 11.7959 10.6537 12.4659 12.0667 14.5879C13.6077 16.9039 13.3907 19.9879 11.5437 22.0099C9.18569 24.5919 5.30369 24.6699 2.62669 22.2019C1.02369 20.7239 0.261688 18.8159 0.0716883 16.6449C-0.565311 9.37387 3.08169 3.37987 9.72069 0.746874C10.3777 0.486873 11.0507 0.272873 11.8187 0.00187291Z" fill="#FF37B3"/>
<path d="M26.3636 0.00101841C26.3636 0.556019 26.4076 1.02102 26.3436 1.47002C26.3166 1.66102 26.0936 1.86602 25.9106 1.98102C25.0236 2.54402 24.0606 2.99402 23.2336 3.64002C20.5576 5.73202 18.9716 8.48602 18.8846 12.064C18.8606 13.079 19.2346 13.334 20.0866 12.937C22.5496 11.795 25.1986 12.465 26.6116 14.587C28.1526 16.903 27.9356 19.987 26.0886 22.009C23.7306 24.591 19.8486 24.669 17.1716 22.201C15.5686 20.723 14.8066 18.815 14.6166 16.644C13.9796 9.37302 17.6266 3.37902 24.2656 0.746019C24.9226 0.486019 25.5956 0.272018 26.3636 0.00101841Z" fill="#FF37B3"/>
</svg>
