<svg width="119" height="46" viewBox="0 0 119 46" fill="none" xmlns="http://www.w3.org/2000/svg">
<path d="M53.7588 14.256C52.7903 14.256 51.9175 14.0468 51.1404 13.6283C50.3745 13.198 49.772 12.6062 49.3328 11.8531C48.9048 11.0999 48.6908 10.2452 48.6908 9.28879C48.6908 8.33241 48.9048 7.47765 49.3328 6.72451C49.772 5.97136 50.3745 5.38558 51.1404 4.96717C51.9175 4.5368 52.7903 4.32162 53.7588 4.32162C54.7161 4.32162 55.5495 4.5368 56.2591 4.96717C56.9798 5.38558 57.5035 5.9893 57.8301 6.7783L55.786 7.94389C55.313 7.05924 54.6317 6.61692 53.742 6.61692C53.055 6.61692 52.4862 6.85601 52.0357 7.3342C51.5852 7.81238 51.36 8.46391 51.36 9.28879C51.36 10.1137 51.5852 10.7652 52.0357 11.2434C52.4862 11.7216 53.055 11.9607 53.742 11.9607C54.6429 11.9607 55.3243 11.5183 55.786 10.6337L57.8301 11.8172C57.5035 12.5823 56.9798 13.18 56.2591 13.6104C55.5495 14.0408 54.7161 14.256 53.7588 14.256Z" fill="white"/>
<path d="M61.8646 5.73825C62.18 5.27201 62.6023 4.91935 63.1316 4.68026C63.6722 4.44116 64.2916 4.32162 64.9899 4.32162V6.90383C64.6971 6.87992 64.5 6.86796 64.3986 6.86796C63.644 6.86796 63.0528 7.0951 62.6248 7.54938C62.1968 7.99171 61.9829 8.66117 61.9829 9.55777V14.1125H59.3475V4.46507H61.8646V5.73825Z" fill="white"/>
<path d="M75.3772 9.32465C75.3772 9.36052 75.3603 9.61156 75.3265 10.0778H68.4509C68.5748 10.6755 68.8676 11.1477 69.3293 11.4944C69.7911 11.8411 70.3655 12.0145 71.0525 12.0145C71.5255 12.0145 71.9422 11.9427 72.3026 11.7993C72.6742 11.6439 73.0177 11.4048 73.3331 11.082L74.7352 12.6959C73.8793 13.7359 72.6292 14.256 70.9849 14.256C69.96 14.256 69.0534 14.0468 68.2651 13.6283C67.4767 13.198 66.8686 12.6062 66.4406 11.8531C66.0126 11.0999 65.7986 10.2452 65.7986 9.28879C65.7986 8.34437 66.007 7.49559 66.4237 6.74244C66.8517 5.97734 67.4317 5.38558 68.1637 4.96717C68.907 4.5368 69.7348 4.32162 70.647 4.32162C71.5367 4.32162 72.342 4.52485 73.0628 4.93131C73.7836 5.33777 74.3467 5.92354 74.7521 6.68864C75.1688 7.44179 75.3772 8.32046 75.3772 9.32465ZM70.6639 6.4376C70.067 6.4376 69.5659 6.61692 69.1604 6.97556C68.755 7.3342 68.5072 7.82434 68.4171 8.44598H72.8938C72.8037 7.83629 72.556 7.35213 72.1505 6.99349C71.7451 6.62289 71.2496 6.4376 70.6639 6.4376Z" fill="white"/>
<path d="M80.5501 4.32162C81.9579 4.32162 83.039 4.68026 83.7936 5.39754C84.5482 6.10287 84.9255 7.17281 84.9255 8.60737V14.1125H82.459V12.9111C81.9635 13.8077 81.04 14.256 79.6885 14.256C78.9903 14.256 78.3821 14.1304 77.864 13.8794C77.3572 13.6283 76.9687 13.2817 76.6984 12.8393C76.4281 12.397 76.293 11.8949 76.293 11.333C76.293 10.4364 76.6083 9.73111 77.239 9.21706C77.8809 8.70301 78.8664 8.44598 80.1953 8.44598H82.2901C82.2901 7.83629 82.1155 7.37006 81.7664 7.04729C81.4173 6.71255 80.8936 6.54519 80.1953 6.54519C79.711 6.54519 79.2324 6.62887 78.7594 6.79624C78.2976 6.95165 77.9035 7.16683 77.5769 7.44179L76.6308 5.4872C77.1264 5.1166 77.7176 4.82969 78.4046 4.62646C79.1029 4.42323 79.818 4.32162 80.5501 4.32162ZM80.3474 12.3731C80.7979 12.3731 81.1977 12.2655 81.5468 12.0503C81.8959 11.8232 82.1437 11.4944 82.2901 11.0641V10.0778H80.4825C79.4013 10.0778 78.8607 10.4544 78.8607 11.2075C78.8607 11.5662 78.9903 11.8531 79.2493 12.0682C79.5196 12.2715 79.8856 12.3731 80.3474 12.3731Z" fill="white"/>
<path d="M93.1726 13.6463C92.9135 13.8495 92.5925 14.0049 92.2096 14.1125C91.838 14.2081 91.4438 14.256 91.0271 14.256C89.9459 14.256 89.1069 13.9631 88.51 13.3773C87.9244 12.7915 87.6316 11.9308 87.6316 10.7951V6.8321H86.2294V4.68026H87.6316V2.33116H90.2669V4.68026H92.5306V6.8321H90.2669V10.7592C90.2669 11.1657 90.3626 11.4825 90.5541 11.7096C90.7568 11.9248 91.0384 12.0324 91.3988 12.0324C91.8155 12.0324 92.1702 11.9128 92.463 11.6737L93.1726 13.6463Z" fill="white"/>
<path d="M94.6519 4.46507H97.2873V14.1125H94.6519V4.46507ZM95.9696 3.12017C95.4853 3.12017 95.0911 2.97074 94.7871 2.67187C94.483 2.373 94.3309 2.00241 94.3309 1.56009C94.3309 1.11776 94.483 0.747168 94.7871 0.448301C95.0911 0.149434 95.4853 0 95.9696 0C96.4539 0 96.8481 0.143456 97.1521 0.430369C97.4562 0.717282 97.6083 1.07592 97.6083 1.50629C97.6083 1.97252 97.4562 2.36105 97.1521 2.67187C96.8481 2.97074 96.4539 3.12017 95.9696 3.12017Z" fill="white"/>
<path d="M108.754 4.46507L104.919 14.1125H102.2L98.3816 4.46507H101.101L103.619 11.0282L106.22 4.46507H108.754Z" fill="white"/>
<path d="M118.485 9.32465C118.485 9.36052 118.468 9.61156 118.434 10.0778H111.559C111.682 10.6755 111.975 11.1477 112.437 11.4944C112.899 11.8411 113.473 12.0145 114.16 12.0145C114.633 12.0145 115.05 11.9427 115.41 11.7993C115.782 11.6439 116.125 11.4048 116.441 11.082L117.843 12.6959C116.987 13.7359 115.737 14.256 114.093 14.256C113.068 14.256 112.161 14.0468 111.373 13.6283C110.584 13.198 109.976 12.6062 109.548 11.8531C109.12 11.0999 108.906 10.2452 108.906 9.28879C108.906 8.34437 109.115 7.49559 109.531 6.74244C109.959 5.97734 110.539 5.38558 111.271 4.96717C112.015 4.5368 112.842 4.32162 113.755 4.32162C114.644 4.32162 115.45 4.52485 116.17 4.93131C116.891 5.33777 117.454 5.92354 117.86 6.68864C118.276 7.44179 118.485 8.32046 118.485 9.32465ZM113.772 6.4376C113.175 6.4376 112.674 6.61692 112.268 6.97556C111.863 7.3342 111.615 7.82434 111.525 8.44598H116.002C115.911 7.83629 115.664 7.35213 115.258 6.99349C114.853 6.62289 114.357 6.4376 113.772 6.4376Z" fill="white"/>
<path d="M54.7387 20.4773C55.5833 20.4773 56.3492 20.6865 57.0362 21.105C57.7344 21.5114 58.2806 22.0912 58.6748 22.8444C59.069 23.5856 59.2661 24.4523 59.2661 25.4445C59.2661 26.4368 59.069 27.3094 58.6748 28.0626C58.2806 28.8038 57.7344 29.3836 57.0362 29.802C56.3492 30.2085 55.5833 30.4117 54.7387 30.4117C53.5787 30.4117 52.6664 30.0232 52.0019 29.2461V33.747H49.3666V20.6208H51.8837V21.7326C52.5369 20.8958 53.4886 20.4773 54.7387 20.4773ZM54.2825 28.1164C54.9583 28.1164 55.5101 27.8773 55.9381 27.3991C56.3773 26.909 56.5969 26.2574 56.5969 25.4445C56.5969 24.6316 56.3773 23.986 55.9381 23.5079C55.5101 23.0177 54.9583 22.7726 54.2825 22.7726C53.6068 22.7726 53.0493 23.0177 52.6101 23.5079C52.1821 23.986 51.9681 24.6316 51.9681 25.4445C51.9681 26.2574 52.1821 26.909 52.6101 27.3991C53.0493 27.8773 53.6068 28.1164 54.2825 28.1164Z" fill="white"/>
<path d="M61.0302 20.6208H63.6656V30.2682H61.0302V20.6208ZM62.3479 19.2759C61.8636 19.2759 61.4695 19.1265 61.1654 18.8276C60.8613 18.5287 60.7093 18.1581 60.7093 17.7158C60.7093 17.2735 60.8613 16.9029 61.1654 16.604C61.4695 16.3052 61.8636 16.1557 62.3479 16.1557C62.8322 16.1557 63.2264 16.2992 63.5304 16.5861C63.8345 16.873 63.9866 17.2316 63.9866 17.662C63.9866 18.1282 63.8345 18.5168 63.5304 18.8276C63.2264 19.1265 62.8322 19.2759 62.3479 19.2759Z" fill="white"/>
<path d="M71.8889 30.2682L69.8955 27.3094L67.8346 30.2682H64.9627L68.4596 25.4087L65.0809 20.6208H68.0373L69.9631 23.4361L71.9396 20.6208H74.7439L71.3653 25.3369L74.8791 30.2682H71.8889Z" fill="white"/>
<path d="M84.7807 25.4804C84.7807 25.5162 84.7638 25.7673 84.73 26.2335H77.8544C77.9783 26.8313 78.2711 27.3035 78.7329 27.6502C79.1946 27.9968 79.769 28.1702 80.456 28.1702C80.929 28.1702 81.3457 28.0985 81.7061 27.955C82.0777 27.7996 82.4212 27.5605 82.7366 27.2377L84.1387 28.8516C83.2828 29.8917 82.0327 30.4117 80.3884 30.4117C79.3635 30.4117 78.4569 30.2025 77.6686 29.7841C76.8802 29.3537 76.2721 28.7619 75.8441 28.0088C75.4161 27.2556 75.2022 26.4009 75.2022 25.4445C75.2022 24.5001 75.4105 23.6513 75.8272 22.8982C76.2552 22.1331 76.8352 21.5413 77.5672 21.1229C78.3105 20.6925 79.1383 20.4773 80.0505 20.4773C80.9403 20.4773 81.7455 20.6806 82.4663 21.087C83.1871 21.4935 83.7502 22.0793 84.1556 22.8444C84.5723 23.5975 84.7807 24.4762 84.7807 25.4804ZM80.0674 22.5933C79.4705 22.5933 78.9694 22.7726 78.5639 23.1313C78.1585 23.4899 77.9107 23.9801 77.8206 24.6017H82.2974C82.2073 23.992 81.9595 23.5079 81.554 23.1492C81.1486 22.7786 80.6531 22.5933 80.0674 22.5933Z" fill="white"/>
<path d="M86.5352 16.9627H89.1706V30.2682H86.5352V16.9627Z" fill="white"/>
<path d="M94.6741 30.4117C93.9195 30.4117 93.1818 30.316 92.4611 30.1248C91.7403 29.9215 91.1659 29.6705 90.7379 29.3716L91.6164 27.3632C92.0218 27.6382 92.5117 27.8653 93.0861 28.0447C93.6605 28.212 94.2236 28.2957 94.7754 28.2957C95.8904 28.2957 96.4479 28.0028 96.4479 27.417C96.4479 27.1421 96.2959 26.9448 95.9918 26.8253C95.6877 26.7057 95.2203 26.6041 94.5896 26.5204C93.8463 26.4009 93.2325 26.2634 92.7483 26.108C92.264 25.9526 91.8417 25.6776 91.4813 25.2831C91.1321 24.8886 90.9576 24.3267 90.9576 23.5975C90.9576 22.9878 91.1209 22.4499 91.4475 21.9836C91.7853 21.5054 92.2696 21.1349 92.9003 20.8718C93.5422 20.6088 94.2968 20.4773 95.164 20.4773C95.8059 20.4773 96.4423 20.555 97.0729 20.7105C97.7149 20.8539 98.2442 21.0571 98.6609 21.3201L97.7825 23.3106C96.9828 22.8324 96.11 22.5933 95.164 22.5933C94.6009 22.5933 94.1786 22.677 93.897 22.8444C93.6154 23.0117 93.4747 23.2269 93.4747 23.4899C93.4747 23.7888 93.6267 23.998 93.9308 24.1175C94.2349 24.2371 94.7191 24.3507 95.3836 24.4583C96.1269 24.5898 96.7351 24.7332 97.2081 24.8886C97.6811 25.0321 98.0922 25.3011 98.4413 25.6956C98.7904 26.0901 98.965 26.64 98.965 27.3453C98.965 27.943 98.7961 28.475 98.4582 28.9413C98.1203 29.4075 97.6248 29.7721 96.9716 30.0351C96.3296 30.2862 95.5638 30.4117 94.6741 30.4117Z" fill="white"/>
<path d="M6.12173 26.1748C4.74534 23.9182 4.0198 21.2821 4.04381 18.5922C4.04381 14.4046 5.5589 10.9078 8.59176 8.10464C10.8537 6.01221 13.5372 4.69843 16.6447 4.16895V0.748592C11.91 0.774074 7.95691 2.45028 4.79069 5.77437C1.59778 9.12395 0 13.3031 0 18.3091C0 21.6162 0.730873 24.6373 2.18728 27.3668C3.60368 30.051 5.68427 32.2709 8.20232 33.7885C10.7364 35.3345 13.5478 36.1074 16.6394 36.1159V33.2166C14.9669 32.9221 13.3478 32.3615 11.8327 31.5517C9.41332 30.2521 7.50879 28.4598 6.12173 26.1748Z" fill="#FFE400"/>
<path d="M10.9818 24.946C9.424 23.1707 8.64511 20.9763 8.64511 18.3686C8.64511 15.7608 9.41332 13.5891 10.9498 11.8534C12.4755 10.1291 14.3721 9.25986 16.6474 9.24854V4.16895C13.5425 4.70126 10.8564 6.01221 8.59443 8.10464C5.56424 10.9078 4.04648 14.4046 4.04648 18.5922C4.02514 21.2821 4.74801 23.9182 6.12706 26.1748C7.51145 28.4598 9.41599 30.2521 11.838 31.5489C13.3504 32.3586 14.9696 32.9193 16.642 33.2137V27.6075C14.4094 27.5962 12.5235 26.7099 10.9818 24.946Z" fill="#EC9122"/>
<path d="M36.3809 8.82665C37.9254 10.7039 38.9123 13.0228 39.2217 15.4918C39.7392 19.3341 38.7789 22.7516 36.3463 25.7473C34.5298 27.9813 32.2278 29.5584 29.443 30.4757L29.8644 33.613C34.2097 32.9306 37.6266 30.8467 40.1233 27.3583C42.636 23.8389 43.583 19.7843 42.9641 15.186C42.556 12.1507 41.5157 9.48071 39.8406 7.17876C38.2108 4.91362 36.0288 3.1638 33.5321 2.12183C31.0194 1.06005 28.3413 0.737266 25.5005 1.15915L25.858 3.82352C27.4291 3.86033 28.9869 4.15197 30.4753 4.68144C32.8599 5.5422 34.8285 6.92393 36.3809 8.82665Z" fill="#EC3593"/>
<path d="M32.0811 10.6274C33.7295 12.0432 34.7138 13.9459 35.0339 16.3384C35.354 18.7282 34.9165 20.8291 33.7215 22.6384C32.5345 24.4306 30.8967 25.4924 28.8108 25.8209L29.4376 30.4757C32.2224 29.5555 34.5217 27.9813 36.3409 25.7473C38.7763 22.7544 39.7339 19.3341 39.2191 15.4918C38.907 13.02 37.92 10.7039 36.3783 8.82665C34.8232 6.9211 32.8546 5.5422 30.4753 4.68711C28.9869 4.1548 27.4291 3.86599 25.858 3.82918L26.5488 8.96822C28.6001 8.67092 30.4459 9.22588 32.0811 10.6274Z" fill="#B11F80"/>
<path d="M25.5958 1.18782L19.1418 2.16492L25.0317 46L31.4857 45.0229L25.5958 1.18782Z" fill="#EC3593"/>
</svg>
