<svg width="20" height="20" viewBox="0 0 20 20" fill="none" xmlns="http://www.w3.org/2000/svg">
<path d="M19.9787 5.58083C19.763 3.56507 18.6292 2.39577 17.436 1.43252C15.759 0.078597 13.6278 0.00285168 13.5379 0.000273449C13.2552 -0.00707062 12.9916 0.136803 12.8462 0.378493C12.7008 0.620222 12.6969 0.921446 12.8361 1.16677C13.4194 2.1949 13.1479 2.95013 12.804 3.90634C12.5434 4.63118 12.248 5.45273 12.3751 6.40969C12.5128 7.44575 13.0239 8.36313 13.8143 8.99269C13.8317 9.00652 13.8496 9.01949 13.8672 9.03297V11.3858C12.8023 11.448 11.9942 11.6676 11.4091 12.0523C10.6917 12.5241 10.3125 13.2462 10.3125 14.1406C10.3125 14.7779 10.5042 15.2983 10.6733 15.7574C10.836 16.1991 10.9766 16.5806 10.9766 17.0703C10.9766 17.2838 10.9395 17.6879 10.691 17.9955C10.4541 18.2888 10.0508 18.4375 9.49217 18.4375C4.9715 18.4375 1.56249 14.8102 1.56249 10C1.56249 5.34753 5.34753 1.56249 10 1.56249C10.1786 1.56249 10.3594 1.56815 10.5372 1.57929C10.9678 1.60601 11.3388 1.27896 11.3658 0.848357C11.3927 0.417752 11.0655 0.0467989 10.6349 0.0198446C10.4246 0.00667997 10.211 0 10 0C7.32891 0 4.81771 1.0402 2.92895 2.92891C1.0402 4.81771 0 7.32891 0 10C0 12.6933 0.942384 15.1966 2.65363 17.0488C4.41191 18.9519 6.84057 20 9.4922 20C10.805 20 11.5298 19.4438 11.9066 18.9771C12.3145 18.4722 12.5391 17.795 12.5391 17.0703C12.5391 16.302 12.3267 15.7257 12.1395 15.2173C11.9917 14.8161 11.875 14.4993 11.875 14.1406C11.875 13.768 11.9888 13.5412 12.2676 13.3578C12.5103 13.1983 12.9778 13.0138 13.8672 12.9515V17.5613C13.8418 18.1724 14.0581 18.7635 14.4774 19.2279C14.8966 19.6919 15.4715 19.9651 16.0961 19.9969C16.1369 19.999 16.1775 20 16.2179 20C16.7983 20 17.3507 19.788 17.7846 19.3961C18.2487 18.9769 18.5219 18.402 18.5536 17.7774C18.5756 17.3465 18.244 16.9794 17.8131 16.9574C17.3819 16.9356 17.0151 17.2671 16.9932 17.698C16.9826 17.9058 16.8917 18.0971 16.7373 18.2366C16.5829 18.376 16.3837 18.4472 16.1755 18.4364C15.9677 18.4258 15.7764 18.335 15.637 18.1805C15.5532 18.0878 15.4148 17.8915 15.4286 17.6188L15.4296 17.599V9.73862C15.67 9.78565 15.9161 9.8103 16.1655 9.8103C16.3035 9.8103 16.4426 9.803 16.5819 9.78815C16.7208 9.77343 16.8576 9.75116 16.9921 9.7221V14.0234C16.9921 14.4549 17.3419 14.8047 17.7734 14.8047C18.2048 14.8047 18.5546 14.4549 18.5546 14.0234V8.98289C18.7726 8.80928 18.973 8.61056 19.1523 8.38856C19.7939 7.59388 20.0874 6.59681 19.9787 5.58083ZM17.9366 7.40704C17.5573 7.87674 17.0176 8.17062 16.417 8.23442C15.8215 8.29758 15.2429 8.13289 14.7879 7.77045C14.3151 7.39383 14.0083 6.83748 13.9241 6.2039C13.847 5.62376 14.0451 5.07283 14.2744 4.435C14.544 3.68535 14.86 2.80649 14.6946 1.77422C15.2418 1.92848 15.8913 2.19361 16.4545 2.64832C17.5621 3.5425 18.278 4.37277 18.4251 5.74716C18.4893 6.34777 18.3159 6.93725 17.9366 7.40704Z" fill="white"/>
<path d="M8.74976 4.29689C8.74976 4.94305 9.27544 5.46877 9.92164 5.46877C10.5678 5.46877 11.0935 4.94309 11.0935 4.29689C11.0935 3.65073 10.5678 3.125 9.92164 3.125C9.27548 3.12504 8.74976 3.65073 8.74976 4.29689Z" fill="white"/>
<path d="M6.6101 7.00089C7.06719 6.54376 7.06719 5.79994 6.6101 5.34285L6.61006 5.34281C6.15289 4.88572 5.40907 4.88572 4.95194 5.34285C4.49485 5.79998 4.49485 6.5438 4.95198 7.00093C5.18055 7.22949 5.48076 7.34376 5.781 7.34376C6.08125 7.34376 6.3815 7.22946 6.6101 7.00089Z" fill="white"/>
<path d="M3.12463 10.2734C3.12463 10.9196 3.65032 11.4453 4.29652 11.4453C4.94268 11.4453 5.46841 10.9196 5.46841 10.2734C5.46841 9.62725 4.94272 9.10156 4.29652 9.10156C3.65032 9.10156 3.12463 9.62729 3.12463 10.2734Z" fill="white"/>
<path d="M5.89808 15.3124C6.2111 15.3124 6.50533 15.1905 6.72671 14.9691C6.94805 14.7477 7.06993 14.4534 7.06993 14.1402C7.06993 13.8271 6.94805 13.5328 6.72667 13.3113C6.2697 12.8544 5.52631 12.8544 5.06945 13.3113L5.06941 13.3114C4.84808 13.5327 4.7262 13.8271 4.7262 14.1402C4.7262 14.4534 4.84808 14.7477 5.06941 14.9691C5.29075 15.1905 5.58502 15.3124 5.89808 15.3124Z" fill="white"/>
</svg>
