<svg  viewBox="0 0 70 66" fill="none" xmlns="http://www.w3.org/2000/svg">
<path d="M46.9849 47.7267C46.9849 47.1604 46.5258 46.7013 45.9595 46.7013H5.40914C3.55742 46.7013 2.05078 45.1948 2.05078 43.3429V11.4897H6.50521C7.0715 11.4897 7.5306 11.0306 7.5306 10.4643C7.5306 9.89799 7.0715 9.43889 6.50521 9.43889H2.05078V6.08053C2.05078 4.22867 3.55742 2.72217 5.40914 2.72217H51.4392C53.291 2.72217 54.7977 4.22881 54.7977 6.08053V9.43889H10.889C10.3227 9.43889 9.86357 9.89799 9.86357 10.4643C9.86357 11.0306 10.3227 11.4897 10.889 11.4897H54.7978V36.7672C54.7978 37.3335 55.2569 37.7926 55.8232 37.7926C56.3895 37.7926 56.8486 37.3335 56.8486 36.7672V6.08053C56.8486 3.09787 54.422 0.671387 51.4393 0.671387H5.40914C2.42662 0.67125 0 3.09787 0 6.08053V43.3429C0 46.3256 2.42662 48.7521 5.40914 48.7521H45.9595C46.5258 48.7521 46.9849 48.2931 46.9849 47.7267Z" fill="black"/>
<path d="M5.4082 5.05518C4.84191 5.05518 4.38281 5.51428 4.38281 6.08057C4.38281 6.64686 4.84191 7.10596 5.4082 7.10596H6.50414C7.07043 7.10596 7.52953 6.64686 7.52953 6.08057C7.52953 5.51428 7.07043 5.05518 6.50414 5.05518H5.4082Z" fill="black"/>
<path d="M10.8887 7.10596H11.9846C12.5509 7.10596 13.01 6.64686 13.01 6.08057C13.01 5.51428 12.5509 5.05518 11.9846 5.05518H10.8887C10.3224 5.05518 9.86328 5.51428 9.86328 6.08057C9.86328 6.64686 10.3224 7.10596 10.8887 7.10596Z" fill="black"/>
<path d="M51.4397 7.10596C52.006 7.10596 52.4651 6.64686 52.4651 6.08057C52.4651 5.51428 52.006 5.05518 51.4397 5.05518H16.3691C15.8029 5.05518 15.3438 5.51428 15.3438 6.08057C15.3438 6.64686 15.8029 7.10596 16.3691 7.10596H51.4397Z" fill="black"/>
<path d="M68.7708 34.7808C67.9578 33.9678 66.8811 33.5334 65.7272 33.5508C64.5775 33.5706 63.5124 34.0445 62.7279 34.885L43.0197 55.9996C41.9921 56.0533 40.9804 56.4714 40.1973 57.2545C37.5152 59.9367 38.3308 64.2003 38.3669 64.3803C38.4481 64.7862 38.7654 65.1036 39.1714 65.1848C39.241 65.1987 39.92 65.329 40.882 65.329C42.4098 65.329 44.6513 65.0003 46.2971 63.3545C47.08 62.5717 47.4979 61.5604 47.5519 60.5333L68.6667 40.8238C69.5072 40.0393 69.9811 38.9742 70.0009 37.8245C70.0207 36.6748 69.5839 35.5938 68.7708 34.7808ZM50.3532 55.1111L48.4405 53.1985L52.278 49.0868L54.4647 51.2735L50.3532 55.1111ZM46.2971 57.2545C46.0039 56.9613 45.6781 56.7204 45.3318 56.5294L47.0405 54.6986L48.8531 56.5112L47.0223 58.22C46.8313 57.8736 46.5904 57.5478 46.2971 57.2545ZM44.847 61.9043C43.4883 63.2631 41.3903 63.3306 40.2952 63.2566C40.2212 62.16 40.2892 60.063 41.6473 58.7047C42.5296 57.8226 43.965 57.8227 44.847 58.7047C45.7291 59.5868 45.7291 61.0222 44.847 61.9043ZM67.2675 39.3244L55.9651 49.8734L53.6783 47.5866L64.2273 36.2842C64.6289 35.854 65.1742 35.6114 65.7626 35.6012C66.3498 35.5935 66.9046 35.8147 67.3208 36.2309C67.737 36.6471 67.9606 37.2005 67.9504 37.7889C67.9401 38.3774 67.6977 38.9229 67.2675 39.3244Z" fill="black"/>
<path d="M7.59961 16.0146C7.03332 16.0146 6.57422 16.4738 6.57422 17.04V41.1511C6.57422 41.7174 7.03332 42.1765 7.59961 42.1765H24.0389C24.6052 42.1765 25.0643 41.7174 25.0643 41.1511V17.04C25.0643 16.4738 24.6052 16.0146 24.0389 16.0146H7.59961ZM14.5781 29.0955L8.62486 37.8269V20.3641L14.5781 29.0955ZM9.53979 18.0654H22.0988L15.8193 27.2754L9.53979 18.0654ZM15.8193 30.9158L22.0988 40.1257H9.53979L15.8193 30.9158ZM17.0603 29.0955L23.0136 20.3641V37.8269L17.0603 29.0955Z" fill="black"/>
<path d="M50.2717 17.04C50.2717 16.4737 49.8126 16.0146 49.2463 16.0146H30.6152C30.0489 16.0146 29.5898 16.4737 29.5898 17.04V26.9036C29.5898 27.4699 30.0489 27.929 30.6152 27.929H49.2464C49.8127 27.929 50.2718 27.4699 50.2718 26.9036L50.2717 17.04ZM37.7392 21.9718L31.6406 25.2005V18.7431L37.7392 21.9718ZM34.7436 18.0654H45.118L39.9307 20.8116L34.7436 18.0654ZM39.9308 23.1321L45.1181 25.8782H34.7437L39.9308 23.1321ZM42.1223 21.9718L48.2209 18.743V25.2004L42.1223 21.9718Z" fill="black"/>
<path d="M50.2717 31.2876C50.2717 30.7213 49.8126 30.2622 49.2463 30.2622H30.6152C30.0489 30.2622 29.5898 30.7213 29.5898 31.2876C29.5898 31.8539 30.0489 32.313 30.6152 32.313H49.2464C49.8127 32.313 50.2717 31.8539 50.2717 31.2876Z" fill="black"/>
<path d="M31.7112 34.646H30.6152C30.0489 34.646 29.5898 35.1051 29.5898 35.6714C29.5898 36.2377 30.0489 36.6968 30.6152 36.6968H31.7112C32.2775 36.6968 32.7366 36.2377 32.7366 35.6714C32.7366 35.1051 32.2775 34.646 31.7112 34.646Z" fill="black"/>
<path d="M43.7674 34.646H36.0957C35.5294 34.646 35.0703 35.1051 35.0703 35.6714C35.0703 36.2377 35.5294 36.6968 36.0957 36.6968H43.7674C44.3337 36.6968 44.7928 36.2377 44.7928 35.6714C44.7928 35.1051 44.3337 34.646 43.7674 34.646Z" fill="black"/>
<path d="M31.7112 39.0298H30.6152C30.0489 39.0298 29.5898 39.4889 29.5898 40.0552C29.5898 40.6215 30.0489 41.0806 30.6152 41.0806H31.7112C32.2775 41.0806 32.7366 40.6215 32.7366 40.0552C32.7366 39.4889 32.2775 39.0298 31.7112 39.0298Z" fill="black"/>
<path d="M43.7674 39.0298H36.0957C35.5294 39.0298 35.0703 39.4889 35.0703 40.0552C35.0703 40.6215 35.5294 41.0806 36.0957 41.0806H43.7674C44.3337 41.0806 44.7928 40.6215 44.7928 40.0552C44.7928 39.4889 44.3337 39.0298 43.7674 39.0298Z" fill="black"/>
</svg>
