<svg width="30" height="30" viewBox="0 0 30 30" fill="none" xmlns="http://www.w3.org/2000/svg">
<g clip-path="url(#clip0_813_5427)">
<path d="M30 1.17188V8.15232C30 9.39363 29.7403 10.4622 29.228 11.3285C28.6912 12.2362 27.6503 13.2915 25.6641 13.5933V28.8281C25.6641 29.4754 25.1394 30 24.4922 30C23.845 30 23.3203 29.4754 23.3203 28.8281V13.5923C21.3352 13.287 20.2928 12.2203 19.7544 11.3027C19.2434 10.4319 18.9844 9.37201 18.9844 8.15232V1.17188C18.9844 0.524648 19.509 0 20.1562 0C20.8035 0 21.3281 0.524648 21.3281 1.17188V8.15232C21.3281 11.3343 23.7096 11.3343 24.4922 11.3343C26.6508 11.3343 27.6562 10.3232 27.6562 8.15232V1.17188C27.6562 0.524648 28.1809 0 28.8281 0C29.4754 0 30 0.524648 30 1.17188ZM24.4922 9.31641C25.1394 9.31641 25.6641 8.79176 25.6641 8.14453V1.17188C25.6641 0.524648 25.1394 0 24.4922 0C23.845 0 23.3203 0.524648 23.3203 1.17188V8.14453C23.3203 8.79176 23.845 9.31641 24.4922 9.31641ZM19.2367 26.93C17.8799 27.4119 16.4544 27.6562 15 27.6562C8.02131 27.6562 2.34375 21.9787 2.34375 15C2.34375 8.02131 8.02131 2.34375 15 2.34375C15.2145 2.34375 15.4314 2.34914 15.6445 2.35986C16.2912 2.39244 16.8412 1.89457 16.8736 1.24811C16.906 0.601699 16.4082 0.0514453 15.7618 0.019043C15.5098 0.00638672 15.2535 0 15 0C10.9934 0 7.22654 1.56029 4.39336 4.39336C1.56029 7.22654 0 10.9934 0 15C0 19.0066 1.56029 22.7735 4.39336 25.6066C7.22654 28.4397 10.9934 30 15 30C16.7224 30 18.4117 29.7103 20.0211 29.1387C20.631 28.9221 20.9498 28.2521 20.7332 27.6422C20.5166 27.0323 19.8466 26.7133 19.2367 26.93ZM15 8.26172C15.6472 8.26172 16.1719 7.73707 16.1719 7.08984C16.1719 6.44262 15.6472 5.91797 15 5.91797C9.99217 5.91797 5.91797 9.99217 5.91797 15C5.91797 20.0078 9.99217 24.082 15 24.082C15.6472 24.082 16.1719 23.5574 16.1719 22.9102C16.1719 22.2629 15.6472 21.7383 15 21.7383C11.2845 21.7383 8.26172 18.7155 8.26172 15C8.26172 11.2845 11.2845 8.26172 15 8.26172Z" fill="white"/>
</g>
<defs>
<clipPath id="clip0_813_5427">
<rect width="30" height="30" fill="white"/>
</clipPath>
</defs>
</svg>
