<svg width="45" height="45" viewBox="0 0 45 45" fill="none" xmlns="http://www.w3.org/2000/svg">
<path d="M36.2109 40.0781H8.78906C3.94277 40.0781 0 36.1354 0 31.2891V13.7109C0 8.86465 3.94277 4.92188 8.78906 4.92188H36.2109C41.0572 4.92188 45 8.86465 45 13.7109V31.2891C45 36.1354 41.0572 40.0781 36.2109 40.0781ZM8.78906 8.4375C5.88129 8.4375 3.51562 10.8032 3.51562 13.7109V31.2891C3.51562 34.1968 5.88129 36.5625 8.78906 36.5625H36.2109C39.1187 36.5625 41.4844 34.1968 41.4844 31.2891V13.7109C41.4844 10.8032 39.1187 8.4375 36.2109 8.4375H8.78906Z" fill="white"/>
<path d="M30.1739 22.4623L37.473 14.9346C38.1488 14.2376 38.1316 13.1248 37.4347 12.449C36.7377 11.7732 35.6249 11.7903 34.949 12.4873L23.7351 24.0525C23.0517 24.7273 21.9485 24.7273 21.2651 24.0525L10.0511 12.4873C9.3754 11.7903 8.26253 11.7732 7.56547 12.449C6.8685 13.1248 6.85136 14.2376 7.52715 14.9346L14.8262 22.4623L7.52108 30.0717C6.84881 30.772 6.87148 31.8848 7.5718 32.5571C8.27193 33.2292 9.38472 33.2069 10.0572 32.5064L17.275 24.9878L18.7521 26.5112C18.7583 26.5177 18.7648 26.5241 18.7711 26.5305C19.7991 27.5586 21.1496 28.0726 22.4999 28.0726C23.8503 28.0726 25.2007 27.5586 26.2288 26.5305C26.2352 26.5241 26.2415 26.5177 26.2478 26.5112L27.7249 24.9878L34.9427 32.5064C35.6147 33.2064 36.7276 33.2297 37.4281 32.5571C38.1284 31.8848 38.1511 30.772 37.4788 30.0717L30.1739 22.4623Z" fill="white"/>
</svg>
