<svg width="21" height="21" viewBox="0 0 21 21" fill="none" xmlns="http://www.w3.org/2000/svg">
<path d="M10.483 6.29148C9.32988 6.29148 8.34273 6.70217 7.52156 7.52356C6.70039 8.34495 6.28981 9.33236 6.28981 10.4858C6.28981 11.2722 6.48654 11.9975 6.88 12.6616C7.27346 13.3257 7.81928 13.8413 8.51744 14.2083C8.79699 14.3481 8.99372 14.5532 9.10764 14.8238C9.22155 15.0943 9.21701 15.3697 9.09401 15.6501C8.97171 15.8947 8.78825 16.0782 8.54365 16.2006C8.29905 16.3229 8.05445 16.3229 7.80984 16.2006C6.70913 15.6763 5.83135 14.8986 5.17651 13.8675C4.52167 12.8364 4.1939 11.7091 4.1932 10.4858C4.1932 8.73817 4.80471 7.25268 6.02773 6.02934C7.25075 4.80599 8.73584 4.19432 10.483 4.19432C11.7235 4.19432 12.8637 4.52218 13.9036 5.17789C14.9435 5.8336 15.7165 6.72909 16.2225 7.86435C16.3273 8.10902 16.3231 8.35369 16.2099 8.59836C16.0967 8.84303 15.9174 9.01779 15.6721 9.12265C15.3926 9.24498 15.113 9.24498 14.8335 9.12265C14.5539 9.00031 14.3442 8.79933 14.2045 8.51971C13.8376 7.82066 13.3222 7.2747 12.6582 6.88183C11.9943 6.48896 11.2692 6.29218 10.483 6.29148ZM10.483 2.09716C8.1418 2.09716 6.15877 2.90981 4.5339 4.53511C2.90904 6.16041 2.0966 8.14397 2.0966 10.4858C2.0966 12.6878 2.82168 14.5753 4.27183 16.1481C5.72198 17.721 7.53903 18.6123 9.72299 18.822C10.02 18.857 10.2775 18.988 10.4956 19.2152C10.7136 19.4424 10.8143 19.7046 10.7975 20.0017C10.7807 20.2988 10.6714 20.5434 10.4694 20.7357C10.2674 20.9279 10.0186 21.0153 9.72299 20.9978C8.3602 20.9104 7.08896 20.5696 5.90927 19.9754C4.72959 19.3813 3.69876 18.6078 2.81679 17.6549C1.93482 16.7021 1.24468 15.6099 0.746391 14.3781C0.248099 13.1464 -0.000697399 11.849 1.4682e-06 10.4858C1.4682e-06 9.03526 0.275355 7.67211 0.826063 6.39634C1.37677 5.12057 2.12351 4.01082 3.06628 3.0671C4.00905 2.12337 5.11851 1.37644 6.39464 0.826281C7.67077 0.276126 9.03356 0.000699053 10.483 0C13.2261 0 15.6155 0.934984 17.6513 2.80495C19.6871 4.67492 20.8007 6.9818 20.9922 9.72558C21.0272 10.0052 20.9444 10.2457 20.7438 10.447C20.5432 10.6483 20.2941 10.7574 19.9963 10.7742C19.6986 10.7909 19.4324 10.6948 19.1975 10.4858C18.9627 10.2768 18.8271 10.0234 18.7908 9.72558C18.5287 7.62842 17.616 5.8329 16.0526 4.33902C14.4893 2.84515 12.6327 2.09786 10.483 2.09716ZM18.3977 20.4473L14.9383 17.0132L14.1521 19.3987C14.0647 19.6434 13.8987 19.7615 13.6541 19.7532C13.4095 19.7448 13.2435 19.6179 13.1562 19.3725L10.7713 11.4295C10.7014 11.2373 10.7451 11.0625 10.9023 10.9052C11.0596 10.7479 11.2343 10.7043 11.4265 10.7742L19.3674 13.1597C19.612 13.2471 19.7388 13.4131 19.7479 13.6578C19.757 13.9024 19.6389 14.0684 19.3936 14.1558L17.0087 14.9423L20.4681 18.4026C20.7651 18.6997 20.9136 19.0405 20.9136 19.4249C20.9136 19.8094 20.7651 20.1502 20.4681 20.4473C20.1711 20.7444 19.8262 20.893 19.4334 20.893C19.0406 20.893 18.6954 20.7444 18.3977 20.4473Z" fill="white"/>
</svg>
