<svg width="27" height="21" viewBox="0 0 27 21" fill="none" xmlns="http://www.w3.org/2000/svg">
<path d="M13.5 0C11.1302 6.04016e-05 8.80221 0.625986 6.74995 1.81487C4.69768 3.00375 2.99348 4.71369 1.80862 6.77284C0.623755 8.83198 -1.50506e-05 11.1678 2.65215e-10 13.5455C1.50511e-05 15.9231 0.623815 18.2589 1.8087 20.3181C1.98773 20.6306 2.28317 20.859 2.63002 20.953C2.97688 21.047 3.34675 20.9989 3.65825 20.8192C3.96975 20.6396 4.19738 20.3432 4.29106 19.9952C4.38474 19.6472 4.33679 19.2761 4.15776 18.9635C3.19997 17.3198 2.69665 15.4494 2.69973 13.5454C2.70037 11.8836 3.08193 10.2442 3.81489 8.75406C4.54785 7.26387 5.61258 5.96278 6.92675 4.95139C8.24092 3.94001 9.76932 3.24543 11.3938 2.92135C13.0182 2.59728 14.6952 2.6524 16.295 3.08245C17.8948 3.5125 19.3746 4.30595 20.62 5.40147C21.8654 6.49698 22.843 7.8652 23.4772 9.40032C24.1113 10.9354 24.3851 12.5963 24.2774 14.2546C24.1696 15.9128 23.6832 17.524 22.8557 18.9635C22.7665 19.1181 22.7086 19.2889 22.6854 19.4661C22.6622 19.6432 22.6741 19.8232 22.7206 19.9957C22.767 20.1682 22.847 20.3297 22.9559 20.4711C23.0648 20.6124 23.2006 20.7308 23.3552 20.8192C23.6652 20.9958 24.0323 21.0423 24.3762 20.9484C24.7202 20.8545 25.0132 20.6279 25.1913 20.3181C26.3762 18.2589 27 15.9231 27 13.5455C27 11.1678 26.3762 8.83198 25.1914 6.77284C24.0065 4.71369 22.3023 3.00375 20.25 1.81487C18.1978 0.625986 15.8698 6.04016e-05 13.5 0ZM17.3341 7.80214L15.2415 9.88812C14.7 9.6197 14.104 9.48062 13.5 9.48176C12.699 9.48176 11.9159 9.72009 11.2499 10.1666C10.5838 10.6131 10.0647 11.2478 9.75819 11.9903C9.45165 12.7328 9.37144 13.5499 9.52772 14.3381C9.68399 15.1264 10.0697 15.8505 10.6361 16.4188C11.2026 16.9871 11.9242 17.3741 12.7099 17.5309C13.4955 17.6877 14.3098 17.6072 15.0499 17.2997C15.79 16.9921 16.4225 16.4713 16.8675 15.803C17.3126 15.1347 17.5501 14.3491 17.5501 13.5454C17.5492 12.944 17.4106 12.3508 17.1451 11.8116L19.2376 9.72558C19.3642 9.59966 19.4646 9.44984 19.5332 9.28478C19.6017 9.11972 19.637 8.94267 19.637 8.76386C19.637 8.58504 19.6017 8.408 19.5332 8.24293C19.4646 8.07787 19.3642 7.92806 19.2376 7.80214C18.9847 7.54985 18.6425 7.40825 18.2859 7.40825C17.9292 7.40825 17.587 7.54985 17.3341 7.80214ZM13.5 14.8999C13.1419 14.8999 12.7986 14.7572 12.5454 14.5032C12.2922 14.2492 12.15 13.9046 12.15 13.5454C12.15 13.1861 12.2922 12.8416 12.5454 12.5876C12.7986 12.3335 13.1419 12.1908 13.5 12.1908C13.8523 12.1887 14.1914 12.3248 14.445 12.5701C14.5742 12.6972 14.6766 12.849 14.7462 13.0165C14.8158 13.184 14.8511 13.3639 14.85 13.5454C14.85 13.9046 14.7078 14.2492 14.4546 14.5032C14.2014 14.7572 13.8581 14.8999 13.5 14.8999Z" fill="white"/>
</svg>
