<svg width="30" height="30" viewBox="0 0 30 30" fill="none" xmlns="http://www.w3.org/2000/svg">
<path d="M15 10.8337H10.8337M15 10.8337V2.5H10.8337C9.72862 2.5 8.66876 2.93901 7.88732 3.72045C7.10588 4.50189 6.66687 5.56175 6.66687 6.66687C6.66687 7.772 7.10588 8.83186 7.88732 9.6133C8.66876 10.3947 9.72862 10.8337 10.8337 10.8337M15 10.8337V19.1663H10.8337M15 10.8337H19.1662M10.8337 10.8337C9.72879 10.8337 8.66909 11.2727 7.88776 12.054C7.10644 12.8353 6.6675 13.895 6.6675 15C6.6675 16.105 7.10644 17.1647 7.88776 17.946C8.66909 18.7273 9.72879 19.1663 10.8337 19.1663M10.8337 19.1663C10.0098 19.1663 9.20434 19.4106 8.51923 19.8683C7.83412 20.326 7.30012 20.9766 6.98475 21.7379C6.66938 22.4991 6.5868 23.3367 6.74746 24.1448C6.90811 24.953 7.30478 25.6953 7.88732 26.278C8.46986 26.8608 9.21209 27.2576 10.0202 27.4185C10.8283 27.5794 11.6659 27.4971 12.4272 27.182C13.1885 26.8668 13.8393 26.333 14.2972 25.6481C14.7552 24.9631 14.9997 24.1577 15 23.3337M19.1662 10.8337C18.0613 10.8337 17.0016 11.2727 16.2203 12.054C15.4389 12.8353 15 13.895 15 15C15 16.105 15.4389 17.1647 16.2203 17.946C17.0016 18.7273 18.0613 19.1663 19.1662 19.1663C20.2712 19.1663 21.3309 18.7273 22.1122 17.946C22.8936 17.1647 23.3325 16.105 23.3325 15C23.3325 13.895 22.8936 12.8353 22.1122 12.054C21.3309 11.2727 20.2712 10.8337 19.1662 10.8337ZM19.1662 10.8337C20.2714 10.8337 21.3312 10.3947 22.1127 9.6133C22.8941 8.83186 23.3331 7.772 23.3331 6.66687C23.3331 5.56175 22.8941 4.50189 22.1127 3.72045C21.3312 2.93901 20.2714 2.5 19.1662 2.5" stroke="white" stroke-width="2" stroke-linecap="round" stroke-linejoin="round"/>
</svg>
