<svg width="25" height="25" viewBox="0 0 25 25" fill="none" xmlns="http://www.w3.org/2000/svg">
<path d="M15.3144 11.2349C16.0736 10.499 16.5461 9.46892 16.5461 8.33059C16.5461 6.09949 14.731 4.2843 12.5 4.2843C10.2689 4.2843 8.45383 6.09949 8.45383 8.33059C8.45383 9.46892 8.92634 10.499 9.68552 11.2349C8.19514 12.1733 7.20276 13.8335 7.20276 15.7211C7.20276 16.2605 7.63997 16.6977 8.17932 16.6977H16.8207C17.3601 16.6977 17.7973 16.2605 17.7973 15.7211C17.7972 13.8335 16.8049 12.1733 15.3144 11.2349ZM10.407 8.33054C10.407 7.17634 11.3459 6.23738 12.5 6.23738C13.6541 6.23738 14.593 7.17634 14.593 8.33054C14.593 9.48469 13.6541 10.4237 12.5 10.4237C11.3459 10.4237 10.407 9.48469 10.407 8.33054ZM9.30125 14.7446C9.72 13.3754 10.9956 12.3768 12.5 12.3768C14.0044 12.3768 15.28 13.3754 15.6987 14.7446H9.30125Z" fill="white"/>
<path d="M16.8207 18.7626H8.17932C7.63997 18.7626 7.20276 19.1998 7.20276 19.7391C7.20276 20.2785 7.63997 20.7157 8.17932 20.7157H16.8207C17.3601 20.7157 17.7973 20.2785 17.7973 19.7391C17.7973 19.1998 17.3601 18.7626 16.8207 18.7626Z" fill="white"/>
<path d="M21.6064 17.2048C22.1458 17.2048 22.583 16.7676 22.583 16.2283V4.21777C22.583 3.95874 22.4801 3.71035 22.297 3.52725L19.056 0.286035C18.8728 0.102881 18.6244 0 18.3654 0H6.32207C4.1688 0 2.41699 1.75186 2.41699 3.90522V21.0948C2.41699 23.2481 4.1688 25 6.32207 25H18.6779C20.8208 25 22.5726 23.2568 22.583 21.1141C22.5856 20.5748 22.1505 20.1354 21.6112 20.1328H21.6063C21.0692 20.1328 20.6325 20.5669 20.6299 21.1046C20.6247 22.1756 19.749 23.0469 18.6779 23.0469H6.32207C5.24575 23.0469 4.37012 22.1711 4.37012 21.0948V3.90522C4.37012 2.82886 5.24575 1.95312 6.32207 1.95312H17.9608L20.6299 4.62227V16.2283C20.6299 16.7676 21.0671 17.2048 21.6064 17.2048Z" fill="white"/>
</svg>
