<svg width="21" height="21" viewBox="0 0 21 21" fill="none" xmlns="http://www.w3.org/2000/svg">
<path d="M10.5 18.9C12.7278 18.9 14.8644 18.015 16.4397 16.4397C18.015 14.8644 18.9 12.7278 18.9 10.5C18.9 8.27218 18.015 6.13561 16.4397 4.5603C14.8644 2.985 12.7278 2.1 10.5 2.1C8.27218 2.1 6.13561 2.985 4.5603 4.5603C2.985 6.13561 2.1 8.27218 2.1 10.5C2.1 12.7278 2.985 14.8644 4.5603 16.4397C6.13561 18.015 8.27218 18.9 10.5 18.9ZM10.5 21C4.70085 21 0 16.2991 0 10.5C0 4.70085 4.70085 0 10.5 0C16.2991 0 21 4.70085 21 10.5C21 16.2991 16.2991 21 10.5 21ZM10.5 14.7C11.6139 14.7 12.6822 14.2575 13.4698 13.4698C14.2575 12.6822 14.7 11.6139 14.7 10.5C14.7 9.38609 14.2575 8.3178 13.4698 7.53015C12.6822 6.7425 11.6139 6.3 10.5 6.3C9.38609 6.3 8.3178 6.7425 7.53015 7.53015C6.7425 8.3178 6.3 9.38609 6.3 10.5C6.3 11.6139 6.7425 12.6822 7.53015 13.4698C8.3178 14.2575 9.38609 14.7 10.5 14.7ZM10.5 16.8C8.82914 16.8 7.22671 16.1363 6.04523 14.9548C4.86375 13.7733 4.2 12.1709 4.2 10.5C4.2 8.82914 4.86375 7.22671 6.04523 6.04523C7.22671 4.86375 8.82914 4.2 10.5 4.2C12.1709 4.2 13.7733 4.86375 14.9548 6.04523C16.1363 7.22671 16.8 8.82914 16.8 10.5C16.8 12.1709 16.1363 13.7733 14.9548 14.9548C13.7733 16.1363 12.1709 16.8 10.5 16.8ZM10.5 12.6C9.94304 12.6 9.4089 12.3787 9.01508 11.9849C8.62125 11.5911 8.4 11.057 8.4 10.5C8.4 9.94304 8.62125 9.4089 9.01508 9.01508C9.4089 8.62125 9.94304 8.4 10.5 8.4C11.057 8.4 11.5911 8.62125 11.9849 9.01508C12.3787 9.4089 12.6 9.94304 12.6 10.5C12.6 11.057 12.3787 11.5911 11.9849 11.9849C11.5911 12.3787 11.057 12.6 10.5 12.6Z" fill="white"/>
</svg>
