<svg width="30" height="30" viewBox="0 0 30 30" fill="none" xmlns="http://www.w3.org/2000/svg">
<g clip-path="url(#clip0_791_5076)">
<path d="M20.6226 30H9.3779C7.82543 29.9424 7.8266 27.7144 9.3779 27.6574H20.6226C22.1751 27.7149 22.1739 29.943 20.6226 30ZM22.9652 25.3147H7.03402C3.15947 25.3147 0.00732422 22.1626 0.00732422 18.288V8.682C0.00732422 4.80681 3.16005 1.65408 7.03525 1.65408H8.6751C10.2276 1.71165 10.2264 3.93968 8.6751 3.99672H7.03525C4.45179 3.99672 2.34997 6.09854 2.34997 8.682V18.288C2.34997 20.8708 4.45126 22.9721 7.03402 22.9721H22.9652C25.5487 22.9721 27.6505 20.8703 27.6505 18.2868V8.68195C27.6505 6.09848 25.5487 3.99666 22.9652 3.99666H21.4425C19.89 3.93909 19.8912 1.71106 21.4425 1.65402H22.9652C26.8404 1.65402 29.9932 4.80675 29.9932 8.68195V18.2868C29.9932 22.162 26.8404 25.3147 22.9652 25.3147ZM15.1174 10.6732C14.31 10.6732 13.6532 10.0164 13.6532 9.20904C13.7268 7.26933 16.5082 7.26986 16.5815 9.20904C16.5815 10.0164 15.9247 10.6732 15.1174 10.6732ZM19.627 19.4581V13.992C21.122 12.1717 21.8901 10.2531 21.911 8.28317C21.9153 7.87801 21.7099 7.49938 21.368 7.28204C19.1426 5.86802 17.299 3.59285 16.0366 0.702436C15.8472 0.26893 15.4141 -0.0072092 14.9428 0.000111557C14.4699 0.00831081 14.0484 0.300146 13.8741 0.739918C12.5314 4.1299 10.9089 6.261 8.91405 7.25522C8.46678 7.47818 8.21015 7.96024 8.27516 8.45571C8.60658 10.9856 9.56133 12.4514 10.6078 13.9195V19.458C10.6654 21.0105 12.8934 21.0093 12.9505 19.458V14.7145L14.2978 14.7142C15.8502 14.6562 15.8486 12.4283 14.2972 12.3716L12.3834 12.372C11.5568 11.1948 11.0174 10.2823 10.7279 8.9189C12.5504 7.7846 13.9972 5.901 15.0303 3.8718C16.2478 5.9243 17.7721 7.62009 19.527 8.86631C19.3619 10.1825 18.7074 11.4993 17.5753 12.7891C17.3877 13.0028 17.2843 13.2775 17.2843 13.5617V19.458C17.2843 20.1049 17.8087 20.6293 18.4556 20.6293C19.1026 20.6293 19.627 20.105 19.627 19.4581Z" fill="white"/>
</g>
<defs>
<clipPath id="clip0_791_5076">
<rect width="30" height="30" fill="white"/>
</clipPath>
</defs>
</svg>
