<svg width="122" height="130" viewBox="0 0 122 130" fill="none" xmlns="http://www.w3.org/2000/svg">
<path d="M119.167 92.625H105.896V70.6875C105.896 69.0625 104.812 67.9792 103.187 67.9792H83.6875V59.5833C83.6875 57.9583 82.6042 56.875 80.9792 56.875H63.6458V45.5C75.0208 44.1458 83.6875 34.3958 83.6875 22.75C83.6875 10.2917 73.3958 0 60.9375 0C48.4792 0 38.1875 10.2917 38.1875 22.75C38.1875 34.3958 46.8542 44.1458 58.2292 45.5V56.875H40.8958C39.2708 56.875 38.1875 57.9583 38.1875 59.5833V68.25H18.4167C16.7917 68.25 15.7083 69.3333 15.7083 70.9583V92.8958H2.70833C1.08333 92.8958 0 93.9792 0 95.6042V127.292C0 128.917 1.08333 130 2.70833 130H34.3958C36.0208 130 37.1042 128.917 37.1042 127.292V95.6042C37.1042 93.9792 36.0208 92.8958 34.3958 92.8958H21.125V73.6667H37.9167V82.3333C37.9167 83.9583 39 85.0417 40.625 85.0417H80.9792C82.6042 85.0417 83.6875 83.9583 83.6875 82.3333V73.6667H100.479V92.8958H87.2083C85.5833 92.8958 84.5 93.9792 84.5 95.6042V127.292C84.5 128.917 85.5833 130 87.2083 130H118.896C120.521 130 121.604 128.917 121.604 127.292V95.3333C121.875 93.9792 120.792 92.625 119.167 92.625ZM31.6875 98.3125V124.583H5.41667V98.3125H31.6875ZM43.6042 22.75C43.6042 13.2708 51.4583 5.41667 60.9375 5.41667C70.4167 5.41667 78.2708 13.2708 78.2708 22.75C78.2708 32.2292 70.4167 40.0833 60.9375 40.0833C51.4583 40.0833 43.6042 32.5 43.6042 22.75ZM78.2708 79.3542H43.6042V62.2917H78.5417V79.3542H78.2708ZM116.458 124.583H90.1875V98.3125H116.458V124.583Z" fill="#FF37B3"/>
</svg>
