<svg width="20" height="20" viewBox="0 0 20 20" fill="none" xmlns="http://www.w3.org/2000/svg">
<g clip-path="url(#clip0_1238_8356)">
<path d="M5.31247 6.25001H6.09372V6.52497C6.09372 6.95646 6.44349 7.30622 6.87497 7.30622C7.30646 7.30622 7.65622 6.95646 7.65622 6.52497V5.46876C7.65622 5.13376 7.44536 4.84798 7.14911 4.73696L9.99997 1.8861L12.8508 4.73696C12.5546 4.84802 12.3437 5.13376 12.3437 5.46876V9.64997C12.3437 10.0815 12.6935 10.4312 13.125 10.4312C13.5565 10.4312 13.9062 10.0815 13.9062 9.64997V6.25001H14.6875C15.0034 6.25001 15.2883 6.05966 15.4093 5.76774C15.5302 5.47579 15.4634 5.13978 15.2399 4.91634L10.5524 0.228838C10.2473 -0.0762793 9.75267 -0.0762793 9.44759 0.228838L4.76009 4.91634C4.53665 5.13978 4.46982 5.47579 4.59075 5.76774C4.71161 6.05966 4.9965 6.25001 5.31247 6.25001Z" fill="white"/>
<path d="M19.8189 15.9061L15.9127 11.2186C15.7642 11.0405 15.5443 10.9375 15.3125 10.9375C15.0807 10.9375 14.8608 11.0405 14.7123 11.2186L10.8061 15.9061C10.612 16.139 10.5702 16.4631 10.6988 16.7377C10.8273 17.0121 11.1031 17.1875 11.4063 17.1875H12.1875V18.4375H7.8125V14.0625H8.59375C8.89688 14.0625 9.17266 13.8871 9.30125 13.6126C9.42984 13.3381 9.38801 13.014 9.19391 12.7811L5.28766 8.09359C5.13922 7.91547 4.91934 7.8125 4.6875 7.8125C4.45566 7.8125 4.23578 7.91547 4.08734 8.09359L0.181093 12.7811C-0.01297 13.014 -0.0548059 13.3381 0.0737488 13.6126C0.202343 13.8871 0.478124 14.0625 0.781249 14.0625H1.5625V19.2188C1.5625 19.6502 1.91226 20 2.34375 20H17.6563C18.0877 20 18.4375 19.6502 18.4375 19.2188V17.1875H19.2188C19.5219 17.1875 19.7977 17.0121 19.9263 16.7376C20.0548 16.4631 20.013 16.139 19.8189 15.9061ZM2.44394 12.5064L4.6875 9.8141L6.93105 12.5064C6.54691 12.5555 6.25 12.8837 6.25 13.2812V18.4375H3.125V13.2812C3.125 12.8837 2.82812 12.5555 2.44394 12.5064ZM16.875 16.4062V18.4375H13.75V16.4062C13.75 16.0087 13.4531 15.6805 13.0689 15.6314L15.3125 12.9391L17.5561 15.6314C17.1719 15.6805 16.875 16.0087 16.875 16.4062Z" fill="white"/>
</g>
<defs>
<clipPath id="clip0_1238_8356">
<rect width="20" height="20" fill="white"/>
</clipPath>
</defs>
</svg>
