<svg width="40" height="40" viewBox="0 0 40 40" fill="none" xmlns="http://www.w3.org/2000/svg">
<path d="M35.3125 13.75H33.9752C33.1954 6.72859 27.2259 1.25 20 1.25C12.7741 1.25 6.80461 6.72859 6.02477 13.75H4.6875C2.10281 13.75 0 15.8528 0 18.4375V24.6875C0 27.2722 2.10281 29.375 4.6875 29.375H7.5C8.36297 29.375 9.0625 28.6755 9.0625 27.8125V15.3125C9.0625 9.28156 13.9691 4.375 20 4.375C26.0309 4.375 30.9375 9.28156 30.9375 15.3125V27.8125C30.9375 30.3972 28.8347 32.5 26.25 32.5H24.4188C23.7738 30.6814 22.037 29.375 20 29.375C17.4153 29.375 15.3125 31.4778 15.3125 34.0625C15.3125 36.6472 17.4153 38.75 20 38.75C22.037 38.75 23.7737 37.4436 24.4188 35.625H26.25C30.0229 35.625 33.1795 32.9366 33.9054 29.375H35.3125C37.8972 29.375 40 27.2722 40 24.6875V18.4375C40 15.8528 37.8972 13.75 35.3125 13.75ZM5.9375 26.25H4.6875C3.82594 26.25 3.125 25.5491 3.125 24.6875V18.4375C3.125 17.5759 3.82594 16.875 4.6875 16.875H5.9375V26.25ZM20 35.625C19.1384 35.625 18.4375 34.9241 18.4375 34.0625C18.4375 33.2009 19.1384 32.5 20 32.5C20.8616 32.5 21.5625 33.2009 21.5625 34.0625C21.5625 34.9241 20.8616 35.625 20 35.625ZM36.875 24.6875C36.875 25.5491 36.1741 26.25 35.3125 26.25H34.0625V16.875H35.3125C36.1741 16.875 36.875 17.5759 36.875 18.4375V24.6875Z" fill="white"/>
</svg>
