<svg width="25" height="25" viewBox="0 0 25 25" fill="none" xmlns="http://www.w3.org/2000/svg">
<g clip-path="url(#clip0_791_4400)">
<path d="M24.3046 13.3603C22.4008 11.4565 19.3031 11.4565 17.3982 13.3615L15.6287 15.1369C15.1549 14.1555 14.1495 13.4767 12.9886 13.4767H6.07114L0 19.4854L5.51465 25.0001L7.33994 23.2422H15.8164L25 14.0503L24.3046 13.3603ZM15.0065 21.2891H6.55308L5.54126 22.2646L2.76953 19.4928L6.87402 15.4297H12.9885C13.527 15.4297 13.9651 15.8678 13.9651 16.4063C13.9651 16.9448 13.527 17.3829 12.9885 17.3829H7.61719V19.336H12.9885C13.835 19.336 14.5988 18.9751 15.1341 18.3992L15.1345 18.3995L18.7804 14.7414C19.6808 13.8409 21.0266 13.6503 22.1155 14.1695L15.0065 21.2891Z" fill="white"/>
<path d="M14.4531 12.3606L20.1444 6.66932C21.6713 5.14378 21.6722 2.67142 20.1448 1.1452C18.6179 -0.38161 16.148 -0.381854 14.6209 1.1452L14.4531 1.31297L14.2853 1.1452C12.759 -0.381122 10.2889 -0.382196 8.7618 1.1449C7.23495 2.67044 7.23402 5.1428 8.76146 6.66902L14.4531 12.3606ZM10.1426 2.52625C10.9061 1.76268 12.1407 1.76258 12.9043 2.52625L14.4531 4.07508L16.002 2.52625C16.7653 1.76287 17.9996 1.76229 18.764 2.52654C19.5269 3.2889 19.5276 4.52469 18.7636 5.28797L14.4531 9.59847L10.1423 5.28763C9.37928 4.52527 9.37865 3.28948 10.1426 2.52625Z" fill="white"/>
</g>
<defs>
<clipPath id="clip0_791_4400">
<rect width="25" height="25" fill="white"/>
</clipPath>
</defs>
</svg>
