<svg width="25" height="25" viewBox="0 0 25 25" fill="none" xmlns="http://www.w3.org/2000/svg">
<g clip-path="url(#clip0_791_4428)">
<path d="M20.1172 0H4.88281C2.19043 0 0 2.19043 0 4.88281V14.6484C0 17.3408 2.19043 19.5312 4.88281 19.5312H20.1172C22.8096 19.5312 25 17.3408 25 14.6484V4.88281C25 2.19043 22.8096 0 20.1172 0ZM23.0469 14.6484C23.0469 16.2639 21.7326 17.5781 20.1172 17.5781H4.88281C3.26738 17.5781 1.95312 16.2639 1.95312 14.6484V4.88281C1.95312 3.26738 3.26738 1.95312 4.88281 1.95312H20.1172C21.7326 1.95312 23.0469 3.26738 23.0469 4.88281V14.6484Z" fill="white"/>
<path d="M12.5 21.0938C11.9606 21.0938 11.5234 21.531 11.5234 22.0703V23.0469H8.59375C8.05439 23.0469 7.61719 23.4841 7.61719 24.0234C7.61719 24.5628 8.05439 25 8.59375 25H16.4062C16.9456 25 17.3828 24.5628 17.3828 24.0234C17.3828 23.4841 16.9456 23.0469 16.4062 23.0469H13.4766V22.0703C13.4766 21.531 13.0394 21.0938 12.5 21.0938Z" fill="white"/>
<path d="M20.1172 11.7188H4.88281C4.34346 11.7188 3.90625 12.156 3.90625 12.6953C3.90625 13.2347 4.34346 13.6719 4.88281 13.6719H20.1172C20.6565 13.6719 21.0938 13.2347 21.0938 12.6953C21.0938 12.156 20.6565 11.7188 20.1172 11.7188Z" fill="white"/>
</g>
<defs>
<clipPath id="clip0_791_4428">
<rect width="25" height="25" fill="white"/>
</clipPath>
</defs>
</svg>
