<svg width="143" height="143" viewBox="0 0 143 143" fill="none" xmlns="http://www.w3.org/2000/svg">
<path d="M127.714 0H15.2862C6.84175 0 0 6.84175 0 15.2862V127.714C0 131.77 1.6087 135.659 4.47485 138.525C7.34101 141.391 11.2303 143 15.2862 143H127.714C131.77 143 135.659 141.391 138.525 138.525C141.391 135.659 143 131.77 143 127.714V15.2862C143 11.2305 141.391 7.34101 138.525 4.47485C135.659 1.6087 131.77 0 127.714 0ZM15.2862 4.93103H127.714C130.463 4.93103 133.095 6.02203 135.036 7.96366C136.978 9.90529 138.069 12.5371 138.069 15.2862V29.5862H4.93103V15.2862C4.93103 9.56621 9.56621 4.93103 15.2862 4.93103ZM127.714 138.069H15.2862C9.56621 138.069 4.93103 133.434 4.93103 127.714V34.518H138.069V127.714C138.069 130.463 136.978 133.095 135.036 135.036C133.095 136.978 130.463 138.069 127.714 138.069ZM19.7233 24.6552C21.7081 24.723 23.6251 23.9648 25.0304 22.5657C26.4296 21.1603 27.1878 19.2433 27.1199 17.2586C27.1199 13.1721 23.8099 9.86207 19.7233 9.86207C15.6368 9.86207 12.3268 13.1721 12.3268 17.2586C12.259 19.2433 13.0171 21.1604 14.4163 22.5657C15.8216 23.9649 17.7386 24.723 19.7233 24.6552ZM19.7233 14.7931C20.4014 14.713 21.0732 14.9472 21.5541 15.428C22.0348 15.9087 22.2691 16.5806 22.1889 17.2587C22.2691 17.9367 22.0348 18.6086 21.5541 19.0894C21.0733 19.5702 20.4014 19.8044 19.7233 19.7243C19.0453 19.8044 18.3735 19.5702 17.8926 19.0894C17.4119 18.6086 17.1776 17.9368 17.2578 17.2587C17.1776 16.5807 17.4119 15.9088 17.8926 15.428C18.3734 14.9472 19.0453 14.713 19.7233 14.7931ZM39.4475 24.6552C41.4322 24.723 43.3492 23.9648 44.7545 22.5657C46.1537 21.1603 46.9119 19.2433 46.844 17.2586C46.844 13.1721 43.534 9.86207 39.4475 9.86207C35.361 9.86207 32.0509 13.1721 32.0509 17.2586C31.9831 19.2433 32.7413 21.1604 34.1404 22.5657C35.5458 23.9649 37.4628 24.723 39.4475 24.6552ZM39.4475 14.7931C40.1255 14.713 40.7974 14.9472 41.2782 15.428C41.759 15.9087 41.9932 16.5806 41.9131 17.2587C41.9131 18.6209 40.8097 19.7242 39.4476 19.7242C38.0854 19.7242 36.982 18.6209 36.982 17.2587C36.9019 16.5807 37.1361 15.9088 37.6169 15.428C38.0977 14.9472 38.7694 14.713 39.4475 14.7931ZM59.1716 24.6552C61.1563 24.723 63.0734 23.9648 64.4787 22.5657C65.8779 21.1603 66.636 19.2433 66.5682 17.2586C66.5682 13.1721 63.2582 9.86207 59.1716 9.86207C55.0851 9.86207 51.7751 13.1721 51.7751 17.2586C51.7073 19.2433 52.4654 21.1604 53.8646 22.5657C55.2699 23.9649 57.1869 24.723 59.1716 24.6552ZM59.1716 14.7931C59.8496 14.713 60.5215 14.9472 61.0023 15.428C61.4831 15.9087 61.7173 16.5806 61.6372 17.2587C61.6372 18.6209 60.5339 19.7242 59.1717 19.7242C57.8095 19.7242 56.7062 18.6209 56.7062 17.2587C56.626 16.5807 56.8603 15.9088 57.341 15.428C57.8218 14.9472 58.4935 14.713 59.1716 14.7931ZM78.8958 17.2586C78.8156 16.5806 79.0499 15.9087 79.5306 15.4279C80.0114 14.9471 80.6833 14.7129 81.3613 14.793H125.741C126.419 14.7129 127.091 14.9471 127.571 15.4279C128.052 15.9087 128.286 16.5805 128.206 17.2586C128.286 17.9366 128.052 18.6085 127.571 19.0893C127.091 19.5701 126.419 19.8043 125.741 19.7242H81.3613C80.6833 19.8043 80.0115 19.5701 79.5306 19.0893C79.0498 18.6086 78.8156 17.9367 78.8958 17.2586ZM41.9122 44.3801H22.1881C20.2034 44.3123 18.2863 45.0704 16.881 46.4696C15.4818 47.8749 14.7237 49.7919 14.7915 51.7767V120.811C14.7237 122.796 15.4819 124.713 16.881 126.118C18.2864 127.517 20.2034 128.276 22.1881 128.208H41.9122C43.8969 128.275 45.814 127.517 47.2193 126.118C48.6185 124.713 49.3766 122.796 49.3088 120.811V51.7767C49.3766 49.7919 48.6184 47.8749 47.2193 46.4696C45.8139 45.0704 43.8969 44.3122 41.9122 44.3801ZM44.3777 120.812C44.4579 121.49 44.2236 122.162 43.7429 122.643C43.2621 123.123 42.5902 123.358 41.9122 123.278H22.188C21.51 123.358 20.8381 123.123 20.3573 122.643C19.8765 122.162 19.6423 121.49 19.7224 120.812V51.7774C19.6423 51.0994 19.8765 50.4276 20.3573 49.9467C20.8381 49.4659 21.5099 49.2317 22.188 49.3119H41.9122C42.5902 49.2317 43.262 49.466 43.7429 49.9467C44.2236 50.4275 44.4579 51.0994 44.3777 51.7774V120.812ZM120.81 71.5016H66.5682C64.5835 71.4338 62.6664 72.1919 61.2611 73.5911C59.8619 74.9964 59.1038 76.9134 59.1716 78.8981V81.3636C59.1038 83.3484 59.862 85.2654 61.2611 86.6707C62.6665 88.0699 64.5835 88.828 66.5682 88.7602H120.81C122.794 88.828 124.711 88.0699 126.117 86.6707C127.516 85.2654 128.274 83.3484 128.206 81.3636V78.8981C128.274 76.9134 127.516 74.9964 126.117 73.5911C124.711 72.1919 122.794 71.4337 120.81 71.5016ZM123.275 81.3636C123.355 82.0417 123.121 82.7135 122.64 83.1944C122.159 83.6751 121.488 83.9094 120.809 83.8292H66.5681C65.8901 83.9094 65.2182 83.6751 64.7374 83.1944C64.2566 82.7136 64.0224 82.0417 64.1025 81.3636V78.8981C64.0224 78.2201 64.2566 77.5483 64.7374 77.0674C65.2182 76.5866 65.89 76.3524 66.5681 76.4326H120.809C121.488 76.3524 122.159 76.5866 122.64 77.0674C123.121 77.5482 123.355 78.22 123.275 78.8981V81.3636ZM120.81 44.3801H66.5682C64.5835 44.3123 62.6664 45.0704 61.2611 46.4696C59.8619 47.8749 59.1038 49.7919 59.1716 51.7767V54.2422C59.1038 56.2269 59.862 58.1439 61.2611 59.5492C62.6665 60.9484 64.5835 61.7066 66.5682 61.6387H120.81C122.794 61.7065 124.711 60.9484 126.117 59.5492C127.516 58.1439 128.274 56.2269 128.206 54.2422V51.7767C128.274 49.7919 127.516 47.8749 126.117 46.4696C124.711 45.0704 122.794 44.3122 120.81 44.3801ZM123.275 54.2422C123.355 54.9202 123.121 55.592 122.64 56.0729C122.159 56.5537 121.488 56.7879 120.809 56.7078H66.5681C65.8901 56.7879 65.2182 56.5537 64.7374 56.0729C64.2566 55.5921 64.0224 54.9203 64.1025 54.2422V51.7767C64.0224 51.0986 64.2566 50.4268 64.7374 49.9459C65.2182 49.4652 65.89 49.2309 66.5681 49.3111H120.809C121.488 49.2309 122.159 49.4652 122.64 49.9459C123.121 50.4267 123.355 51.0986 123.275 51.7767V54.2422ZM81.3621 98.6215H66.569C64.5842 98.5537 62.6672 99.3118 61.2619 100.711C59.8627 102.116 59.1046 104.033 59.1724 106.018V120.811C59.1046 122.796 59.8628 124.713 61.2619 126.118C62.6672 127.517 64.5842 128.276 66.569 128.208H81.3621C83.3468 128.275 85.2638 127.517 86.6691 126.118C88.0683 124.713 88.8265 122.796 88.7586 120.811V106.018C88.8264 104.033 88.0683 102.116 86.6691 100.711C85.2638 99.3118 83.3468 98.5536 81.3621 98.6215ZM83.8276 120.81C83.9077 121.488 83.6735 122.16 83.1927 122.641C82.7119 123.122 82.0401 123.356 81.362 123.276H66.5689C65.8909 123.356 65.219 123.122 64.7382 122.641C64.2574 122.16 64.0232 121.488 64.1033 120.81V106.017C64.0232 105.339 64.2574 104.667 64.7382 104.187C65.219 103.706 65.8908 103.472 66.5689 103.552H81.362C82.04 103.472 82.7119 103.706 83.1927 104.187C83.6735 104.667 83.9077 105.339 83.8276 106.017V120.81ZM120.811 98.6215H106.018C104.033 98.5537 102.116 99.3118 100.711 100.711C99.3118 102.116 98.5536 104.033 98.6215 106.018V120.811C98.5537 122.796 99.3118 124.713 100.711 126.118C102.116 127.517 104.033 128.276 106.018 128.208H120.811C122.796 128.275 124.713 127.517 126.118 126.118C127.517 124.713 128.276 122.796 128.208 120.811V106.018C128.275 104.033 127.517 102.116 126.118 100.711C124.713 99.3118 122.796 98.5536 120.811 98.6215ZM123.277 120.81C123.357 121.488 123.123 122.16 122.642 122.641C122.161 123.122 121.489 123.356 120.811 123.276H106.018C105.34 123.356 104.668 123.122 104.187 122.641C103.706 122.16 103.472 121.488 103.552 120.81V106.017C103.472 105.339 103.706 104.667 104.187 104.187C104.668 103.706 105.34 103.472 106.018 103.552H120.811C121.489 103.472 122.161 103.706 122.642 104.187C123.123 104.667 123.357 105.339 123.277 106.017V120.81Z" fill="#3078FF"/>
</svg>
