<svg width="143" height="122" viewBox="0 0 143 122" fill="none" xmlns="http://www.w3.org/2000/svg">
<path d="M135.153 0H7.7674C5.70736 0 3.73169 0.81835 2.27502 2.27502C0.818349 3.73169 0 5.70736 0 7.7674V114.233C0 116.293 0.818349 118.268 2.27502 119.725C3.73169 121.182 5.70736 122 7.7674 122H135.153C137.213 122 139.189 121.182 140.645 119.725C142.102 118.268 142.92 116.293 142.92 114.233V7.7674C142.92 5.70736 142.102 3.73169 140.645 2.27502C139.189 0.81835 137.213 0 135.153 0ZM5.17827 7.7674C5.17827 7.08072 5.45105 6.42217 5.93661 5.93661C6.42216 5.45105 7.08072 5.17827 7.7674 5.17827H135.153C135.839 5.17827 136.498 5.45105 136.984 5.93661C137.469 6.42217 137.742 7.08072 137.742 7.7674V15.2112H5.17827V7.7674ZM137.742 114.233C137.742 114.919 137.469 115.578 136.984 116.063C136.498 116.549 135.839 116.822 135.153 116.822H7.7674C7.08072 116.822 6.42216 116.549 5.93661 116.063C5.45105 115.578 5.17827 114.919 5.17827 114.233V20.3894H137.742V114.233ZM77.4669 109.054H127.385C128.072 109.054 128.731 108.782 129.216 108.296C129.702 107.81 129.975 107.152 129.975 106.465V30.746C129.975 30.0593 129.702 29.4007 129.216 28.9152C128.731 28.4296 128.072 28.1568 127.385 28.1568H77.4669C76.7802 28.1568 76.1216 28.4296 75.6361 28.9152C75.1505 29.4007 74.8778 30.0593 74.8778 30.746V106.465C74.8778 107.152 75.1505 107.81 75.6361 108.296C76.1216 108.782 76.7802 109.054 77.4669 109.054ZM80.056 103.876V46.9151H124.796V103.876H80.056ZM80.056 33.3351H124.796V41.7627H80.056V33.3351ZM15.5348 82.0755H64.2882C64.9749 82.0755 65.6334 81.8028 66.119 81.3172C66.6045 80.8317 66.8773 80.1731 66.8773 79.4864V30.746C66.8773 30.0593 66.6045 29.4007 66.119 28.9152C65.6334 28.4296 64.9749 28.1568 64.2882 28.1568H15.5348C14.8481 28.1568 14.1896 28.4296 13.704 28.9152C13.2185 29.4007 12.9457 30.0593 12.9457 30.746V79.4864C12.9457 80.1731 13.2185 80.8317 13.704 81.3172C14.1896 81.8028 14.8481 82.0755 15.5348 82.0755ZM18.1239 33.3351H61.6991V76.8973H18.1239V33.3351ZM15.5348 109.054H34.5132C35.1998 109.054 35.8584 108.782 36.344 108.296C36.8295 107.81 37.1023 107.152 37.1023 106.465V89.9854C37.1023 89.2987 36.8295 88.6401 36.344 88.1546C35.8584 87.669 35.1998 87.3962 34.5132 87.3962H15.5348C14.8481 87.3962 14.1896 87.669 13.704 88.1546C13.2185 88.6401 12.9457 89.2987 12.9457 89.9854V106.465C12.9457 107.152 13.2185 107.81 13.704 108.296C14.1896 108.782 14.8481 109.054 15.5348 109.054ZM18.1239 92.5745H31.924V103.876H18.1239V92.5745ZM64.2882 87.3962H45.3098C44.6232 87.3962 43.9646 87.669 43.4791 88.1546C42.9935 88.6401 42.7207 89.2987 42.7207 89.9854V106.465C42.7207 107.152 42.9935 107.81 43.4791 108.296C43.9646 108.782 44.6232 109.054 45.3098 109.054H64.2882C64.9749 109.054 65.6334 108.782 66.119 108.296C66.6045 107.81 66.8773 107.152 66.8773 106.465V89.9854C66.8773 89.2987 66.6045 88.6401 66.119 88.1546C65.6334 87.669 64.9749 87.3962 64.2882 87.3962ZM61.6991 103.876H47.899V92.5745H61.6991V103.876Z" fill="#EE7621"/>
</svg>
