<svg width="30" height="30" viewBox="0 0 30 30" fill="none" xmlns="http://www.w3.org/2000/svg">
<path d="M27.6458 28H25.8894C25.8894 27.7876 25.8894 2.38336 25.8894 2.00004H27.6458C28.1981 2.00004 28.6458 1.55232 28.6458 1.00002C28.6458 0.447715 28.1981 0 27.6458 0C26.979 0 3.05426 0 2.35354 0C1.80129 0 1.35352 0.447715 1.35352 1.00002C1.35352 1.55232 1.80123 2.00004 2.35354 2.00004H4.11C4.11 2.52498 4.11 27.8278 4.11 28H2.35354C1.80129 28 1.35352 28.4477 1.35352 29C1.35352 29.5523 1.80129 30 2.35354 30C3.02039 30 26.945 30 27.6459 30C28.1981 30 28.6459 29.5523 28.6459 29C28.6459 28.4477 28.1981 28 27.6458 28ZM6.10992 9.66674C7.31098 11.7413 8.96285 13.4421 10.864 14.6816V15.3184C8.9144 16.5895 7.27963 18.3129 6.10992 20.3333V9.66674ZM6.10992 28C6.10992 23.0238 8.62799 18.9723 12.3771 16.7309C12.679 16.5503 12.864 16.2244 12.864 15.8725V14.1273C12.864 13.7755 12.6791 13.4495 12.3771 13.269C11.6633 12.8422 10.9941 12.3469 10.3781 11.7927H19.6211C19.0052 12.3469 18.336 12.8422 17.6221 13.269C17.3202 13.4495 17.1353 13.7754 17.1353 14.1273V15.8725C17.1353 16.2243 17.3201 16.5503 17.6221 16.7309C21.3703 18.9717 23.8893 23.0211 23.8893 28H6.10992ZM23.8894 20.3333C22.7198 18.3128 21.085 16.5895 19.1354 15.3184V14.6816C21.0277 13.4479 22.6838 11.7492 23.8894 9.66674V20.3333ZM21.423 9.79289H8.57625C6.856 7.43115 6.10992 4.82742 6.10992 2.00004H23.8894C23.8894 4.87535 23.1175 7.46672 21.423 9.79289Z" fill="white"/>
</svg>
