<svg width="25" height="25" viewBox="0 0 25 25" fill="none" xmlns="http://www.w3.org/2000/svg">
<g clip-path="url(#clip0_791_4433)">
<path d="M24.9723 6.97622C24.7027 4.45664 23.2855 2.99507 21.7941 1.79106C19.6979 0.0987303 17.034 0.00405273 16.9216 0.000830078C16.5683 -0.00834961 16.2388 0.171484 16.057 0.473584C15.8753 0.775733 15.8705 1.15225 16.0444 1.45889C16.7735 2.74399 16.4341 3.68799 16.0043 4.8832C15.6786 5.78921 15.3094 6.81611 15.4682 8.01226C15.6403 9.30728 16.2792 10.454 17.2672 11.2409C17.2889 11.2582 17.3113 11.2744 17.3332 11.2912V14.2321C16.0022 14.3099 14.9921 14.5844 14.2608 15.0652C13.3641 15.6549 12.89 16.5575 12.89 17.6755C12.89 18.4721 13.1296 19.1226 13.3411 19.6964C13.5444 20.2485 13.7201 20.7253 13.7201 21.3375C13.7201 21.6043 13.6737 22.1094 13.3632 22.4938C13.067 22.8605 12.5629 23.0464 11.8647 23.0464C6.21411 23.0464 1.95303 18.5125 1.95303 12.5C1.95303 6.68462 6.68413 1.95352 12.4995 1.95352C12.7227 1.95352 12.9486 1.9606 13.171 1.97451C13.7092 2.00791 14.1729 1.59912 14.2066 1.06089C14.2403 0.522656 13.8313 0.0589844 13.293 0.025293C13.0302 0.00883789 12.7632 0.000488281 12.4995 0.000488281C9.16074 0.000488281 6.02187 1.30068 3.66104 3.66147C1.3002 6.02236 0 9.16123 0 12.5C0 15.8665 1.17793 18.9955 3.31689 21.3105C5.51465 23.6894 8.55034 24.9994 11.8647 24.9994C13.5056 24.9994 14.4116 24.3042 14.8826 23.7209C15.3924 23.0898 15.6731 22.2433 15.6731 21.3375C15.6731 20.3771 15.4078 19.6567 15.1737 19.0213C14.989 18.5198 14.8431 18.1238 14.8431 17.6755C14.8431 17.2097 14.9853 16.9263 15.3339 16.6971C15.6372 16.4977 16.2216 16.267 17.3333 16.1892V21.9511C17.3015 22.715 17.5718 23.4539 18.0959 24.0343C18.62 24.6144 19.3385 24.9558 20.1193 24.9956C20.1702 24.9981 20.2209 24.9994 20.2715 24.9994C20.997 24.9994 21.6875 24.7344 22.2298 24.2446C22.8099 23.7206 23.1514 23.0021 23.1911 22.2213C23.2185 21.6827 22.804 21.2238 22.2654 21.1964C21.7264 21.169 21.268 21.5835 21.2405 22.122C21.2273 22.3818 21.1137 22.6209 20.9207 22.7952C20.7277 22.9695 20.4788 23.0585 20.2185 23.045C19.9587 23.0318 19.7196 22.9182 19.5454 22.7252C19.4406 22.6093 19.2676 22.3639 19.285 22.023L19.2862 21.9982V12.1732C19.5867 12.232 19.8943 12.2628 20.206 12.2628C20.3785 12.2628 20.5523 12.2537 20.7265 12.2352C20.9 12.2167 21.071 12.1889 21.2393 12.1526V17.529C21.2393 18.0683 21.6765 18.5055 22.2158 18.5055C22.7551 18.5055 23.1923 18.0683 23.1923 17.529V11.2286C23.4647 11.0116 23.7153 10.7632 23.9393 10.4857C24.7413 9.49243 25.1082 8.24614 24.9723 6.97622ZM22.4198 9.25889C21.9457 9.846 21.2711 10.2133 20.5204 10.2931C19.776 10.372 19.0528 10.1662 18.4841 9.71313C17.8931 9.24238 17.5096 8.54697 17.4043 7.75503C17.308 7.02988 17.5556 6.34126 17.8423 5.54399C18.1792 4.60698 18.5742 3.50845 18.3674 2.21816C19.0514 2.41099 19.8633 2.74238 20.5673 3.31074C21.9517 4.42842 22.8466 5.46621 23.0304 7.18413C23.1107 7.93486 22.8938 8.67168 22.4198 9.25889Z" fill="white"/>
<path d="M10.937 5.37129C10.937 6.17895 11.5941 6.83608 12.4018 6.83608C13.2095 6.83608 13.8666 6.179 13.8666 5.37129C13.8666 4.56362 13.2095 3.90649 12.4018 3.90649C11.5941 3.90654 10.937 4.56362 10.937 5.37129Z" fill="white"/>
<path d="M8.26258 8.75125C8.83392 8.17986 8.83392 7.25013 8.26258 6.67879L8.26253 6.67874C7.69109 6.1074 6.76136 6.1074 6.18997 6.67879C5.61863 7.25018 5.61863 8.17991 6.19002 8.7513C6.47571 9.03699 6.85096 9.17982 7.22625 9.17982C7.60154 9.17982 7.97684 9.03694 8.26258 8.75125Z" fill="white"/>
<path d="M3.90613 12.8417C3.90613 13.6494 4.56321 14.3065 5.37092 14.3065C6.17859 14.3065 6.83572 13.6495 6.83572 12.8417C6.83572 12.034 6.17864 11.377 5.37092 11.377C4.56321 11.377 3.90613 12.0341 3.90613 12.8417Z" fill="white"/>
<path d="M7.37275 19.1403C7.76401 19.1403 8.13179 18.9879 8.4085 18.7112C8.68516 18.4345 8.8375 18.0665 8.8375 17.6751C8.8375 17.2838 8.68516 16.9159 8.40845 16.6391C7.83726 16.0679 6.90806 16.068 6.33701 16.6391L6.33696 16.6391C6.0603 16.9158 5.90796 17.2837 5.90796 17.6751C5.90796 18.0665 6.0603 18.4344 6.33696 18.7112C6.61362 18.9879 6.98145 19.1403 7.37275 19.1403Z" fill="white"/>
</g>
<defs>
<clipPath id="clip0_791_4433">
<rect width="25" height="25" fill="white"/>
</clipPath>
</defs>
</svg>
