<svg width="40" height="40" viewBox="0 0 40 40" fill="none" xmlns="http://www.w3.org/2000/svg">
<path d="M25.5197 39.9992C25.4207 39.9992 25.3213 39.9988 25.2212 39.9979C22.1387 39.9706 18.977 39.0528 15.8241 37.2697C13.3484 35.8697 10.8598 33.9266 8.42766 31.4943C2.88552 25.9522 0.0505467 20.3283 0.00156417 14.7789C-0.0295284 11.262 0.370144 6.14548 4.18297 2.33257C5.67284 0.842703 7.53152 0.0143745 9.41653 0.000234366L9.46668 0H9.47973C11.7612 0 13.8796 1.24831 15.0098 3.26027L16.2838 5.52839L16.3055 5.57362C16.9531 6.92279 17.2701 7.95908 17.3334 8.93373C17.424 10.328 16.9738 11.5345 15.9956 12.52L12.4553 16.1896C12.9816 17.6452 14.3281 20.7836 16.887 23.348C19.4201 25.8756 22.4741 27.165 23.9208 27.6723L27.4697 23.989C28.4641 22.9964 29.6439 22.5227 30.9746 22.5806C31.9969 22.6252 33.0748 22.9674 34.4692 23.69L34.5155 23.715L36.7399 24.9644C38.7556 26.0967 40.0048 28.221 40.0001 30.5085L39.9998 30.5635C39.9857 32.4425 39.1575 34.3012 37.6675 35.7911C36.0116 37.447 33.9236 38.6263 31.4613 39.2961C29.7241 39.7687 27.7776 39.9992 25.5197 39.9992ZM9.47864 3.12488C9.47645 3.12488 9.47434 3.12488 9.47215 3.12488L9.43934 3.12504C8.38086 3.13301 7.29856 3.63627 6.39266 4.54218C3.41042 7.52441 3.1002 11.797 3.12629 14.7512C3.16785 19.4526 5.69487 24.3423 10.6372 29.2846C15.6309 34.2784 20.547 36.8315 25.2488 36.8731C28.1925 36.8992 32.4532 36.5861 35.4578 33.5813C36.3638 32.6754 36.8671 31.5932 36.875 30.534L36.8752 30.4963C36.8775 29.3452 36.2393 28.2673 35.2095 27.6888L33.0085 26.4525C30.8385 25.3326 30.2151 25.6672 29.6871 26.1907L24.8732 31.1874L23.9958 30.9675C23.7833 30.9142 18.744 29.6163 14.6785 25.5587L14.6764 25.5566C10.6284 21.5006 9.22693 16.401 9.16919 16.1859L8.94037 15.3324L13.7735 10.323C14.2302 9.86534 14.5852 9.22888 13.5096 6.97021L12.2853 4.7906C11.7078 3.76275 10.6328 3.12488 9.47864 3.12488ZM34.5085 5.49159C31.3377 2.32078 27.2311 0.425532 22.8116 0.0636966C21.9516 -0.00671593 21.2507 0.699607 21.2507 1.56252C21.2507 2.42543 21.9523 3.11674 22.8109 3.20225C30.1832 3.9365 36.0636 9.81685 36.7978 17.1892C36.8834 18.0478 37.5747 18.7494 38.4376 18.7494C39.3005 18.7494 40.0068 18.0485 39.9364 17.1885C39.5746 12.7689 37.6793 8.66234 34.5085 5.49159ZM22.7972 12.6932C21.9611 12.4795 21.2507 13.1991 21.2507 14.062C21.2507 14.9249 21.9921 15.5924 22.7487 16.0075C23.2724 16.2947 23.7053 16.7276 23.9926 17.2513C24.4076 18.0079 25.0751 18.7493 25.938 18.7493C26.8009 18.7493 27.5205 18.0389 27.3069 17.2028C26.7433 14.9969 25.0031 13.2567 22.7972 12.6932ZM22.81 6.34653C21.9537 6.23951 21.2507 6.9493 21.2507 7.81221C21.2507 8.67512 21.9555 9.361 22.8065 9.50374C26.7318 10.1621 29.8379 13.2683 30.4963 17.1935C30.639 18.0445 31.3249 18.7493 32.1878 18.7493C33.0507 18.7493 33.7605 18.0463 33.6535 17.19C32.9475 11.5418 28.4582 7.05248 22.81 6.34653Z" fill="white"/>
</svg>
