<svg width="131" height="131" viewBox="0 0 131 131" fill="none" xmlns="http://www.w3.org/2000/svg">
<path d="M116.761 0C124.628 0 131 6.37197 131 14.239V75.4672C131 83.3343 124.628 89.7062 116.761 89.7062H82.5867V112.29C85.221 114.874 86.8586 118.477 86.8586 122.457V125.304C86.8586 128.451 84.3098 131 81.1629 131H5.69567C2.54874 131 0 128.451 0 125.304V122.457C0 114.59 6.37205 108.218 14.2392 108.218H48.4132V89.7073H14.2392C6.37205 89.7073 0 83.3354 0 75.4683V14.2401C0.192231 6.49408 6.33651 0.0010933 14.2392 0.0010933L116.761 0ZM115.337 108.216C123.204 108.216 129.576 114.588 129.576 122.456V125.303C129.576 128.45 127.027 130.999 123.88 130.999H102.521C99.3742 130.999 96.8255 128.45 96.8255 125.303V122.456C96.8255 114.588 103.198 108.216 111.065 108.216H115.337ZM14.2382 113.912C9.51798 113.912 5.69467 117.735 5.69467 122.456V125.303H81.1619V122.456C81.1619 117.735 77.3386 113.912 72.6184 113.912H14.2382ZM111.065 113.912C106.344 113.912 102.521 117.735 102.521 122.456V125.303H123.88V122.456C123.88 117.735 120.057 113.912 115.337 113.912H111.065ZM54.1079 108.216H76.8906V89.7062H54.1079V108.216ZM14.2382 5.6956C9.49647 5.6956 5.80859 9.58994 5.69467 14.239V75.4672C5.69467 80.1874 9.51798 84.0106 14.2382 84.0106H116.76C121.481 84.0106 125.304 80.1874 125.304 75.4672V14.239C125.304 9.51886 121.481 5.6956 116.76 5.6956H14.2382ZM23.572 27.9294C24.6898 26.7689 26.434 26.833 27.6016 27.844L43.6137 43.1937C45.3295 44.938 45.3295 47.6149 43.6137 49.3592L27.6016 64.7089C26.4625 65.7981 24.6612 65.7554 23.572 64.6234C22.4827 63.4843 22.5254 61.683 23.6574 60.5939L38.6014 46.2765L23.6574 31.9591C22.5966 30.8342 22.4542 29.097 23.572 27.9294ZM74.0421 59.8029C75.6155 59.8029 76.8899 61.0773 76.8899 62.6507C76.8899 64.2241 75.6155 65.4985 74.0421 65.4985H51.2593C49.6859 65.4985 48.4115 64.2241 48.4115 62.6507C48.4115 61.0773 49.6859 59.8029 51.2593 59.8029H74.0421ZM90.5169 22.2411C91.9621 19.4575 95.9918 19.4575 97.4372 22.2411C100.37 28.371 104.357 33.5255 110.26 37.0639L113.826 39.214C116.254 40.9013 116.254 44.5323 113.826 46.2197L110.26 48.3698C104.592 51.7658 100.235 56.8777 97.5797 62.9008C96.1558 65.8981 91.7488 66.1046 90.3747 62.9008C87.7191 56.8777 83.3618 51.7658 77.6948 48.3698L74.377 46.3763C71.6147 44.7174 71.6147 40.7091 74.377 39.0503L77.6948 37.0641C83.547 33.4615 87.5764 28.3781 90.5169 22.2411ZM93.9769 28.1219C90.5311 34.3586 85.3836 39.093 79.3462 42.7169C85.4121 46.3549 90.524 51.068 93.9769 57.3118C97.4299 51.068 102.542 46.3549 108.608 42.7169C102.542 39.0788 97.4299 34.3728 93.9769 28.1219Z" fill="#F14A58"/>
</svg>
