<svg width="25" height="25" viewBox="0 0 25 25" fill="none" xmlns="http://www.w3.org/2000/svg">
<g clip-path="url(#clip0_791_4423)">
<path d="M24.8052 5.44946C25.1924 2.88462 24.8852 1.00727 24.8719 0.928659C24.8027 0.518601 24.4815 0.197312 24.0714 0.128122C23.9927 0.114841 22.1154 -0.192386 19.5506 0.19487C16.0654 0.721091 13.058 2.27461 10.7888 4.54375C10.0344 5.29819 9.38589 6.15913 8.81772 7.07505C8.08677 6.71167 7.27075 6.53535 6.43921 6.5706C5.21362 6.62216 4.06074 7.12851 3.19292 7.99638L0.757567 10.4318C0.454442 10.7349 0.384422 11.2003 0.584959 11.5791C0.785496 11.9581 1.20981 12.1617 1.63076 12.0816C3.20078 11.7826 4.81943 12.1753 6.07392 13.1364C5.84189 13.7772 5.66582 14.2752 5.47407 14.7994C5.08628 15.8595 5.35439 17.0633 6.15713 17.866L7.13389 18.8428C7.9375 19.6464 9.14145 19.9132 10.2005 19.5258C10.697 19.3442 11.2792 19.1375 11.8635 18.926C12.8245 20.1804 13.2173 21.799 12.9183 23.3692C12.838 23.7903 13.0418 24.2145 13.4208 24.415C13.7996 24.6155 14.265 24.5455 14.5681 24.2424L17.0035 21.807C17.8714 20.9392 18.3777 19.7863 18.4293 18.5607C18.4643 17.729 18.2881 16.9131 17.9249 16.1823C18.8408 15.6141 19.7017 14.9657 20.4562 14.2112C22.7308 11.9367 24.2802 8.9269 24.8052 5.44946ZM23.0188 1.98169C23.0784 2.91484 23.0821 4.65298 22.5667 6.6542L18.3422 2.42964C19.9153 2.02754 21.5487 1.88755 23.0188 1.98169ZM3.83135 10.1202L4.57402 9.37754C5.46689 8.48471 6.78091 8.27798 7.87065 8.7851C7.46631 9.59897 7.10903 10.4303 6.78447 11.2491C5.88808 10.667 4.88013 10.2834 3.83135 10.1202ZM15.6226 20.4261L14.8799 21.1687C14.7166 20.12 14.333 19.112 13.7511 18.2157C14.5698 17.8911 15.4012 17.5338 16.215 17.1294C16.7222 18.2192 16.5154 19.5332 15.6226 20.4261ZM19.0752 12.8302C16.8396 15.0658 13.3163 16.3304 10.4852 17.3466C10.1572 17.4643 9.83779 17.579 9.52974 17.6916C9.17539 17.8213 8.78652 17.7332 8.51509 17.4618L7.53833 16.485C7.26689 16.2136 7.17881 15.8248 7.30845 15.4704C7.42114 15.1623 7.53579 14.8429 7.65351 14.5149C8.66968 11.6838 9.93423 8.16049 12.1699 5.92485C13.3693 4.72549 14.7443 3.79174 16.2803 3.12993L21.8648 8.71445C21.2676 10.1013 20.3813 11.524 19.0752 12.8302Z" fill="white"/>
<path d="M1.66719 19.1897C1.38277 19.4741 0.9459 20.0735 0.437306 21.9871C0.180422 22.9536 0.0225113 23.8117 0.0159684 23.8477C-0.0417953 24.1633 0.0591812 24.4871 0.286037 24.714C0.470851 24.8987 0.719972 25 0.976564 25C1.26724 25 2.71568 24.6418 3.01304 24.5627C4.92661 24.0542 5.52603 23.6173 5.81045 23.3329C6.95274 22.1906 6.95274 20.3319 5.81045 19.1897C4.66812 18.0474 2.80952 18.0475 1.66719 19.1897ZM4.43013 21.951C4.12139 22.2443 2.67534 22.6353 2.25977 22.7403C2.36348 22.3298 2.75493 20.8807 3.04829 20.5708C3.42891 20.1901 4.04854 20.1899 4.42935 20.5708C4.81011 20.9515 4.81011 21.5711 4.43013 21.951Z" fill="white"/>
<path d="M12.8604 7.99647C11.7181 9.13876 11.7181 10.9974 12.8604 12.1397C14.0027 13.282 15.8613 13.282 17.0036 12.1397C18.1458 10.9974 18.1458 9.13876 17.0036 7.99642C15.8613 6.85424 14.0027 6.85419 12.8604 7.99647ZM15.6225 10.7586C15.2418 11.1393 14.6222 11.1393 14.2415 10.7586C13.8607 10.3778 13.8607 9.75824 14.2415 9.37753C14.6221 8.99686 15.2417 8.99662 15.6225 9.37753C16.0033 9.75829 16.0033 10.3779 15.6225 10.7586Z" fill="white"/>
</g>
<defs>
<clipPath id="clip0_791_4423">
<rect width="25" height="25" fill="white"/>
</clipPath>
</defs>
</svg>
