<svg width="30" height="30" viewBox="0 0 30 30" fill="none" xmlns="http://www.w3.org/2000/svg">
<g clip-path="url(#clip0_1151_198)">
<path d="M28.9287 5.35603V3.21317C28.9287 2.64485 28.7029 2.0998 28.301 1.69794C27.8992 1.29608 27.3541 1.07031 26.7858 1.07031H24.643M18.2144 1.07031H11.7858M1.07153 5.35603V3.21317C1.07153 2.64485 1.2973 2.0998 1.69916 1.69794C2.10103 1.29608 2.64607 1.07031 3.21439 1.07031H5.35725M1.07153 20.356V26.7846C1.07153 27.3529 1.2973 27.898 1.69916 28.2998C2.10103 28.7017 2.64607 28.9275 3.21439 28.9275H26.7858C27.3541 28.9275 27.8992 28.7017 28.301 28.2998C28.7029 27.898 28.9287 27.3529 28.9287 26.7846V20.356M1.07153 11.7846V14.9989H28.9287V11.7846" stroke="white" stroke-width="3" stroke-linecap="round" stroke-linejoin="round"/>
</g>
<defs>
<clipPath id="clip0_1151_198">
<rect width="30" height="30" fill="white"/>
</clipPath>
</defs>
</svg>
