<svg width="30" height="30" viewBox="0 0 30 30" fill="none" xmlns="http://www.w3.org/2000/svg">
<path d="M25.5469 19.9219C25.5469 19.4422 25.4516 18.9765 25.2636 18.5378L18.2323 2.13152C17.6774 0.83666 16.4087 0 15 0C13.5913 0 12.3226 0.83666 11.7677 2.13152L4.73637 18.5379C4.5484 18.9765 4.45312 19.4422 4.45312 19.9219C4.45312 21.8604 6.03023 23.4375 7.96875 23.4375C8.62131 23.4375 9.25887 23.257 9.8124 22.9157L14.3866 20.0948C14.7605 19.8642 15.2393 19.864 15.6134 20.0948L20.1876 22.9157C20.7411 23.257 21.3787 23.4375 22.0312 23.4375C23.9698 23.4375 25.5469 21.8604 25.5469 19.9219ZM16.8437 18.1C15.7158 17.4045 14.285 17.4039 13.1563 18.1L8.58217 20.9208C8.39865 21.0339 8.18654 21.0938 7.96875 21.0938C7.32258 21.0938 6.79688 20.568 6.79688 19.9219C6.79688 19.7613 6.82846 19.6062 6.89068 19.461L13.9219 3.05479C14.107 2.62283 14.5302 2.34375 15 2.34375C15.4698 2.34375 15.893 2.62283 16.0781 3.05479L23.1093 19.461C23.1715 19.6063 23.2031 19.7613 23.2031 19.9219C23.2031 20.568 22.6774 21.0938 22.0312 21.0938C21.8135 21.0938 21.6013 21.0339 21.4178 20.9208L16.8437 18.1Z" fill="white"/>
<path d="M13.8281 24.1406V28.8281C13.8281 29.4754 14.3528 30 15 30C15.6472 30 16.1719 29.4754 16.1719 28.8281V24.1406C16.1719 23.4934 15.6472 22.9688 15 22.9688C14.3528 22.9688 13.8281 23.4934 13.8281 24.1406Z" fill="white"/>
<path d="M18.5156 26.4844V28.8281C18.5156 29.4754 19.0403 30 19.6875 30C20.3347 30 20.8594 29.4754 20.8594 28.8281V26.4844C20.8594 25.8371 20.3347 25.3125 19.6875 25.3125C19.0403 25.3125 18.5156 25.8371 18.5156 26.4844Z" fill="white"/>
<path d="M9.14062 26.4844V28.8281C9.14062 29.4754 9.66527 30 10.3125 30C10.9597 30 11.4844 29.4754 11.4844 28.8281V26.4844C11.4844 25.8371 10.9597 25.3125 10.3125 25.3125C9.66527 25.3125 9.14062 25.8371 9.14062 26.4844Z" fill="white"/>
<path d="M15 15.2344C15.6472 15.2344 16.1719 14.7097 16.1719 14.0625V9.46423C16.1719 8.81701 15.6472 8.29236 15 8.29236C14.3528 8.29236 13.8281 8.81701 13.8281 9.46423V14.0625C13.8281 14.7097 14.3528 15.2344 15 15.2344Z" fill="white"/>
</svg>
