<svg width="25" height="25" viewBox="0 0 25 25" fill="none" xmlns="http://www.w3.org/2000/svg">
<g clip-path="url(#clip0_791_4412)">
<path d="M10.0776 3.94132L9.40962 2.10597C9.22519 1.59913 8.66464 1.33785 8.15795 1.52228C7.65112 1.70675 7.38984 2.26715 7.57426 2.77394L8.24228 4.60929C8.42646 5.11534 8.98632 5.3777 9.49394 5.19298C10.0007 5.00851 10.2621 4.44811 10.0776 3.94132Z" fill="white"/>
<path d="M16.842 1.52229C16.3352 1.33782 15.7749 1.5992 15.5904 2.10598L14.9224 3.94133C14.7379 4.44812 14.9992 5.00852 15.5061 5.19299C16.0138 5.37781 16.5736 5.11516 16.7577 4.6093L17.4257 2.77395C17.6102 2.26716 17.3489 1.70676 16.842 1.52229Z" fill="white"/>
<path d="M12.5 4.66296C13.0394 4.66296 13.4766 4.22576 13.4766 3.6864V1.73328C13.4766 1.19392 13.0394 0.756714 12.5 0.756714C11.9606 0.756714 11.5234 1.19392 11.5234 1.73328V3.6864C11.5234 4.22571 11.9606 4.66296 12.5 4.66296Z" fill="white"/>
<path d="M22.0703 8.56921H19.7271C19.1342 8.56921 18.5333 8.2945 17.9411 7.75261C16.2191 6.17726 13.5767 6.23679 11.9252 7.8881L8.37031 11.443C7.22803 12.5853 7.22803 14.4439 8.37031 15.5862C9.51523 16.7311 11.3685 16.7314 12.5136 15.5862L15.1199 12.9799C15.5013 12.5985 15.5013 11.9802 15.1199 11.5988C14.7385 11.2175 14.1202 11.2175 13.7388 11.5988L11.1325 14.2052C10.7508 14.5868 10.1331 14.5868 9.75146 14.2052C9.37066 13.8244 9.37066 13.2049 9.75146 12.8241L13.3064 9.26921C14.2168 8.35861 15.6736 8.32536 16.6228 9.19367C17.5729 10.0629 18.6463 10.5223 19.7271 10.5223H22.0704C22.6088 10.5223 23.0469 10.9604 23.0469 11.4989V17.3583C23.0469 17.8967 22.6088 18.3348 22.0704 18.3348H19.2378C19.6993 17.2645 19.4943 15.9733 18.6213 15.1002L17.8818 14.3607C17.5004 13.9793 16.8821 13.9793 16.5007 14.3607C16.1194 14.742 16.1194 15.3604 16.5008 15.7418L17.2403 16.4813C17.6211 16.862 17.6211 17.4816 17.2404 17.8624L16.4821 18.6206C16.482 18.6208 16.4818 18.6209 16.4817 18.621L13.0971 22.0055C12.9126 22.19 12.6674 22.2916 12.4065 22.2916C12.1457 22.2916 11.9005 22.19 11.716 22.0055L9.47534 19.7649C8.55312 18.8426 7.32695 18.3347 6.02271 18.3347H2.92969C2.39121 18.3347 1.95312 17.8966 1.95312 17.3582V11.4988C1.95312 10.9603 2.39121 10.5222 2.92969 10.5222H4.225C5.39937 10.5222 6.52114 10.0833 7.38374 9.28635C7.88437 8.8238 8.53545 8.56911 9.21704 8.56911C9.7564 8.56911 10.1936 8.1319 10.1936 7.59255C10.1936 7.05319 9.7564 6.61599 9.21704 6.61599C8.04263 6.61599 6.92085 7.0549 6.05835 7.85182C5.55771 8.31437 4.90659 8.56911 4.225 8.56911H2.92969C1.31426 8.56911 0 9.88337 0 11.4988V17.3582C0 18.9736 1.31426 20.2879 2.92969 20.2879H6.02271C6.80522 20.2879 7.54097 20.5926 8.09429 21.146L10.3349 23.3866C10.9061 23.9577 11.6563 24.2433 12.4065 24.2433C13.1568 24.2433 13.907 23.9577 14.4781 23.3866L17.5769 20.2879H22.0703C23.6857 20.2879 25 18.9737 25 17.3582V11.4988C25 9.88347 23.6857 8.56921 22.0703 8.56921Z" fill="white"/>
</g>
<defs>
<clipPath id="clip0_791_4412">
<rect width="25" height="25" fill="white"/>
</clipPath>
</defs>
</svg>
