<svg width="25" height="25" viewBox="0 0 25 25" fill="none" xmlns="http://www.w3.org/2000/svg">
<path d="M16.4062 9.57031C15.8669 9.57031 15.4297 10.0075 15.4297 10.5469C15.4297 12.1623 14.1154 13.4766 12.5 13.4766C10.8846 13.4766 9.57031 12.1623 9.57031 10.5469C9.57031 10.0075 9.13311 9.57031 8.59375 9.57031C8.05439 9.57031 7.61719 10.0075 7.61719 10.5469C7.61719 13.2393 9.80762 15.4297 12.5 15.4297C15.1924 15.4297 17.3828 13.2393 17.3828 10.5469C17.3828 10.0075 16.9456 9.57031 16.4062 9.57031Z" fill="white"/>
<path d="M23.2189 21.7L21.2812 6.51699C21.2191 6.03027 20.798 5.66406 20.3125 5.66406H17.3828V4.88281C17.3828 2.19043 15.1924 0 12.5 0C9.80762 0 7.61719 2.19043 7.61719 4.88281V5.66406H4.6875C4.1917 5.66406 3.77988 6.03818 3.7188 6.51699L1.78091 21.7016C1.76558 21.8231 1.75781 21.9472 1.75781 22.0703C1.75781 23.6857 3.07207 25 4.6875 25H20.3125C21.9279 25 23.2422 23.6857 23.2422 22.0703C23.2422 21.9474 23.2344 21.8234 23.2189 21.7ZM9.57031 4.88281C9.57031 3.26738 10.8846 1.95312 12.5 1.95312C14.1154 1.95312 15.4297 3.26738 15.4297 4.88281V5.66406H9.57031V4.88281ZM20.3125 23.0469H4.6875C4.14902 23.0469 3.71094 22.6088 3.71094 22.0703C3.71094 22.0286 3.71357 21.9867 3.71851 21.9473L5.54736 7.61719H19.4526L21.2812 21.9455C21.2864 21.9865 21.289 22.0285 21.289 22.0703C21.2891 22.6088 20.851 23.0469 20.3125 23.0469Z" fill="white"/>
</svg>
