<svg width="25" height="25" viewBox="0 0 25 25" fill="none" xmlns="http://www.w3.org/2000/svg">
<g clip-path="url(#clip0_791_4376)">
<path d="M22.0703 4.6875H19.2377C18.7841 2.46147 16.8112 0.78125 14.4531 0.78125H10.5469C8.18882 0.78125 6.21592 2.46147 5.76226 4.6875H2.92969C1.31426 4.6875 0 6.00176 0 7.61719V21.2891C0 22.9045 1.31426 24.2188 2.92969 24.2188H22.0703C23.6857 24.2188 25 22.9045 25 21.2891V7.61719C25 6.00176 23.6857 4.6875 22.0703 4.6875ZM10.5469 2.73438H14.4531C15.7262 2.73438 16.8117 3.55088 17.2148 4.6875H7.78516C8.18833 3.55088 9.27378 2.73438 10.5469 2.73438ZM2.92969 6.64062H22.0703C22.6088 6.64062 23.0469 7.07871 23.0469 7.61719C23.0469 10.3096 20.8564 12.5 18.1641 12.5H15.4297V11.5234C15.4297 10.9841 14.9925 10.5469 14.4531 10.5469H10.5469C10.0075 10.5469 9.57031 10.9841 9.57031 11.5234V12.5H6.83594C4.14355 12.5 1.95312 10.3096 1.95312 7.61719C1.95312 7.07871 2.39121 6.64062 2.92969 6.64062ZM13.4766 13.4766C13.4766 14.015 13.0385 14.4531 12.5 14.4531C11.9615 14.4531 11.5234 14.015 11.5234 13.4766V12.5H13.4766V13.4766ZM23.0469 21.2891C23.0469 21.8275 22.6088 22.2656 22.0703 22.2656H2.92969C2.39121 22.2656 1.95312 21.8275 1.95312 21.2891V12.3961C3.19482 13.6646 4.9249 14.4531 6.83594 14.4531H9.73828C10.1414 15.5897 11.2269 16.4062 12.5 16.4062C13.7731 16.4062 14.8585 15.5897 15.2617 14.4531H18.1641C20.0751 14.4531 21.8052 13.6646 23.0469 12.3961V21.2891Z" fill="white"/>
</g>
<defs>
<clipPath id="clip0_791_4376">
<rect width="25" height="25" fill="white"/>
</clipPath>
</defs>
</svg>
