<svg width="20" height="20" viewBox="0 0 20 20" fill="none" xmlns="http://www.w3.org/2000/svg">
<g clip-path="url(#clip0_1238_8360)">
<path d="M19.6592 3.56119C20.4016 5.56121 19.9074 7.82751 18.4001 9.33477C17.8774 9.85741 17.2687 10.2601 16.6087 10.5312L15.3642 9.2866C16.0863 9.1306 16.7551 8.76982 17.2951 8.22979C18.1719 7.353 18.5687 6.11636 18.3993 4.91566L16.7427 6.57231C16.3055 7.0094 15.7244 7.25318 15.1063 7.25873C15.0991 7.25881 15.0919 7.25884 15.0847 7.25884C14.4754 7.25884 13.8992 7.02682 13.46 6.60408C13.0092 6.17019 12.7576 5.58192 12.7515 4.94774C12.7455 4.30918 12.9998 3.68512 13.4494 3.23549L15.0843 1.60064C14.9025 1.57497 14.72 1.56231 14.538 1.56231C13.5174 1.56231 12.5143 1.96068 11.7702 2.70484C10.9103 3.56459 10.5046 4.75068 10.6569 5.95896C10.7124 6.39866 10.6765 6.83395 10.5576 7.24259L9.0712 5.75616C8.98725 4.20522 9.55615 2.70878 10.6652 1.59982C12.1725 0.0925571 14.4387 -0.401724 16.4387 0.340713L16.5986 0.400096L17.5468 1.34822L14.5545 4.34051C14.3996 4.49533 14.3121 4.71122 14.3142 4.93285C14.3163 5.14405 14.3978 5.33775 14.5438 5.47827C14.8481 5.77112 15.3389 5.76624 15.6377 5.46737L18.6518 2.45328L19.5999 3.40137L19.6592 3.56119ZM0.7997 15.3327C-0.266567 16.399 -0.266567 18.1339 0.7997 19.2002C1.33285 19.7333 2.03313 19.9999 2.73346 19.9999C3.43378 19.9999 4.13406 19.7333 4.66717 19.2002L8.89501 14.9724L7.78999 13.8674L3.56219 18.0952C3.34084 18.3166 3.04654 18.4384 2.73346 18.4384C2.42037 18.4384 2.12608 18.3166 1.90472 18.0952C1.68333 17.8738 1.56144 17.5795 1.56144 17.2664C1.56144 16.9533 1.68333 16.659 1.90472 16.4377L7.51378 10.8286L6.4088 9.72365L0.7997 15.3327ZM19.2003 15.3327C20.2665 16.399 20.2665 18.1339 19.2003 19.2002C18.6671 19.7333 17.9668 19.9999 17.2665 19.9999C16.5662 19.9999 15.8659 19.7333 15.3328 19.2002L8.89501 12.7624L10.2762 11.3812L4.69925 5.80421L2.67626 6.11761L0.00772558 2.69738L2.69744 0.00766363L6.11771 2.6762L5.80431 4.69919L11.3813 10.2762L12.7625 8.89495L19.2003 15.3327ZM4.43293 3.34375L2.82546 2.0896L2.08967 2.8254L3.34385 4.43287L4.28685 4.28679L4.43293 3.34375ZM18.0953 16.4377L12.7625 11.1049L11.105 12.7624L16.4378 18.0952C16.8947 18.5522 17.6383 18.5522 18.0953 18.0952C18.5522 17.6382 18.5522 16.8947 18.0953 16.4377Z" fill="white"/>
</g>
<defs>
<clipPath id="clip0_1238_8360">
<rect width="20" height="20" fill="white"/>
</clipPath>
</defs>
</svg>
