<svg width="31" height="31" viewBox="0 0 31 31" fill="none" xmlns="http://www.w3.org/2000/svg">
<path d="M7.10409 14.207L2.58325 11.6237V6.45703L7.10409 3.8737L11.6249 6.45703V11.6237L7.10409 14.207ZM7.10409 11.2362L9.04159 10.1383V7.94245L7.10409 6.84453L5.16659 7.94245V10.1383L7.10409 11.2362ZM21.3124 15.2081V12.2049L25.8333 14.8529V23.8945L18.0833 28.4154L10.3333 23.8945V14.8529L14.8541 12.2049V15.2081L12.9166 16.3383V22.4091L18.0833 25.4122L23.2499 22.4091V16.3383L21.3124 15.2081ZM16.7916 18.082V2.58203H28.4166L25.8333 6.45703L28.4166 10.332H19.3749V18.082H16.7916Z" fill="white"/>
</svg>
