<svg width="25" height="25" viewBox="0 0 25 25" fill="none" xmlns="http://www.w3.org/2000/svg">
<g clip-path="url(#clip0_791_4457)">
<path d="M6.64065 7.81251H7.61721V8.15621C7.61721 8.69557 8.05442 9.13278 8.59378 9.13278C9.13313 9.13278 9.57034 8.69557 9.57034 8.15621V6.83595C9.57034 6.4172 9.30676 6.05997 8.93645 5.9212L12.5 2.35763L16.0636 5.9212C15.6933 6.06002 15.4297 6.4172 15.4297 6.83595V12.0625C15.4297 12.6018 15.8669 13.039 16.4063 13.039C16.9456 13.039 17.3828 12.6018 17.3828 12.0625V7.81251H18.3594C18.7544 7.81251 19.1105 7.57457 19.2616 7.20968C19.4128 6.84474 19.3293 6.42472 19.05 6.14542L13.1906 0.286047C12.8092 -0.0953491 12.1909 -0.0953491 11.8095 0.286047L5.95017 6.14542C5.67088 6.42472 5.58733 6.84474 5.7385 7.20968C5.88958 7.57457 6.24568 7.81251 6.64065 7.81251Z" fill="white"/>
<path d="M24.7736 19.8827L19.8908 14.0233C19.7053 13.8006 19.4304 13.6719 19.1406 13.6719C18.8508 13.6719 18.576 13.8006 18.3904 14.0233L13.5076 19.8827C13.265 20.1738 13.2127 20.5789 13.3734 20.9221C13.5342 21.2652 13.8789 21.4844 14.2578 21.4844H15.2344V23.0469H9.76562V17.5781H10.7422C11.1211 17.5781 11.4658 17.3589 11.6266 17.0158C11.7873 16.6726 11.735 16.2675 11.4924 15.9764L6.60957 10.117C6.42402 9.89434 6.14917 9.76562 5.85937 9.76562C5.56958 9.76562 5.29472 9.89434 5.10918 10.117L0.226366 15.9764C-0.0162125 16.2675 -0.0685074 16.6726 0.092186 17.0158C0.252928 17.3589 0.597655 17.5781 0.976561 17.5781H1.95312V24.0234C1.95312 24.5628 2.39033 25 2.92969 25H22.0703C22.6097 25 23.0469 24.5628 23.0469 24.0234V21.4844H24.0234C24.4023 21.4844 24.7471 21.2652 24.9078 20.922C25.0686 20.5789 25.0163 20.1737 24.7736 19.8827ZM3.05493 15.633L5.85937 12.2676L8.66382 15.633C8.18364 15.6944 7.8125 16.1046 7.8125 16.6016V23.0469H3.90625V16.6016C3.90625 16.1046 3.53515 15.6944 3.05493 15.633ZM21.0937 20.5078V23.0469H17.1875V20.5078C17.1875 20.0109 16.8164 19.6007 16.3362 19.5392L19.1406 16.1739L21.9451 19.5392C21.4649 19.6007 21.0937 20.0109 21.0937 20.5078Z" fill="white"/>
</g>
<defs>
<clipPath id="clip0_791_4457">
<rect width="25" height="25" fill="white"/>
</clipPath>
</defs>
</svg>
