<svg width="343" height="321" viewBox="0 0 343 321" fill="none" xmlns="http://www.w3.org/2000/svg">
<mask id="path-1-inside-1_516_44" fill="white">
<path d="M291 0C319.719 9.26825e-06 343 23.2814 343 52V269C343 297.719 319.719 321 291 321H52C23.2812 321 0 297.719 0 269V52C0.00018626 23.2814 23.2813 0 52 0H122.5C131.613 0 139 7.3873 139 16.5C139 25.6127 146.387 33 155.5 33H187.5C196.613 33 204 25.6127 204 16.5C204 7.3873 211.387 0 220.5 0H291ZM340.904 272.103C340.908 272.039 340.911 271.976 340.915 271.912C340.911 271.976 340.908 272.039 340.904 272.103ZM340.944 271.348C340.95 271.235 340.955 271.122 340.959 271.01C340.955 271.122 340.95 271.235 340.944 271.348ZM340.97 270.692C340.974 270.576 340.978 270.459 340.981 270.342C340.978 270.459 340.974 270.576 340.97 270.692ZM341 52L340.996 51.3594C340.995 51.276 340.992 51.1927 340.99 51.1094C340.996 51.4056 341 51.7025 341 52ZM340.984 50.8057C340.978 50.5333 340.969 50.2615 340.958 49.9902C340.969 50.2615 340.978 50.5333 340.984 50.8057ZM340.951 49.833C340.942 49.6135 340.93 49.3945 340.918 49.1758C340.93 49.3945 340.942 49.6135 340.951 49.833ZM340.895 48.7744C340.875 48.4693 340.854 48.1649 340.829 47.8613C340.854 48.1649 340.875 48.4693 340.895 48.7744ZM340.515 45.0078L340.433 44.4443C340.432 44.4371 340.43 44.43 340.429 44.4229C340.458 44.6175 340.487 44.8124 340.515 45.0078ZM291.646 2.00488C291.845 2.0074 292.044 2.01079 292.242 2.01562C292.044 2.01079 291.845 2.00643 291.646 2.00391L291 2L291.646 2.00488Z"/>
</mask>
<path d="M291 0C319.719 9.26825e-06 343 23.2814 343 52V269C343 297.719 319.719 321 291 321H52C23.2812 321 0 297.719 0 269V52C0.00018626 23.2814 23.2813 0 52 0H122.5C131.613 0 139 7.3873 139 16.5C139 25.6127 146.387 33 155.5 33H187.5C196.613 33 204 25.6127 204 16.5C204 7.3873 211.387 0 220.5 0H291ZM340.904 272.103C340.908 272.039 340.911 271.976 340.915 271.912C340.911 271.976 340.908 272.039 340.904 272.103ZM340.944 271.348C340.95 271.235 340.955 271.122 340.959 271.01C340.955 271.122 340.95 271.235 340.944 271.348ZM340.97 270.692C340.974 270.576 340.978 270.459 340.981 270.342C340.978 270.459 340.974 270.576 340.97 270.692ZM341 52L340.996 51.3594C340.995 51.276 340.992 51.1927 340.99 51.1094C340.996 51.4056 341 51.7025 341 52ZM340.984 50.8057C340.978 50.5333 340.969 50.2615 340.958 49.9902C340.969 50.2615 340.978 50.5333 340.984 50.8057ZM340.951 49.833C340.942 49.6135 340.93 49.3945 340.918 49.1758C340.93 49.3945 340.942 49.6135 340.951 49.833ZM340.895 48.7744C340.875 48.4693 340.854 48.1649 340.829 47.8613C340.854 48.1649 340.875 48.4693 340.895 48.7744ZM340.515 45.0078L340.433 44.4443C340.432 44.4371 340.43 44.43 340.429 44.4229C340.458 44.6175 340.487 44.8124 340.515 45.0078ZM291.646 2.00488C291.845 2.0074 292.044 2.01079 292.242 2.01562C292.044 2.01079 291.845 2.00643 291.646 2.00391L291 2L291.646 2.00488Z" fill="#070707"/>
<path d="M291 0C319.719 9.26825e-06 343 23.2814 343 52V269C343 297.719 319.719 321 291 321H52C23.2812 321 0 297.719 0 269V52C0.00018626 23.2814 23.2813 0 52 0H122.5C131.613 0 139 7.3873 139 16.5C139 25.6127 146.387 33 155.5 33H187.5C196.613 33 204 25.6127 204 16.5C204 7.3873 211.387 0 220.5 0H291ZM340.904 272.103C340.908 272.039 340.911 271.976 340.915 271.912C340.911 271.976 340.908 272.039 340.904 272.103ZM340.944 271.348C340.95 271.235 340.955 271.122 340.959 271.01C340.955 271.122 340.95 271.235 340.944 271.348ZM340.97 270.692C340.974 270.576 340.978 270.459 340.981 270.342C340.978 270.459 340.974 270.576 340.97 270.692ZM341 52L340.996 51.3594C340.995 51.276 340.992 51.1927 340.99 51.1094C340.996 51.4056 341 51.7025 341 52ZM340.984 50.8057C340.978 50.5333 340.969 50.2615 340.958 49.9902C340.969 50.2615 340.978 50.5333 340.984 50.8057ZM340.951 49.833C340.942 49.6135 340.93 49.3945 340.918 49.1758C340.93 49.3945 340.942 49.6135 340.951 49.833ZM340.895 48.7744C340.875 48.4693 340.854 48.1649 340.829 47.8613C340.854 48.1649 340.875 48.4693 340.895 48.7744ZM340.515 45.0078L340.433 44.4443C340.432 44.4371 340.43 44.43 340.429 44.4229C340.458 44.6175 340.487 44.8124 340.515 45.0078ZM291.646 2.00488C291.845 2.0074 292.044 2.01079 292.242 2.01562C292.044 2.01079 291.845 2.00643 291.646 2.00391L291 2L291.646 2.00488Z" fill="url(#paint0_linear_516_44)"/>
<path d="M291 0L291 -1H291V0ZM343 52L344 52L344 52L343 52ZM291 321L291 322H291L291 321ZM52 321L52 322H52V321ZM0 52L-1 52V52H0ZM340.904 272.103L339.906 272.042L341.902 272.164L340.904 272.103ZM340.915 271.912L341.913 271.969L339.917 271.855L340.915 271.912ZM340.944 271.348L339.945 271.302L341.943 271.394L340.944 271.348ZM340.959 271.01L341.958 271.049L339.96 270.97L340.959 271.01ZM340.97 270.692L339.97 270.659L341.969 270.726L340.97 270.692ZM340.981 270.342L341.981 270.368L339.982 270.315L340.981 270.342ZM341 52L340 52.0061L342 52L341 52ZM340.996 51.3594L341.996 51.3533L341.996 51.3468L340.996 51.3594ZM340.99 51.1094L341.99 51.0914L339.99 51.1271L340.99 51.1094ZM340.984 50.8057L339.985 50.8297L341.984 50.7817L340.984 50.8057ZM340.958 49.9902L341.957 49.9499L339.959 50.0305L340.958 49.9902ZM340.951 49.833L339.952 49.8765L341.95 49.7897L340.951 49.833ZM340.918 49.1758L341.916 49.1193L339.92 49.232L340.918 49.1758ZM340.895 48.7744L339.897 48.8387L341.892 48.7104L340.895 48.7744ZM340.515 45.0078L339.525 45.1519L341.505 44.8692L340.515 45.0078ZM340.433 44.4443L341.422 44.3003L341.421 44.2945L340.433 44.4443ZM291.646 2.00488L291.659 1.00495L291.654 1.00491L291.646 2.00488ZM291.646 2.00391L291.659 1.00396L291.653 1.00392L291.646 2.00391ZM291 2L291.006 1.00002L290.992 2.99997L291 2ZM291 0L291 1C319.166 1.00001 342 23.8336 342 52L343 52L344 52C344 22.7291 320.271 -0.999991 291 -1L291 0ZM343 52H342V269H343H344V52H343ZM343 269H342C342 297.167 319.167 320 291 320L291 321L291 322C320.271 322 344 298.271 344 269H343ZM291 321V320H52V321V322H291V321ZM52 321L52 320C23.8335 320 1 297.167 1 269H0H-1C-1 298.271 22.7289 322 52 322L52 321ZM0 269H1V52H0H-1V269H0ZM0 52L1 52C1.00018 23.8336 23.8336 1 52 1V0V-1C22.729 -1 -0.99981 22.7291 -1 52L0 52ZM52 0V1H122.5V0V-1H52V0ZM155.5 33V34H187.5V33V32H155.5V33ZM220.5 0V1H291V0V-1H220.5V0ZM340.904 272.103L341.902 272.164C341.906 272.1 341.91 272.021 341.913 271.969L340.915 271.912L339.917 271.855C339.912 271.93 339.91 271.978 339.906 272.041L340.904 272.103ZM340.915 271.912L339.917 271.855C339.912 271.929 339.91 271.979 339.906 272.042L340.904 272.103L341.902 272.163C341.906 272.099 341.91 272.023 341.913 271.969L340.915 271.912ZM340.944 271.348L341.943 271.394C341.949 271.28 341.954 271.165 341.958 271.049L340.959 271.01L339.96 270.97C339.955 271.08 339.951 271.19 339.945 271.301L340.944 271.348ZM340.959 271.01L339.96 270.97C339.955 271.08 339.951 271.19 339.945 271.302L340.944 271.348L341.943 271.394C341.948 271.28 341.954 271.165 341.958 271.049L340.959 271.01ZM340.97 270.692L341.969 270.726C341.973 270.619 341.978 270.489 341.981 270.368L340.981 270.342L339.982 270.315C339.979 270.428 339.975 270.532 339.97 270.659L340.97 270.692ZM340.981 270.342L339.982 270.315C339.979 270.429 339.975 270.531 339.97 270.659L340.97 270.692L341.969 270.726C341.973 270.62 341.978 270.489 341.981 270.368L340.981 270.342ZM341 52L342 51.9939L341.996 51.3533L340.996 51.3594L339.996 51.3655L340 52.0061L341 52ZM340.996 51.3594L341.996 51.3468C341.995 51.2852 341.991 51.12 341.99 51.0917L340.99 51.1094L339.99 51.1271C339.993 51.2653 339.995 51.2668 339.996 51.3719L340.996 51.3594ZM340.99 51.1094L339.99 51.1273C339.996 51.4222 340 51.7118 340 52L341 52L342 52C342 51.6932 341.995 51.389 341.99 51.0914L340.99 51.1094ZM340.984 50.8057L341.984 50.7817C341.977 50.5035 341.968 50.2263 341.957 49.9499L340.958 49.9902L339.959 50.0306C339.97 50.2967 339.978 50.563 339.985 50.8296L340.984 50.8057ZM340.958 49.9902L339.959 50.0305C339.97 50.2967 339.978 50.5631 339.985 50.8297L340.984 50.8057L341.984 50.7816C341.977 50.5035 341.968 50.2263 341.957 49.95L340.958 49.9902ZM340.951 49.833L341.95 49.7895C341.94 49.5648 341.929 49.3414 341.916 49.1193L340.918 49.1758L339.92 49.2323C339.932 49.4476 339.943 49.6623 339.952 49.8765L340.951 49.833ZM340.918 49.1758L339.92 49.232C339.932 49.4479 339.943 49.6624 339.952 49.8764L340.951 49.833L341.95 49.7897C341.94 49.5647 341.929 49.3411 341.916 49.1195L340.918 49.1758ZM340.895 48.7744L341.892 48.7101C341.873 48.4026 341.851 48.0916 341.826 47.7797L340.829 47.8613L339.832 47.943C339.857 48.2382 339.877 48.536 339.897 48.8387L340.895 48.7744ZM340.829 47.8613L339.832 47.943C339.857 48.2383 339.877 48.5362 339.897 48.8385L340.895 48.7744L341.892 48.7104C341.873 48.4025 341.851 48.0916 341.826 47.7797L340.829 47.8613ZM340.515 45.0078L341.504 44.8638L341.422 44.3003L340.433 44.4443L339.443 44.5884L339.525 45.1519L340.515 45.0078ZM340.433 44.4443L341.421 44.2945C341.419 44.2785 341.417 44.2653 341.415 44.2566C341.414 44.2522 341.413 44.2484 341.413 44.2458C341.412 44.2433 341.412 44.2411 341.412 44.2404C341.412 44.2392 341.412 44.2397 341.412 44.2403C341.412 44.2411 341.412 44.2431 341.413 44.2457C341.414 44.2507 341.415 44.2602 341.417 44.2725L340.429 44.4229L339.44 44.5732C339.442 44.5891 339.445 44.6022 339.446 44.6108C339.447 44.6152 339.448 44.6189 339.448 44.6215C339.449 44.6239 339.449 44.6262 339.45 44.6268C339.45 44.6279 339.45 44.6274 339.449 44.6268C339.449 44.6259 339.449 44.624 339.448 44.6213C339.448 44.6162 339.446 44.6066 339.444 44.5942L340.433 44.4443ZM340.429 44.4229L339.44 44.5732C339.469 44.7659 339.498 44.9565 339.524 45.1464L340.515 45.0078L341.505 44.8692C341.477 44.6683 341.447 44.4691 341.417 44.2725L340.429 44.4229ZM291.646 2.00488L291.634 3.0048C291.83 3.00729 292.024 3.01061 292.218 3.01533L292.242 2.01562L292.267 1.01592C292.063 1.01097 291.861 1.00752 291.659 1.00496L291.646 2.00488ZM292.242 2.01562L292.267 1.01592C292.067 1.01106 291.864 1.00658 291.659 1.00399L291.646 2.00391L291.634 3.00383C291.827 3.00627 292.021 3.01052 292.218 3.01533L292.242 2.01562ZM291.646 2.00391L291.653 1.00392L291.006 1.00002L291 2L290.994 2.99998L291.64 3.00389L291.646 2.00391ZM291 2L290.992 2.99997L291.639 3.00485L291.646 2.00488L291.654 1.00491L291.008 1.00003L291 2ZM204 16.5H205C205 7.93959 211.94 1 220.5 1V0V-1C210.835 -1 203 6.83502 203 16.5H204ZM187.5 33V34C197.165 34 205 26.165 205 16.5H204H203C203 25.0604 196.06 32 187.5 32V33ZM139 16.5H138C138 26.165 145.835 34 155.5 34V33V32C146.94 32 140 25.0604 140 16.5H139ZM122.5 0V1C131.06 1 138 7.93959 138 16.5H139H140C140 6.83502 132.165 -1 122.5 -1V0Z" fill="white" fill-opacity="0.8" mask="url(#path-1-inside-1_516_44)"/>
<defs>
<linearGradient id="paint0_linear_516_44" x1="1.58011e-05" y1="10.4108" x2="331.107" y2="726.179" gradientUnits="userSpaceOnUse">
<stop stop-color="#070707"/>
<stop offset="0.491093" stop-color="#212121"/>
<stop offset="1" stop-color="#070707"/>
</linearGradient>
</defs>
</svg>
