<svg width="24" height="24" viewBox="0 0 24 24" fill="none" xmlns="http://www.w3.org/2000/svg">
<path d="M8.33306 3.25757H15.5435C18.2903 3.25757 20.5221 5.48937 20.5221 8.23619V15.4466C20.5221 16.767 19.9976 18.0334 19.0639 18.967C18.1302 19.9007 16.8639 20.4252 15.5435 20.4252H8.33306C5.58623 20.4252 3.35443 18.1934 3.35443 15.4466V8.23619C3.35443 6.91578 3.87896 5.64945 4.81264 4.71577C5.74631 3.7821 7.01264 3.25757 8.33306 3.25757ZM8.16138 4.97434C7.34181 4.97434 6.55581 5.29991 5.97629 5.87943C5.39677 6.45895 5.0712 7.24495 5.0712 8.06452V15.6183C5.0712 17.3265 6.4532 18.7085 8.16138 18.7085H15.7152C16.5347 18.7085 17.3207 18.3829 17.9002 17.8034C18.4798 17.2239 18.8053 16.4379 18.8053 15.6183V8.06452C18.8053 6.35633 17.4233 4.97434 15.7152 4.97434H8.16138ZM16.4448 6.26191C16.7294 6.26191 17.0023 6.37496 17.2035 6.57618C17.4047 6.7774 17.5178 7.05032 17.5178 7.33489C17.5178 7.61946 17.4047 7.89238 17.2035 8.0936C17.0023 8.29483 16.7294 8.40787 16.4448 8.40787C16.1602 8.40787 15.8873 8.29483 15.6861 8.0936C15.4848 7.89238 15.3718 7.61946 15.3718 7.33489C15.3718 7.05032 15.4848 6.7774 15.6861 6.57618C15.8873 6.37496 16.1602 6.26191 16.4448 6.26191ZM11.9383 7.54949C13.0766 7.54949 14.1682 8.00167 14.9731 8.80656C15.778 9.61145 16.2302 10.7031 16.2302 11.8414C16.2302 12.9797 15.778 14.0714 14.9731 14.8763C14.1682 15.6811 13.0766 16.1333 11.9383 16.1333C10.8 16.1333 9.70831 15.6811 8.90342 14.8763C8.09853 14.0714 7.64635 12.9797 7.64635 11.8414C7.64635 10.7031 8.09853 9.61145 8.90342 8.80656C9.70831 8.00167 10.8 7.54949 11.9383 7.54949ZM11.9383 9.26625C11.2553 9.26625 10.6003 9.53756 10.1174 10.0205C9.63443 10.5034 9.36312 11.1584 9.36312 11.8414C9.36312 12.5244 9.63443 13.1794 10.1174 13.6623C10.6003 14.1452 11.2553 14.4166 11.9383 14.4166C12.6212 14.4166 13.2762 14.1452 13.7592 13.6623C14.2421 13.1794 14.5134 12.5244 14.5134 11.8414C14.5134 11.1584 14.2421 10.5034 13.7592 10.0205C13.2762 9.53756 12.6212 9.26625 11.9383 9.26625Z" fill="#312749"/>
</svg>
