<svg width="24" height="24" viewBox="0 0 24 24" fill="none" xmlns="http://www.w3.org/2000/svg">
<path d="M7.64544 5.74621C7.64521 6.20809 7.46345 6.65097 7.14015 6.97741C6.81684 7.30386 6.37847 7.48712 5.92147 7.48689C5.46447 7.48666 5.02628 7.30295 4.7033 6.97618C4.38031 6.64942 4.19899 6.20635 4.19922 5.74447C4.19945 5.28258 4.38121 4.8397 4.70452 4.51326C5.02782 4.18682 5.46619 4.00355 5.92319 4.00378C6.38019 4.00402 6.81838 4.18772 7.14136 4.51449C7.46435 4.84126 7.64567 5.28432 7.64544 5.74621ZM7.69714 8.77651H4.25091V19.6786H7.69714V8.77651ZM13.1422 8.77651H9.71318V19.6786H13.1077V13.9576C13.1077 10.7706 17.2173 10.4745 17.2173 13.9576V19.6786H20.6205V12.7734C20.6205 7.40068 14.5379 7.60096 13.1077 10.2394L13.1422 8.77651Z" fill="#312749"/>
</svg>
